<?xml version="1.0" encoding="utf-8"?>
<!-- Generator: Adobe Illustrator 16.0.0, SVG Export Plug-In . SVG Version: 6.00 Build 0)  -->
<!DOCTYPE svg PUBLIC "-//W3C//DTD SVG 1.1//EN" "http://www.w3.org/Graphics/SVG/1.1/DTD/svg11.dtd">
<svg version="1.1" xmlns="http://www.w3.org/2000/svg" xmlns:xlink="http://www.w3.org/1999/xlink" x="0px" y="0px" width="202px"
	 height="94px" viewBox="0 0 202 94" enable-background="new 0 0 202 94" xml:space="preserve">
<g id="BG">
</g>
<g id="objects">
	<g>
		<g>
			
				<path fill-rule="evenodd" clip-rule="evenodd" fill="none" stroke="#000000" stroke-width="4.5" stroke-linecap="round" stroke-linejoin="round" stroke-miterlimit="3" stroke-opacity="0.2745" d="
				M18.4,16.1c5.47-0.93,8.92-0.13,10.35,2.4c2,7.63,2.75,17.08,2.25,28.35c-0.2,15.4,4.05,25.22,12.75,29.45
				c5.37,4.07,23.95,7.8,55.75,11.2c31.8,3.43,55.38,1.75,70.75-5.05c10.94-5.51,18.79-10.71,23.55-15.6"/>
		</g>
		<g>
			
				<path fill-rule="evenodd" clip-rule="evenodd" fill="none" stroke="#000000" stroke-width="4.5" stroke-linecap="round" stroke-linejoin="round" stroke-miterlimit="3" d="
				M24.85,5.4C35.05,3.13,41.4,20.08,43.9,56.25c-1.03,15.47,18.22,24.42,57.75,26.85c39.4,2.4,62.37-4.02,68.9-19.25
				c6.57-11.53,14.58-11.68,24.05-0.45 M8.35,7.6c5.03,3.47,10.37,2.83,16-1.9"/>
		</g>
	</g>
</g>
</svg>
