<?xml version="1.0" encoding="utf-8"?>
<!-- Generator: Adobe Illustrator 16.0.0, SVG Export Plug-In . SVG Version: 6.00 Build 0)  -->
<!DOCTYPE svg PUBLIC "-//W3C//DTD SVG 1.1//EN" "http://www.w3.org/Graphics/SVG/1.1/DTD/svg11.dtd">
<svg version="1.1" xmlns="http://www.w3.org/2000/svg" xmlns:xlink="http://www.w3.org/1999/xlink" x="0px" y="0px"
	 width="189.67px" height="181.67px" viewBox="0 0 189.67 181.67" enable-background="new 0 0 189.67 181.67" xml:space="preserve">
<g id="BG">
</g>
<g id="objects">
	<g>
		<g>
			
				<path fill-rule="evenodd" clip-rule="evenodd" fill="none" stroke="#000000" stroke-width="4.5" stroke-linecap="round" stroke-linejoin="round" stroke-miterlimit="3" stroke-opacity="0.2745" d="
				M18.42,174.55c10.77-17,25.25-28.08,43.45-33.25c18.27-5.17,34.42-8.62,48.45-10.35c14-1.73,28.55-3.53,43.65-5.4
				c15.07-1.87,23.42-4.8,25.05-8.8c1.57-4,1.22-6.63-1.05-7.9c-2.23-1.33-4.77-3.22-7.6-5.65c-2.83-2.43-1.63-7.58,3.6-15.45
				c5.17-7.93,8.13-18.37,8.9-31.3c0.73-12.93-0.03-22.23-2.3-27.9c-2.37-5.7-4.35-9.43-5.95-11.2c-1.6-1.77-2.03-3.02-1.3-3.75"/>
		</g>
		<g>
			<linearGradient id="SVGID_1_" gradientUnits="userSpaceOnUse" x1="19.2153" y1="176.8125" x2="19.1931" y2="171.5625">
				<stop  offset="0" style="stop-color:#20110C"/>
				<stop  offset="0.2039" style="stop-color:#C37851"/>
				<stop  offset="0.7137" style="stop-color:#401C10"/>
				<stop  offset="1" style="stop-color:#4B2815"/>
			</linearGradient>
			<path fill-rule="evenodd" clip-rule="evenodd" fill="url(#SVGID_1_)" d="M18.29,172.25c-0.07-0.12-0.09-0.24-0.05-0.38
				c0.03-0.13,0.11-0.23,0.22-0.3c0.12-0.07,0.24-0.09,0.38-0.05c0.13,0.03,0.23,0.11,0.3,0.22c1.27,2.16,1.37,4.27,0.32,6.33
				c-0.07,0.12-0.17,0.21-0.3,0.25c-0.13,0.04-0.25,0.04-0.38-0.03c-0.12-0.07-0.21-0.17-0.25-0.3c-0.04-0.13-0.04-0.25,0.02-0.38
				C19.45,175.88,19.36,174.09,18.29,172.25z"/>
			<linearGradient id="SVGID_2_" gradientUnits="userSpaceOnUse" x1="11.6357" y1="176.8311" x2="11.6136" y2="171.581">
				<stop  offset="0" style="stop-color:#20110C"/>
				<stop  offset="0.2039" style="stop-color:#C37851"/>
				<stop  offset="0.7137" style="stop-color:#401C10"/>
				<stop  offset="1" style="stop-color:#4B2815"/>
			</linearGradient>
			<path fill-rule="evenodd" clip-rule="evenodd" fill="url(#SVGID_2_)" d="M15.09,172.25c-0.07-0.12-0.09-0.24-0.05-0.38
				c0.03-0.13,0.11-0.23,0.23-0.3c0.12-0.07,0.24-0.09,0.38-0.05c0.13,0.03,0.23,0.11,0.3,0.22c1.27,2.16,1.37,4.27,0.33,6.33
				c-0.07,0.12-0.17,0.21-0.3,0.25c-0.13,0.04-0.25,0.04-0.38-0.03c-0.12-0.07-0.21-0.17-0.25-0.3c-0.04-0.13-0.04-0.25,0.03-0.38
				C16.25,175.88,16.16,174.09,15.09,172.25z M8.94,172.25c-0.07-0.12-0.09-0.24-0.05-0.38c0.03-0.13,0.11-0.23,0.23-0.3
				c0.12-0.07,0.24-0.09,0.38-0.05c0.13,0.03,0.23,0.11,0.3,0.22c1.27,2.16,1.36,4.27,0.27,6.33c-0.07,0.12-0.17,0.21-0.3,0.25
				c-0.13,0.04-0.25,0.04-0.38-0.03c-0.12-0.07-0.21-0.17-0.25-0.3c-0.04-0.13-0.04-0.25,0.02-0.38
				C10.08,175.88,10.01,174.09,8.94,172.25z M11.99,172.25c-0.07-0.12-0.09-0.24-0.05-0.38c0.03-0.13,0.11-0.23,0.23-0.3
				c0.12-0.07,0.24-0.09,0.38-0.05c0.13,0.03,0.23,0.11,0.3,0.22c1.27,2.16,1.37,4.27,0.33,6.33c-0.07,0.12-0.17,0.21-0.3,0.25
				c-0.13,0.04-0.25,0.04-0.38-0.03c-0.12-0.07-0.21-0.17-0.25-0.3c-0.04-0.13-0.04-0.25,0.02-0.38
				C13.15,175.88,13.06,174.09,11.99,172.25z M7.12,171.85c0.03,0.03,0.06,0.06,0.07,0.1c1.14,2.84,1.23,5,0.25,6.47
				c-0.08,0.12-0.19,0.19-0.32,0.23c-0.13,0.03-0.26,0-0.38-0.08c-0.12-0.08-0.19-0.19-0.23-0.33c-0.03-0.13,0-0.26,0.07-0.38
				c0.75-1.24,0.64-3.05-0.32-5.42c0.04,0.02,0.07,0.05,0.1,0.08c0.11,0.09,0.23,0.13,0.38,0.13c0.14,0,0.25-0.05,0.35-0.15
				c0.09-0.11,0.13-0.23,0.13-0.38C7.21,172.02,7.18,171.93,7.12,171.85z"/>
			<path fill-rule="evenodd" clip-rule="evenodd" fill="#20110C" d="M7.12,171.85c0.06,0.08,0.1,0.17,0.1,0.28
				c0.01,0.14-0.03,0.27-0.13,0.38c-0.09,0.1-0.21,0.15-0.35,0.15c-0.14,0.01-0.27-0.03-0.38-0.13c-0.03-0.03-0.06-0.05-0.1-0.08
				c-1.5-1.45-2.35-3.74-2.55-6.88c-0.01-0.13,0.03-0.25,0.13-0.35c0.09-0.11,0.21-0.16,0.35-0.17c0.13-0.01,0.25,0.03,0.35,0.13
				c0.11,0.09,0.16,0.21,0.17,0.35c0.19,2.87,0.98,4.95,2.35,6.25C7.09,171.8,7.11,171.82,7.12,171.85z"/>
		</g>
		<g>
			
				<path fill-rule="evenodd" clip-rule="evenodd" fill="none" stroke="#000000" stroke-width="4.5" stroke-linecap="round" stroke-linejoin="round" stroke-miterlimit="3" d="
				M4.57,163.65c0.3-6.4,1.18-11.37,2.65-14.9c2.07-4.97,4.17-2.62,6.3,7.05c1.07,5.57,4.17,7.77,9.3,6.6
				c5.13-1.13,9.55-6.7,13.25-16.7c3.73-10.03,14.43-15.18,32.1-15.45c17.63-0.3,30.87-1.12,39.7-2.45
				c7.37-1.07,20.18-2.77,38.45-5.1c3.63-0.5,7.47-1.02,11.5-1.55c14.33-1.87,20.83-4.9,19.5-9.1c-1.37-4.23-4.15-7.08-8.35-8.55
				s-5.58-7.45-4.15-17.95c1.37-10.57,3.42-21.5,6.15-32.8c2.73-11.33,3.02-19.47,0.85-24.4c-2.13-5-3.2-8.65-3.2-10.95
				c0-0.93,0.6-2.62,1.8-5.05c0.4-0.73,0.18-3.32-0.65-7.75c6.4,3.57,11.43,3.53,15.1-0.1"/>
		</g>
		<g>
			<path fill-rule="evenodd" clip-rule="evenodd" fill="none" d="M169.22,24.15c4,6.37,4.97,13.6,2.9,21.7"/>
			<path fill-rule="evenodd" clip-rule="evenodd" fill="none" d="M169.77,5.1c6.07,2.83,11.45,2.55,16.15-0.85"/>
			<path fill-rule="evenodd" clip-rule="evenodd" fill="none" d="M170.37,104.75c5.33,3.03,7.28,6.73,5.85,11.1"/>
			<path fill-rule="evenodd" clip-rule="evenodd" fill="none" d="M171.82,47.3c-8.43,35.7-9.7,54.45-3.8,56.25"/>
			<path fill-rule="evenodd" clip-rule="evenodd" fill="none" d="M8.02,146.65c-2.53,6.73-3.7,13.37-3.5,19.9"/>
			<path fill-rule="evenodd" clip-rule="evenodd" fill="none" d="M14.47,160.4c4.1,3.33,8.88,2.95,14.35-1.15"/>
			<path fill-rule="evenodd" clip-rule="evenodd" fill="none" d="M34.42,147.25c5.5-12.03,15.07-17.42,28.7-16.15"/>
			<path fill-rule="evenodd" clip-rule="evenodd" fill="none" d="M67.52,129.95c42.77-1.67,78.32-5.97,106.65-12.9"/>
		</g>
	</g>
</g>
</svg>
