<?xml version="1.0" encoding="utf-8"?>
<!-- Generator: Adobe Illustrator 16.0.0, SVG Export Plug-In . SVG Version: 6.00 Build 0)  -->
<!DOCTYPE svg PUBLIC "-//W3C//DTD SVG 1.1//EN" "http://www.w3.org/Graphics/SVG/1.1/DTD/svg11.dtd">
<svg version="1.1" id="Layer_1" xmlns="http://www.w3.org/2000/svg" xmlns:xlink="http://www.w3.org/1999/xlink" x="0px" y="0px"
	 width="190px" height="402px" viewBox="0 0 190 402" enable-background="new 0 0 190 402" xml:space="preserve">
<g>
	<g>
		
			<path fill-rule="evenodd" clip-rule="evenodd" fill="none" stroke="#000000" stroke-width="4.5" stroke-linecap="round" stroke-linejoin="round" stroke-miterlimit="3" stroke-opacity="0.2745" d="
			M23.2,392.35c6.37,0.5,12.3,0.82,17.8,0.95c52.47,1.43,67.98-12.63,46.55-42.2c-12.63-14.6-12.63-25.6,0-33
			c13.53-10.9,27.17-34.32,40.9-70.25c17.4-45.63,27.95-77.35,31.65-95.15c3.73-17.8,5.02-29.05,3.85-33.75
			c-1.2-4.67-5.7-10.13-13.5-16.4c-7.87-6.3-9.57-10.87-5.1-13.7c4.4-2.87,6.63-4.95,6.7-6.25c5.9-4.27,8.78-9.58,8.65-15.95
			c-0.23-8.1-0.22-15.37,0.05-21.8c0.27-6.4,0.6-11.72,1-15.95c0.37-4.2,1.02-6.88,1.95-8.05c0.9-1.17,3.75-3.08,8.55-5.75
			 M15.6,299.15c4.57-0.8,6.65,0.55,6.25,4.05c1.33,0.33,2.53,0.4,3.6,0.2"/>
	</g>
	<g>
		
			<path fill-rule="evenodd" clip-rule="evenodd" fill="none" stroke="#000000" stroke-width="4.5" stroke-linecap="round" stroke-linejoin="round" stroke-miterlimit="3" d="
			M5.15,281.25c0.03-7.37,0.93-12.25,2.7-14.65c1.67-2.37,4.9-1.42,9.7,2.85c17.5,15.03,24.62,45.87,21.35,92.5
			c-3.17,26.17,8.53,35.67,35.1,28.5c20.9-7.07,24.58-19.15,11.05-36.25c-13.67-17.03-12.63-32.45,3.1-46.25
			c23.47-24.47,46.98-84.05,70.55-178.75c1.47-13.2-3.23-22.37-14.1-27.5c-10.03-6-10.03-10.58,0-13.75c4.6-1.53,7.23-8.13,7.9-19.8
			c-2.37-22.23,2.62-42.77,14.95-61.6c5.37,2.77,10.18,2.75,14.45-0.05"/>
	</g>
	<g>
		
			<radialGradient id="SVGID_1_" cx="175.0996" cy="8.8999" r="6.6625" gradientTransform="matrix(1 0 0 0.1595 0 7.4806)" gradientUnits="userSpaceOnUse">
			<stop  offset="0" style="stop-color:#FFFFFF"/>
			<stop  offset="1" style="stop-color:#F6F6F6;stop-opacity:0"/>
		</radialGradient>
		<path fill-rule="evenodd" clip-rule="evenodd" fill="url(#SVGID_1_)" d="M181.63,6.08C181.74,6,181.87,5.97,182,6
			c0.14,0.03,0.25,0.11,0.33,0.23c0.08,0.12,0.1,0.24,0.08,0.38c-0.03,0.14-0.11,0.25-0.23,0.32c-4.14,2.7-8.73,2.91-13.77,0.63
			c-0.13-0.06-0.22-0.15-0.28-0.27c-0.04-0.13-0.04-0.25,0.03-0.38c0.06-0.13,0.15-0.22,0.27-0.27c0.13-0.04,0.25-0.04,0.38,0.02
			C173.49,8.77,177.77,8.58,181.63,6.08z"/>
		
			<radialGradient id="SVGID_2_" cx="159.1934" cy="38.1553" r="7.2506" gradientTransform="matrix(1 0 0 4.1308 0 -119.4569)" gradientUnits="userSpaceOnUse">
			<stop  offset="0" style="stop-color:#FFFFFF"/>
			<stop  offset="1" style="stop-color:#F6F6F6;stop-opacity:0"/>
		</radialGradient>
		<path fill-rule="evenodd" clip-rule="evenodd" fill="url(#SVGID_2_)" d="M166.03,7.88c0.08-0.11,0.19-0.18,0.32-0.2
			c0.13-0.04,0.26-0.02,0.38,0.05c0.12,0.08,0.19,0.19,0.23,0.32c0.03,0.13,0,0.26-0.08,0.38C155.34,26.69,150.71,46.58,153,68.1
			c0.02,0.14-0.02,0.26-0.1,0.38c-0.09,0.1-0.21,0.16-0.35,0.17c-0.14,0.02-0.26-0.02-0.38-0.1c-0.1-0.09-0.16-0.21-0.17-0.35
			C149.69,46.45,154.36,26.34,166.03,7.88z"/>
		
			<radialGradient id="SVGID_3_" cx="146.0498" cy="93.5249" r="9.0099" gradientTransform="matrix(1 0 0 1.8708 0 -81.4446)" gradientUnits="userSpaceOnUse">
			<stop  offset="0" style="stop-color:#FFFFFF"/>
			<stop  offset="1" style="stop-color:#F6F6F6;stop-opacity:0"/>
		</radialGradient>
		<path fill-rule="evenodd" clip-rule="evenodd" fill="url(#SVGID_3_)" d="M136.58,93.77c-0.07-2.52,2.56-4.62,7.88-6.3
			c3.15-1.12,5.34-4.75,6.55-10.88c0.03-0.14,0.11-0.25,0.22-0.33c0.12-0.08,0.24-0.1,0.38-0.07c0.14,0.03,0.25,0.11,0.33,0.22
			c0.08,0.12,0.1,0.24,0.08,0.38c-1.32,6.6-3.74,10.48-7.25,11.63c-4.72,1.49-7.11,3.28-7.17,5.35c0.05,2.13,2.48,4.63,7.27,7.5
			l-0.02-0.02c4.69,2.21,8.26,5.15,10.7,8.83c0.08,0.12,0.1,0.24,0.07,0.38c-0.03,0.14-0.11,0.25-0.22,0.32
			c-0.12,0.08-0.24,0.1-0.38,0.08c-0.14-0.03-0.25-0.11-0.33-0.23c-2.36-3.53-5.79-6.35-10.3-8.48l-0.03-0.02
			C139.11,99,136.52,96.22,136.58,93.77z"/>
		
			<radialGradient id="SVGID_4_" cx="131.1299" cy="182" r="27.8355" gradientTransform="matrix(1 0 0 3.7831 0 -506.5272)" gradientUnits="userSpaceOnUse">
			<stop  offset="0" style="stop-color:#FFFFFF"/>
			<stop  offset="1" style="stop-color:#F6F6F6;stop-opacity:0"/>
		</radialGradient>
		<path fill-rule="evenodd" clip-rule="evenodd" fill="url(#SVGID_4_)" d="M159,120c0.11,0.09,0.18,0.21,0.2,0.35
			c0.34,2.73,0.34,5.7,0,8.9c-0.01,0.02-0.02,0.05-0.03,0.08c-18.51,74.39-37,127.14-55.45,158.22c-0.07,0.12-0.17,0.19-0.3,0.23
			c-0.13,0.04-0.26,0.02-0.38-0.05c-0.12-0.07-0.19-0.17-0.22-0.3c-0.04-0.13-0.02-0.26,0.05-0.38
			c18.41-31.03,36.85-83.67,55.33-157.9c0.33-3.13,0.33-6.03,0-8.7c-0.02-0.13,0.02-0.25,0.1-0.35c0.09-0.11,0.21-0.18,0.35-0.2
			C158.78,119.88,158.9,119.92,159,120z"/>
		
			<radialGradient id="SVGID_5_" cx="8.7998" cy="268.3496" r="6.9875" gradientTransform="matrix(1 0 0 1.1413 0 -37.9242)" gradientUnits="userSpaceOnUse">
			<stop  offset="0" style="stop-color:#FFFFFF"/>
			<stop  offset="1" style="stop-color:#F6F6F6;stop-opacity:0"/>
		</radialGradient>
		<path fill-rule="evenodd" clip-rule="evenodd" fill="url(#SVGID_5_)" d="M4.8,281.6c-0.1-0.1-0.15-0.21-0.15-0.35
			c0.04-7.52,0.97-12.5,2.8-14.95c0.95-1.38,2.36-1.8,4.22-1.25c1.67,0.48,3.73,1.83,6.2,4.03c0.53,0.47,1.05,0.92,1.55,1.35
			c0.11,0.09,0.16,0.21,0.18,0.35c0.01,0.13-0.03,0.25-0.13,0.35c-0.09,0.11-0.21,0.16-0.35,0.17c-0.13,0.01-0.25-0.03-0.35-0.13
			c-0.5-0.43-1.02-0.88-1.55-1.35c-2.33-2.07-4.28-3.33-5.85-3.8c-1.37-0.4-2.41-0.11-3.13,0.88c-1.7,2.35-2.57,7.14-2.6,14.35
			c0,0.14-0.05,0.25-0.15,0.35c-0.1,0.1-0.21,0.15-0.35,0.15C5.01,281.75,4.9,281.7,4.8,281.6z"/>
		
			<radialGradient id="SVGID_6_" cx="39.75" cy="333.6504" r="5.8625" gradientTransform="matrix(1 0 0 8.3966 0 -2467.8748)" gradientUnits="userSpaceOnUse">
			<stop  offset="0" style="stop-color:#FFFFFF"/>
			<stop  offset="1" style="stop-color:#F6F6F6;stop-opacity:0"/>
		</radialGradient>
		<path fill-rule="evenodd" clip-rule="evenodd" fill="url(#SVGID_6_)" d="M28.75,284.78c-0.06-0.12-0.07-0.25-0.02-0.38
			c0.04-0.13,0.13-0.23,0.25-0.3c0.12-0.06,0.25-0.07,0.38-0.02c0.13,0.04,0.23,0.13,0.3,0.25c8.94,17.25,12.19,43.14,9.75,77.65
			V362c-1.09,8.88-0.42,15.81,2,20.78c0.06,0.12,0.07,0.25,0.02,0.38c-0.04,0.13-0.13,0.23-0.25,0.3c-0.12,0.06-0.25,0.07-0.38,0.02
			c-0.13-0.04-0.23-0.13-0.3-0.25c-2.51-5.09-3.21-12.19-2.1-21.3v-0.02C40.82,327.63,37.6,301.92,28.75,284.78z"/>
		
			<radialGradient id="SVGID_7_" cx="77.5498" cy="334.4502" r="5.475" gradientTransform="matrix(1 0 0 3.9178 0 -975.8615)" gradientUnits="userSpaceOnUse">
			<stop  offset="0" style="stop-color:#FFFFFF"/>
			<stop  offset="1" style="stop-color:#F6F6F6;stop-opacity:0"/>
		</radialGradient>
		<path fill-rule="evenodd" clip-rule="evenodd" fill="url(#SVGID_7_)" d="M82.63,312.83c0.08-0.11,0.19-0.16,0.33-0.17
			c0.14-0.01,0.27,0.03,0.38,0.13c0.11,0.08,0.16,0.19,0.17,0.32c0.01,0.14-0.03,0.27-0.13,0.38c-10.4,12.24-9.71,25.7,2.08,40.4
			v0.03c0.5,0.63,0.97,1.25,1.4,1.85c0.08,0.11,0.12,0.24,0.1,0.38c-0.02,0.14-0.09,0.24-0.2,0.33c-0.11,0.08-0.24,0.12-0.38,0.1
			c-0.14-0.02-0.24-0.09-0.33-0.2c-0.43-0.6-0.9-1.22-1.4-1.85v0.03C72.5,339.36,71.83,325.46,82.63,312.83z"/>
		
			<radialGradient id="SVGID_8_" cx="-67.3096" cy="435.959" r="16.784" gradientTransform="matrix(0.9555 -0.2949 0.0842 0.2592 106.4266 252.9596)" gradientUnits="userSpaceOnUse">
			<stop  offset="0" style="stop-color:#FFFFFF"/>
			<stop  offset="1" style="stop-color:#F6F6F6;stop-opacity:0"/>
		</radialGradient>
		<path fill-rule="evenodd" clip-rule="evenodd" fill="url(#SVGID_8_)" d="M90.33,379.42c0.08-0.12,0.19-0.19,0.32-0.22
			c0.13-0.03,0.26,0,0.38,0.08c0.12,0.08,0.19,0.19,0.23,0.32c0.03,0.13,0,0.26-0.08,0.38c-2.91,4.45-8.58,8.1-17.02,10.95h-0.02
			c-2.48,0.68-4.85,1.2-7.1,1.58c-0.14,0.02-0.26-0.02-0.38-0.1c-0.11-0.08-0.18-0.19-0.2-0.33c-0.02-0.14,0.02-0.26,0.1-0.38
			c0.08-0.11,0.19-0.18,0.33-0.2c2.21-0.36,4.54-0.87,6.98-1.53C82.01,387.22,87.5,383.7,90.33,379.42z"/>
	</g>
</g>
</svg>
