<?xml version="1.0" encoding="utf-8"?>
<!-- Generator: Adobe Illustrator 16.0.0, SVG Export Plug-In . SVG Version: 6.00 Build 0)  -->
<!DOCTYPE svg PUBLIC "-//W3C//DTD SVG 1.1//EN" "http://www.w3.org/Graphics/SVG/1.1/DTD/svg11.dtd">
<svg version="1.1" id="Layer_1" xmlns="http://www.w3.org/2000/svg" xmlns:xlink="http://www.w3.org/1999/xlink" x="0px" y="0px"
	 width="142px" height="477px" viewBox="0 0 142 477" enable-background="new 0 0 142 477" xml:space="preserve">
<g>
	<g>
		
			<path fill-rule="evenodd" clip-rule="evenodd" fill="none" stroke="#000000" stroke-width="4.5" stroke-linecap="round" stroke-linejoin="round" stroke-miterlimit="3" stroke-opacity="0.2745" d="
			M109.65,96.55c-16.7,3.43-32.03,7.45-46,12.05c-14,4.53-15.93,7.48-5.8,8.85c10.07,1.33,12.68,5.1,7.85,11.3
			c-4.83,6.2-9.95,11.68-15.35,16.45c-8.8,10.67-12.68,21.42-11.65,32.25c1.33,15.03-1.78,36.6-9.35,64.7
			c-7.57,28.07-12.92,50.25-16.05,66.55c-3.13,16.27-4.9,34.8-5.3,55.6c-0.2,8.5-0.2,16.02,0,22.55l1,16.2
			c0.27,2.2,0.57,4.17,0.9,5.9c1.7,9,1.95,23.12,0.75,42.35C8.98,472,18.7,476.32,39.8,464.25"/>
	</g>
	<g>
		
			<path fill-rule="evenodd" clip-rule="evenodd" fill="none" stroke="#000000" stroke-width="4.5" stroke-linecap="round" stroke-linejoin="round" stroke-miterlimit="3" d="
			M119.5,8.7c-2.17-1.1-4.15-1.55-5.95-1.35c-8.27,0.8-11.72,15.25-10.35,43.35c3.47,28.77-11.58,47.32-45.15,55.65
			c-10.47,2.53-8.15,5.25,6.95,8.15c6.83,1.2,8.03,5.3,3.6,12.3c-17.43,16.37-25.8,33.48-25.1,51.35s-3.05,42.83-11.25,74.9
			s-13.72,55-16.55,68.8c-2.67,12.7-4.07,34.37-4.2,65c0,0.7,0,1.4,0,2.1c0,1.33,0.05,2.7,0.15,4.1c0.03,1.37,0.15,2.75,0.35,4.15
			c0.3,1.93,0.6,3.88,0.9,5.85c2.9,17.83,3.4,33.02,1.5,45.55c-0.93,5.93-0.88,10.55,0.15,13.85c0.5,1.97,1.57,3.57,3.2,4.8
			c1.37,1,2.97,1.5,4.8,1.5c1.07-0.23,2.07-0.58,3-1.05c0.8-0.4,1.5-0.92,2.1-1.55c1.1-1.07,1.95-2.3,2.55-3.7
			c1.73-4.33,1.8-10.53,0.2-18.6c-2.4-19.67-2.37-37.4,0.1-53.2c1.93-12.07,4.5-18.75,7.7-20.05c2.93-1.23,6.08-0.43,9.45,2.4
			c6.73,3.97,12.92,4.02,18.55,0.15 M135.2,15.1c-1.03,0.63-2.08,1.13-3.15,1.5c-0.43,0.1-0.87,0.2-1.3,0.3
			c-1.47,0.3-2.92,0.3-4.35,0c-1.3-0.27-2.6-0.75-3.9-1.45"/>
	</g>
	<g>
		
			<radialGradient id="SVGID_1_" cx="108.5996" cy="26.6348" r="20.1267" gradientTransform="matrix(1 0 0 1.0037 0 -0.0993)" gradientUnits="userSpaceOnUse">
			<stop  offset="0" style="stop-color:#FFFFFF"/>
			<stop  offset="0.9922" style="stop-color:#FFFFFF;stop-opacity:0"/>
		</radialGradient>
		<path fill-rule="evenodd" clip-rule="evenodd" fill="url(#SVGID_1_)" d="M113.3,6.5c0.13,0.01,0.24,0.07,0.33,0.17
			c0.09,0.11,0.13,0.23,0.13,0.38c-0.01,0.13-0.07,0.24-0.17,0.33c-0.11,0.09-0.23,0.13-0.38,0.13c-3.38-0.21-5.8,2.79-7.28,9
			c-1.54,6.52-2.03,16.44-1.47,29.77c0.01,0.14-0.03,0.27-0.13,0.38c-0.09,0.1-0.21,0.15-0.35,0.15c-0.14,0.01-0.27-0.03-0.38-0.13
			c-0.1-0.09-0.15-0.21-0.15-0.35c-0.55-13.47-0.04-23.49,1.52-30.08C106.6,9.36,109.38,6.11,113.3,6.5z"/>
		
			<radialGradient id="SVGID_2_" cx="88.5488" cy="78.7266" r="26.2174" gradientTransform="matrix(1 0 0 1.0038 0 -0.3001)" gradientUnits="userSpaceOnUse">
			<stop  offset="0" style="stop-color:#FFFFFF"/>
			<stop  offset="0.9922" style="stop-color:#FFFFFF;stop-opacity:0"/>
		</radialGradient>
		<path fill-rule="evenodd" clip-rule="evenodd" fill="url(#SVGID_2_)" d="M103.45,57.4c0-0.14,0.05-0.25,0.15-0.35
			c0.1-0.1,0.21-0.15,0.35-0.15c0.14,0,0.25,0.05,0.35,0.15c0.1,0.1,0.15,0.21,0.15,0.35c0.18,19.91-10.18,34.28-31.1,43.1
			c-0.13,0.06-0.27,0.07-0.4,0.02c-0.12-0.05-0.2-0.15-0.25-0.27c-0.06-0.13-0.07-0.27-0.03-0.4c0.05-0.12,0.15-0.2,0.28-0.25
			C93.43,90.95,103.6,76.89,103.45,57.4z"/>
		
			<radialGradient id="SVGID_3_" cx="53.2998" cy="158.1001" r="25.0375" gradientTransform="matrix(1 0 0 1.004 0 -0.6315)" gradientUnits="userSpaceOnUse">
			<stop  offset="0" style="stop-color:#FFFFFF"/>
			<stop  offset="0.9922" style="stop-color:#FFFFFF;stop-opacity:0"/>
		</radialGradient>
		<path fill-rule="evenodd" clip-rule="evenodd" fill="url(#SVGID_3_)" d="M60.83,133.9c0.09-0.1,0.21-0.15,0.35-0.15
			c0.14-0.01,0.27,0.03,0.38,0.13c0.1,0.09,0.15,0.21,0.15,0.35c0.01,0.14-0.03,0.27-0.13,0.38
			c-14.47,15.76-19.76,32.51-15.88,50.25c0.03,0.13,0,0.26-0.08,0.38c-0.08,0.12-0.19,0.19-0.33,0.23c-0.13,0.03-0.26,0-0.38-0.08
			c-0.12-0.08-0.19-0.19-0.22-0.33C40.72,166.99,46.1,149.94,60.83,133.9z"/>
		
			<radialGradient id="SVGID_4_" cx="30.1001" cy="255.5" r="58.6875" gradientTransform="matrix(1 0 0 1.0036 0 -0.9251)" gradientUnits="userSpaceOnUse">
			<stop  offset="0" style="stop-color:#FFFFFF"/>
			<stop  offset="0.9922" style="stop-color:#FFFFFF;stop-opacity:0"/>
		</radialGradient>
		<path fill-rule="evenodd" clip-rule="evenodd" fill="url(#SVGID_4_)" d="M41.55,197.85c0.01-0.13,0.07-0.24,0.18-0.33
			c0.11-0.09,0.23-0.13,0.38-0.13c0.13,0.01,0.24,0.07,0.32,0.18c0.09,0.11,0.13,0.23,0.13,0.38
			c-1.87,24.25-10.84,63.5-26.92,117.75c-0.04,0.13-0.13,0.23-0.25,0.3c-0.12,0.06-0.25,0.07-0.38,0.03
			c-0.13-0.04-0.23-0.13-0.3-0.25c-0.06-0.12-0.07-0.25-0.03-0.38C30.73,261.25,39.68,222.06,41.55,197.85z"/>
		
			<radialGradient id="SVGID_5_" cx="12.75" cy="380.9746" r="26.8887" gradientTransform="matrix(1 0 0 1.0037 0 -1.4156)" gradientUnits="userSpaceOnUse">
			<stop  offset="0" style="stop-color:#FFFFFF"/>
			<stop  offset="0.9922" style="stop-color:#FFFFFF;stop-opacity:0"/>
		</radialGradient>
		<path fill-rule="evenodd" clip-rule="evenodd" fill="url(#SVGID_5_)" d="M12.25,353.9c0.02-0.14,0.09-0.26,0.2-0.35
			c0.1-0.08,0.22-0.12,0.35-0.1c0.14,0.02,0.26,0.09,0.35,0.2c0.08,0.1,0.12,0.22,0.1,0.35c-2.1,17.97-2.1,35.95,0,53.95
			c0.02,0.13-0.02,0.25-0.1,0.35c-0.09,0.11-0.21,0.18-0.35,0.2c-0.13,0.02-0.25-0.02-0.35-0.1c-0.11-0.09-0.18-0.21-0.2-0.35
			C10.15,389.98,10.15,371.93,12.25,353.9z"/>
		
			<radialGradient id="SVGID_6_" cx="32.9502" cy="408.9004" r="37.45" gradientTransform="matrix(1 0 0 1.004 0 -1.6378)" gradientUnits="userSpaceOnUse">
			<stop  offset="0" style="stop-color:#FFFFFF"/>
			<stop  offset="0.9922" style="stop-color:#FFFFFF;stop-opacity:0"/>
		</radialGradient>
		<path fill-rule="evenodd" clip-rule="evenodd" fill="url(#SVGID_6_)" d="M35.65,370.25c0.05-0.12,0.13-0.2,0.25-0.25
			c0.13-0.05,0.27-0.05,0.4,0c0.12,0.05,0.2,0.13,0.25,0.25c0.05,0.13,0.05,0.27,0,0.4c-9.19,22.28-10.87,47.5-5.05,75.65
			c0.03,0.13,0,0.26-0.08,0.38c-0.08,0.12-0.19,0.19-0.32,0.23c-0.13,0.03-0.26,0-0.38-0.08c-0.12-0.08-0.19-0.19-0.23-0.33
			C24.65,418.12,26.37,392.71,35.65,370.25z"/>
		
			<radialGradient id="SVGID_7_" cx="57" cy="373" r="10.7625" gradientTransform="matrix(1 0 0 1.0035 0 -1.2997)" gradientUnits="userSpaceOnUse">
			<stop  offset="0" style="stop-color:#FFFFFF"/>
			<stop  offset="0.9922" style="stop-color:#FFFFFF;stop-opacity:0"/>
		</radialGradient>
		<path fill-rule="evenodd" clip-rule="evenodd" fill="url(#SVGID_7_)" d="M46,373.28c-0.12-0.07-0.19-0.17-0.23-0.3
			c-0.04-0.13-0.02-0.26,0.05-0.38c0.07-0.12,0.17-0.19,0.3-0.22c0.13-0.04,0.26-0.02,0.38,0.05c7.67,4.38,14.68,4.49,21.02,0.3
			c0.12-0.08,0.24-0.1,0.38-0.07c0.14,0.03,0.25,0.11,0.33,0.22c0.08,0.12,0.1,0.24,0.07,0.38c-0.03,0.14-0.11,0.25-0.22,0.33
			C61.42,377.99,54.06,377.89,46,373.28z"/>
		
			<radialGradient id="SVGID_8_" cx="20.1001" cy="454.3496" r="14.875" gradientTransform="matrix(1 0 0 1.0042 0 -1.909)" gradientUnits="userSpaceOnUse">
			<stop  offset="0" style="stop-color:#FFFFFF"/>
			<stop  offset="0.9922" style="stop-color:#FFFFFF;stop-opacity:0"/>
		</radialGradient>
		<path fill-rule="evenodd" clip-rule="evenodd" fill="url(#SVGID_8_)" d="M14.35,440.3c0.03-0.14,0.11-0.25,0.23-0.33
			c0.11-0.08,0.24-0.1,0.38-0.07c0.14,0.03,0.25,0.11,0.32,0.22c0.08,0.12,0.1,0.24,0.08,0.38c-2.06,10.42-2.25,17.93-0.55,22.53
			c1.66,4.37,5.13,5.96,10.4,4.77c0.13-0.03,0.26,0,0.38,0.08c0.12,0.08,0.19,0.19,0.22,0.33c0.03,0.13,0,0.26-0.07,0.38
			c-0.08,0.12-0.19,0.19-0.33,0.22c-5.86,1.31-9.71-0.49-11.52-5.42C12.09,458.67,12.25,450.98,14.35,440.3z"/>
	</g>
</g>
</svg>
