<?xml version="1.0" encoding="utf-8"?>
<!-- Generator: Adobe Illustrator 16.0.0, SVG Export Plug-In . SVG Version: 6.00 Build 0)  -->
<!DOCTYPE svg PUBLIC "-//W3C//DTD SVG 1.1//EN" "http://www.w3.org/Graphics/SVG/1.1/DTD/svg11.dtd">
<svg version="1.1" id="Layer_1" xmlns="http://www.w3.org/2000/svg" xmlns:xlink="http://www.w3.org/1999/xlink" x="0px" y="0px"
	 width="128px" height="448px" viewBox="0 0 128 448" enable-background="new 0 0 128 448" xml:space="preserve">
<g>
	<g>
		
			<path fill-rule="evenodd" clip-rule="evenodd" fill="none" stroke="#000000" stroke-width="4.5" stroke-linecap="round" stroke-linejoin="round" stroke-miterlimit="3" stroke-opacity="0.2745" d="
			M35.5,82.15c3.3,0.4,7.9,0.48,13.8,0.25c14.2-0.63,18.27,4.23,12.2,14.6c-0.27,0.43-1.15,1-2.65,1.7c-1.53,0.67-2.45,1.4-2.75,2.2
			c-0.3,0.77-0.15,2.37,0.45,4.8c0.57,2.4,1.22,8.42,1.95,18.05c0.67,9.6,4.13,31.47,10.4,65.6c6.27,34.07,11.57,62.27,15.9,84.6
			c3.2,16.5,6.07,29.75,8.6,39.75c5.03,21.03,9.47,37.3,13.3,48.8c3.83,11.43,5.23,22.98,4.2,34.65
			c-1.07,11.6-0.82,20.38,0.75,26.35c1.5,5.93,3.37,10.33,5.6,13.2c2.2,2.8-0.53,4.03-8.2,3.7c-3.23-0.17-6-0.28-8.3-0.35"/>
	</g>
	<g>
		
			<path fill-rule="evenodd" clip-rule="evenodd" fill="none" stroke="#000000" stroke-width="4.5" stroke-linecap="round" stroke-linejoin="round" stroke-miterlimit="3" d="
			M7.4,9.15c7.33,3.1,12.67,2.58,16-1.55c5.93-0.63,10.6,2.65,14,9.85c3.4,7.17,5.63,16.55,6.7,28.15c1,11.67,0.73,19.9-0.8,24.7
			c-1.6,4.77,2.63,6.85,12.7,6.25c9.73-0.63,11.57,4.25,5.5,14.65c-0.27,0.43-0.53,0.9-0.8,1.4c-0.07,0.07-0.1,0.15-0.1,0.25
			c-0.57,1.47-0.95,3.07-1.15,4.8c-0.43,3.77,0.62,10.33,3.15,19.7c2.47,9.37,5.95,31.2,10.45,65.5
			c4.53,34.33,9.42,62.57,14.65,84.7c5.23,22.13,9.43,39.5,12.6,52.1c1.5,6.03,2.57,10.82,3.2,14.35
			c2.43,9.67,5.32,19.92,8.65,30.75c3.3,10.83,3.93,21.07,1.9,30.7c-2.03,9.73-2.55,17.37-1.55,22.9c0.93,5.47,2.82,9.75,5.65,12.85
			c2.77,3.13,0.8,5.47-5.9,7c-6.7,1.57-9.13-10.08-7.3-34.95c1.8-24.83-1.65-39.57-10.35-44.2c-4.93,8.17-11.82,9.43-20.65,3.8"/>
	</g>
	<g>
		<radialGradient id="SVGID_1_" cx="36.6499" cy="36.9541" r="28.8338" gradientUnits="userSpaceOnUse">
			<stop  offset="0" style="stop-color:#FFFFFF"/>
			<stop  offset="0.9922" style="stop-color:#F4F4F4;stop-opacity:0"/>
		</radialGradient>
		<path fill-rule="evenodd" clip-rule="evenodd" fill="url(#SVGID_1_)" d="M29.4,9.42c-0.12-0.07-0.19-0.17-0.23-0.3
			c-0.04-0.13-0.02-0.26,0.05-0.38c0.07-0.12,0.17-0.19,0.3-0.23c0.13-0.04,0.26-0.02,0.38,0.05c10.34,6,15.09,24.78,14.25,56.35
			c0,0.14-0.05,0.25-0.15,0.35c-0.11,0.09-0.23,0.13-0.38,0.13c-0.14,0-0.25-0.05-0.35-0.15c-0.09-0.11-0.13-0.23-0.13-0.38
			C43.98,33.84,39.39,15.36,29.4,9.42z"/>
		<radialGradient id="SVGID_2_" cx="16" cy="9" r="6.7" gradientUnits="userSpaceOnUse">
			<stop  offset="0" style="stop-color:#FFFFFF"/>
			<stop  offset="0.9922" style="stop-color:#F4F4F4;stop-opacity:0"/>
		</radialGradient>
		<path fill-rule="evenodd" clip-rule="evenodd" fill="url(#SVGID_2_)" d="M22.5,8.85c0.12-0.06,0.25-0.07,0.38-0.02
			C23,8.88,23.09,8.97,23.15,9.1c0.06,0.12,0.07,0.25,0.02,0.38c-0.05,0.13-0.15,0.22-0.27,0.27c-4.26,1.9-8.86,1.7-13.8-0.6
			C8.97,9.09,8.88,9,8.83,8.88C8.78,8.75,8.79,8.62,8.85,8.5C8.91,8.37,9,8.28,9.13,8.23C9.25,8.18,9.38,8.19,9.5,8.25
			C14.16,10.42,18.49,10.62,22.5,8.85z"/>
		<radialGradient id="SVGID_3_" cx="59.9482" cy="79.6001" r="6.039" gradientUnits="userSpaceOnUse">
			<stop  offset="0" style="stop-color:#FFFFFF"/>
			<stop  offset="0.9922" style="stop-color:#F4F4F4;stop-opacity:0"/>
		</radialGradient>
		<path fill-rule="evenodd" clip-rule="evenodd" fill="url(#SVGID_3_)" d="M54.77,77.05c-0.14,0.02-0.26-0.02-0.38-0.1
			c-0.11-0.08-0.18-0.19-0.2-0.33c-0.02-0.14,0.02-0.26,0.1-0.38c0.08-0.11,0.19-0.18,0.33-0.2c3.44-0.56,6.08-0.29,7.9,0.8
			c1.9,1.09,2.96,3.02,3.18,5.8c0.01,0.14-0.03,0.27-0.13,0.38c-0.08,0.11-0.19,0.16-0.33,0.18c-0.14,0.01-0.27-0.03-0.38-0.13
			c-0.11-0.08-0.16-0.19-0.17-0.33c-0.18-2.39-1.08-4.07-2.68-5.02C60.35,76.77,57.93,76.54,54.77,77.05z"/>
		<radialGradient id="SVGID_4_" cx="76.25" cy="206.1533" r="77.9717" gradientUnits="userSpaceOnUse">
			<stop  offset="0" style="stop-color:#FFFFFF"/>
			<stop  offset="0.9922" style="stop-color:#F4F4F4;stop-opacity:0"/>
		</radialGradient>
		<path fill-rule="evenodd" clip-rule="evenodd" fill="url(#SVGID_4_)" d="M65,129.92c-0.02-0.14,0.02-0.26,0.1-0.38
			c0.08-0.11,0.19-0.18,0.33-0.2c0.14-0.02,0.26,0.02,0.38,0.1c0.11,0.08,0.18,0.19,0.2,0.32c8.63,64.02,17.08,114.88,25.35,152.57
			c0.03,0.13,0,0.26-0.07,0.38c-0.08,0.12-0.19,0.19-0.33,0.23c-0.13,0.03-0.26,0-0.38-0.08c-0.12-0.08-0.19-0.19-0.23-0.33
			C82.08,244.84,73.63,193.97,65,129.92z"/>
		<radialGradient id="SVGID_5_" cx="83.5498" cy="363.4502" r="9.025" gradientUnits="userSpaceOnUse">
			<stop  offset="0" style="stop-color:#FFFFFF"/>
			<stop  offset="0.9922" style="stop-color:#F4F4F4;stop-opacity:0"/>
		</radialGradient>
		<path fill-rule="evenodd" clip-rule="evenodd" fill="url(#SVGID_5_)" d="M74.28,364.45c-0.12-0.07-0.21-0.17-0.25-0.3
			c-0.04-0.13-0.04-0.25,0.02-0.38c0.07-0.12,0.17-0.21,0.3-0.25c0.13-0.04,0.25-0.04,0.38,0.02c6.79,3.46,12.62,3.1,17.5-1.08
			c0.11-0.09,0.23-0.13,0.38-0.13c0.13,0.01,0.24,0.07,0.33,0.18c0.09,0.11,0.13,0.23,0.13,0.38c-0.01,0.13-0.07,0.24-0.17,0.32
			C87.69,367.71,81.49,368.12,74.28,364.45z"/>
		<radialGradient id="SVGID_6_" cx="101.9004" cy="392.7012" r="27.8866" gradientUnits="userSpaceOnUse">
			<stop  offset="0" style="stop-color:#FFFFFF"/>
			<stop  offset="0.9922" style="stop-color:#F4F4F4;stop-opacity:0"/>
		</radialGradient>
		<path fill-rule="evenodd" clip-rule="evenodd" fill="url(#SVGID_6_)" d="M100,365.13c-0.06-0.12-0.07-0.25-0.03-0.38
			c0.04-0.13,0.13-0.23,0.25-0.3c0.12-0.06,0.25-0.07,0.38-0.03c0.13,0.04,0.23,0.13,0.3,0.25c5.18,10.28,6.17,28.91,2.95,55.88
			c-0.02,0.14-0.09,0.26-0.2,0.35c-0.1,0.08-0.22,0.12-0.35,0.1c-0.14-0.02-0.26-0.09-0.35-0.2c-0.08-0.1-0.12-0.22-0.1-0.35
			C106.03,393.75,105.08,375.31,100,365.13z"/>
		<radialGradient id="SVGID_7_" cx="112.4004" cy="375.0996" r="17.55" gradientUnits="userSpaceOnUse">
			<stop  offset="0" style="stop-color:#FFFFFF"/>
			<stop  offset="0.9922" style="stop-color:#F4F4F4;stop-opacity:0"/>
		</radialGradient>
		<path fill-rule="evenodd" clip-rule="evenodd" fill="url(#SVGID_7_)" d="M110.17,360.13c-0.04-0.13-0.04-0.25,0.03-0.38
			c0.06-0.13,0.15-0.22,0.27-0.28c0.13-0.04,0.25-0.04,0.38,0.03c0.13,0.06,0.22,0.15,0.28,0.28c4.4,12.13,5.46,23.09,3.2,32.88
			c-0.02,0.14-0.09,0.25-0.2,0.32c-0.12,0.07-0.24,0.09-0.38,0.05c-0.14-0.02-0.25-0.09-0.33-0.2c-0.07-0.12-0.08-0.24-0.05-0.38
			C115.58,382.83,114.51,372.06,110.17,360.13z"/>
		<radialGradient id="SVGID_8_" cx="115.0098" cy="435.9492" r="5.2303" gradientUnits="userSpaceOnUse">
			<stop  offset="0" style="stop-color:#FFFFFF"/>
			<stop  offset="0.9922" style="stop-color:#F4F4F4;stop-opacity:0"/>
		</radialGradient>
		<path fill-rule="evenodd" clip-rule="evenodd" fill="url(#SVGID_8_)" d="M120.15,433.55c0.16,1.57-0.65,2.8-2.43,3.7
			c-1.59,0.81-4.04,1.33-7.35,1.55c-0.13,0.01-0.25-0.03-0.35-0.13c-0.11-0.09-0.16-0.21-0.18-0.35c-0.01-0.13,0.03-0.25,0.13-0.35
			c0.09-0.11,0.21-0.16,0.35-0.17c3.13-0.21,5.44-0.7,6.95-1.45c1.32-0.67,1.95-1.57,1.88-2.7c-0.01-0.14,0.03-0.27,0.13-0.38
			c0.08-0.11,0.19-0.16,0.32-0.18c0.14-0.01,0.27,0.03,0.38,0.13C120.08,433.31,120.14,433.42,120.15,433.55z"/>
	</g>
</g>
</svg>
