<?xml version="1.0" encoding="utf-8"?>
<!-- Generator: Adobe Illustrator 16.0.0, SVG Export Plug-In . SVG Version: 6.00 Build 0)  -->
<!DOCTYPE svg PUBLIC "-//W3C//DTD SVG 1.1//EN" "http://www.w3.org/Graphics/SVG/1.1/DTD/svg11.dtd">
<svg version="1.1" id="Layer_1" xmlns="http://www.w3.org/2000/svg" xmlns:xlink="http://www.w3.org/1999/xlink" x="0px" y="0px"
	 width="354px" height="239px" viewBox="0 0 354 239" enable-background="new 0 0 354 239" xml:space="preserve">
<g>
	<g>
		
			<path fill-rule="evenodd" clip-rule="evenodd" fill="none" stroke="#000000" stroke-width="4.5" stroke-linecap="round" stroke-linejoin="round" stroke-miterlimit="3" stroke-opacity="0.2745" d="
			M9.75,146.55c6.33-0.67,8.77,6.73,7.3,22.2C29.28,169.22,36.6,173.97,39,183c11.83,30.6,29.33,47.18,52.5,49.75
			c23.2,2.57,60.83-10.33,112.9-38.7c52-28.4,90.4-47.9,115.2-58.5c24.8-10.6,31.92-18.22,21.35-22.85
			c-10.63-4.6-13.1-15.3-7.4-32.1c5.6-16.77,4.82-35.18-2.35-55.25c0.7-3.3,1.7-6.07,3-8.3"/>
	</g>
	<g>
		
			<path fill-rule="evenodd" clip-rule="evenodd" fill="none" stroke="#000000" stroke-width="4.5" stroke-linecap="round" stroke-linejoin="round" stroke-miterlimit="3" d="
			M8.65,146.6c1.57-7.43,5.57-8.58,12-3.45c8.13,6.43,19.55,26.32,34.25,59.65c14.7,33.33,52.65,35.02,113.85,5.05
			c28.83-13.67,47-22.78,54.5-27.35c7.43-4.63,13.88-9.83,19.35-15.6c5.43-5.83,9.97-7.72,13.6-5.65c3.6,2.1,11.73-0.97,24.4-9.2
			c12.6-8.23,25.55-14.8,38.85-19.7c13.3-4.9,19.7-9.52,19.2-13.85c-0.53-4.4-3.07-7.23-7.6-8.5c-4.53-1.3-6.08-7.33-4.65-18.1
			c1.37-10.77,3.42-21.95,6.15-33.55c2.7-11.63,2.98-19.93,0.85-24.9c-2.13-5-3.2-8.67-3.2-11c0-0.97,0.6-2.7,1.8-5.2
			c0.4-0.77,0.18-3.4-0.65-7.9c6.4,3.47,11.42,3.3,15.05-0.5"/>
	</g>
	<g>
		
			<radialGradient id="SVGID_1_" cx="339.8643" cy="20.5444" r="7.528" gradientTransform="matrix(0.9996 -0.0282 0 0.4799 -0.0291 8.6852)" gradientUnits="userSpaceOnUse">
			<stop  offset="0" style="stop-color:#FFFFFF"/>
			<stop  offset="1" style="stop-color:#FFFFFF;stop-opacity:0"/>
		</radialGradient>
		<path fill-rule="evenodd" clip-rule="evenodd" fill="url(#SVGID_1_)" d="M331.88,14.85c-0.09-0.11-0.13-0.23-0.13-0.38
			c0.03-1.21-0.27-3.55-0.9-7.02c-0.02-0.13,0-0.26,0.08-0.38c0.07-0.11,0.17-0.17,0.3-0.2c0.13-0.04,0.26-0.03,0.38,0.02
			c6.14,3.33,10.96,3.2,14.45-0.4c0.1-0.1,0.21-0.15,0.35-0.15c0.13,0,0.25,0.05,0.35,0.15c0.1,0.1,0.15,0.21,0.15,0.35
			c0,0.13-0.05,0.25-0.15,0.35c-3.6,3.81-8.51,4.17-14.72,1.07c0.52,3.03,0.76,5.12,0.72,6.25c0,0.14-0.05,0.25-0.15,0.35
			c-0.11,0.09-0.23,0.13-0.38,0.13C332.09,15,331.97,14.95,331.88,14.85z"/>
		
			<radialGradient id="SVGID_2_" cx="330.8311" cy="68.4595" r="4.5896" gradientTransform="matrix(0.9996 -0.03 0 7.8275 -0.0329 -469.5083)" gradientUnits="userSpaceOnUse">
			<stop  offset="0" style="stop-color:#FFFFFF"/>
			<stop  offset="1" style="stop-color:#FFFFFF;stop-opacity:0"/>
		</radialGradient>
		<path fill-rule="evenodd" clip-rule="evenodd" fill="url(#SVGID_2_)" d="M330.28,24.4c-0.04-0.14-0.02-0.27,0.05-0.4
			c0.06-0.12,0.15-0.19,0.27-0.23c0.14-0.04,0.27-0.02,0.4,0.05c0.12,0.06,0.19,0.15,0.22,0.27c0.56,1.95,1.44,4.34,2.63,7.15
			c2.18,5.03,1.91,13.44-0.82,25.23c-2.62,11.18-4.62,22.02-5.98,32.5c-0.02,0.13-0.09,0.24-0.2,0.32c-0.11,0.08-0.24,0.12-0.38,0.1
			c-0.13-0.02-0.24-0.09-0.32-0.2c-0.08-0.11-0.12-0.24-0.1-0.38c1.37-10.52,3.38-21.38,6.03-32.6c2.67-11.48,2.96-19.68,0.88-24.58
			C331.74,28.8,330.85,26.38,330.28,24.4z"/>
		
			<radialGradient id="SVGID_3_" cx="337.6748" cy="128.2676" r="4.7145" gradientTransform="matrix(0.9996 -0.0292 0 1.9779 -0.0311 -127.4568)" gradientUnits="userSpaceOnUse">
			<stop  offset="0" style="stop-color:#FFFFFF"/>
			<stop  offset="1" style="stop-color:#FFFFFF;stop-opacity:0"/>
		</radialGradient>
		<path fill-rule="evenodd" clip-rule="evenodd" fill="url(#SVGID_3_)" d="M329.53,106.7c0.5,0.34,1.07,0.61,1.7,0.82h-0.05
			c4.76,1.33,7.42,4.3,7.98,8.93c0.38,3.09-2.63,6.33-9.03,9.7c-0.12,0.06-0.25,0.07-0.38,0.02c-0.13-0.04-0.23-0.13-0.3-0.25
			c-0.06-0.12-0.07-0.25-0.03-0.38c0.04-0.13,0.13-0.23,0.25-0.3c5.87-3.09,8.69-5.99,8.48-8.7c-0.51-4.18-2.92-6.87-7.23-8.07
			h-0.05c-0.7-0.25-1.34-0.58-1.9-0.98c-0.12-0.07-0.19-0.17-0.22-0.3c-0.02-0.14,0.01-0.26,0.1-0.38c0.07-0.12,0.17-0.19,0.3-0.23
			C329.29,106.58,329.41,106.61,329.53,106.7z"/>
		
			<radialGradient id="SVGID_4_" cx="294.4775" cy="153.7715" r="23.2901" gradientTransform="matrix(0.9996 -0.029 0 1.021 -0.0308 -5.2287)" gradientUnits="userSpaceOnUse">
			<stop  offset="0" style="stop-color:#FFFFFF"/>
			<stop  offset="1" style="stop-color:#FFFFFF;stop-opacity:0"/>
		</radialGradient>
		<path fill-rule="evenodd" clip-rule="evenodd" fill="url(#SVGID_4_)" d="M274.1,155.6c-0.11,0.08-0.24,0.12-0.38,0.1
			c-0.13-0.02-0.24-0.09-0.32-0.2c-0.08-0.11-0.12-0.24-0.1-0.38c0.02-0.13,0.09-0.24,0.2-0.33c13.03-10.1,26.75-18.09,41.15-23.97
			c0.13-0.04,0.27-0.04,0.4,0.02c0.13,0.05,0.22,0.13,0.28,0.25c0.04,0.13,0.04,0.27-0.03,0.4c-0.05,0.13-0.13,0.22-0.25,0.28
			C300.72,137.62,287.07,145.56,274.1,155.6z"/>
		
			<radialGradient id="SVGID_5_" cx="249.2363" cy="172.6035" r="10.3044" gradientTransform="matrix(0.9996 -0.0291 0 1.0214 -0.0309 -5.6928)" gradientUnits="userSpaceOnUse">
			<stop  offset="0" style="stop-color:#FFFFFF"/>
			<stop  offset="1" style="stop-color:#FFFFFF;stop-opacity:0"/>
		</radialGradient>
		<path fill-rule="evenodd" clip-rule="evenodd" fill="url(#SVGID_5_)" d="M256.72,158.67c0.11,0.09,0.17,0.21,0.18,0.35
			c0.01,0.13-0.03,0.25-0.13,0.35c-0.09,0.11-0.21,0.16-0.35,0.17c-0.13,0.01-0.25-0.03-0.35-0.13c-2.06-1.82-4.59-1.91-7.58-0.27
			c-3.17,1.74-6.84,5.32-11,10.75c-0.08,0.11-0.19,0.18-0.33,0.2c-0.14,0.02-0.26-0.01-0.38-0.1c-0.11-0.08-0.18-0.19-0.2-0.33
			c-0.02-0.14,0.02-0.26,0.1-0.38c4.27-5.57,8.04-9.25,11.3-11.02C251.44,156.39,254.35,156.52,256.72,158.67z"/>
		
			<radialGradient id="SVGID_6_" cx="15.3384" cy="142.7852" r="10.1794" gradientTransform="matrix(0.9996 -0.0295 0 0.474 -0.0315 73.0727)" gradientUnits="userSpaceOnUse">
			<stop  offset="0" style="stop-color:#FFFFFF"/>
			<stop  offset="1" style="stop-color:#FFFFFF;stop-opacity:0"/>
		</radialGradient>
		<path fill-rule="evenodd" clip-rule="evenodd" fill="url(#SVGID_6_)" d="M22.33,145.1c-0.14,0.01-0.27-0.03-0.38-0.13
			c-0.56-0.52-1.1-1-1.63-1.42h0.02c-3.04-2.43-5.5-3.4-7.38-2.9c-1.82,0.57-3.09,2.58-3.83,6.05c-0.03,0.14-0.11,0.25-0.23,0.33
			c-0.12,0.08-0.24,0.1-0.38,0.07c-0.14-0.03-0.25-0.11-0.32-0.22c-0.08-0.12-0.1-0.24-0.08-0.38c0.83-3.97,2.34-6.24,4.52-6.83
			c2.13-0.65,4.88,0.37,8.28,3.08h0.02c0.54,0.44,1.1,0.93,1.67,1.47c0.1,0.1,0.15,0.21,0.15,0.35c0.01,0.14-0.03,0.27-0.13,0.38
			C22.58,145.05,22.46,145.1,22.33,145.1z"/>
		
			<radialGradient id="SVGID_7_" cx="57.7549" cy="205.3477" r="41.8426" gradientTransform="matrix(0.9996 -0.029 0 0.9279 -0.0307 12.8347)" gradientUnits="userSpaceOnUse">
			<stop  offset="0" style="stop-color:#FFFFFF"/>
			<stop  offset="1" style="stop-color:#FFFFFF;stop-opacity:0"/>
		</radialGradient>
		<path fill-rule="evenodd" clip-rule="evenodd" fill="url(#SVGID_7_)" d="M28.15,152.33c-0.08-0.11-0.12-0.22-0.1-0.35
			c0.03-0.14,0.11-0.24,0.23-0.32c0.11-0.08,0.22-0.12,0.35-0.1c0.14,0.03,0.24,0.11,0.33,0.23c7.15,10.18,15.95,27.12,26.4,50.82
			c9.39,21.21,28.3,28.79,56.75,22.75c0.13-0.03,0.26,0,0.38,0.08c0.12,0.08,0.19,0.19,0.23,0.33c0.03,0.13,0,0.26-0.08,0.38
			c-0.08,0.12-0.19,0.19-0.33,0.22c-29.02,6.16-48.31-1.63-57.85-23.35C44.04,179.37,35.27,162.48,28.15,152.33z"/>
		
			<radialGradient id="SVGID_8_" cx="183.459" cy="204.9277" r="50.2088" gradientTransform="matrix(0.9996 -0.0291 0 1.0207 -0.0309 -6.234)" gradientUnits="userSpaceOnUse">
			<stop  offset="0" style="stop-color:#FFFFFF"/>
			<stop  offset="1" style="stop-color:#FFFFFF;stop-opacity:0"/>
		</radialGradient>
		<path fill-rule="evenodd" clip-rule="evenodd" fill="url(#SVGID_8_)" d="M139.7,220.05c-0.13,0.05-0.27,0.05-0.4,0
			c-0.12-0.05-0.2-0.13-0.25-0.25c-0.05-0.13-0.05-0.27,0-0.4c0.05-0.12,0.13-0.2,0.25-0.25c40.17-16.79,69.92-31.18,89.28-43.18
			c0.13-0.07,0.26-0.08,0.4-0.05c0.13,0.02,0.23,0.09,0.3,0.2c0.07,0.13,0.08,0.26,0.05,0.4c-0.02,0.13-0.09,0.23-0.2,0.3
			C209.74,188.83,179.93,203.24,139.7,220.05z"/>
	</g>
</g>
</svg>
