<?xml version="1.0" encoding="utf-8"?>
<!-- Generator: Adobe Illustrator 16.0.0, SVG Export Plug-In . SVG Version: 6.00 Build 0)  -->
<!DOCTYPE svg PUBLIC "-//W3C//DTD SVG 1.1//EN" "http://www.w3.org/Graphics/SVG/1.1/DTD/svg11.dtd">
<svg version="1.1" xmlns="http://www.w3.org/2000/svg" xmlns:xlink="http://www.w3.org/1999/xlink" x="0px" y="0px"
	 width="275.33px" height="111.33px" viewBox="0 0 275.33 111.33" enable-background="new 0 0 275.33 111.33" xml:space="preserve">
<g id="BG">
</g>
<g id="objects">
	<g>
		<g>
			
				<path fill-rule="evenodd" clip-rule="evenodd" fill="none" stroke="#000000" stroke-width="4.5" stroke-linecap="round" stroke-linejoin="round" stroke-miterlimit="3" stroke-opacity="0.2745" d="
				M8.2,13.73c19.73-0.1,38.32-0.3,55.75-0.6c17.43-0.3,31.87-0.32,43.3-0.05c11.4,0.17,20.35,0.45,26.85,0.85
				c6.47,0.4,11.6,3.43,15.4,9.1c3.77,5.67,7.18,13.55,10.25,23.65c4.43,9.37,14.08,23.07,28.95,41.1
				c14.8,17.97,30.45,23.47,46.95,16.5c7.13-15.63,11.4-23.87,12.8-24.7c1.43-0.83,2.95-1.87,4.55-3.1c0.7-0.47,1.28-1,1.75-1.6"/>
		</g>
		<g>
			
				<path fill-rule="evenodd" clip-rule="evenodd" fill="none" stroke="#000000" stroke-width="4.5" stroke-linecap="round" stroke-linejoin="round" stroke-miterlimit="3" d="
				M4.55,6.38c51.7-0.87,83.23-1.07,94.6-0.6c15,0.67,26.37,1.72,34.1,3.15c7.67,1.47,13.47,5.32,17.4,11.55
				c2.2,3.47,5.23,10.25,9.1,20.35c4,10.7,9.42,20.02,16.25,27.95c6.8,7.97,13.83,15.92,21.1,23.85c7.3,7.9,13.42,11.68,18.35,11.35
				c4.93-0.43,9.1-3.48,12.5-9.15c3.37-5.73,7.52-11.72,12.45-17.95c4.93-6.3,9.28-9.17,13.05-8.6c5.03,5.43,10.63,5.52,16.8,0.25"
				/>
		</g>
		<g>
			<path fill-rule="evenodd" clip-rule="evenodd" fill="none" d="M245.7,70.98c-5,4.4-11.72,13.57-20.15,27.5"/>
			<path fill-rule="evenodd" clip-rule="evenodd" fill="none" d="M252.65,68.68c6.2,4.77,12.07,4.85,17.6,0.25"/>
			<path fill-rule="evenodd" clip-rule="evenodd" fill="none" d="M104.45,5.93c27.5-0.27,43.78,5.98,48.85,18.75"/>
			<line fill-rule="evenodd" clip-rule="evenodd" fill="none" x1="4.55" y1="6.68" x2="90.8" y2="5.68"/>
			<path fill-rule="evenodd" clip-rule="evenodd" fill="none" d="M157.4,33.93c5.27,14.7,12.78,27.3,22.55,37.8"/>
			<path fill-rule="evenodd" clip-rule="evenodd" fill="none" d="M193.8,88.93c12.87,15.1,22.1,19.25,27.7,12.45"/>
		</g>
	</g>
</g>
</svg>
