<?xml version="1.0" encoding="utf-8"?>
<!-- Generator: Adobe Illustrator 16.0.0, SVG Export Plug-In . SVG Version: 6.00 Build 0)  -->
<!DOCTYPE svg PUBLIC "-//W3C//DTD SVG 1.1//EN" "http://www.w3.org/Graphics/SVG/1.1/DTD/svg11.dtd">
<svg version="1.1" id="Layer_1" xmlns="http://www.w3.org/2000/svg" xmlns:xlink="http://www.w3.org/1999/xlink" x="0px" y="0px"
	 width="289px" height="75px" viewBox="0 0 289 75" enable-background="new 0 0 289 75" xml:space="preserve">
<g>
	<g>
		
			<path fill="none" stroke="#000000" stroke-width="4.5" stroke-linecap="round" stroke-linejoin="round" stroke-miterlimit="3" stroke-opacity="0.2667" d="
			M8.3,22.6c1.35,4.04,9.25,6.01,23.7,5.9c17.28,0.77,31.87,3.91,43.75,9.4c33,14.49,62.74,22.79,89.2,24.9l89.5,7
			c10.51-0.52,15.18-3.88,14-10.1"/>
	</g>
	<g>
		
			<linearGradient id="SVGID_1_" gradientUnits="userSpaceOnUse" x1="436.9414" y1="-97.5503" x2="436.9192" y2="-92.3003" gradientTransform="matrix(1 0 0 -1 -160.5 -53.9746)">
			<stop  offset="0" style="stop-color:#20110C"/>
			<stop  offset="0.2039" style="stop-color:#C37851"/>
			<stop  offset="0.7137" style="stop-color:#401C10"/>
			<stop  offset="1" style="stop-color:#4B2815"/>
		</linearGradient>
		<path fill="url(#SVGID_1_)" d="M272.38,38.63c0.03-0.13,0.11-0.23,0.22-0.3c0.12-0.07,0.24-0.09,0.38-0.05
			c0.13,0.03,0.23,0.11,0.3,0.23c1.3,2.16,1.41,4.27,0.32,6.33c-0.07,0.12-0.17,0.21-0.3,0.25s-0.25,0.04-0.38-0.03
			c-0.12-0.07-0.21-0.17-0.25-0.3c-0.04-0.13-0.04-0.25,0.03-0.38c0.91-1.75,0.82-3.54-0.28-5.38
			C272.36,38.88,272.34,38.76,272.38,38.63z M276.08,38.27c0.13,0.03,0.23,0.11,0.3,0.23c1.27,2.16,1.37,4.27,0.33,6.33
			c-0.07,0.12-0.17,0.21-0.3,0.25c-0.13,0.04-0.25,0.04-0.38-0.03c-0.12-0.07-0.21-0.17-0.25-0.3c-0.04-0.13-0.04-0.25,0.02-0.38
			c0.88-1.75,0.79-3.54-0.27-5.38c-0.07-0.12-0.09-0.24-0.05-0.38c0.03-0.13,0.11-0.23,0.23-0.3
			C275.82,38.26,275.94,38.24,276.08,38.27z M279.13,38.27c0.13,0.03,0.23,0.11,0.3,0.23c1.3,2.16,1.41,4.27,0.33,6.33
			c-0.07,0.12-0.17,0.21-0.3,0.25s-0.25,0.04-0.38-0.03c-0.12-0.07-0.21-0.17-0.25-0.3s-0.04-0.25,0.02-0.38
			c0.91-1.75,0.82-3.54-0.27-5.38c-0.07-0.12-0.09-0.24-0.05-0.38c0.03-0.13,0.11-0.23,0.22-0.3
			C278.87,38.26,278.99,38.24,279.13,38.27z"/>
		
			<linearGradient id="SVGID_2_" gradientUnits="userSpaceOnUse" x1="443.2529" y1="-97.5376" x2="443.2307" y2="-92.288" gradientTransform="matrix(1 0 0 -1 -160.5 -53.9746)">
			<stop  offset="0" style="stop-color:#20110C"/>
			<stop  offset="0.2039" style="stop-color:#C37851"/>
			<stop  offset="0.7137" style="stop-color:#401C10"/>
			<stop  offset="1" style="stop-color:#4B2815"/>
		</linearGradient>
		<path fill="url(#SVGID_2_)" d="M282,38.33c0.12-0.07,0.24-0.09,0.38-0.05c0.13,0.03,0.23,0.11,0.3,0.23
			c1.27,2.16,1.37,4.27,0.33,6.33c-0.07,0.12-0.17,0.21-0.3,0.25s-0.25,0.04-0.38-0.03c-0.12-0.07-0.21-0.17-0.25-0.3
			c-0.04-0.13-0.04-0.25,0.02-0.38c0.88-1.75,0.79-3.54-0.27-5.38c-0.07-0.12-0.09-0.24-0.05-0.38
			C281.81,38.49,281.88,38.39,282,38.33z"/>
		<path fill="none" stroke="#000000" stroke-width="4.5" stroke-linecap="round" stroke-linejoin="round" stroke-miterlimit="3" d="
			M12.7,13.45c-0.53,2.67-0.4,4.52,0.4,5.55"/>
		<g>
			
				<linearGradient id="SVGID_3_" gradientUnits="userSpaceOnUse" x1="429.9941" y1="-107.7935" x2="431.1504" y2="-94.9712" gradientTransform="matrix(1 0 0 -1 -160.5 -53.9746)">
				<stop  offset="0" style="stop-color:#20110C"/>
				<stop  offset="0.2039" style="stop-color:#C37851"/>
				<stop  offset="0.7137" style="stop-color:#401C10"/>
				<stop  offset="1" style="stop-color:#4B2815"/>
			</linearGradient>
			<path fill="url(#SVGID_3_)" d="M269.9,44.92c1.16-1.15,1.03-3.18-0.4-6.1c-0.06-0.12-0.07-0.25-0.03-0.38
				c0.04-0.13,0.13-0.23,0.25-0.3c0.12-0.06,0.25-0.07,0.38-0.02c0.13,0.04,0.23,0.13,0.3,0.25c1.63,3.33,1.76,5.7,0.4,7.1
				c0.2,1.27,0.32,2.73,0.35,4.38v0.03c-0.03,0.77-0.07,1.57-0.1,2.4v0.05c-0.03,0.23-0.07,0.47-0.1,0.7
				c-0.04,0.4-0.22,1.52-0.55,3.38c-0.03,0.13-0.11,0.23-0.23,0.3c-0.11,0.08-0.24,0.12-0.38,0.1c-0.13-0.03-0.23-0.11-0.3-0.22
				c-0.08-0.11-0.12-0.24-0.1-0.38c0.33-1.84,0.51-2.94,0.55-3.3v-0.03c0.03-0.23,0.07-0.47,0.1-0.7c0.03-0.81,0.07-1.58,0.1-2.33
				c-0.04-1.7-0.17-3.18-0.4-4.45c-0.01-0.08,0-0.17,0.03-0.25C269.8,45.06,269.84,44.99,269.9,44.92z"/>
		</g>
		<g>
			
				<path fill="none" stroke="#000000" stroke-width="4.5" stroke-linecap="round" stroke-linejoin="round" stroke-miterlimit="3" d="
				M7.25,13.05c-2.41,10.41,4.82,14.09,21.7,11.05c16.89-3.04,34.49,0.28,52.8,9.95c30.3,15.33,58.33,23.52,84.1,24.55
				c32.3-0.1,57.9,0.95,76.8,3.15c3.07,0.3,6.13,0.83,9.2,1.6c0.83,0.2,1.67,0.4,2.5,0.6c6.57,1.07,11.35-0.78,14.35-5.55
				c0.29-0.46,0.55-0.98,0.77-1.55"/>
			
				<path fill="none" stroke="#000000" stroke-width="4.5" stroke-linecap="round" stroke-linejoin="round" stroke-miterlimit="3" d="
				M269.47,56.85c0.17-0.41,0.56-0.03,1.18,1.15"/>
		</g>
	</g>
	<g>
		<path fill="none" d="M12.8,11.7c-1.13,1.65-1.21,4-0.25,7.05"/>
		<path fill="none" d="M7.58,11.7c-1.3,1.65-1.44,4.09-0.43,7.3"/>
		<path fill="none" d="M254.75,63.8c6.43,0.6,11.32-1.13,14.65-5.2"/>
		<path fill="none" d="M69.4,28.75c35.47,17.17,64.09,27.12,85.85,29.85"/>
		<path fill="none" d="M175,58.6c26,0.07,49.93,1.27,71.8,3.6"/>
	</g>
</g>
</svg>
