<?xml version="1.0" encoding="utf-8"?>
<!-- Generator: Adobe Illustrator 16.0.0, SVG Export Plug-In . SVG Version: 6.00 Build 0)  -->
<!DOCTYPE svg PUBLIC "-//W3C//DTD SVG 1.1//EN" "http://www.w3.org/Graphics/SVG/1.1/DTD/svg11.dtd">
<svg version="1.1" xmlns="http://www.w3.org/2000/svg" xmlns:xlink="http://www.w3.org/1999/xlink" x="0px" y="0px"
	 width="156.33px" height="58px" viewBox="0 0 156.33 58" enable-background="new 0 0 156.33 58" xml:space="preserve">
<g id="shadow1">
</g>
<g id="shadow2">
	<g>
		<g>
			<linearGradient id="SVGID_1_" gradientUnits="userSpaceOnUse" x1="78.3115" y1="42.832" x2="78.3552" y2="54.5821">
				<stop  offset="0" style="stop-color:#4E4836;stop-opacity:0.6"/>
				<stop  offset="0.4118" style="stop-color:#4E4836;stop-opacity:0.498"/>
				<stop  offset="0.7137" style="stop-color:#4E4837;stop-opacity:0.1294"/>
				<stop  offset="1" style="stop-color:#4F4838;stop-opacity:0"/>
			</linearGradient>
			<polygon fill-rule="evenodd" clip-rule="evenodd" fill="url(#SVGID_1_)" points="139,31.25 154.05,53.3 34.75,53.3 29.45,44.5 
				4.8,43.9 2.6,39.2 28.35,39.2 26.65,36.2 30.6,36.2 28.85,31.25 			"/>
		</g>
		<g>
			<linearGradient id="SVGID_2_" gradientUnits="userSpaceOnUse" x1="74.5283" y1="42.5322" x2="74.5109" y2="45.5323">
				<stop  offset="0" style="stop-color:#000000;stop-opacity:0.6941"/>
				<stop  offset="0.3647" style="stop-color:#000000;stop-opacity:0.298"/>
				<stop  offset="1" style="stop-color:#000000;stop-opacity:0"/>
			</linearGradient>
			<path fill-rule="evenodd" clip-rule="evenodd" fill="url(#SVGID_2_)" d="M141.35,38.1c0.8,2.2,1.75,4.73,2.85,7.6H35.15
				l-1.75-2.05H6.15l-1.3-3.2h27l-1.5-2.35H141.35z"/>
		</g>
		<g>
			<g>
				<linearGradient id="SVGID_3_" gradientUnits="userSpaceOnUse" x1="103.5537" y1="3.3242" x2="103.3675" y2="41.7743">
					<stop  offset="0" style="stop-color:#1F1814"/>
					<stop  offset="0.0824" style="stop-color:#41352B"/>
					<stop  offset="0.1608" style="stop-color:#3B3027"/>
					<stop  offset="0.2549" style="stop-color:#777776"/>
					<stop  offset="0.4275" style="stop-color:#28221C"/>
					<stop  offset="0.6667" style="stop-color:#29221C"/>
					<stop  offset="1" style="stop-color:#000000"/>
					<stop  offset="1" style="stop-color:#000000"/>
				</linearGradient>
				<path fill-rule="evenodd" clip-rule="evenodd" fill="url(#SVGID_3_)" d="M61.75,41.8c2.23-8.3,3.08-16.5,2.55-24.6
					c-0.07-1.17-0.17-2.33-0.3-3.5c-0.07-0.67-0.15-1.35-0.25-2.05c-0.17-0.9-0.3-1.8-0.4-2.7c-0.43-2.27-0.97-4.53-1.6-6.8h76.2
					c1.6,0.03,3.08,1.98,4.45,5.85c0.4,1.17,0.78,2.38,1.15,3.65c0.4,1.73,0.75,3.58,1.05,5.55c0.2,1.53,0.37,3.17,0.5,4.9
					c0.37,5.53,0.07,10.23-0.9,14.1c-0.67,3.1-1.57,4.97-2.7,5.6H61.75z"/>
				<linearGradient id="SVGID_4_" gradientUnits="userSpaceOnUse" x1="57.8975" y1="2.1387" x2="58.4086" y2="41.7838">
					<stop  offset="0" style="stop-color:#1F1814"/>
					<stop  offset="0.0824" style="stop-color:#41352B"/>
					<stop  offset="0.1608" style="stop-color:#3B3027"/>
					<stop  offset="0.251" style="stop-color:#777776"/>
					<stop  offset="0.4" style="stop-color:#000000"/>
					<stop  offset="0.4275" style="stop-color:#000000"/>
					<stop  offset="1" style="stop-color:#000000"/>
					<stop  offset="1" style="stop-color:#000000"/>
				</linearGradient>
				<path fill-rule="evenodd" clip-rule="evenodd" fill="url(#SVGID_4_)" d="M52.1,41.8c2.43-6.43,3.32-14.63,2.65-24.6
					c-0.1-1.13-0.2-2.28-0.3-3.45c-0.07-0.7-0.15-1.4-0.25-2.1c-0.1-0.9-0.22-1.8-0.35-2.7c-0.3-2.17-0.65-4.37-1.05-6.6
					c3.63,2.2,6.57,2.13,8.8-0.2h0.15c0.63,2.27,1.17,4.53,1.6,6.8c0.1,0.9,0.23,1.8,0.4,2.7c0.1,0.7,0.18,1.38,0.25,2.05
					c0.13,1.17,0.23,2.33,0.3,3.5c0.53,8.1-0.32,16.3-2.55,24.6H61.5C59.23,39.57,56.1,39.57,52.1,41.8z"/>
				<linearGradient id="SVGID_5_" gradientUnits="userSpaceOnUse" x1="44.3359" y1="1.9492" x2="44.7001" y2="41.9493">
					<stop  offset="0" style="stop-color:#1F1814"/>
					<stop  offset="0.0824" style="stop-color:#41352B"/>
					<stop  offset="0.1608" style="stop-color:#3B3027"/>
					<stop  offset="0.2549" style="stop-color:#777776"/>
					<stop  offset="0.4275" style="stop-color:#28221C"/>
					<stop  offset="0.6667" style="stop-color:#29221C"/>
					<stop  offset="1" style="stop-color:#000000"/>
					<stop  offset="1" style="stop-color:#000000"/>
				</linearGradient>
				<path fill-rule="evenodd" clip-rule="evenodd" fill="url(#SVGID_5_)" d="M35,41.8c0.93-0.03,1.68-1.98,2.25-5.85
					c0.57-3.93,0.77-8.63,0.6-14.1c-0.03-1.63-0.08-3.18-0.15-4.65c-0.17-1.97-0.37-3.82-0.6-5.55c-0.2-1.33-0.43-2.58-0.7-3.75
					c-0.73-3.8-1.57-5.72-2.5-5.75h18.3l0.6,0.2c0.4,2.23,0.75,4.43,1.05,6.6c0.13,0.9,0.25,1.8,0.35,2.7c0.1,0.7,0.18,1.4,0.25,2.1
					c0.1,1.17,0.2,2.32,0.3,3.45c0.67,9.97-0.22,18.17-2.65,24.6H35z"/>
				<path fill-rule="evenodd" clip-rule="evenodd" fill="#090706" d="M33.9,2.15c0.93,0.03,1.77,1.95,2.5,5.75
					c0.27,1.17,0.5,2.42,0.7,3.75c0.23,1.73,0.43,3.58,0.6,5.55c0.07,1.47,0.12,3.02,0.15,4.65c0.17,5.47-0.03,10.17-0.6,14.1
					c-0.57,3.87-1.32,5.82-2.25,5.85c-0.97-0.03-1.85-1.95-2.65-5.75c-0.8-3.87-1.28-8.53-1.45-14c-0.03-1.7-0.03-3.32,0-4.85
					c0-1.97,0.08-3.82,0.25-5.55c0.07-1.27,0.2-2.47,0.4-3.6c0.57-3.9,1.33-5.87,2.3-5.9H33.9z"/>
			</g>
			<g>
				<path fill-rule="evenodd" clip-rule="evenodd" fill="#6E6E6C" fill-opacity="0.9882" d="M142.4,8c-0.72-0.17-1.47-0.23-2.25-0.2
					c0-0.53,0-1.07,0-1.6c0.6,0,1.07-0.12,1.4-0.35C141.85,6.48,142.13,7.2,142.4,8z"/>
				<path fill-rule="evenodd" clip-rule="evenodd" fill="#666763" d="M140.15,7.8c0.78-0.03,1.53,0.03,2.25,0.2h0.05
					c0.13,0.4,0.27,0.82,0.4,1.25c-0.27,0-0.52,0-0.75,0c0,1.6,0,3.15,0,4.65c0,0.53,0.02,1.07,0.05,1.6c-0.67,0-1.32,0-1.95,0
					c-0.03-0.53-0.05-1.05-0.05-1.55c0-0.47,0-0.97,0-1.5s0-1.07,0-1.6C140.15,9.78,140.15,8.77,140.15,7.8z"/>
				<path fill-rule="evenodd" clip-rule="evenodd" fill="#7B7C7C" d="M144.15,14.6c-0.2,0.17-0.4,0.33-0.6,0.5
					c-0.3,0.27-0.77,0.4-1.4,0.4c-0.03-0.53-0.05-1.07-0.05-1.6c0-1.5,0-3.05,0-4.65c0.23,0,0.48,0,0.75,0
					c0.23,0.8,0.47,1.6,0.7,2.4C143.75,12.58,143.95,13.57,144.15,14.6z"/>
				<path fill-rule="evenodd" clip-rule="evenodd" fill="#141411" d="M136.3,2.15c-0.1,0.23-0.25,0.43-0.45,0.6
					c-0.27,0.27-0.7,0.4-1.3,0.4c0-0.53-0.03-0.8-0.1-0.8c-0.73-0.03-1.35-0.1-1.85-0.2H136.3z M138.3,3.15c0-0.43-0.1-0.77-0.3-1
					c0.53,0.03,1.07,0.28,1.6,0.75C139.27,3.07,138.83,3.15,138.3,3.15z"/>
				<path fill-rule="evenodd" clip-rule="evenodd" fill="#1A1913" fill-opacity="0.251" d="M141.55,5.85
					c-0.33,0.23-0.8,0.35-1.4,0.35c-0.57,0-1.18,0-1.85,0h-0.95c0-1,0.32-2.02,0.95-3.05c0.53,0,0.97-0.08,1.3-0.25
					C140.27,3.5,140.92,4.48,141.55,5.85z"/>
				<path fill-rule="evenodd" clip-rule="evenodd" fill="#161311" fill-opacity="0.251" d="M134.6,12.45c0-0.53,0-1.07,0-1.6
					c0-1.5-0.02-3.03-0.05-4.6v-0.8c-3.37,0.2-5.25-0.55-5.65-2.25c1.2-0.03,2.45-0.05,3.75-0.05c0.63,0,1.27,0,1.9,0
					c0.6,0,1.03-0.13,1.3-0.4c0.2-0.17,0.35-0.37,0.45-0.6h1.7c0.2,0.23,0.3,0.57,0.3,1c-0.63,1.03-0.95,2.05-0.95,3.05h0.95
					c-0.63,2.1-1.5,4.08-2.6,5.95C135.53,12.35,135.17,12.45,134.6,12.45z"/>
				<path fill-rule="evenodd" clip-rule="evenodd" fill="#12100E" fill-opacity="0.251" d="M117.5,6.3c0-0.53,0.17-0.93,0.5-1.2
					c1.23-1.03,1.47-2.02,0.7-2.95h13.9c0.5,0.1,1.12,0.17,1.85,0.2c0.07,0,0.1,0.27,0.1,0.8c-0.63,0-1.27,0-1.9,0
					c-1.3,0-2.55,0.02-3.75,0.05c0.4,1.7,2.28,2.45,5.65,2.25v0.8c-0.63,0-1.27,0-1.9,0c-1.3,0-2.55,0-3.75,0c-0.67,0-1.32,0-1.95,0
					c-0.63,0-1.23,0-1.8,0c0.57,1.07,0.85,2.1,0.85,3.1h-0.85c-0.63,0-1.27,0-1.9,0c0-0.47-0.17-0.82-0.5-1.05
					c-1-0.83-2.1-1.5-3.3-2C118.82,6.3,118.17,6.3,117.5,6.3z"/>
				<path fill-rule="evenodd" clip-rule="evenodd" fill="#403F3F" fill-opacity="0.251" d="M130.7,9.3c-0.53,0-0.88-0.1-1.05-0.3
					c-0.5-0.77-0.75-1.68-0.75-2.75c1.2,0,2.45,0,3.75,0c0.63,0,1.27,0,1.9,0c0.03,1.57,0.05,3.1,0.05,4.6c0,0.53,0,1.07,0,1.6
					c-0.63,0-1.27,0-1.9,0c0-0.5,0.07-0.98,0.2-1.45c0.63-2.27-0.1-3.32-2.2-3.15C130.7,8.35,130.7,8.83,130.7,9.3z"/>
				<path fill-rule="evenodd" clip-rule="evenodd" fill="#272522" fill-opacity="0.251" d="M140.15,7.8c0,0.97,0,1.98,0,3.05
					c0,0.53,0,1.07,0,1.6c-0.53,0-1.13,0-1.8,0c-0.63,0.53-1.32,0.93-2.05,1.2c-0.57,0.2-1.13,0.3-1.7,0.3c0-0.47,0-0.97,0-1.5
					c0.57,0,0.93-0.1,1.1-0.3c1.1-1.87,1.97-3.85,2.6-5.95c0.67,0,1.28,0,1.85,0C140.15,6.73,140.15,7.27,140.15,7.8z"/>
				<path fill-rule="evenodd" clip-rule="evenodd" fill="#2D2A2A" fill-opacity="0.251" d="M140.2,15.5c0.8,2.17,0.2,3.22-1.8,3.15
					c-0.67-0.07-1.32-0.08-1.95-0.05c-0.63,0-1.25,0-1.85,0c0-0.53,0-1.03,0-1.5c0-1.03,0-2.08,0-3.15c0.57,0,1.13-0.1,1.7-0.3
					c0.73-0.27,1.42-0.67,2.05-1.2c0.67,0,1.27,0,1.8,0c0,0.53,0,1.03,0,1.5C140.15,14.45,140.17,14.97,140.2,15.5z"/>
				<path fill-rule="evenodd" clip-rule="evenodd" fill="#757672" fill-opacity="0.251" d="M130.75,15.55c0-0.53,0-1.07,0-1.6
					c0.07-1.5,0.05-3.05-0.05-4.65c0-0.47,0-0.95,0-1.45c2.1-0.17,2.83,0.88,2.2,3.15c-0.13,0.47-0.2,0.95-0.2,1.45
					c0,1-0.25,1.93-0.75,2.8C131.82,15.45,131.42,15.55,130.75,15.55z"/>
				<path fill-rule="evenodd" clip-rule="evenodd" fill="#686764" d="M132.7,12.45c0.63,0,1.27,0,1.9,0c0,0.53,0,1.03,0,1.5
					c0,1.07,0,2.12,0,3.15c0,0.47,0,0.97,0,1.5c-0.6,0-1.23,0.03-1.9,0.1c-6.53,0.77-8.43-0.28-5.7-3.15c0.67,0,1.32,0,1.95,0
					c0.63,0,1.23,0,1.8,0c0.67,0,1.07-0.1,1.2-0.3C132.45,14.38,132.7,13.45,132.7,12.45z"/>
				<path fill-rule="evenodd" clip-rule="evenodd" fill="#3E3C37" fill-opacity="0.251" d="M125.15,9.35c0.03,2.1,0.33,4.1,0.9,6
					c0,0.13,0.32,0.2,0.95,0.2c-2.73,2.87-0.83,3.92,5.7,3.15c0.67-0.07,1.3-0.1,1.9-0.1c-1.67,1.8-4.83,2.38-9.5,1.75
					c-0.57-0.07-1.17-0.1-1.8-0.1c-0.63,0-1.28,0-1.95,0c-0.63,0-1.23,0-1.8,0c0-0.5-0.02-1.03-0.05-1.6c0.57,0,1.02-0.13,1.35-0.4
					c2.17-1.83,2.97-4.8,2.4-8.9C123.88,9.35,124.52,9.35,125.15,9.35z"/>
				<path fill-rule="evenodd" clip-rule="evenodd" fill="#3E3A32" fill-opacity="0.251" d="M140.2,15.5c0.63,0,1.28,0,1.95,0
					c0,1.03,0,2.05,0,3.05c0,0.53,0,1.07,0,1.6c-0.63,0-1.23,0.07-1.8,0.2c-2.73,0.53-4.03-0.05-3.9-1.75
					c0.63-0.03,1.28-0.02,1.95,0.05C140.4,18.72,141,17.67,140.2,15.5z"/>
				<path fill-rule="evenodd" clip-rule="evenodd" fill="#89837A" fill-opacity="0.251" d="M142.2,26.25
					c-0.67,0-1.32,0.02-1.95,0.05c-1.87,0.07-3.73,0.07-5.6,0c0-0.53-0.15-1-0.45-1.4c-0.33-0.57-0.82-1.12-1.45-1.65
					c0.63,0,1.27,0,1.9,0c0.6,0,1.03-0.13,1.3-0.4c0.33-0.27,0.5-0.67,0.5-1.2c1.3,0,2.55,0,3.75,0c0.67-0.03,1.32-0.05,1.95-0.05
					c-4.1,2-4.13,3.28-0.1,3.85C142.15,25.45,142.2,25.72,142.2,26.25z"/>
				<path fill-rule="evenodd" clip-rule="evenodd" fill="#514D46" d="M142.15,20.15c0,0.53,0,1.02,0,1.45
					c-0.63,0-1.28,0.02-1.95,0.05c-1.2,0-2.45,0-3.75,0c0,0.53-0.17,0.93-0.5,1.2c-0.27,0.27-0.7,0.4-1.3,0.4
					c0-0.53-0.08-0.8-0.25-0.8c-2.4-0.53-4.85-0.78-7.35-0.75c-0.63,0-1.2-0.1-1.7-0.3c-0.73-0.23-1.42-0.62-2.05-1.15
					c0.63,0,1.23,0.03,1.8,0.1c4.67,0.63,7.83,0.05,9.5-1.75c0.6,0,1.22,0,1.85,0c-0.13,1.7,1.17,2.28,3.9,1.75
					C140.92,20.22,141.52,20.15,142.15,20.15z"/>
				<path fill-rule="evenodd" clip-rule="evenodd" fill="#52504B" fill-opacity="0.9333" d="M142.15,20.15c0-0.53,0-1.07,0-1.6
					c0-1,0-2.02,0-3.05c0.63,0,1.1-0.13,1.4-0.4c0.2-0.17,0.4-0.33,0.6-0.5c0.13,0.7,0.27,1.43,0.4,2.2v0.25c-0.17,0-0.33,0-0.5,0
					c0,1-0.27,1.93-0.8,2.8C143.15,20.05,142.78,20.15,142.15,20.15z"/>
				<path fill-rule="evenodd" clip-rule="evenodd" fill="#8B8882" d="M144.55,21.6c-0.13,0-0.3,0-0.5,0c-0.63,0-1.27,0-1.9,0
					c0-0.43,0-0.92,0-1.45c0.63,0,1-0.1,1.1-0.3c0.53-0.87,0.8-1.8,0.8-2.8c0.17,0,0.33,0,0.5,0V21.6z"/>
				<path fill-rule="evenodd" clip-rule="evenodd" fill="#C4B9AE" fill-opacity="0.251" d="M144.6,27.05c-0.57,0.13-1.3,0.13-2.2,0
					c-0.13,0-0.2-0.27-0.2-0.8s-0.05-0.8-0.15-0.8c-4.03-0.57-4-1.85,0.1-3.85c0.63,0,1.27,0,1.9,0c0.2,0,0.37,0,0.5,0L144.6,27.05z
					"/>
				<path fill-rule="evenodd" clip-rule="evenodd" fill="#777876" fill-opacity="0.251" d="M123.25,9.35c0.57,4.1-0.23,7.07-2.4,8.9
					c-0.33,0.27-0.78,0.4-1.35,0.4c-0.63,0-1.18-0.08-1.65-0.25c-0.83-0.33-1.57-0.73-2.2-1.2c0-0.53-0.12-0.98-0.35-1.35
					c-0.33-0.67-0.82-1.27-1.45-1.8c0.63,0,1.23,0,1.8,0c0.63,0.53,1.37,0.95,2.2,1.25c0.47,0.2,1.02,0.3,1.65,0.3
					c0.57,0,0.9-0.07,1-0.2c0.53-1.93,0.8-3.95,0.8-6.05C121.93,9.35,122.58,9.35,123.25,9.35z"/>
				<path fill-rule="evenodd" clip-rule="evenodd" fill="#4C4D4A" fill-opacity="0.251" d="M119.5,15.6c0-0.53,0.05-1.03,0.15-1.5
					c0.7-2.77,0-4.35-2.1-4.75c0-0.43,0.12-0.88,0.35-1.35c0.4-0.6,0.92-1.17,1.55-1.7c1.2,0.5,2.3,1.17,3.3,2
					c0.33,0.23,0.5,0.58,0.5,1.05c-0.67,0-1.32,0-1.95,0c0,2.1-0.27,4.12-0.8,6.05C120.4,15.53,120.07,15.6,119.5,15.6z"/>
				<path fill-rule="evenodd" clip-rule="evenodd" fill="#1F201A" fill-opacity="0.251" d="M127,15.55c-0.63,0-0.95-0.07-0.95-0.2
					c-0.57-1.9-0.87-3.9-0.9-6H126c0-1-0.28-2.03-0.85-3.1c0.57,0,1.17,0,1.8,0c0.63,0,1.28,0,1.95,0c0,1.07,0.25,1.98,0.75,2.75
					c0.17,0.2,0.52,0.3,1.05,0.3c0.1,1.6,0.12,3.15,0.05,4.65c0,0.53,0,1.07,0,1.6c-0.57,0-1.17,0-1.8,0
					C128.32,15.55,127.67,15.55,127,15.55z"/>
				<path fill-rule="evenodd" clip-rule="evenodd" fill="#5F605E" fill-opacity="0.251" d="M117.5,6.3c0.67,0,1.32,0,1.95,0
					c-0.63,0.53-1.15,1.1-1.55,1.7c-0.23,0.47-0.35,0.92-0.35,1.35c-0.67,0.03-1.07,0.18-1.2,0.45c-1.67,2.17-2.52,1.53-2.55-1.9
					c0.67,0,1.15-0.13,1.45-0.4c0.23-0.27,0.35-0.65,0.35-1.15C116.23,6.35,116.87,6.33,117.5,6.3z"/>
				<path fill-rule="evenodd" clip-rule="evenodd" fill="#131212" fill-opacity="0.251" d="M102.45,8c-0.67,0-1.32,0-1.95,0
					c-0.57,0-1.02-0.13-1.35-0.4c-0.33-0.27-0.5-0.67-0.5-1.2c0-0.53,0.17-0.9,0.5-1.1c1.63-1.1,3.37-2.15,5.2-3.15h14.35
					c0.77,0.93,0.53,1.92-0.7,2.95c-0.33,0.27-0.5,0.67-0.5,1.2c-0.63,0.03-1.27,0.05-1.9,0.05c0,0.5-0.12,0.88-0.35,1.15
					c-0.3,0.27-0.78,0.4-1.45,0.4c-0.63,0.03-1.28,0.05-1.95,0.05c-0.63,0-1.23,0-1.8,0c-0.63,0-1.28,0-1.95,0
					C106.17,7.95,104.28,7.97,102.45,8z"/>
				<path fill-rule="evenodd" clip-rule="evenodd" fill="#22211E" fill-opacity="0.251" d="M117.55,9.35c2.1,0.4,2.8,1.98,2.1,4.75
					c-0.1,0.47-0.15,0.97-0.15,1.5c-0.63,0-1.18-0.1-1.65-0.3c-0.83-0.3-1.57-0.72-2.2-1.25c0-0.47-0.13-0.77-0.4-0.9
					c-0.93-0.4-2.05-0.58-3.35-0.55c0-0.53-0.08-1.03-0.25-1.5c-0.5-1.13-1.03-2.18-1.6-3.15c0.57,0,1.17,0,1.8,0
					c0.67,0,1.32-0.02,1.95-0.05c0.03,3.43,0.88,4.07,2.55,1.9C116.48,9.53,116.88,9.38,117.55,9.35z"/>
				<path fill-rule="evenodd" clip-rule="evenodd" fill="#696A66" fill-opacity="0.251" d="M111.9,12.6
					c0.9,2.73,0.42,4.48-1.45,5.25c-0.23,0.03-0.35,0.32-0.35,0.85c-0.67,0-1.32,0.02-1.95,0.05c-1.27,0-2.52,0-3.75,0
					c0-0.53-0.15-0.92-0.45-1.15c-0.33-0.2-0.82-0.3-1.45-0.3c0-0.53,0-1.07,0-1.6c-0.03-0.53-0.05-1.07-0.05-1.6
					c0.67,0,1.27,0.07,1.8,0.2c4.7,1.1,5.35-0.52,1.95-4.85c-0.57,0.53-1.25,0.97-2.05,1.3c-0.5,0.2-1.07,0.3-1.7,0.3
					c0-0.53,0-1.07,0-1.6c0-0.47,0-0.95,0-1.45c1.83-0.03,3.72-0.05,5.65-0.05c0.67,0,1.32,0,1.95,0c0.57,0.97,1.1,2.02,1.6,3.15
					C111.82,11.57,111.9,12.07,111.9,12.6z"/>
				<path fill-rule="evenodd" clip-rule="evenodd" fill="#373631" fill-opacity="0.251" d="M110.1,20.3c0-0.53,0-1.07,0-1.6
					s0.12-0.82,0.35-0.85c1.87-0.77,2.35-2.52,1.45-5.25c1.3-0.03,2.42,0.15,3.35,0.55c0.27,0.13,0.4,0.43,0.4,0.9
					c-0.57,0-1.17,0-1.8,0c0.63,0.53,1.12,1.13,1.45,1.8c0.23,0.37,0.35,0.82,0.35,1.35c-0.57,0.47-1.05,1.03-1.45,1.7
					c-0.23,0.4-0.35,0.87-0.35,1.4c-0.63,0-1.27,0-1.9,0C111.28,20.3,110.67,20.3,110.1,20.3z"/>
				<path fill-rule="evenodd" clip-rule="evenodd" fill="#3D3B35" fill-opacity="0.251" d="M113.85,20.3c0,0.53,0,1.02,0,1.45
					c-0.63,0-1.27,0-1.9,0c0,0.57,0,1.1,0,1.6c-0.63,0-1.23,0-1.8,0c-1.93,0.03-3.83,0.05-5.7,0.05c0,0.53,0,1.07,0,1.6
					c0,0.47,0,0.97,0,1.5c-0.63,0-1.28,0-1.95,0c-0.63,0-1.27,0-1.9,0c-0.57,0-1.18,0-1.85,0c-0.63,0-1.18-0.1-1.65-0.3
					c-0.8-0.33-1.48-0.73-2.05-1.2c0.57,0,1.03-0.12,1.4-0.35c0.9-0.83,1.67-1.77,2.3-2.8c0.63,0,1.23,0,1.8,0
					c0.67-0.03,1.32-0.05,1.95-0.05s1.23,0.08,1.8,0.25c3.47,0.53,5.4-0.05,5.8-1.75c0.57,0,1.18,0,1.85,0
					C112.58,20.3,113.22,20.3,113.85,20.3z"/>
				<path fill-rule="evenodd" clip-rule="evenodd" fill="#44413B" fill-opacity="0.251" d="M119.55,20.25c0,0.53,0,1.03,0,1.5
					c-0.67,0-1.32,0-1.95,0c-1.27,0-2.52,0-3.75,0c0-0.43,0-0.92,0-1.45s0.12-1,0.35-1.4c0.4-0.67,0.88-1.23,1.45-1.7
					c0.63,0.47,1.37,0.87,2.2,1.2c0.47,0.17,1.02,0.25,1.65,0.25C119.53,19.22,119.55,19.75,119.55,20.25z"/>
				<path fill-rule="evenodd" clip-rule="evenodd" fill="#55534D" fill-opacity="0.251" d="M119.55,21.75c0-0.47,0-0.97,0-1.5
					c0.57,0,1.17,0,1.8,0c0.67,0,1.32,0,1.95,0c0.63,0.53,1.32,0.92,2.05,1.15c0.5,0.2,1.07,0.3,1.7,0.3c-1.2,3.03-2.65,3.7-4.35,2
					c-0.23-0.27-0.67-0.4-1.3-0.4c-0.03-0.53-0.22-0.92-0.55-1.15C120.55,21.88,120.12,21.75,119.55,21.75z"/>
				<path fill-rule="evenodd" clip-rule="evenodd" fill="#6C6962" fill-opacity="0.251" d="M121.4,26.35
					c-0.67,0.03-1.12-0.08-1.35-0.35c-0.33-0.27-0.5-0.63-0.5-1.1c0.57,0,1.02-0.13,1.35-0.4c0.33-0.27,0.5-0.67,0.5-1.2
					c0.63,0,1.07,0.13,1.3,0.4c1.7,1.7,3.15,1.03,4.35-2c2.5-0.03,4.95,0.22,7.35,0.75c0.17,0,0.25,0.27,0.25,0.8
					c-0.63,0-1.27,0-1.9,0c0.63,0.53,1.12,1.08,1.45,1.65c0.3,0.4,0.45,0.87,0.45,1.4c-0.63,0-1.27,0.02-1.9,0.05
					c-1.87,0.07-3.77,0.07-5.7,0c0,0.53-0.15,0.93-0.45,1.2c-0.33,0.27-0.78,0.4-1.35,0.4c0-0.53-0.17-0.83-0.5-0.9
					C123.78,26.58,122.67,26.35,121.4,26.35z"/>
				<path fill-rule="evenodd" clip-rule="evenodd" fill="#515049" fill-opacity="0.251" d="M134.7,27.9c-0.63,0-1.28,0-1.95,0
					c-1.27,0-2.52,0.02-3.75,0.05c2.2,0.77,3.13,2.27,2.8,4.5c0,0.07-0.32,0.1-0.95,0.1c0-0.53-0.08-0.83-0.25-0.9
					c-2.27-0.43-4.05-1.15-5.35-2.15c0-0.53,0-1.05,0-1.55c0.57,0,1.02-0.13,1.35-0.4c0.3-0.27,0.45-0.67,0.45-1.2
					c1.93,0.07,3.83,0.07,5.7,0c0.63-0.03,1.27-0.05,1.9-0.05C134.65,26.83,134.67,27.37,134.7,27.9z"/>
				<path fill-rule="evenodd" clip-rule="evenodd" fill="#81807B" fill-opacity="0.251" d="M123.35,34.1c0,0.5,0.02,1.02,0.05,1.55
					c0,0.53,0,1.07,0,1.6c-0.67,0-1-0.07-1-0.2c-0.67-2.43-1-4.93-1-7.5c0-0.53,0-1.07,0-1.6s0-1.07,0-1.6
					c1.27,0,2.38,0.23,3.35,0.7c0.33,0.07,0.5,0.37,0.5,0.9c0,0.5,0,1.02,0,1.55c-0.63,0.03-1.27,0.05-1.9,0.05
					c0,0.97,0,1.98,0,3.05C123.35,33.13,123.35,33.63,123.35,34.1z"/>
				<path fill-rule="evenodd" clip-rule="evenodd" fill="#555149" d="M121.4,29.55c-0.63,0-1.23,0-1.8,0c0,0.47-0.17,0.83-0.5,1.1
					c-0.33,0.27-0.82,0.4-1.45,0.4c0-0.53,0-1.03,0-1.5c0-0.53,0-1.05,0-1.55c-0.03-0.57-0.05-1.1-0.05-1.6c0-0.53,0-1.03,0-1.5
					c0.67,0,1.32,0,1.95,0c0,0.47,0.17,0.83,0.5,1.1c0.23,0.27,0.68,0.38,1.35,0.35c0,0.53,0,1.07,0,1.6S121.4,29.02,121.4,29.55z"
					/>
				<path fill-rule="evenodd" clip-rule="evenodd" fill="#383632" fill-opacity="0.251" d="M123.35,34.1c0-0.47,0-0.97,0-1.5
					c0-1.07,0-2.08,0-3.05c0.63,0,1.27-0.02,1.9-0.05c1.3,1,3.08,1.72,5.35,2.15c0.17,0.07,0.25,0.37,0.25,0.9c-0.57,0-1.17,0-1.8,0
					c0,0.57,0,1.07,0,1.5c-0.67,0-1.32,0-1.95,0c-0.63,0-1.23,0-1.8,0C124.67,34.08,124.02,34.1,123.35,34.1z"/>
				<path fill-rule="evenodd" clip-rule="evenodd" fill="#2D251F" d="M123.4,38.75c0-0.53,0-1.03,0-1.5c0-0.53,0-1.07,0-1.6
					c-0.03-0.53-0.05-1.05-0.05-1.55c0.67,0,1.32-0.02,1.95-0.05c0.33,1.8,1.58,2.83,3.75,3.1c0.67,0.03,1.27,0.05,1.8,0.05
					c-0.37,1.73-2.25,2.32-5.65,1.75C124.63,38.82,124.03,38.75,123.4,38.75z"/>
				<path fill-rule="evenodd" clip-rule="evenodd" fill="#1E1A11" fill-opacity="0.251" d="M130.85,37.2c-0.53,0-1.13-0.02-1.8-0.05
					c-2.17-0.27-3.42-1.3-3.75-3.1c0.57,0,1.17,0,1.8,0c0.63,0,1.28,0,1.95,0c0.63,0,1.23,0,1.8,0c0,0.53,0,1.07,0,1.6
					C130.85,36.15,130.85,36.67,130.85,37.2z"/>
				<path fill-rule="evenodd" clip-rule="evenodd" fill="#7C7C77" d="M134.7,27.9c0,0.5,0,1.02,0,1.55c0,0.47,0,0.97,0,1.5
					c0,1.07-0.28,2-0.85,2.8c-0.07,0.2-0.42,0.3-1.05,0.3c-0.67,0-1.32,0-1.95,0c-0.57,0-1.17,0-1.8,0c0-0.43,0-0.93,0-1.5
					c0.63,0,1.23,0,1.8,0c0.63,0,0.95-0.03,0.95-0.1c0.33-2.23-0.6-3.73-2.8-4.5c1.23-0.03,2.48-0.05,3.75-0.05
					C133.42,27.9,134.07,27.9,134.7,27.9z"/>
				<path fill-rule="evenodd" clip-rule="evenodd" fill="#67635C" fill-opacity="0.251" d="M119.55,24.9c-0.63,0-1.28,0-1.95,0
					c0,0.47,0,0.97,0,1.5c0,0.5,0.02,1.03,0.05,1.6c-0.63,0-1.27,0-1.9,0c-0.03-0.53-0.17-0.93-0.4-1.2
					c-0.33-0.27-0.82-0.4-1.45-0.4c0-0.53,0-1.03,0-1.5c0.63,0,1.15-0.12,1.55-0.35c1.43-0.83,2.8-1.77,4.1-2.8
					c0.57,0,1,0.13,1.3,0.4c0.33,0.23,0.52,0.62,0.55,1.15c0,0.53-0.17,0.93-0.5,1.2C120.57,24.77,120.12,24.9,119.55,24.9z"/>
				<path fill-rule="evenodd" clip-rule="evenodd" fill="#4B473F" d="M113.9,24.9c0-0.5-0.17-0.88-0.5-1.15
					c-0.33-0.27-0.82-0.4-1.45-0.4c0-0.5,0-1.03,0-1.6c0.63,0,1.27,0,1.9,0c1.23,0,2.48,0,3.75,0c0.63,0,1.28,0,1.95,0
					c-1.3,1.03-2.67,1.97-4.1,2.8C115.05,24.78,114.53,24.9,113.9,24.9z"/>
				<path fill-rule="evenodd" clip-rule="evenodd" fill="#54524A" fill-opacity="0.251" d="M113.9,26.4
					c-0.67,0.03-1.32,0.05-1.95,0.05c-0.63,0-1.23,0-1.8,0c0,0.5,0,1.02,0,1.55c-0.63,0-1.28,0.02-1.95,0.05
					c0-0.53-0.17-0.93-0.5-1.2c-1.03-0.93,0.38-2.1,4.25-3.5c0.63,0,1.12,0.13,1.45,0.4c0.33,0.27,0.5,0.65,0.5,1.15
					C113.9,25.37,113.9,25.87,113.9,26.4z"/>
				<path fill-rule="evenodd" clip-rule="evenodd" fill="#807F7B" fill-opacity="0.251" d="M110.15,29.6c0-0.53,0-1.07,0-1.6
					s0-1.05,0-1.55c0.57,0,1.17,0,1.8,0c0.63,0,1.28-0.02,1.95-0.05c0.63,0,1.12,0.13,1.45,0.4c0.23,0.27,0.37,0.67,0.4,1.2
					c-0.57,0-1.18,0-1.85,0c-0.63,0.53-1.32,0.93-2.05,1.2C111.28,29.47,110.72,29.6,110.15,29.6z"/>
				<path fill-rule="evenodd" clip-rule="evenodd" fill="#585752" fill-opacity="0.251" d="M115.75,28c-2.97,2.6-2.8,5.03,0.5,7.3
					c0.3,0.27,0.78,0.4,1.45,0.4c-0.67,0.53-1.15,1.1-1.45,1.7c-0.33,0.4-0.5,0.85-0.5,1.35c-0.57,0-1.13-0.05-1.7-0.15
					c-1.37-0.4-2.65-0.83-3.85-1.3c0-0.53,0-1.05,0-1.55c0-0.53,0-1.07,0-1.6c0-1.5-0.02-3.02-0.05-4.55c0.57,0,1.13-0.13,1.7-0.4
					c0.73-0.27,1.42-0.67,2.05-1.2C114.57,28,115.18,28,115.75,28z"/>
				<path fill-rule="evenodd" clip-rule="evenodd" fill="#3B372F" fill-opacity="0.251" d="M123.4,37.25c0,0.47,0,0.97,0,1.5
					s0,1.05,0,1.55c-0.63,0-1.28,0-1.95,0c0-0.5-0.17-0.88-0.5-1.15c-0.33-0.27-0.77-0.4-1.3-0.4c0-0.53,0.03-1.02,0.1-1.45
					c0.7-2.8,0-4.37-2.1-4.7c0-0.5,0-1.02,0-1.55c0.63,0,1.12-0.13,1.45-0.4c0.33-0.27,0.5-0.63,0.5-1.1c0.57,0,1.17,0,1.8,0
					c0,2.57,0.33,5.07,1,7.5C122.4,37.18,122.73,37.25,123.4,37.25z"/>
				<path fill-rule="evenodd" clip-rule="evenodd" fill="#848481" fill-opacity="0.251" d="M117.65,28c0,0.5,0,1.02,0,1.55
					c0,0.47,0,0.97,0,1.5s0,1.05,0,1.55c0,0.53,0,1.03,0,1.5c0,0.53,0.02,1.07,0.05,1.6c-0.67,0-1.15-0.13-1.45-0.4
					c-3.3-2.27-3.47-4.7-0.5-7.3C116.38,28,117.02,28,117.65,28z"/>
				<path fill-rule="evenodd" clip-rule="evenodd" fill="#231913" d="M117.65,32.6c2.1,0.33,2.8,1.9,2.1,4.7
					c-0.07,0.43-0.1,0.92-0.1,1.45c-0.67,0-1.32,0-1.95,0c-0.67,0-1.32,0-1.95,0c0-0.5,0.17-0.95,0.5-1.35
					c0.3-0.6,0.78-1.17,1.45-1.7c-0.03-0.53-0.05-1.07-0.05-1.6C117.65,33.63,117.65,33.13,117.65,32.6z"/>
				<path fill-rule="evenodd" clip-rule="evenodd" fill="#352D23" d="M112.05,40.4c-0.67,0-1.28,0-1.85,0c-2.57,0-5.1,0-7.6,0
					c0-0.5,0-1.02,0-1.55c0.63,0,1.23,0.07,1.8,0.2c3.47,0.57,5.4-0.02,5.8-1.75c1.2,0.47,2.48,0.9,3.85,1.3
					c0.57,0.1,1.13,0.15,1.7,0.15c0.63,0,1.28,0,1.95,0c0.63,0,1.28,0,1.95,0c0.53,0,0.97,0.13,1.3,0.4c0.33,0.27,0.5,0.65,0.5,1.15
					c-0.63,0.03-1.23,0.05-1.8,0.05C117.08,40.35,114.55,40.37,112.05,40.4z"/>
				<path fill-rule="evenodd" clip-rule="evenodd" fill="#5A524A" fill-opacity="0.251" d="M125.3,40.3c0,0.53,0,1.03,0,1.5h-13.25
					c0-0.43,0-0.9,0-1.4c2.5-0.03,5.03-0.05,7.6-0.05c0.57,0,1.17-0.02,1.8-0.05c0.67,0,1.32,0,1.95,0
					C124.03,40.3,124.67,40.3,125.3,40.3z"/>
				<path fill-rule="evenodd" clip-rule="evenodd" fill="#514941" fill-opacity="0.251" d="M102.6,40.4c2.5,0,5.03,0,7.6,0
					c0.57,0,1.18,0,1.85,0c0,0.5,0,0.97,0,1.4h-15.1c0-0.43,0-0.88,0-1.35c1.27,0,2.5,0,3.7,0C101.32,40.42,101.97,40.4,102.6,40.4z
					"/>
				<path fill-rule="evenodd" clip-rule="evenodd" fill="#484037" fill-opacity="0.251" d="M130.85,34.05c0.63,0,1.28,0,1.95,0
					c0,0.53,0,1.07,0,1.6c0,0.5,0,1.02,0,1.55c0,0.47,0,0.97,0,1.5c0.03,0.53,0.05,1.05,0.05,1.55c-0.67,0-1.32,0-1.95,0
					c-0.57,0-1.17,0.02-1.8,0.05c-1.3,0-2.57,0-3.8,0c-0.63,0-1.27,0-1.9,0c0-0.5,0-1.02,0-1.55c0.63,0,1.23,0.07,1.8,0.2
					c3.4,0.57,5.28-0.02,5.65-1.75c0-0.53,0-1.05,0-1.55C130.85,35.12,130.85,34.58,130.85,34.05z"/>
				<path fill-rule="evenodd" clip-rule="evenodd" fill="#77726B" fill-opacity="0.251" d="M130.9,40.25c0.23,0.6,0.5,1.12,0.8,1.55
					h-6.4c0-0.47,0-0.97,0-1.5c1.23,0,2.5,0,3.8,0C129.73,40.27,130.33,40.25,130.9,40.25z"/>
				<path fill-rule="evenodd" clip-rule="evenodd" fill="#646159" d="M134.65,26.3c1.87,0.07,3.73,0.07,5.6,0
					c0.63-0.03,1.28-0.05,1.95-0.05c0,0.53,0.07,0.8,0.2,0.8c0.9,0.13,1.63,0.13,2.2,0l0.05,7.2c-0.1,0.47-0.2,0.9-0.3,1.3
					c-0.07,0-0.13,0-0.2,0c-0.63,0-1.27,0-1.9,0c-0.03-0.53,0.03-1.03,0.2-1.5c0.73-2.77,0-4.3-2.2-4.6c0-0.53-0.08-0.83-0.25-0.9
					c-1.7-0.47-3.47-0.68-5.3-0.65C134.67,27.37,134.65,26.83,134.65,26.3z"/>
				<path fill-rule="evenodd" clip-rule="evenodd" fill="#43403C" fill-opacity="0.251" d="M140.25,29.45c0,0.47,0,0.97,0,1.5
					c-0.57,0-1.17,0-1.8,0c-0.67,0-1.32,0-1.95,0s-1.23,0-1.8,0c0-0.53,0-1.03,0-1.5c0-0.53,0-1.05,0-1.55
					c1.83-0.03,3.6,0.18,5.3,0.65C140.17,28.62,140.25,28.92,140.25,29.45z"/>
				<path fill-rule="evenodd" clip-rule="evenodd" fill="#5F5F5B" fill-opacity="0.251" d="M136.55,35.6c-0.63,0-1.23,0-1.8,0
					c-0.63,0-1.28,0.02-1.95,0.05c0-0.53,0-1.07,0-1.6c0.63,0,0.98-0.1,1.05-0.3c0.57-0.8,0.85-1.73,0.85-2.8c0.57,0,1.17,0,1.8,0
					s1.28,0,1.95,0c-0.63,1.03-1.15,2.08-1.55,3.15C136.63,34.57,136.52,35.07,136.55,35.6z"/>
				<path fill-rule="evenodd" clip-rule="evenodd" fill="#6A6A67" fill-opacity="0.251" d="M140.25,30.95
					c0.5,4.93-0.25,6.62-2.25,5.05c-0.33-0.27-0.82-0.4-1.45-0.4c-0.03-0.53,0.08-1.03,0.35-1.5c0.4-1.07,0.92-2.12,1.55-3.15
					C139.08,30.95,139.68,30.95,140.25,30.95z"/>
				<path fill-rule="evenodd" clip-rule="evenodd" fill="#383229" fill-opacity="0.251" d="M142.25,35.55
					c0.07,3.17-2.48,4.28-7.65,3.35c-0.53-0.17-1.13-0.23-1.8-0.2c0-0.53,0-1.03,0-1.5c0-0.53,0-1.05,0-1.55
					c0.67-0.03,1.32-0.05,1.95-0.05c0.57,0,1.17,0,1.8,0c0.63,0,1.12,0.13,1.45,0.4c2,1.57,2.75-0.12,2.25-5.05c0-0.53,0-1.03,0-1.5
					c2.2,0.3,2.93,1.83,2.2,4.6C142.28,34.52,142.22,35.02,142.25,35.55z"/>
				<path fill-rule="evenodd" clip-rule="evenodd" fill="#4F483F" fill-opacity="0.251" d="M142.25,41.2
					c-0.03-0.17-0.07-0.27-0.1-0.3c-3.07-0.43-6.17-0.65-9.3-0.65c0-0.5-0.02-1.02-0.05-1.55c0.67-0.03,1.27,0.03,1.8,0.2
					c5.17,0.93,7.72-0.18,7.65-3.35c0.63,0,1.27,0,1.9,0c0,0.33,0,0.65,0,0.95C143.65,38.73,143.02,40.3,142.25,41.2z"/>
				<path fill-rule="evenodd" clip-rule="evenodd" fill="#322E2A" fill-opacity="0.4235" d="M144.15,36.5c0-0.3,0-0.62,0-0.95
					c0.07,0,0.13,0,0.2,0c-0.03,0.23-0.08,0.45-0.15,0.65C144.2,36.3,144.18,36.4,144.15,36.5z"/>
				<path fill-rule="evenodd" clip-rule="evenodd" fill="#77726B" fill-opacity="0.902" d="M141.45,41.8
					c0.03-0.03,0.07-0.05,0.1-0.05l-0.05,0.05H141.45z"/>
				<path fill-rule="evenodd" clip-rule="evenodd" fill="#86817A" fill-opacity="0.251" d="M131.7,41.8
					c-0.3-0.43-0.57-0.95-0.8-1.55c0.63,0,1.28,0,1.95,0c3.13,0,6.23,0.22,9.3,0.65c0.03,0.03,0.07,0.13,0.1,0.3
					c-0.23,0.23-0.47,0.42-0.7,0.55c-0.03,0-0.07,0.02-0.1,0.05H131.7z"/>
				<path fill-rule="evenodd" clip-rule="evenodd" fill="#151410" fill-opacity="0.251" d="M87.35,12.7c0-0.53-0.17-0.93-0.5-1.2
					c-0.33-0.27-0.78-0.4-1.35-0.4c0-0.5-0.15-0.88-0.45-1.15c-0.33-0.27-0.82-0.4-1.45-0.4c0-0.47,0-0.95,0-1.45
					c0.63,0,1.18,0.08,1.65,0.25c3.87,1.9,6.45,0.77,7.75-3.4c2.63-0.67,4.2-0.22,4.7,1.35c0,0.07,0.32,0.1,0.95,0.1
					c0,0.53,0.17,0.93,0.5,1.2C99.48,7.87,99.93,8,100.5,8c0.27,3.77-2.22,5.37-7.45,4.8c-0.67-0.07-1.32-0.1-1.95-0.1
					c0-0.53-0.12-0.93-0.35-1.2c-0.33-0.27-0.83-0.4-1.5-0.4c0.03,0.53-0.12,0.93-0.45,1.2C88.47,12.57,87.98,12.7,87.35,12.7z"/>
				<path fill-rule="evenodd" clip-rule="evenodd" fill="#0F0B0A" fill-opacity="0.251" d="M81.6,6.5c0.67,0,1.03-0.07,1.1-0.2
					c0.53-1.73,1.33-3.12,2.4-4.15h19.25c-1.83,1-3.57,2.05-5.2,3.15c-0.33,0.2-0.5,0.57-0.5,1.1c-0.63,0-0.95-0.03-0.95-0.1
					c-0.5-1.57-2.07-2.02-4.7-1.35c-1.3,4.17-3.88,5.3-7.75,3.4C84.78,8.18,84.23,8.1,83.6,8.1c-0.67,0-1.15-0.13-1.45-0.4
					C81.78,7.43,81.6,7.03,81.6,6.5z"/>
				<path fill-rule="evenodd" clip-rule="evenodd" fill="#201C18" fill-opacity="0.251" d="M98.75,17.3c-0.67,0-1.32,0-1.95,0
					c-0.63,0-1.23,0-1.8,0c-0.67,0-1.32-0.05-1.95-0.15c-2.1-0.27-2.75-1.75-1.95-4.45c0.63,0,1.28,0.03,1.95,0.1
					c5.23,0.57,7.72-1.03,7.45-4.8c0.63,0,1.28,0,1.95,0c0,0.5,0,0.98,0,1.45c0,0.53,0,1.07,0,1.6c-0.63,0.53-1.12,1.1-1.45,1.7
					c-0.33,0.47-0.5,0.93-0.5,1.4c-0.57,0-1.17,0-1.8,0c-0.63,0-1.27,0-1.9,0c0.63,0.5,1.15,1.08,1.55,1.75
					C98.62,16.3,98.75,16.77,98.75,17.3z"/>
				<path fill-rule="evenodd" clip-rule="evenodd" fill="#24201A" fill-opacity="0.251" d="M102.5,17.3c-0.67,0-1.32,0-1.95,0
					c-0.57,0-1.17,0-1.8,0c0-0.53-0.13-1-0.4-1.4c-0.4-0.67-0.92-1.25-1.55-1.75c0.63,0,1.27,0,1.9,0c0.63,0,1.23,0,1.8,0
					c0.67-0.03,1.32-0.05,1.95-0.05c0,0.53,0.02,1.07,0.05,1.6C102.5,16.23,102.5,16.77,102.5,17.3z"/>
				<path fill-rule="evenodd" clip-rule="evenodd" fill="#231E1C" fill-opacity="0.251" d="M91.1,12.7c-0.8,2.7-0.15,4.18,1.95,4.45
					c0.63,0.1,1.28,0.15,1.95,0.15c0,0.47,0,0.97,0,1.5s0,1.07,0,1.6c-0.63,0-1.28,0-1.95,0c0-0.53-0.08-0.83-0.25-0.9
					c-1.7-0.47-3.5-0.68-5.4-0.65c0-0.53,0-1.03,0-1.5c-0.03-1.57-0.05-3.12-0.05-4.65c0.63,0,1.12-0.13,1.45-0.4
					c0.33-0.27,0.48-0.67,0.45-1.2c0.67,0,1.17,0.13,1.5,0.4C90.98,11.77,91.1,12.17,91.1,12.7z"/>
				<path fill-rule="evenodd" clip-rule="evenodd" fill="#262421" fill-opacity="0.251" d="M98.75,20.35c-0.63,0-1.27,0.02-1.9,0.05
					c-0.67,0-1.28,0-1.85,0c0-0.53,0-1.07,0-1.6s0-1.03,0-1.5c0.57,0,1.17,0,1.8,0c0.63,0,1.28,0,1.95,0c0.63,0,1.23,0,1.8,0
					c-0.57,0.47-1.05,1.02-1.45,1.65C98.87,19.38,98.75,19.85,98.75,20.35z"/>
				<path fill-rule="evenodd" clip-rule="evenodd" fill="#31302C" d="M98.75,20.35c0.63,0,1.12,0.13,1.45,0.4
					c0.23,0.27,0.35,0.63,0.35,1.1c-0.57,0-1.17,0-1.8,0c-0.63,1.03-1.4,1.97-2.3,2.8c-0.37,0.23-0.83,0.35-1.4,0.35
					c-0.67,0-1.32,0.02-1.95,0.05c-0.67,0-1.32,0-1.95,0c0,0.47-0.12,0.83-0.35,1.1c-0.33,0.27-0.82,0.4-1.45,0.4
					c-0.67,0-1.32,0-1.95,0c0-0.53,0-1.03,0-1.5c0-0.5,0-1.02,0-1.55c0.63,0,1.12-0.13,1.45-0.4c0.3-0.27,0.45-0.67,0.45-1.2
					c0.67,0,1.25-0.1,1.75-0.3c0.7-0.27,1.37-0.67,2-1.2c0.67,0,1.32,0,1.95,0c0.57,0,1.18,0,1.85,0
					C97.48,20.37,98.12,20.35,98.75,20.35z"/>
				<path fill-rule="evenodd" clip-rule="evenodd" fill="#282522" fill-opacity="0.251" d="M89.3,21.9c-0.63,0-1.1-0.1-1.4-0.3
					c-0.9-0.8-1.68-1.72-2.35-2.75c0.57,0,1.18,0,1.85,0c1.9-0.03,3.7,0.18,5.4,0.65c0.17,0.07,0.25,0.37,0.25,0.9
					c-0.63,0.53-1.3,0.93-2,1.2C90.55,21.8,89.97,21.9,89.3,21.9z"/>
				<path fill-rule="evenodd" clip-rule="evenodd" fill="#2E2B29" d="M100.55,17.3c0.63,0,1.28,0,1.95,0c0.63,0,1.12,0.1,1.45,0.3
					c0.3,0.23,0.45,0.62,0.45,1.15c-0.63,0.53-1.15,1.1-1.55,1.7c-0.23,0.47-0.35,0.92-0.35,1.35c-0.63,0-1.28,0.02-1.95,0.05
					c0-0.47-0.12-0.83-0.35-1.1c-0.33-0.27-0.82-0.4-1.45-0.4c0-0.5,0.12-0.97,0.35-1.4C99.5,18.32,99.98,17.77,100.55,17.3z"/>
				<path fill-rule="evenodd" clip-rule="evenodd" fill="#24211D" fill-opacity="0.251" d="M102.45,14.1
					c-0.63,0-1.28,0.02-1.95,0.05c0-0.47,0.17-0.93,0.5-1.4c0.33-0.6,0.82-1.17,1.45-1.7c0.63,0,1.2-0.1,1.7-0.3
					c0.8-0.33,1.48-0.77,2.05-1.3c3.4,4.33,2.75,5.95-1.95,4.85C103.72,14.17,103.12,14.1,102.45,14.1z"/>
				<path fill-rule="evenodd" clip-rule="evenodd" fill="#34322B" fill-opacity="0.251" d="M110.1,18.7c0,0.53,0,1.07,0,1.6
					c-0.4,1.7-2.33,2.28-5.8,1.75c-0.57-0.17-1.17-0.25-1.8-0.25c0-0.43,0.12-0.88,0.35-1.35c0.4-0.6,0.92-1.17,1.55-1.7
					c1.23,0,2.48,0,3.75,0C108.78,18.72,109.43,18.7,110.1,18.7z"/>
				<path fill-rule="evenodd" clip-rule="evenodd" fill="#636361" fill-opacity="0.251" d="M83.6,8.1c0,0.5,0,0.98,0,1.45
					c0,2.13-0.27,4.15-0.8,6.05c-0.1,0.13-0.47,0.2-1.1,0.2c-0.57,0.03-1.02-0.08-1.35-0.35c-1.6-1.27-3.67-2.17-6.2-2.7
					c0-0.5,0-1.02,0-1.55c0-2.03,0-4.08,0-6.15c0.63,0,1.23,0,1.8,0c-0.07,1.67,1.22,2.22,3.85,1.65c0.67-0.13,1.27-0.2,1.8-0.2
					c0,0.53,0.18,0.93,0.55,1.2C82.45,7.97,82.93,8.1,83.6,8.1z M70.45,18.95c0-0.53,0-1.03,0-1.5c0.57,0,1.17,0,1.8,0
					c2.17,0.77,3.15,2.8,2.95,6.1h0.85c0,0.53,0,1.07,0,1.6c-0.57,0-1.17,0-1.8,0c-0.67,0-1.32,0-1.95,0c-0.63,0-1.08-0.13-1.35-0.4
					c-0.3-0.27-0.45-0.67-0.45-1.2c0.57,0,0.88-0.05,0.95-0.15C72.02,21.47,71.68,19.98,70.45,18.95z"/>
				<path fill-rule="evenodd" clip-rule="evenodd" fill="#111012" fill-opacity="0.251" d="M75.95,5.05c0.63,0,1.12-0.13,1.45-0.4
					c0.87-0.73,1.6-1.57,2.2-2.5h5.5c-1.07,1.03-1.87,2.42-2.4,4.15c-0.07,0.13-0.43,0.2-1.1,0.2c-0.53,0-1.13,0.07-1.8,0.2
					C77.17,7.27,75.88,6.72,75.95,5.05z"/>
				<path fill-rule="evenodd" clip-rule="evenodd" fill="#14120E" fill-opacity="0.251" d="M74.45,2.15
					c-0.37,0.83,0.02,1.47,1.15,1.9c0.23,0.13,0.35,0.47,0.35,1c-0.57,0-1.17,0-1.8,0c-0.67,0-1.32,0-1.95,0c0-0.5,0-1.02,0-1.55
					c0-0.47,0-0.92,0-1.35H74.45z"/>
				<path fill-rule="evenodd" clip-rule="evenodd" fill="#2D2E29" fill-opacity="0.251" d="M74.15,12.75c0,0.53,0,1.03,0,1.5
					c0,0.53,0.02,1.07,0.05,1.6c-0.63,0-1.28,0-1.95,0c0-0.53,0-1.05,0-1.55c0-0.47,0-0.97,0-1.5c-0.1-3.03-1.37-5.1-3.8-6.2
					c0-0.53,0-1.03,0-1.5c0.63-0.03,1.28-0.05,1.95-0.05c0.53,0,1.13,0,1.8,0c0.63,0,1.28,0,1.95,0c0,2.07,0,4.12,0,6.15
					C74.15,11.73,74.15,12.25,74.15,12.75z"/>
				<path fill-rule="evenodd" clip-rule="evenodd" fill="#100E0E" fill-opacity="0.251" d="M68.45,6.6c-0.63,0-1.28,0-1.95,0
					c0,0.5-0.15,0.88-0.45,1.15c-0.23,0.27-0.68,0.42-1.35,0.45c0-0.53-0.08-0.8-0.25-0.8c-1.83-0.33-2.4-1.62-1.7-3.85
					c0-0.47,0-0.93,0-1.4h9.45c0,0.43,0,0.88,0,1.35c0,0.53,0,1.05,0,1.55c-0.67,0-1.27,0-1.8,0c-0.67,0-1.32,0.02-1.95,0.05
					C68.45,5.57,68.45,6.07,68.45,6.6z"/>
				<path fill-rule="evenodd" clip-rule="evenodd" fill="#0C0C0A" fill-opacity="0.251" d="M79.6,2.15c-0.6,0.93-1.33,1.77-2.2,2.5
					c-0.33,0.27-0.82,0.4-1.45,0.4c0-0.53-0.12-0.87-0.35-1c-1.13-0.43-1.52-1.07-1.15-1.9H79.6z"/>
				<path fill-rule="evenodd" clip-rule="evenodd" fill="#363534" fill-opacity="0.251" d="M81.7,15.8c0,0.53-0.17,0.93-0.5,1.2
					c-0.23,0.27-0.68,0.4-1.35,0.4c-0.63,0-0.95-0.07-0.95-0.2c-0.5-1.57-2.07-2.02-4.7-1.35c-0.03-0.53-0.05-1.07-0.05-1.6
					c0-0.47,0-0.97,0-1.5c2.53,0.53,4.6,1.43,6.2,2.7C80.68,15.72,81.13,15.83,81.7,15.8z"/>
				<path fill-rule="evenodd" clip-rule="evenodd" fill="#5F605D" fill-opacity="0.251" d="M72.25,14.3c-0.67,0-1.28,0-1.85,0
					c-0.63,1.03-1.42,1.95-2.35,2.75c-0.33,0.27-0.82,0.4-1.45,0.4c0-0.53-0.05-1.05-0.15-1.55c-0.9-2.93-1.48-5.02-1.75-6.25
					c0-0.47,0-0.95,0-1.45c0.67-0.03,1.12-0.18,1.35-0.45c0.3-0.27,0.45-0.65,0.45-1.15c0.67,0,1.32,0,1.95,0
					c2.43,1.1,3.7,3.17,3.8,6.2C72.25,13.33,72.25,13.83,72.25,14.3z"/>
				<path fill-rule="evenodd" clip-rule="evenodd" fill="#737471" fill-opacity="0.251" d="M76.05,23.55H75.2
					c0.2-3.3-0.78-5.33-2.95-6.1c0-0.53,0-1.07,0-1.6c0.67,0,1.32,0,1.95,0c2.63-0.67,4.2-0.22,4.7,1.35c0,0.13,0.32,0.2,0.95,0.2
					c0,0.47,0,0.97,0,1.5c-0.63,0-1.27,0-1.9,0c0,0.53,0,1.05,0,1.55c-0.63,0.03-1.27,0.05-1.9,0.05c0,0.53,0,1.02,0,1.45
					C76.05,22.48,76.05,23.02,76.05,23.55z"/>
				<path fill-rule="evenodd" clip-rule="evenodd" fill="#2F2F2E" fill-opacity="0.251" d="M66.6,17.45c0.63,0,1.12-0.13,1.45-0.4
					c0.93-0.8,1.72-1.72,2.35-2.75c0.57,0,1.18,0,1.85,0c0,0.5,0,1.02,0,1.55c0,0.53,0,1.07,0,1.6c-0.63,0-1.23,0-1.8,0
					c0,0.47,0,0.97,0,1.5c-0.67,0-1.32,0-1.95,0s-1.27,0-1.9,0C66.6,18.42,66.6,17.92,66.6,17.45z"/>
				<path fill-rule="evenodd" clip-rule="evenodd" fill="#797976" fill-opacity="0.251" d="M83.6,18.85
					c0.03,0.53,0.05,1.07,0.05,1.6s0,1.02,0,1.45c-0.67,0-1.32,0-1.95,0c-0.57,0.03-1.13-0.05-1.7-0.25
					c-0.73-0.27-1.42-0.67-2.05-1.2c0-0.5,0-1.02,0-1.55c0.63,0,1.27,0,1.9,0c0.67,0,1.28-0.02,1.85-0.05
					C82.33,18.85,82.97,18.85,83.6,18.85z"/>
				<path fill-rule="evenodd" clip-rule="evenodd" fill="#646360" fill-opacity="0.251" d="M81.7,21.9c0.2,1.73-1.03,2.55-3.7,2.45
					v0.75c-0.67,0.03-1.32,0.05-1.95,0.05c0-0.53,0-1.07,0-1.6s0-1.07,0-1.6c0-0.43,0-0.92,0-1.45c0.63,0,1.27-0.02,1.9-0.05
					c0.63,0.53,1.32,0.93,2.05,1.2C80.57,21.85,81.13,21.93,81.7,21.9z"/>
				<path fill-rule="evenodd" clip-rule="evenodd" fill="#626360" fill-opacity="0.251" d="M79.85,17.4c0.67,0,1.12-0.13,1.35-0.4
					c0.33-0.27,0.5-0.67,0.5-1.2c0.63,0,1-0.07,1.1-0.2c0.53-1.9,0.8-3.92,0.8-6.05c0.63,0,1.12,0.13,1.45,0.4
					c0.3,0.27,0.45,0.65,0.45,1.15c0.03,2.07,0.05,4.15,0.05,6.25c0,0.47,0,0.97,0,1.5c-0.63,0-1.28,0-1.95,0c-0.63,0-1.27,0-1.9,0
					c-0.57,0.03-1.18,0.05-1.85,0.05C79.85,18.37,79.85,17.87,79.85,17.4z"/>
				<path fill-rule="evenodd" clip-rule="evenodd" fill="#484847" fill-opacity="0.251" d="M87.4,18.85c-0.67,0-1.28,0-1.85,0
					c0-0.53,0-1.03,0-1.5c0-2.1-0.02-4.18-0.05-6.25c0.57,0,1.02,0.13,1.35,0.4c0.33,0.27,0.5,0.67,0.5,1.2
					c0,1.53,0.02,3.08,0.05,4.65C87.4,17.82,87.4,18.32,87.4,18.85z"/>
				<path fill-rule="evenodd" clip-rule="evenodd" fill="#34302D" fill-opacity="0.251" d="M87.4,23.5c-0.63,0-1.23,0-1.8,0
					c0,0.53,0,1.05,0,1.55c-0.63,0.03-1.03-0.05-1.2-0.25c-0.5-0.87-0.75-1.83-0.75-2.9c0-0.43,0-0.92,0-1.45s-0.02-1.07-0.05-1.6
					c0.67,0,1.32,0,1.95,0c0.67,1.03,1.45,1.95,2.35,2.75c0.3,0.2,0.77,0.3,1.4,0.3c0,0.53-0.15,0.93-0.45,1.2
					C88.52,23.37,88.03,23.5,87.4,23.5z"/>
				<path fill-rule="evenodd" clip-rule="evenodd" fill="#3B3933" d="M98.75,26.5c-0.63,0.53-1.3,0.97-2,1.3
					c-0.57,0.2-1.13,0.3-1.7,0.3c-0.63,0-1.28,0-1.95,0c-0.63,0-1.28,0-1.95,0c-0.53,0-0.97-0.13-1.3-0.4
					c-0.33-0.27-0.5-0.65-0.5-1.15c0.63,0,1.12-0.13,1.45-0.4c0.23-0.27,0.35-0.63,0.35-1.1c0.63,0,1.28,0,1.95,0
					c0.63-0.03,1.28-0.05,1.95-0.05c0.57,0.47,1.25,0.87,2.05,1.2C97.57,26.4,98.12,26.5,98.75,26.5z"/>
				<path fill-rule="evenodd" clip-rule="evenodd" fill="#7E7D7A" fill-opacity="0.251" d="M89.4,37.4
					c-0.63,0.03-0.98-0.05-1.05-0.25c-0.6-1.4-0.9-2.85-0.9-4.35c0-0.53,0-1.07,0-1.6c0-1.53-0.02-3.08-0.05-4.65
					c0.63,0,1.28,0,1.95,0c0,0.5,0.17,0.88,0.5,1.15c0.33,0.27,0.77,0.4,1.3,0.4c-1.5,1.37-2.12,3.42-1.85,6.15
					c0.07,0.53,0.1,1.07,0.1,1.6C89.4,36.35,89.4,36.87,89.4,37.4z"/>
				<path fill-rule="evenodd" clip-rule="evenodd" fill="#3F3F3A" fill-opacity="0.251" d="M87.4,26.55
					c0.03,1.57,0.05,3.12,0.05,4.65c0,0.53,0,1.07,0,1.6c-0.63,0-1.23,0-1.8,0c0-0.53,0-1.07,0-1.6s0-1.02,0-1.45
					c0-0.57,0-1.1,0-1.6c-0.03-1.07-0.05-2.1-0.05-3.1c0-0.5,0-1.02,0-1.55c0.57,0,1.17,0,1.8,0c0,0.53,0,1.05,0,1.55
					C87.4,25.52,87.4,26.02,87.4,26.55z"/>
				<path fill-rule="evenodd" clip-rule="evenodd" fill="#33302B" fill-opacity="0.251" d="M78,26.6c0-0.53,0-1.03,0-1.5v-0.75
					c2.67,0.1,3.9-0.72,3.7-2.45c0.63,0,1.28,0,1.95,0c0,1.07,0.25,2.03,0.75,2.9c0.17,0.2,0.57,0.28,1.2,0.25
					c0,1,0.02,2.03,0.05,3.1c0,0.5,0,1.03,0,1.6c-0.67,0-1.32,0-1.95,0c0-0.53-0.17-1-0.5-1.4C82.23,27.25,80.5,26.67,78,26.6z"/>
				<path fill-rule="evenodd" clip-rule="evenodd" fill="#1E1713" fill-opacity="0.251" d="M81.8,37.45c0.63,0,1-0.07,1.1-0.2
					c0.53-1.97,0.8-3.98,0.8-6.05c0-0.5,0-0.98,0-1.45c0.63,0,1.28,0,1.95,0c0,0.43,0,0.92,0,1.45s0,1.07,0,1.6c0,1.5,0,3.05,0,4.65
					c0,0.47,0,0.95,0,1.45c0.03,0.53-0.12,0.93-0.45,1.2c-0.33,0.3-0.82,0.45-1.45,0.45s-1.28,0-1.95,0c-0.57,0-1.17,0-1.8,0
					c0-0.53-0.02-1.07-0.05-1.6c0.67,0,1.12-0.13,1.35-0.4C81.63,38.28,81.8,37.92,81.8,37.45z"/>
				<path fill-rule="evenodd" clip-rule="evenodd" fill="#6D6B66" fill-opacity="0.251" d="M83.7,31.2c-0.67,0-1.32,0-1.95,0
					c0,0.57-0.15,0.98-0.45,1.25c-0.27,0.27-0.72,0.4-1.35,0.4c0-0.53-0.13-1-0.4-1.4c-0.4-0.67-0.92-1.23-1.55-1.7
					c-0.63,0.03-1.28,0.05-1.95,0.05c0-0.53,0-1.07,0-1.6c0.67,0,1.17-0.13,1.5-0.4c0.3-0.27,0.45-0.67,0.45-1.2
					c2.5,0.07,4.23,0.65,5.2,1.75c0.33,0.4,0.5,0.87,0.5,1.4C83.7,30.22,83.7,30.7,83.7,31.2z"/>
				<path fill-rule="evenodd" clip-rule="evenodd" fill="#55514F" fill-opacity="0.251" d="M79.95,34.3c0-0.43,0-0.92,0-1.45
					c0.63,0,1.08-0.13,1.35-0.4c0.3-0.27,0.45-0.68,0.45-1.25c0.63,0,1.28,0,1.95,0c0,2.07-0.27,4.08-0.8,6.05
					c-0.1,0.13-0.47,0.2-1.1,0.2c0-0.53-0.12-1-0.35-1.4C81.08,35.42,80.58,34.83,79.95,34.3z"/>
				<path fill-rule="evenodd" clip-rule="evenodd" fill="#52524E" fill-opacity="0.251" d="M87.5,38.9c-0.67,0-1.28,0-1.85,0
					c0-0.5,0-0.98,0-1.45c0-1.6,0-3.15,0-4.65c0.57,0,1.17,0,1.8,0c0,1.5,0.3,2.95,0.9,4.35c0.07,0.2,0.42,0.28,1.05,0.25
					c0,0.47,0,0.97,0,1.5C88.77,38.9,88.13,38.9,87.5,38.9z"/>
				<path fill-rule="evenodd" clip-rule="evenodd" fill="#272626" d="M76.05,28.2c-0.53,0-1.13,0-1.8,0c0-0.53-0.12-1-0.35-1.4
					c-0.43-0.67-0.97-1.22-1.6-1.65c0.63,0,1.28,0,1.95,0c0.63,0,1.23,0,1.8,0c0.63,0,1.28-0.02,1.95-0.05c0,0.47,0,0.97,0,1.5
					c0,0.53-0.15,0.93-0.45,1.2C77.22,28.07,76.72,28.2,76.05,28.2z"/>
				<path fill-rule="evenodd" clip-rule="evenodd" fill="#6C6D6A" fill-opacity="0.251" d="M70.5,23.55c-0.67,0-1.32,0.02-1.95,0.05
					c0-0.53-0.05-0.8-0.15-0.8c-3.87-0.23-4.47-1.52-1.8-3.85c0.63,0,1.27,0,1.9,0s1.28,0,1.95,0c1.23,1.03,1.57,2.52,1,4.45
					C71.38,23.5,71.07,23.55,70.5,23.55z"/>
				<path fill-rule="evenodd" clip-rule="evenodd" fill="#191415" fill-opacity="0.251" d="M68.55,23.6
					c0.63-0.03,1.28-0.05,1.95-0.05c0,0.53,0.15,0.93,0.45,1.2c0.27,0.27,0.72,0.4,1.35,0.4c0.63,0.43,1.17,0.98,1.6,1.65
					c0.23,0.4,0.35,0.87,0.35,1.4c-0.63,0-1.28,0.02-1.95,0.05c-0.63,0-1.18-0.1-1.65-0.3c-0.77-0.33-1.47-0.77-2.1-1.3
					c-0.63,0-1.2-0.1-1.7-0.3c-0.7-0.33-1.38-0.72-2.05-1.15c0-0.53,0-1.07,0-1.6c0.67,0,1.27,0,1.8,0
					C67.27,23.6,67.92,23.6,68.55,23.6z"/>
				<path fill-rule="evenodd" clip-rule="evenodd" fill="#3A3834" fill-opacity="0.251" d="M74.25,28.2c0.67,0,1.27,0,1.8,0
					c0,0.53,0,1.07,0,1.6c-0.53,0-1.13,0-1.8,0c2.1,1.7,2.23,2.92,0.4,3.65c-0.23,0.13-0.35,0.43-0.35,0.9c-0.67,0-1.32,0-1.95,0
					c0-0.47,0-0.97,0-1.5c-0.03-1.03-0.05-2.05-0.05-3.05c0-0.53,0-1.05,0-1.55C72.97,28.22,73.62,28.2,74.25,28.2z"/>
				<path fill-rule="evenodd" clip-rule="evenodd" fill="#7A7876" fill-opacity="0.251" d="M72.35,34.35c0,1.07-0.23,2-0.7,2.8
					c-0.17,0.27-0.53,0.4-1.1,0.4c0-0.53,0-1.07,0-1.6c0-2.07-0.02-4.12-0.05-6.15c0.57,0,1.17,0,1.8,0c0,1,0.02,2.02,0.05,3.05
					C72.35,33.38,72.35,33.88,72.35,34.35z"/>
				<path fill-rule="evenodd" clip-rule="evenodd" fill="#6E6D6B" fill-opacity="0.251" d="M70.55,37.55c0,0.47-0.08,0.72-0.25,0.75
					c-5.13,1.23-6.95-0.57-5.45-5.4c0-0.5,0.03-1.02,0.1-1.55c0.23-2.27,1.43-3.83,3.6-4.7c0.63,0.53,1.33,0.97,2.1,1.3
					c0.47,0.2,1.02,0.3,1.65,0.3c0,0.5,0,1.02,0,1.55c-0.63,0-1.23,0-1.8,0c-0.63,0-1.27,0.02-1.9,0.05c-0.67,0-1.32,0-1.95,0
					c-0.87,3.73-0.13,6.17,2.2,7.3C69.35,37.42,69.92,37.55,70.55,37.55z"/>
				<path fill-rule="evenodd" clip-rule="evenodd" fill="#2B2421" fill-opacity="0.251" d="M79.95,32.85c0,0.53,0,1.02,0,1.45
					c0,0.53-0.15,0.97-0.45,1.3c-1.53,1.67-2.03-0.28-1.5-5.85c0.63,0.47,1.15,1.03,1.55,1.7C79.82,31.85,79.95,32.32,79.95,32.85z"
					/>
				<path fill-rule="evenodd" clip-rule="evenodd" fill="#63605C" fill-opacity="0.251" d="M79.95,34.3
					c0.63,0.53,1.13,1.12,1.5,1.75c0.23,0.4,0.35,0.87,0.35,1.4c0,0.47-0.17,0.83-0.5,1.1c-0.23,0.27-0.68,0.4-1.35,0.4
					c-0.63,0-1.27-0.03-1.9-0.1c-2.73-0.17-3.98-1.67-3.75-4.5c0-0.47,0.12-0.77,0.35-0.9c1.83-0.73,1.7-1.95-0.4-3.65
					c0.67,0,1.27,0,1.8,0c0.67,0,1.32-0.02,1.95-0.05c-0.53,5.57-0.03,7.52,1.5,5.85C79.8,35.27,79.95,34.83,79.95,34.3z"/>
				<path fill-rule="evenodd" clip-rule="evenodd" fill="#2B241F" fill-opacity="0.251" d="M64.85,32.9
					c-1.5,4.83,0.32,6.63,5.45,5.4c0.17-0.03,0.25-0.28,0.25-0.75c0.57,0,0.93-0.13,1.1-0.4c0.47-0.8,0.7-1.73,0.7-2.8
					c0.63,0,1.28,0,1.95,0c-0.23,2.83,1.02,4.33,3.75,4.5c0.63,0.07,1.27,0.1,1.9,0.1c0.03,0.53,0.05,1.07,0.05,1.6
					c-0.63,0-1.27,0-1.9,0c-4.47-0.03-8.87,0-13.2,0.1c-0.67,0-1.15-0.13-1.45-0.4c-0.33-0.27-0.5-0.67-0.5-1.2s0-1.03,0-1.5
					c-0.03-1.57-0.05-3.12-0.05-4.65C63.57,32.9,64.22,32.9,64.85,32.9z"/>
				<path fill-rule="evenodd" clip-rule="evenodd" fill="#302C2A" fill-opacity="0.251" d="M70.55,37.55c-0.63,0-1.2-0.13-1.7-0.4
					c-2.33-1.13-3.07-3.57-2.2-7.3c0.63,0,1.28,0,1.95,0c0.63-0.03,1.27-0.05,1.9-0.05c0.03,2.03,0.05,4.08,0.05,6.15
					C70.55,36.48,70.55,37.02,70.55,37.55z"/>
				<path fill-rule="evenodd" clip-rule="evenodd" fill="#3D352E" fill-opacity="0.251" d="M83.75,40.55c0,0.43,0,0.85,0,1.25H64.9
					c0-0.37,0-0.75,0-1.15c4.33-0.1,8.73-0.13,13.2-0.1c0.63,0,1.27,0,1.9,0s1.23,0,1.8,0C82.47,40.55,83.12,40.55,83.75,40.55z"/>
				<path fill-rule="evenodd" clip-rule="evenodd" fill="#211E1B" fill-opacity="0.251" d="M95.05,28.1c-0.23,2.77,0.9,4.53,3.4,5.3
					c0.23,0.07,0.35,0.33,0.35,0.8c-2.47,3.03-5.12,3.72-7.95,2.05c-0.33-0.27-0.82-0.4-1.45-0.4c0-0.53-0.03-1.07-0.1-1.6
					c-0.27-2.73,0.35-4.78,1.85-6.15c0.67,0,1.32,0,1.95,0C93.77,28.1,94.42,28.1,95.05,28.1z"/>
				<path fill-rule="evenodd" clip-rule="evenodd" fill="#1B1611" d="M98.8,34.2c0.67,0.53,1.37,0.97,2.1,1.3
					c0.47,0.2,1.03,0.3,1.7,0.3c0,0.5,0,1.02,0,1.55c-0.67,0-1.32,0.02-1.95,0.05c0,0.47,0,0.95,0,1.45c-0.57,0-1.17,0-1.8,0
					c-3.13,0.03-6.28,0.05-9.45,0.05c0-0.53,0-1.03,0-1.5c0-0.53,0-1.05,0-1.55c0.63,0,1.12,0.13,1.45,0.4
					C93.68,37.92,96.33,37.23,98.8,34.2z"/>
				<path fill-rule="evenodd" clip-rule="evenodd" fill="#281F14" d="M100.65,38.85c0.63,0,1.28,0,1.95,0c0,0.53,0,1.05,0,1.55
					c-0.63,0-1.28,0.02-1.95,0.05c-1.2,0-2.43,0-3.7,0c-0.67,0-1.28,0.03-1.85,0.1c-4.03,0.7-6.57,0.15-7.6-1.65
					c0.63,0,1.27,0,1.9,0c3.17,0,6.32-0.02,9.45-0.05C99.48,38.85,100.08,38.85,100.65,38.85z"/>
				<path fill-rule="evenodd" clip-rule="evenodd" fill="#362D25" fill-opacity="0.251" d="M87.5,38.9c1.03,1.8,3.57,2.35,7.6,1.65
					c0.57-0.07,1.18-0.1,1.85-0.1c0,0.47,0,0.92,0,1.35h-13.2c0-0.4,0-0.82,0-1.25c0.63,0,1.12-0.15,1.45-0.45
					c0.33-0.27,0.48-0.67,0.45-1.2C86.22,38.9,86.83,38.9,87.5,38.9z"/>
				<path fill-rule="evenodd" clip-rule="evenodd" fill="#46443C" fill-opacity="0.251" d="M104.5,28.05
					c-0.03-0.53-0.05-1.05-0.05-1.55c0-0.53,0-1.03,0-1.5c0-0.53,0-1.07,0-1.6c1.87,0,3.77-0.02,5.7-0.05c0.57,0,1.17,0,1.8,0
					c-3.87,1.4-5.28,2.57-4.25,3.5c0.33,0.27,0.5,0.67,0.5,1.2c-0.63,0-1.27,0-1.9,0C105.73,28.05,105.13,28.05,104.5,28.05z"/>
				<path fill-rule="evenodd" clip-rule="evenodd" fill="#36342F" fill-opacity="0.251" d="M102.55,31.1c-0.67,0-1.27-0.02-1.8-0.05
					c-1.53-0.2-1.58-1.72-0.15-4.55c0.63,0,1.27,0,1.9,0c0.67,0,1.32,0,1.95,0c0,0.5,0.02,1.02,0.05,1.55c0,0.53,0,1.07,0,1.6
					c-0.67,0-1.32,0-1.95,0C102.55,30.12,102.55,30.6,102.55,31.1z"/>
				<path fill-rule="evenodd" clip-rule="evenodd" fill="#2F2D25" fill-opacity="0.251" d="M104.5,28.05c0.63,0,1.23,0,1.8,0
					c0.63,0,1.27,0,1.9,0c0.67-0.03,1.32-0.05,1.95-0.05c0,0.53,0,1.07,0,1.6c-0.63,0-1.28,0-1.95,0c-0.63,0-0.95,0.05-0.95,0.15
					c-1.17,3.87-2.08,3.83-2.75-0.1C104.5,29.12,104.5,28.58,104.5,28.05z"/>
				<path fill-rule="evenodd" clip-rule="evenodd" fill="#62615D" fill-opacity="0.251" d="M106.35,37.35c-0.57,0-1.17,0-1.8,0
					c-0.67,0-1.32,0-1.95,0c0-0.53,0-1.05,0-1.55c-0.03-0.53-0.05-1.07-0.05-1.6c0-1,0-2.03,0-3.1c0-0.5,0-0.98,0-1.45
					c0.63,0,1.28,0,1.95,0c0.67,3.93,1.58,3.97,2.75,0.1c0-0.1,0.32-0.15,0.95-0.15c0.33,2.8-0.13,4.95-1.4,6.45
					C106.5,36.38,106.35,36.82,106.35,37.35z"/>
				<path fill-rule="evenodd" clip-rule="evenodd" fill="#36322C" d="M106.35,37.35c0-0.53,0.15-0.97,0.45-1.3
					c1.27-1.5,1.73-3.65,1.4-6.45c0.67,0,1.32,0,1.95,0c0.03,1.53,0.05,3.05,0.05,4.55c0,0.53,0,1.07,0,1.6c-0.63,0-1.28,0-1.95,0
					c0,0.53-0.17,0.93-0.5,1.2C107.45,37.22,106.98,37.35,106.35,37.35z"/>
				<path fill-rule="evenodd" clip-rule="evenodd" fill="#2B2925" d="M100.6,26.5c-1.43,2.83-1.38,4.35,0.15,4.55
					c0.53,0.03,1.13,0.05,1.8,0.05c0,1.07,0,2.1,0,3.1c0,0.53,0.02,1.07,0.05,1.6c-0.67,0-1.23-0.1-1.7-0.3
					c-0.73-0.33-1.43-0.77-2.1-1.3c0-0.47-0.12-0.73-0.35-0.8c-2.5-0.77-3.63-2.53-3.4-5.3c0.57,0,1.13-0.1,1.7-0.3
					c0.7-0.33,1.37-0.77,2-1.3C99.42,26.5,100.03,26.5,100.6,26.5z"/>
				<path fill-rule="evenodd" clip-rule="evenodd" fill="#201A12" d="M102.6,38.85c-0.67,0-1.32,0-1.95,0c0-0.5,0-0.98,0-1.45
					c0.63-0.03,1.28-0.05,1.95-0.05c0.63,0,1.28,0,1.95,0c0.63,0,1.23,0,1.8,0c0.63,0,1.1-0.13,1.4-0.4c0.33-0.27,0.5-0.67,0.5-1.2
					c0.67,0,1.32,0,1.95,0c0,0.5,0,1.02,0,1.55c-0.4,1.73-2.33,2.32-5.8,1.75C103.83,38.92,103.23,38.85,102.6,38.85z"/>
				<path fill-rule="evenodd" clip-rule="evenodd" fill="#131111" fill-opacity="0.251" d="M43.95,9.75c0-0.43-0.05-0.92-0.15-1.45
					c-0.13-0.73-1.08-2.78-2.85-6.15H52.2l0.6,0.2c0.83,0.5,1.65,0.9,2.45,1.2c0.13,0.03,0.28,0.08,0.45,0.15l2.45,0.25
					c0.83-0.03,1.77-0.13,2.8-0.3c0.57-0.07,1.17-0.1,1.8-0.1c-0.7,2.23-0.13,3.52,1.7,3.85c0.17,0,0.25,0.27,0.25,0.8
					c0,0.5,0,0.98,0,1.45c-0.63,0-1.27,0-1.9,0c-0.67,0-1.28,0-1.85,0c0,0.53,0,1.07,0,1.6c0.03,0.53,0.05,1.07,0.05,1.6
					c-0.67,0-1.15,0.13-1.45,0.4C58.42,14.12,57,12.93,55.3,9.7c0-0.47-0.12-0.72-0.35-0.75c-1.7-0.47-3.48-0.7-5.35-0.7
					c0.17,1.63-1.12,2.2-3.85,1.7C45.18,9.82,44.58,9.75,43.95,9.75z"/>
				<path fill-rule="evenodd" clip-rule="evenodd" fill="#1C1A1B" fill-opacity="0.251" d="M51.45,12.9v0.8
					c-1.2,0-2.45-0.27-3.75-0.8c0,1,0,2.03,0,3.1c0,0.53,0,1.07,0,1.6c-0.63,0-1.23,0-1.8,0c0-0.53-0.08-1.07-0.25-1.6
					c-0.5-2.03-1.07-4.12-1.7-6.25c0.63,0,1.23,0.07,1.8,0.2c2.73,0.5,4.02-0.07,3.85-1.7c1.87,0,3.65,0.23,5.35,0.7
					c0.23,0.03,0.35,0.28,0.35,0.75c-0.63,0-1.28,0-1.95,0c-0.63,0.03-1.28,0.05-1.95,0.05c0,0.53,0,1.05,0,1.55
					C51.43,11.83,51.45,12.37,51.45,12.9z"/>
				<path fill-rule="evenodd" clip-rule="evenodd" fill="#6C6D6A" d="M55.35,15.95c0,0.53-0.17,0.93-0.5,1.2
					c-0.33,0.27-0.82,0.4-1.45,0.4c0-0.53,0.08-1.07,0.25-1.6c0.63-2.17-0.1-3.18-2.2-3.05c0-0.53-0.02-1.07-0.05-1.6
					c0-0.5,0-1.02,0-1.55c0.67,0,1.32-0.02,1.95-0.05c0.67,0,1.32,0,1.95,0c0,1.6,0,3.15,0,4.65C55.3,14.88,55.32,15.42,55.35,15.95
					z"/>
				<path fill-rule="evenodd" clip-rule="evenodd" fill="#262023" fill-opacity="0.251" d="M53.4,17.55c-0.63,0-1.28,0-1.95,0
					c-1.2,0-2.45,0.02-3.75,0.05c0-0.53,0-1.07,0-1.6c0-1.07,0-2.1,0-3.1c1.3,0.53,2.55,0.8,3.75,0.8v-0.8
					c2.1-0.13,2.83,0.88,2.2,3.05C53.48,16.48,53.4,17.02,53.4,17.55z"/>
				<path fill-rule="evenodd" clip-rule="evenodd" fill="#2A2827" d="M61,18.95C60.37,18.98,59.73,19,59.1,19c-0.67,0-1.32,0-1.95,0
					c0-0.53-0.12-1-0.35-1.4c-0.33-0.57-0.82-1.12-1.45-1.65c-0.03-0.53-0.05-1.07-0.05-1.6c0-1.5,0-3.05,0-4.65
					c1.7,3.23,3.12,4.42,4.25,3.55c0.3-0.27,0.78-0.4,1.45-0.4c0,1.5,0,3.05,0,4.65C61,17.93,61,18.42,61,18.95z"/>
				<path fill-rule="evenodd" clip-rule="evenodd" fill="#686663" d="M51.5,20.6c-0.57,0-1.17,0-1.8,0c-2.03,0.17-2.7-0.83-2-3
					c1.3-0.03,2.55-0.05,3.75-0.05c0.67,0,1.32,0,1.95,0c0.63,0,1.12-0.13,1.45-0.4c0.33-0.27,0.5-0.67,0.5-1.2
					c0.63,0.53,1.12,1.08,1.45,1.65c0.23,0.4,0.35,0.87,0.35,1.4c0.17,1.7-1.08,2.3-3.75,1.8C52.77,20.67,52.13,20.6,51.5,20.6z"/>
				<path fill-rule="evenodd" clip-rule="evenodd" fill="#3D3935" d="M57.15,19c0.63,0,1.28,0,1.95,0c0,1.03,0,2.05,0,3.05
					c0,0.53,0.02,1.07,0.05,1.6c-0.67,0-1.32,0-1.95,0c-1.2,0-2.45,0-3.75,0c-0.03-0.53-0.17-0.98-0.4-1.35
					c-0.4-0.6-0.92-1.17-1.55-1.7c0.63,0,1.27,0.07,1.9,0.2C56.07,21.3,57.32,20.7,57.15,19z"/>
				<path fill-rule="evenodd" clip-rule="evenodd" fill="#2D2C29" d="M62.8,9.65c-0.87,4.37-0.08,7.33,2.35,8.9
					c0.4,0.27,0.88,0.4,1.45,0.4c-2.67,2.33-2.07,3.62,1.8,3.85c0.1,0,0.15,0.27,0.15,0.8c-0.63,0-1.28,0-1.95,0
					c-0.53,0-1.13,0-1.8,0c0,0.53,0,1.07,0,1.6c-0.63,0-1.28,0-1.95,0c0-0.53,0-1.07,0-1.6c0-0.5-0.08-0.98-0.25-1.45
					c-0.47-1.07-1-2.13-1.6-3.2c0-0.53,0-1.02,0-1.45c0-1.6,0-3.15,0-4.65c0-0.53-0.02-1.07-0.05-1.6c0-0.53,0-1.07,0-1.6
					C61.52,9.65,62.13,9.65,62.8,9.65z"/>
				<path fill-rule="evenodd" clip-rule="evenodd" fill="#777872" fill-opacity="0.251" d="M64.7,9.65
					c0.27,1.23,0.85,3.32,1.75,6.25c0.1,0.5,0.15,1.02,0.15,1.55c0,0.47,0,0.97,0,1.5c-0.57,0-1.05-0.13-1.45-0.4
					c-2.43-1.57-3.22-4.53-2.35-8.9C63.43,9.65,64.07,9.65,64.7,9.65z"/>
				<path fill-rule="evenodd" clip-rule="evenodd" fill="#302D28" d="M62.85,23.6c-0.63,0-1.23,0-1.8,0
					c-0.63,0.03-1.27,0.05-1.9,0.05c-0.03-0.53-0.05-1.07-0.05-1.6c0-1,0-2.02,0-3.05c0.63,0,1.27-0.02,1.9-0.05
					c0.6,1.07,1.13,2.13,1.6,3.2C62.77,22.62,62.85,23.1,62.85,23.6z"/>
				<path fill-rule="evenodd" clip-rule="evenodd" fill="#181516" fill-opacity="0.251" d="M43.95,9.75c-0.67,0-1.32,0-1.95,0
					c-0.57,0-1.18,0.02-1.85,0.05c-0.63,0-1.27,0-1.9,0c0-0.47,0-0.97,0-1.5c0-1.03,0-2.05,0-3.05c0-0.53,0-1.07,0-1.6
					c0-0.5,0-1,0-1.5h2.7c1.77,3.37,2.72,5.42,2.85,6.15C43.9,8.83,43.95,9.32,43.95,9.75z"/>
				<path fill-rule="evenodd" clip-rule="evenodd" fill="#453D34" d="M34.5,3.7c0.63,0,0.98-0.1,1.05-0.3
					c0.27-0.43,0.47-0.85,0.6-1.25h2.1c0,0.5,0,1,0,1.5c0,0.53,0,1.07,0,1.6c-0.67,0-1.08,0.1-1.25,0.3
					C35.33,7.72,34.5,7.1,34.5,3.7z"/>
				<path fill-rule="evenodd" clip-rule="evenodd" fill="#3C322D" fill-opacity="0.9176" d="M32.6,13c0-0.53,0.07-1.03,0.2-1.5
					c0.57-1.97,0.13-3.02-1.3-3.15c0-0.1,0.02-0.2,0.05-0.3c0.57-3.9,1.33-5.87,2.3-5.9h0.6c0,0.5,0.02,1.02,0.05,1.55
					c0,3.4,0.83,4.02,2.5,1.85c0.17-0.2,0.58-0.3,1.25-0.3c0,1,0,2.02,0,3.05c0,0.53,0,1.03,0,1.5c-0.63,0-1.23,0-1.8,0
					c0,0.53,0,1.07,0,1.6c-0.67,0-1.32,0-1.95,0c0,0.53-0.15,0.93-0.45,1.2C33.72,12.87,33.23,13,32.6,13z"/>
				<path fill-rule="evenodd" clip-rule="evenodd" fill="#655C4E" fill-opacity="0.9882" d="M36.15,2.15
					c-0.13,0.4-0.33,0.82-0.6,1.25c-0.07,0.2-0.42,0.3-1.05,0.3c-0.03-0.53-0.05-1.05-0.05-1.55H36.15z"/>
				<path fill-rule="evenodd" clip-rule="evenodd" fill="#423931" d="M34.55,22.2c-0.63,0-1.28,0-1.95,0c0-0.47,0.1-0.97,0.3-1.5
					c0.6-2.13-0.07-3.15-2-3.05c0-0.13,0-0.28,0-0.45c0-0.37,0-0.73,0-1.1c0.53,0,1.1-0.05,1.7-0.15c2.8-0.2,4.08-1.72,3.85-4.55
					c0-0.53,0-1.07,0-1.6c0.57,0,1.17,0,1.8,0s1.27,0,1.9,0c0,0.53,0,1.07,0,1.6c-0.63,0-1.27,0-1.9,0
					c0.03,1.57,0.05,3.12,0.05,4.65c0,0.5,0,1.02,0,1.55c-0.63,0-1.23,0.02-1.8,0.05c-0.67,0-1.32,0-1.95,0c0,0.97,0,1.98,0,3.05
					C34.55,21.23,34.55,21.73,34.55,22.2z"/>
				<path fill-rule="evenodd" clip-rule="evenodd" fill="#342923" d="M31.05,13c0.5,0,1.02,0,1.55,0c0.63,0,1.12-0.13,1.45-0.4
					c0.3-0.27,0.45-0.67,0.45-1.2c0.63,0,1.28,0,1.95,0c0.23,2.83-1.05,4.35-3.85,4.55c-0.6,0.1-1.17,0.15-1.7,0.15
					C30.93,15.03,30.98,14,31.05,13z"/>
				<path fill-rule="evenodd" clip-rule="evenodd" fill="#231917" fill-opacity="0.9294" d="M31.5,8.35
					c1.43,0.13,1.87,1.18,1.3,3.15c-0.13,0.47-0.2,0.97-0.2,1.5c-0.53,0-1.05,0-1.55,0c0.03-0.43,0.07-0.88,0.1-1.35
					C31.22,10.48,31.33,9.38,31.5,8.35z"/>
				<path fill-rule="evenodd" clip-rule="evenodd" fill="#1B1715" d="M34.6,31.5c-0.63,0-1.28,0-1.95,0c-0.37,0-0.72,0-1.05,0
					c-0.37-2.83-0.6-5.98-0.7-9.45c-0.03-1.53-0.03-3,0-4.4c1.93-0.1,2.6,0.92,2,3.05c-0.2,0.53-0.3,1.03-0.3,1.5
					c1.1,2.23,1.73,4.83,1.9,7.8C34.57,30.47,34.6,30.97,34.6,31.5z"/>
				<path fill-rule="evenodd" clip-rule="evenodd" fill="#463E37" d="M38.35,28.4c-0.63,0-1.23,0-1.8,0
					c-0.03-0.53-0.08-1.05-0.15-1.55c0-2-0.62-3.55-1.85-4.65c0-0.47,0-0.97,0-1.5c0-1.07,0-2.08,0-3.05c0.63,0,1.28,0,1.95,0
					c0.57-0.03,1.17-0.05,1.8-0.05c0,1,0,2.03,0,3.1c0,0.53,0,1.02,0,1.45c0,0.53,0.02,1.07,0.05,1.6c0,0.53,0,1.05,0,1.55
					c0,0.47,0,0.97,0,1.5S38.35,27.87,38.35,28.4z"/>
				<path fill-rule="evenodd" clip-rule="evenodd" fill="#211D1B" fill-opacity="0.251" d="M40.15,11.4c2.2,1.3,2.92,3.85,2.15,7.65
					c-0.17,0.57-0.25,1.1-0.25,1.6c0.63,0,1.28,0,1.95,0c0.63,0,1.12,0.13,1.45,0.4c0.33,0.27,0.5,0.62,0.5,1.05
					c-0.67,0.03-1.32,0.05-1.95,0.05c0,0.53,0,1.05,0,1.55c0,1.07,0,2.1,0,3.1c0,0.5,0.02,1.03,0.05,1.6c0,0.5,0,1.02,0,1.55
					c-0.67,0-1.32,0-1.95,0c1,4.8,0.42,8.15-1.75,10.05l-0.05-0.8c0-0.53,0.05-1.03,0.15-1.5c0.8-3.9,0.1-6.47-2.1-7.7
					c0-0.53,0-1.07,0-1.6c0-0.53,0-1.07,0-1.6s0-1.03,0-1.5c0-0.5,0-1.02,0-1.55c-0.03-0.53-0.05-1.07-0.05-1.6
					c0-0.43,0-0.92,0-1.45c0-1.07,0-2.1,0-3.1c0-0.53,0-1.05,0-1.55c0-1.53-0.02-3.08-0.05-4.65C38.88,11.4,39.52,11.4,40.15,11.4z"
					/>
				<path fill-rule="evenodd" clip-rule="evenodd" fill="#61615F" d="M45.9,17.6c-0.63,0.43-1.15,0.98-1.55,1.65
					c-0.23,0.43-0.35,0.9-0.35,1.4c-0.67,0-1.32,0-1.95,0c0-0.5,0.08-1.03,0.25-1.6c0.77-3.8,0.05-6.35-2.15-7.65
					c0-0.53,0-1.07,0-1.6c0.67-0.03,1.28-0.05,1.85-0.05c0.63,0,1.28,0,1.95,0c0.63,2.13,1.2,4.22,1.7,6.25
					C45.82,16.53,45.9,17.07,45.9,17.6z"/>
				<path fill-rule="evenodd" clip-rule="evenodd" fill="#30302B" d="M53.45,23.65c-0.67,0-1.32,0-1.95,0c-0.57,0-1.17,0-1.8,0
					c0-0.5-0.13-0.78-0.4-0.85c-1.03-0.47-2.15-0.7-3.35-0.7c0-0.43-0.17-0.78-0.5-1.05c-0.33-0.27-0.82-0.4-1.45-0.4
					c0-0.5,0.12-0.97,0.35-1.4c0.4-0.67,0.92-1.22,1.55-1.65c0.57,0,1.17,0,1.8,0c-0.7,2.17-0.03,3.17,2,3c0.63,0,1.23,0,1.8,0
					c0.63,0.53,1.15,1.1,1.55,1.7C53.28,22.67,53.42,23.12,53.45,23.65z"/>
				<path fill-rule="evenodd" clip-rule="evenodd" fill="#2D2928" d="M49.7,23.65c-1.3,1.63-2.7,3.07-4.2,4.3
					c-0.33,0.3-0.82,0.45-1.45,0.45C44.02,27.83,44,27.3,44,26.8c0-1,0-2.03,0-3.1c0-0.5,0-1.02,0-1.55c0.63,0,1.28-0.02,1.95-0.05
					c1.2,0,2.32,0.23,3.35,0.7C49.57,22.87,49.7,23.15,49.7,23.65z"/>
				<path fill-rule="evenodd" clip-rule="evenodd" fill="#3F3832" d="M44.1,40.75c0,0.43,0.12,0.78,0.35,1.05H38.4
					c0-0.33,0-0.68,0-1.05c0-0.5,0-1.02,0-1.55c0.63,0,1.27,0,1.9,0l0.05,0.8c2.17-1.9,2.75-5.25,1.75-10.05c0.63,0,1.28,0,1.95,0
					c0,3.03,0.02,6.1,0.05,9.2C44.1,39.68,44.1,40.22,44.1,40.75z"/>
				<path fill-rule="evenodd" clip-rule="evenodd" fill="#4E4942" d="M44.05,28.4c0.63,0,1.12-0.15,1.45-0.45
					c1.5-1.23,2.9-2.67,4.2-4.3c0.63,0,1.23,0,1.8,0c0.63,0,1.28,0,1.95,0c0,0.53,0,1.07,0,1.6c0,1,0,2.02,0,3.05
					c0,0.53,0,1.07,0,1.6c-0.63,0-1.28,0-1.95,0c-1.17,0-2.4,0.02-3.7,0.05c-0.67,0-1.28,0-1.85,0c-0.63,0-1.27,0-1.9,0
					C44.05,29.42,44.05,28.9,44.05,28.4z"/>
				<path fill-rule="evenodd" clip-rule="evenodd" fill="#75726D" fill-opacity="0.251" d="M46,37.65c0,0.47,0,0.97,0,1.5
					c0.03,0.53,0.05,1.05,0.05,1.55c-0.67,0.03-1.32,0.05-1.95,0.05c0-0.53,0-1.07,0-1.6c-0.03-3.1-0.05-6.17-0.05-9.2
					c0.63,0,1.27,0,1.9,0c0.57,0,1.18,0,1.85,0c0,0.47,0,0.95,0,1.45c0,0.53,0,1.07,0,1.6c-0.63,0-1.23,0-1.8,0c0,1,0,2.02,0,3.05
					C46,36.58,46,37.12,46,37.65z"/>
				<path fill-rule="evenodd" clip-rule="evenodd" fill="#444238" d="M53.45,29.9c-0.63,0.47-1.12,1.03-1.45,1.7
					c-0.3,0.4-0.45,0.85-0.45,1.35c-0.57,0-1.17,0-1.8,0C49.12,32.98,48.47,33,47.8,33c0-0.53,0-1.07,0-1.6c0-0.5,0-0.98,0-1.45
					c1.3-0.03,2.53-0.05,3.7-0.05C52.17,29.9,52.82,29.9,53.45,29.9z"/>
				<path fill-rule="evenodd" clip-rule="evenodd" fill="#2A2623" fill-opacity="0.251" d="M51.55,32.95c2.1,0.27,2.43,1.3,1,3.1
					h0.95c0,0.5,0,1.02,0,1.55c-0.63,0.03-1.15,0.15-1.55,0.35c-2.1,1.27-4.08,1.17-5.95-0.3c0-0.53,0-1.07,0-1.6
					c0-1.03,0-2.05,0-3.05c0.57,0,1.17,0,1.8,0c0.67,0,1.32-0.02,1.95-0.05C50.38,32.95,50.98,32.95,51.55,32.95z"/>
				<path fill-rule="evenodd" clip-rule="evenodd" fill="#332A23" d="M34.55,22.2c1.23,1.1,1.85,2.65,1.85,4.65
					c0.07,0.5,0.12,1.02,0.15,1.55c0,2.07-0.32,4.08-0.95,6.05c0,0.07-0.32,0.1-0.95,0.1c0-0.47,0-0.97,0-1.5
					c0-0.5-0.02-1.02-0.05-1.55c0-0.53-0.03-1.03-0.1-1.5c-0.17-2.97-0.8-5.57-1.9-7.8C33.27,22.2,33.92,22.2,34.55,22.2z"/>
				<path fill-rule="evenodd" clip-rule="evenodd" fill="#2D211D" fill-opacity="0.9882" d="M34.65,39.2c0,0.53,0,1.07,0,1.6
					c-0.3,0-0.58-0.03-0.85-0.1c-0.53-0.93-1.02-2.48-1.45-4.65c-0.1-0.4-0.18-0.83-0.25-1.3c-0.13-0.67-0.25-1.37-0.35-2.1
					c-0.07-0.37-0.12-0.75-0.15-1.15c0.33,0,0.68,0,1.05,0c0.67,0,1.32,0,1.95,0c0.03,0.53,0.05,1.05,0.05,1.55c0,0.53,0,1.03,0,1.5
					c0,1.07,0,2.12,0,3.15C34.65,38.17,34.65,38.67,34.65,39.2z"/>
				<path fill-rule="evenodd" clip-rule="evenodd" fill="#554B43" d="M34.65,39.2c0-0.53,0-1.03,0-1.5c0-1.03,0-2.08,0-3.15
					c0.63,0,0.95-0.03,0.95-0.1c0.63-1.97,0.95-3.98,0.95-6.05c0.57,0,1.17,0,1.8,0c0,0.53,0,1.07,0,1.6
					c0.03,1.5,0.05,3.02,0.05,4.55c0,0.5,0,1.02,0,1.55c-0.63,0-1.23,0.02-1.8,0.05c0,1.03-0.28,1.95-0.85,2.75
					C35.65,39.1,35.28,39.2,34.65,39.2z"/>
				<path fill-rule="evenodd" clip-rule="evenodd" fill="#322D25" d="M38.4,36.1c0-0.53,0-1.05,0-1.55c0-1.53-0.02-3.05-0.05-4.55
					c2.2,1.23,2.9,3.8,2.1,7.7c-0.1,0.47-0.15,0.97-0.15,1.5c-0.63,0-1.27,0-1.9,0c0-0.53,0-1.03,0-1.5
					C38.4,37.17,38.4,36.63,38.4,36.1z"/>
				<path fill-rule="evenodd" clip-rule="evenodd" fill="#6D6052" d="M36.3,41.8c-0.57-0.27-1.12-0.6-1.65-1c0-0.53,0-1.07,0-1.6
					c0.63,0,1-0.1,1.1-0.3c0.57-0.8,0.85-1.72,0.85-2.75c0.57-0.03,1.17-0.05,1.8-0.05c0,0.53,0,1.07,0,1.6c0,0.47,0,0.97,0,1.5
					s0,1.05,0,1.55c0,0.37,0,0.72,0,1.05H36.3z"/>
				<path fill-rule="evenodd" clip-rule="evenodd" fill="#50473F" fill-opacity="0.6588" d="M34.65,40.8c0,0.3,0,0.6,0,0.9
					c-0.27-0.13-0.55-0.47-0.85-1C34.07,40.77,34.35,40.8,34.65,40.8z"/>
				<path fill-rule="evenodd" clip-rule="evenodd" fill="#837364" d="M34.65,40.8c0.53,0.4,1.08,0.73,1.65,1H35
					c-0.13,0-0.25-0.03-0.35-0.1C34.65,41.4,34.65,41.1,34.65,40.8z"/>
				<path fill-rule="evenodd" clip-rule="evenodd" fill="#362A25" d="M46.05,40.7c1.83,0,3.68,0,5.55,0c0.4,0,0.8,0,1.2,0v0.7
					c-0.23,0.13-0.47,0.27-0.7,0.4h-7.65c-0.23-0.27-0.35-0.62-0.35-1.05C44.73,40.75,45.38,40.73,46.05,40.7z"/>
				<path fill-rule="evenodd" clip-rule="evenodd" fill="#231818" fill-opacity="0.251" d="M53.5,39.1c0,0.53,0,1.02,0,1.45
					l-0.7,0.05v0.1c-0.4,0-0.8,0-1.2,0c-1.87,0-3.72,0-5.55,0c0-0.5-0.02-1.02-0.05-1.55c0-0.53,0-1.03,0-1.5
					c1.87,1.47,3.85,1.57,5.95,0.3c0.4-0.2,0.92-0.32,1.55-0.35C53.5,38.07,53.5,38.57,53.5,39.1z"/>
				<path fill-rule="evenodd" clip-rule="evenodd" fill="#45403A" d="M62.9,32.9c0-0.5,0-1.02,0-1.55c0-0.53,0-1.03,0-1.5
					c0-0.53,0-1.07,0-1.6c-0.03-0.53-0.05-1.05-0.05-1.55c0-0.53,0-1.03,0-1.5c0.67,0,1.32,0,1.95,0c0.67,0.43,1.35,0.82,2.05,1.15
					c0.5,0.2,1.07,0.3,1.7,0.3c-2.17,0.87-3.37,2.43-3.6,4.7c-0.07,0.53-0.1,1.05-0.1,1.55C64.22,32.9,63.57,32.9,62.9,32.9z"/>
				<path fill-rule="evenodd" clip-rule="evenodd" fill="#958E86" fill-opacity="0.251" d="M55.4,25.25c-0.67,0-1.32,0-1.95,0
					c0-0.53,0-1.07,0-1.6c1.3,0,2.55,0,3.75,0c0.63,0,1.28,0,1.95,0c0.63,0,1.27-0.02,1.9-0.05c0.57,0,1.17,0,1.8,0
					c0,0.53,0,1.07,0,1.6c-0.63,0-1.23,0-1.8,0C59.12,25.2,57.23,25.22,55.4,25.25z"/>
				<path fill-rule="evenodd" clip-rule="evenodd" fill="#E4DDD5" fill-opacity="0.251" d="M62.85,25.2c0,0.47,0,0.97,0,1.5
					c0,0.5,0.02,1.02,0.05,1.55c-0.67,0-1.27,0.07-1.8,0.2c-4.37,0.83-6.27-0.23-5.7-3.2c1.83-0.03,3.72-0.05,5.65-0.05
					C61.62,25.2,62.22,25.2,62.85,25.2z"/>
				<path fill-rule="evenodd" clip-rule="evenodd" fill="#D9CEC4" fill-opacity="0.251" d="M61.1,29.85c-0.67,0-1.32,0-1.95,0
					c-1.87,0.03-3.77,0.05-5.7,0.05c0-0.53,0-1.07,0-1.6c0-1.03,0-2.05,0-3.05c0.63,0,1.28,0,1.95,0c-0.57,2.97,1.33,4.03,5.7,3.2
					c0.53-0.13,1.13-0.2,1.8-0.2c0,0.53,0,1.07,0,1.6C62.23,29.85,61.63,29.85,61.1,29.85z"/>
				<path fill-rule="evenodd" clip-rule="evenodd" fill="#5E5B55" fill-opacity="0.251" d="M62.9,32.9c0,1.53,0.02,3.08,0.05,4.65
					c0,0.47,0,0.97,0,1.5c-0.67,0-1.15-0.13-1.45-0.4c-0.27-0.27-0.4-0.63-0.4-1.1c0-0.53-0.15-0.92-0.45-1.15
					c-3.73-2.57-3.58-4.75,0.45-6.55c0.53,0,1.13,0,1.8,0c0,0.47,0,0.97,0,1.5C62.9,31.88,62.9,32.4,62.9,32.9z"/>
				<path fill-rule="evenodd" clip-rule="evenodd" fill="#89857E" fill-opacity="0.251" d="M61.1,29.85
					c-4.03,1.8-4.18,3.98-0.45,6.55c0.3,0.23,0.45,0.62,0.45,1.15c-0.63,0.03-1.27,0.05-1.9,0.05c-0.63,0-0.95-0.07-0.95-0.2
					c-0.53-1.5-2.12-1.95-4.75-1.35h-0.95c1.43-1.8,1.1-2.83-1-3.1c0-0.5,0.15-0.95,0.45-1.35c0.33-0.67,0.82-1.23,1.45-1.7
					c1.93,0,3.83-0.02,5.7-0.05C59.78,29.85,60.43,29.85,61.1,29.85z"/>
				<path fill-rule="evenodd" clip-rule="evenodd" fill="#575551" fill-opacity="0.251" d="M59.2,37.6c0.17,1.63-1.13,2.2-3.9,1.7
					c-0.57-0.13-1.17-0.2-1.8-0.2c0-0.53,0-1.03,0-1.5c0-0.53,0-1.05,0-1.55c2.63-0.6,4.22-0.15,4.75,1.35
					C58.25,37.53,58.57,37.6,59.2,37.6z"/>
				<path fill-rule="evenodd" clip-rule="evenodd" fill="#41382D" fill-opacity="0.251" d="M62.95,39.05c0,0.53,0.17,0.93,0.5,1.2
					c0.3,0.27,0.78,0.4,1.45,0.4c0,0.4,0,0.78,0,1.15h-3.4c-0.27-0.27-0.55-0.5-0.85-0.7v-0.55h-1c-1.37-0.57-2.97-0.57-4.8,0H53.5
					c0-0.43,0-0.92,0-1.45c0.63,0,1.23,0.07,1.8,0.2c2.77,0.5,4.07-0.07,3.9-1.7c0.63,0,1.27-0.02,1.9-0.05
					c0,0.47,0.13,0.83,0.4,1.1C61.8,38.92,62.28,39.05,62.95,39.05z"/>
			</g>
			<g>
				
					<linearGradient id="SVGID_6_" gradientUnits="userSpaceOnUse" x1="97.5889" y1="-533.4004" x2="103.9889" y2="-533.4004" gradientTransform="matrix(-3.906220e-003 1 -1 1.574816e-004 -513.8341 -86.9543)">
					<stop  offset="0" style="stop-color:#997A66"/>
					<stop  offset="0.2353" style="stop-color:#FFFFFF"/>
					<stop  offset="0.5098" style="stop-color:#473830"/>
					<stop  offset="0.7686" style="stop-color:#7A6552"/>
					<stop  offset="1" style="stop-color:#000000"/>
					<stop  offset="1" style="stop-color:#090909"/>
				</linearGradient>
				<path fill-rule="evenodd" clip-rule="evenodd" fill="url(#SVGID_6_)" d="M4.45,10.6H32.9c0.07,0,0.12,0,0.15,0
					c0.2,0.07,0.38,0.37,0.55,0.9c0.03,0.17,0.07,0.35,0.1,0.55c0.07,0.3,0.12,0.62,0.15,0.95c0.03,0.27,0.05,0.53,0.05,0.8
					c0.03,0.83,0,1.57-0.1,2.2c-0.13,0.53-0.3,0.85-0.5,0.95H4.7c0.2-0.1,0.37-0.42,0.5-0.95c0.1-0.63,0.13-1.37,0.1-2.2
					c0-0.27-0.02-0.53-0.05-0.8c-0.03-0.33-0.07-0.63-0.1-0.9C5.12,11.87,5.07,11.67,5,11.5C4.83,10.97,4.65,10.67,4.45,10.6z"/>
				<linearGradient id="SVGID_7_" gradientUnits="userSpaceOnUse" x1="4.4019" y1="10.8496" x2="4.4019" y2="16.7496">
					<stop  offset="0" style="stop-color:#FFFFFF"/>
					<stop  offset="0.5569" style="stop-color:#7A6552"/>
					<stop  offset="1" style="stop-color:#000000"/>
					<stop  offset="1" style="stop-color:#090909"/>
				</linearGradient>
				<path fill-rule="evenodd" clip-rule="evenodd" fill="url(#SVGID_7_)" d="M4.7,16.95H4.45c-0.2-0.1-0.4-0.38-0.6-0.85
					c-0.2-0.63-0.32-1.4-0.35-2.3c-0.03-0.87,0.03-1.63,0.2-2.3c0.2-0.6,0.4-0.9,0.6-0.9c0.07,0,0.12,0,0.15,0
					c0.2,0.07,0.38,0.37,0.55,0.9c0.07,0.17,0.12,0.37,0.15,0.6c0.03,0.27,0.07,0.57,0.1,0.9c0.03,0.27,0.05,0.53,0.05,0.8
					c0.03,0.83,0,1.57-0.1,2.2C5.07,16.53,4.9,16.85,4.7,16.95z"/>
				<linearGradient id="SVGID_8_" gradientUnits="userSpaceOnUse" x1="4.4019" y1="28.4873" x2="4.4019" y2="34.8123">
					<stop  offset="0" style="stop-color:#FFFFFF"/>
					<stop  offset="0.5569" style="stop-color:#7A6552"/>
					<stop  offset="1" style="stop-color:#000000"/>
					<stop  offset="1" style="stop-color:#090909"/>
				</linearGradient>
				<path fill-rule="evenodd" clip-rule="evenodd" fill="url(#SVGID_8_)" d="M4.45,28.5c0.2,0.03,0.38,0.32,0.55,0.85
					c0.07,0.17,0.12,0.38,0.15,0.65c0.03,0.23,0.07,0.52,0.1,0.85C5.28,31.12,5.3,31.4,5.3,31.7c0.03,0.83,0,1.57-0.1,2.2
					c-0.13,0.53-0.3,0.83-0.5,0.9H4.45c-0.2-0.07-0.4-0.35-0.6-0.85c-0.2-0.63-0.32-1.38-0.35-2.25c-0.03-0.9,0.03-1.68,0.2-2.35
					c0.2-0.57,0.4-0.85,0.6-0.85C4.37,28.5,4.42,28.5,4.45,28.5z"/>
				<linearGradient id="SVGID_9_" gradientUnits="userSpaceOnUse" x1="19.1812" y1="28.375" x2="19.1812" y2="35.525">
					<stop  offset="0" style="stop-color:#997A66"/>
					<stop  offset="0.2353" style="stop-color:#FFFFFF"/>
					<stop  offset="0.5098" style="stop-color:#473830"/>
					<stop  offset="0.7686" style="stop-color:#7A6552"/>
					<stop  offset="1" style="stop-color:#000000"/>
					<stop  offset="1" style="stop-color:#090909"/>
				</linearGradient>
				<path fill-rule="evenodd" clip-rule="evenodd" fill="url(#SVGID_9_)" d="M4.7,34.8c0.2-0.07,0.37-0.37,0.5-0.9
					c0.1-0.63,0.13-1.37,0.1-2.2c0-0.3-0.02-0.58-0.05-0.85c-0.03-0.33-0.07-0.62-0.1-0.85C5.12,29.73,5.07,29.52,5,29.35
					c-0.17-0.53-0.35-0.82-0.55-0.85H32.9c0.07,0,0.12,0,0.15,0c0.2,0.03,0.38,0.32,0.55,0.85c0.03,0.17,0.07,0.37,0.1,0.6
					c0.07,0.27,0.12,0.57,0.15,0.9c0.03,0.27,0.05,0.55,0.05,0.85c0.03,0.83,0,1.57-0.1,2.2c-0.13,0.53-0.3,0.83-0.5,0.9H4.7z"/>
			</g>
			<g>
				<path fill-rule="evenodd" clip-rule="evenodd" fill="none" d="M137.35,3.6c4.3,4.43,6.25,14.05,5.85,28.85"/>
				<line fill-rule="evenodd" clip-rule="evenodd" fill="none" x1="4.7" y1="16.95" x2="4.45" y2="16.95"/>
				<path fill-rule="evenodd" clip-rule="evenodd" fill="none" d="M4.45,10.6c0.2,0.07,0.38,0.37,0.55,0.9
					c0.07,0.17,0.12,0.37,0.15,0.6c0.03,0.27,0.07,0.57,0.1,0.9c0.03,0.27,0.05,0.53,0.05,0.8c0.03,0.83,0,1.57-0.1,2.2
					c-0.13,0.53-0.3,0.85-0.5,0.95"/>
				<path fill-rule="evenodd" clip-rule="evenodd" fill="none" d="M4.45,28.5c0.2,0.03,0.38,0.32,0.55,0.85
					c0.07,0.17,0.12,0.38,0.15,0.65c0.03,0.23,0.07,0.52,0.1,0.85C5.28,31.12,5.3,31.4,5.3,31.7c0.03,0.83,0,1.57-0.1,2.2
					c-0.13,0.53-0.3,0.83-0.5,0.9"/>
				<line fill-rule="evenodd" clip-rule="evenodd" fill="none" x1="4.7" y1="34.8" x2="4.45" y2="34.8"/>
				<path fill-rule="evenodd" clip-rule="evenodd" fill="none" d="M61.75,2.15c0.63,2.27,1.17,4.53,1.6,6.8
					c0.1,0.9,0.23,1.8,0.4,2.7c0.1,0.7,0.18,1.38,0.25,2.05c0.13,1.17,0.23,2.33,0.3,3.5c0.53,8.1-0.32,16.3-2.55,24.6"/>
				
					<path fill-rule="evenodd" clip-rule="evenodd" fill="none" stroke="#000000" stroke-width="0.1" stroke-linecap="round" stroke-linejoin="round" stroke-miterlimit="3" d="
					M52.2,2.15l0.4,0.05c0.03,0.03,0.1,0.08,0.2,0.15"/>
				<path fill-rule="evenodd" clip-rule="evenodd" fill="none" d="M52.8,2.35c0.4,2.23,0.75,4.43,1.05,6.6
					c0.13,0.9,0.25,1.8,0.35,2.7c0.1,0.7,0.18,1.4,0.25,2.1c0.1,1.17,0.2,2.32,0.3,3.45c0.67,9.97-0.22,18.17-2.65,24.6"/>
				<path fill-rule="evenodd" clip-rule="evenodd" fill="none" d="M35,41.8c0.93-0.03,1.68-1.98,2.25-5.85
					c0.57-3.93,0.77-8.63,0.6-14.1c-0.03-1.63-0.08-3.18-0.15-4.65c-0.17-1.97-0.37-3.82-0.6-5.55c-0.2-1.33-0.43-2.58-0.7-3.75
					c-0.73-3.8-1.57-5.72-2.5-5.75"/>
			</g>
			<g>
				
					<radialGradient id="SVGID_10_" cx="-5.9849" cy="23.082" r="2.49" gradientTransform="matrix(0.999 -0.0452 0.246 1.9779 34.1011 -33.6733)" gradientUnits="userSpaceOnUse">
					<stop  offset="0" style="stop-color:#FFFFFF"/>
					<stop  offset="0.1765" style="stop-color:#FFFFFF"/>
					<stop  offset="0.3059" style="stop-color:#FFFFFF;stop-opacity:0.4235"/>
					<stop  offset="0.4902" style="stop-color:#FFFFFF;stop-opacity:0.2314"/>
					<stop  offset="0.651" style="stop-color:#FFFFFF;stop-opacity:0.0824"/>
					<stop  offset="1" style="stop-color:#FFFFFF;stop-opacity:0"/>
				</radialGradient>
				<path fill-rule="evenodd" clip-rule="evenodd" fill="url(#SVGID_10_)" d="M35.45,16.7v-0.55h-0.1c0.1-0.43,0.22-0.98,0.35-1.65
					v1.9C35.6,16.5,35.52,16.6,35.45,16.7z"/>
				<g>
					
						<radialGradient id="SVGID_11_" cx="102.2998" cy="11.6504" r="36.95" gradientTransform="matrix(1 0 0 0.116 0 10.2985)" gradientUnits="userSpaceOnUse">
						<stop  offset="0" style="stop-color:#FFFFFF;stop-opacity:0.498"/>
						<stop  offset="0.1765" style="stop-color:#FFFFFF;stop-opacity:0.498"/>
						<stop  offset="0.3059" style="stop-color:#FFFFFF;stop-opacity:0.3373"/>
						<stop  offset="0.4902" style="stop-color:#FFFFFF;stop-opacity:0.1373"/>
						<stop  offset="0.651" style="stop-color:#FFFFFF;stop-opacity:0.0275"/>
						<stop  offset="1" style="stop-color:#FFFFFF;stop-opacity:0"/>
					</radialGradient>
					<path fill-rule="evenodd" clip-rule="evenodd" fill="url(#SVGID_11_)" d="M139.05,11.65c0,1.23-3.65,2.23-10.95,3
						c-7.3,0.87-15.9,1.3-25.8,1.3c-9.9,0-18.5-0.43-25.8-1.3c-6.77-0.77-10.15-1.77-10.15-3c0-1.13,3.38-2.1,10.15-2.9
						c7.3-0.83,15.9-1.25,25.8-1.25c9.9,0,18.5,0.42,25.8,1.25C135.4,9.55,139.05,10.52,139.05,11.65z"/>
				</g>
				<g>
					
						<radialGradient id="SVGID_12_" cx="45.3076" cy="14.2744" r="13.3629" gradientTransform="matrix(1 -7.483420e-003 0 0.3209 -5.798340e-003 8.1094)" gradientUnits="userSpaceOnUse">
						<stop  offset="0" style="stop-color:#FFFFFF;stop-opacity:0.498"/>
						<stop  offset="0.1765" style="stop-color:#FFFFFF;stop-opacity:0.498"/>
						<stop  offset="0.3059" style="stop-color:#FFFFFF;stop-opacity:0.3373"/>
						<stop  offset="0.4902" style="stop-color:#FFFFFF;stop-opacity:0.1373"/>
						<stop  offset="0.651" style="stop-color:#FFFFFF;stop-opacity:0.0275"/>
						<stop  offset="1" style="stop-color:#FFFFFF;stop-opacity:0"/>
					</radialGradient>
					<path fill-rule="evenodd" clip-rule="evenodd" fill="url(#SVGID_12_)" d="M36,15.4c-2.47-0.77-3.7-1.75-3.7-2.95
						c0-1.17,1.23-2.15,3.7-2.95c2.63-0.87,5.73-1.32,9.3-1.35c3.6,0,6.72,0.4,9.35,1.2c2.63,0.77,3.95,1.73,3.95,2.9
						c0,1.2-1.32,2.22-3.95,3.05c-2.63,0.83-5.75,1.27-9.35,1.3C41.73,16.63,38.63,16.23,36,15.4z"/>
				</g>
				<g>
					
						<radialGradient id="SVGID_13_" cx="58.9004" cy="9.0996" r="2.6489" gradientTransform="matrix(0.9868 -0.1617 0.4149 2.5326 -3.0004 -4.4251)" gradientUnits="userSpaceOnUse">
						<stop  offset="0" style="stop-color:#FFFFFF;stop-opacity:0.498"/>
						<stop  offset="0.1765" style="stop-color:#FFFFFF;stop-opacity:0.498"/>
						<stop  offset="0.3059" style="stop-color:#FFFFFF;stop-opacity:0.3373"/>
						<stop  offset="0.4902" style="stop-color:#FFFFFF;stop-opacity:0.1373"/>
						<stop  offset="0.651" style="stop-color:#FFFFFF;stop-opacity:0.0275"/>
						<stop  offset="1" style="stop-color:#FFFFFF;stop-opacity:0"/>
					</radialGradient>
					<path fill-rule="evenodd" clip-rule="evenodd" fill="url(#SVGID_13_)" d="M57.85,2.6c0.7-0.13,1.42,0.42,2.15,1.65
						c0.73,1.17,1.23,2.65,1.5,4.45c0.3,1.87,0.3,3.47,0,4.8c-0.33,1.43-0.85,2.2-1.55,2.3c-0.7,0.1-1.42-0.47-2.15-1.7
						c-0.67-1.13-1.15-2.65-1.45-4.55c-0.27-1.8-0.27-3.37,0-4.7C56.65,3.45,57.15,2.7,57.85,2.6z"/>
				</g>
				<g>
					
						<radialGradient id="SVGID_14_" cx="140.9004" cy="11.2002" r="2.6489" gradientTransform="matrix(0.9868 -0.1617 0.4149 2.5326 -2.7934 5.6109)" gradientUnits="userSpaceOnUse">
						<stop  offset="0" style="stop-color:#FFFFFF;stop-opacity:0.498"/>
						<stop  offset="0.1765" style="stop-color:#FFFFFF;stop-opacity:0.498"/>
						<stop  offset="0.3059" style="stop-color:#FFFFFF;stop-opacity:0.3373"/>
						<stop  offset="0.4902" style="stop-color:#FFFFFF;stop-opacity:0.1373"/>
						<stop  offset="0.651" style="stop-color:#FFFFFF;stop-opacity:0.0275"/>
						<stop  offset="1" style="stop-color:#FFFFFF;stop-opacity:0"/>
					</radialGradient>
					<path fill-rule="evenodd" clip-rule="evenodd" fill="url(#SVGID_14_)" d="M138.35,6.95c0.3-1.43,0.82-2.2,1.55-2.3
						c0.7-0.1,1.42,0.47,2.15,1.7c0.7,1.13,1.18,2.6,1.45,4.4c0.3,1.9,0.3,3.5,0,4.8c-0.33,1.43-0.85,2.2-1.55,2.3
						c-0.7,0.13-1.42-0.43-2.15-1.7c-0.67-1.13-1.15-2.65-1.45-4.55C138.08,9.8,138.08,8.25,138.35,6.95z"/>
				</g>
				<g>
					
						<radialGradient id="SVGID_15_" cx="63.75" cy="11.4004" r="1.7429" gradientTransform="matrix(0.997 -0.077 0.2574 3.3344 -2.7456 -21.7061)" gradientUnits="userSpaceOnUse">
						<stop  offset="0" style="stop-color:#FFFFFF"/>
						<stop  offset="0.1765" style="stop-color:#FFFFFF"/>
						<stop  offset="0.3059" style="stop-color:#FFFFFF;stop-opacity:0.4235"/>
						<stop  offset="0.4902" style="stop-color:#FFFFFF;stop-opacity:0.2314"/>
						<stop  offset="0.651" style="stop-color:#FFFFFF;stop-opacity:0.0824"/>
						<stop  offset="1" style="stop-color:#FFFFFF;stop-opacity:0"/>
					</radialGradient>
					<path fill-rule="evenodd" clip-rule="evenodd" fill="url(#SVGID_15_)" d="M63.35,5.7c0.47-0.03,0.9,0.5,1.3,1.6
						c0.07,0.17,0.13,0.33,0.2,0.5c-0.37,0.3-0.55,0.6-0.55,0.9c0.1,0.33,0.42,0.65,0.95,0.95c0.1,0.53,0.17,1.08,0.2,1.65
						c0.07,0.7,0.1,1.35,0.1,1.95c-0.27,0.13-0.5,0.27-0.7,0.4c-0.37,0.3-0.55,0.6-0.55,0.9c0.1,0.33,0.42,0.65,0.95,0.95
						c-0.27,1.07-0.62,1.62-1.05,1.65c-0.47,0.03-0.92-0.5-1.35-1.6c-0.43-1.07-0.7-2.4-0.8-4c-0.13-1.57-0.07-2.93,0.2-4.1
						C62.48,6.32,62.85,5.73,63.35,5.7z"/>
				</g>
				<g>
					
						<radialGradient id="SVGID_16_" cx="-6.0098" cy="23.2813" r="2.49" gradientTransform="matrix(0.999 -0.0452 0.246 1.9779 34.0767 -33.8691)" gradientUnits="userSpaceOnUse">
						<stop  offset="0" style="stop-color:#FFFFFF"/>
						<stop  offset="0.1765" style="stop-color:#FFFFFF"/>
						<stop  offset="0.3059" style="stop-color:#FFFFFF;stop-opacity:0.4235"/>
						<stop  offset="0.4902" style="stop-color:#FFFFFF;stop-opacity:0.2314"/>
						<stop  offset="0.651" style="stop-color:#FFFFFF;stop-opacity:0.0824"/>
						<stop  offset="1" style="stop-color:#FFFFFF;stop-opacity:0"/>
					</radialGradient>
					<path fill-rule="evenodd" clip-rule="evenodd" fill="url(#SVGID_16_)" d="M34.75,16.15c0,0.07-0.03,0.13-0.1,0.2H32.8
						c-0.1-0.1-0.2-0.22-0.3-0.35c-0.57-0.93-0.95-2.07-1.15-3.4c-0.1-0.73-0.12-1.4-0.05-2h2.55c0.77,1.5,1.17,2.8,1.2,3.9
						C35.08,15.13,34.98,15.68,34.75,16.15z"/>
				</g>
				<g>
					
						<radialGradient id="SVGID_17_" cx="5.2002" cy="12.3984" r="0.6026" gradientTransform="matrix(0.9969 -0.0792 0.262 3.3001 -3.2325 -28.1056)" gradientUnits="userSpaceOnUse">
						<stop  offset="0" style="stop-color:#FFFFFF"/>
						<stop  offset="0.1765" style="stop-color:#FFFFFF"/>
						<stop  offset="0.3059" style="stop-color:#FFFFFF;stop-opacity:0.4235"/>
						<stop  offset="0.4902" style="stop-color:#FFFFFF;stop-opacity:0.2314"/>
						<stop  offset="0.651" style="stop-color:#FFFFFF;stop-opacity:0.0824"/>
						<stop  offset="1" style="stop-color:#FFFFFF;stop-opacity:0"/>
					</radialGradient>
					<path fill-rule="evenodd" clip-rule="evenodd" fill="url(#SVGID_17_)" d="M4.6,12.45c-0.03-0.53-0.02-1,0.05-1.4
						c0.1-0.4,0.23-0.6,0.4-0.6C5.18,10.42,5.33,10.6,5.5,11c0.13,0.37,0.22,0.82,0.25,1.35c0.07,0.53,0.05,1-0.05,1.4
						c-0.07,0.4-0.18,0.6-0.35,0.6c-0.17,0-0.33-0.18-0.5-0.55C4.72,13.43,4.63,12.98,4.6,12.45z"/>
				</g>
				<g>
					
						<radialGradient id="SVGID_18_" cx="5.0498" cy="30.4502" r="0.6021" gradientTransform="matrix(0.9969 -0.0792 0.262 3.3001 -7.963 -69.6376)" gradientUnits="userSpaceOnUse">
						<stop  offset="0" style="stop-color:#FFFFFF"/>
						<stop  offset="0.1765" style="stop-color:#FFFFFF"/>
						<stop  offset="0.3059" style="stop-color:#FFFFFF;stop-opacity:0.4235"/>
						<stop  offset="0.4902" style="stop-color:#FFFFFF;stop-opacity:0.2314"/>
						<stop  offset="0.651" style="stop-color:#FFFFFF;stop-opacity:0.0824"/>
						<stop  offset="1" style="stop-color:#FFFFFF;stop-opacity:0"/>
					</radialGradient>
					<path fill-rule="evenodd" clip-rule="evenodd" fill="url(#SVGID_18_)" d="M4.45,30.5c-0.03-0.53,0-1,0.1-1.4
						c0.1-0.4,0.22-0.6,0.35-0.6c0.17-0.03,0.32,0.15,0.45,0.55c0.17,0.37,0.27,0.82,0.3,1.35c0.03,0.53,0.02,1-0.05,1.4
						c-0.1,0.4-0.23,0.62-0.4,0.65c-0.17,0-0.32-0.18-0.45-0.55C4.62,31.5,4.52,31.03,4.45,30.5z"/>
				</g>
				<g>
					
						<radialGradient id="SVGID_19_" cx="-8.1011" cy="41.3701" r="2.49" gradientTransform="matrix(0.999 -0.0452 0.246 1.9779 31.8666 -51.6405)" gradientUnits="userSpaceOnUse">
						<stop  offset="0" style="stop-color:#FFFFFF"/>
						<stop  offset="0.1765" style="stop-color:#FFFFFF"/>
						<stop  offset="0.3059" style="stop-color:#FFFFFF;stop-opacity:0.4235"/>
						<stop  offset="0.4902" style="stop-color:#FFFFFF;stop-opacity:0.2314"/>
						<stop  offset="0.651" style="stop-color:#FFFFFF;stop-opacity:0.0824"/>
						<stop  offset="1" style="stop-color:#FFFFFF;stop-opacity:0"/>
					</radialGradient>
					<path fill-rule="evenodd" clip-rule="evenodd" fill="url(#SVGID_19_)" d="M34.9,34.25c0,0.07-0.03,0.13-0.1,0.2h-1.85
						c-0.1-0.1-0.2-0.22-0.3-0.35c-0.57-0.93-0.95-2.07-1.15-3.4c-0.1-0.73-0.12-1.4-0.05-2H34c0.77,1.5,1.17,2.8,1.2,3.9
						C35.23,33.2,35.13,33.75,34.9,34.25z"/>
				</g>
				<g>
					
						<radialGradient id="SVGID_20_" cx="37.25" cy="12.9502" r="1.7429" gradientTransform="matrix(0.997 -0.077 0.2574 3.3344 -3.2232 -27.3637)" gradientUnits="userSpaceOnUse">
						<stop  offset="0" style="stop-color:#FFFFFF"/>
						<stop  offset="0.1765" style="stop-color:#FFFFFF"/>
						<stop  offset="0.3059" style="stop-color:#FFFFFF;stop-opacity:0.4235"/>
						<stop  offset="0.4902" style="stop-color:#FFFFFF;stop-opacity:0.2314"/>
						<stop  offset="0.651" style="stop-color:#FFFFFF;stop-opacity:0.0824"/>
						<stop  offset="1" style="stop-color:#FFFFFF;stop-opacity:0"/>
					</radialGradient>
					<path fill-rule="evenodd" clip-rule="evenodd" fill="url(#SVGID_20_)" d="M38.15,8.8c0.07,0.2,0.13,0.38,0.2,0.55
						c-0.17,0-0.33,0.03-0.5,0.1v7.85c0.27,0.03,0.53,0.07,0.8,0.1c-0.23,0.8-0.55,1.22-0.95,1.25c-0.5,0.03-1.32,0.45-2.45,1.25
						c-0.83,0.57-0.98-0.25-0.45-2.45c0.1-0.4,0.22-0.83,0.35-1.3h-0.4c0.23-0.47,0.33-1.02,0.3-1.65c0.03-1.1-0.37-2.47-1.2-4.1
						h1.65c0.03-0.13,0.05-0.27,0.05-0.4c0.03-0.33,0.08-0.67,0.15-1c0.27-1.17,0.63-1.77,1.1-1.8C37.27,7.17,37.72,7.7,38.15,8.8z
						 M35.7,16.4v-1.9c-0.13,0.67-0.25,1.22-0.35,1.65h0.1v0.55C35.52,16.6,35.6,16.5,35.7,16.4z"/>
				</g>
			</g>
			<g>
				<path fill-rule="evenodd" clip-rule="evenodd" fill="#A6A6A6" d="M132.7,18.65c0.1,0.37,0.15,0.73,0.15,1.1
					c0,0.27-0.03,0.53-0.1,0.8c-0.1,0.23-0.23,0.47-0.4,0.7c-0.13,0.23-0.32,0.45-0.55,0.65c-0.23,0.2-0.5,0.38-0.8,0.55
					c0.33,0.17,0.63,0.35,0.9,0.55c0.3,0.2,0.53,0.42,0.7,0.65c0.2,0.23,0.35,0.48,0.45,0.75c0.1,0.27,0.15,0.57,0.15,0.9
					c0,0.47-0.08,0.9-0.25,1.3c-0.2,0.4-0.45,0.73-0.75,1c-0.37,0.27-0.8,0.47-1.3,0.6c-0.5,0.13-1.07,0.2-1.7,0.2
					c-0.6,0-1.13-0.07-1.6-0.2c-0.47-0.1-0.87-0.27-1.2-0.5c-0.3-0.27-0.53-0.57-0.7-0.9c-0.17-0.37-0.25-0.78-0.25-1.25
					c0-0.3,0.05-0.58,0.15-0.85c0.1-0.27,0.23-0.52,0.4-0.75c0.2-0.23,0.43-0.45,0.7-0.65s0.58-0.4,0.95-0.6
					c-0.3-0.17-0.57-0.33-0.8-0.5c-0.23-0.2-0.43-0.4-0.6-0.6c-0.17-0.23-0.28-0.48-0.35-0.75c-0.1-0.23-0.15-0.52-0.15-0.85
					c0-0.43,0.08-0.82,0.25-1.15c0.17-0.37,0.4-0.68,0.7-0.95s0.68-0.47,1.15-0.6c0.47-0.13,1-0.2,1.6-0.2c0.6,0,1.12,0.07,1.55,0.2
					c0.43,0.1,0.78,0.28,1.05,0.55C132.32,18.08,132.53,18.35,132.7,18.65z M119.25,19.8c-0.13,0.33-0.23,0.73-0.3,1.2
					c-0.03,0.5-0.05,1.07-0.05,1.7c0,0.77,0.02,1.4,0.05,1.9c0.1,0.5,0.2,0.9,0.3,1.2c0.17,0.3,0.35,0.52,0.55,0.65
					c0.2,0.13,0.45,0.2,0.75,0.2c0.2,0,0.4-0.03,0.6-0.1c0.17-0.07,0.3-0.18,0.4-0.35c0.13-0.13,0.25-0.3,0.35-0.5
					c0.07-0.23,0.13-0.48,0.2-0.75c0.03-0.3,0.07-0.62,0.1-0.95c0-0.37,0-0.77,0-1.2c0-0.5,0-0.95,0-1.35
					c-0.03-0.4-0.08-0.75-0.15-1.05c-0.07-0.3-0.13-0.55-0.2-0.75c-0.1-0.2-0.22-0.35-0.35-0.45c-0.1-0.13-0.23-0.22-0.4-0.25
					c-0.17-0.07-0.33-0.1-0.5-0.1c-0.37,0-0.65,0.08-0.85,0.25C119.52,19.27,119.35,19.5,119.25,19.8z M120.65,17.1
					c0.77,0,1.38,0.12,1.85,0.35c0.5,0.27,0.9,0.65,1.2,1.15c0.27,0.47,0.47,1.05,0.6,1.75c0.1,0.67,0.15,1.45,0.15,2.35
					c0,0.87-0.07,1.65-0.2,2.35s-0.37,1.3-0.7,1.8c-0.3,0.5-0.7,0.88-1.2,1.15c-0.53,0.27-1.17,0.4-1.9,0.4s-1.35-0.13-1.85-0.4
					c-0.5-0.23-0.88-0.6-1.15-1.1c-0.3-0.47-0.52-1.05-0.65-1.75c-0.1-0.7-0.15-1.48-0.15-2.35c0-0.87,0.07-1.67,0.2-2.4
					c0.17-0.7,0.4-1.28,0.7-1.75c0.3-0.53,0.72-0.92,1.25-1.15C119.3,17.23,119.92,17.1,120.65,17.1z M128.3,20.85
					c0.1,0.13,0.25,0.27,0.45,0.4s0.43,0.27,0.7,0.4c0.4-0.23,0.72-0.48,0.95-0.75s0.35-0.57,0.35-0.9c0-0.2-0.03-0.38-0.1-0.55
					c-0.07-0.17-0.15-0.3-0.25-0.4c-0.13-0.1-0.28-0.18-0.45-0.25c-0.2-0.07-0.42-0.1-0.65-0.1c-0.47,0-0.82,0.12-1.05,0.35
					c-0.23,0.2-0.35,0.5-0.35,0.9c0,0.17,0.03,0.32,0.1,0.45C128.07,20.57,128.17,20.72,128.3,20.85z M129.2,23.5
					c-0.27,0.13-0.48,0.28-0.65,0.45c-0.2,0.13-0.37,0.27-0.5,0.4c-0.13,0.17-0.23,0.33-0.3,0.5c-0.07,0.17-0.1,0.35-0.1,0.55
					c0,0.47,0.15,0.8,0.45,1c0.27,0.23,0.68,0.35,1.25,0.35c0.53,0,0.93-0.12,1.2-0.35c0.3-0.23,0.45-0.57,0.45-1
					c0-0.2-0.03-0.38-0.1-0.55c-0.07-0.17-0.18-0.33-0.35-0.5c-0.17-0.13-0.35-0.27-0.55-0.4C129.77,23.78,129.5,23.63,129.2,23.5z
					 M115.45,23.15c0.07,0.03,0.12,0.08,0.15,0.15c0,0.07,0.02,0.15,0.05,0.25c0,0.1,0,0.23,0,0.4c0,0.33-0.02,0.57-0.05,0.7
					c-0.07,0.13-0.17,0.2-0.3,0.2h-3.55c-0.13,0-0.23-0.07-0.3-0.2c-0.03-0.13-0.05-0.37-0.05-0.7c0-0.3,0.02-0.52,0.05-0.65
					c0.07-0.13,0.17-0.2,0.3-0.2h3.55C115.37,23.1,115.42,23.12,115.45,23.15z M92.4,18.6c0.3,0.47,0.5,1.05,0.6,1.75
					c0.13,0.67,0.2,1.45,0.2,2.35c0,0.87-0.08,1.65-0.25,2.35c-0.13,0.7-0.35,1.3-0.65,1.8c-0.33,0.5-0.75,0.88-1.25,1.15
					c-0.53,0.27-1.17,0.4-1.9,0.4S87.8,28.27,87.3,28c-0.47-0.23-0.85-0.6-1.15-1.1c-0.3-0.47-0.5-1.05-0.6-1.75
					c-0.13-0.7-0.2-1.48-0.2-2.35c0-0.87,0.08-1.67,0.25-2.4c0.13-0.7,0.37-1.28,0.7-1.75c0.3-0.53,0.72-0.92,1.25-1.15
					c0.5-0.27,1.12-0.4,1.85-0.4s1.35,0.12,1.85,0.35C91.75,17.72,92.13,18.1,92.4,18.6z M90.75,20.4c-0.03-0.3-0.1-0.55-0.2-0.75
					c-0.1-0.2-0.2-0.35-0.3-0.45c-0.13-0.13-0.28-0.22-0.45-0.25c-0.17-0.07-0.33-0.1-0.5-0.1c-0.33,0-0.62,0.08-0.85,0.25
					c-0.2,0.17-0.37,0.4-0.5,0.7c-0.13,0.33-0.22,0.73-0.25,1.2c-0.07,0.5-0.1,1.07-0.1,1.7c0,0.77,0.03,1.4,0.1,1.9
					s0.17,0.9,0.3,1.2s0.3,0.52,0.5,0.65c0.2,0.13,0.45,0.2,0.75,0.2c0.23,0,0.43-0.03,0.6-0.1c0.17-0.07,0.32-0.18,0.45-0.35
					c0.13-0.13,0.23-0.3,0.3-0.5c0.1-0.23,0.17-0.48,0.2-0.75c0.07-0.3,0.1-0.62,0.1-0.95c0.03-0.37,0.05-0.77,0.05-1.2
					c0-0.5-0.02-0.95-0.05-1.35C90.87,21.05,90.82,20.7,90.75,20.4z M95.05,18.65c0.3-0.53,0.72-0.92,1.25-1.15
					c0.5-0.27,1.12-0.4,1.85-0.4s1.35,0.12,1.85,0.35c0.5,0.27,0.9,0.65,1.2,1.15c0.27,0.47,0.47,1.05,0.6,1.75
					c0.1,0.67,0.15,1.45,0.15,2.35c0,0.87-0.07,1.65-0.2,2.35s-0.37,1.3-0.7,1.8c-0.3,0.5-0.72,0.88-1.25,1.15
					c-0.5,0.27-1.12,0.4-1.85,0.4S96.6,28.27,96.1,28c-0.5-0.23-0.88-0.6-1.15-1.1c-0.3-0.47-0.52-1.05-0.65-1.75
					c-0.1-0.7-0.15-1.48-0.15-2.35c0-0.87,0.07-1.67,0.2-2.4C94.48,19.7,94.72,19.12,95.05,18.65z M96.45,21
					c-0.03,0.5-0.05,1.07-0.05,1.7c0,0.77,0.02,1.4,0.05,1.9c0.07,0.5,0.17,0.9,0.3,1.2s0.3,0.52,0.5,0.65
					c0.23,0.13,0.5,0.2,0.8,0.2c0.2,0,0.38-0.03,0.55-0.1c0.17-0.07,0.32-0.18,0.45-0.35c0.13-0.13,0.25-0.3,0.35-0.5
					c0.07-0.23,0.13-0.48,0.2-0.75c0.03-0.3,0.07-0.62,0.1-0.95c0-0.37,0-0.77,0-1.2c0-0.5-0.02-0.95-0.05-1.35
					c0-0.4-0.03-0.75-0.1-1.05c-0.07-0.3-0.13-0.55-0.2-0.75c-0.1-0.2-0.22-0.35-0.35-0.45c-0.1-0.13-0.23-0.22-0.4-0.25
					c-0.17-0.07-0.35-0.1-0.55-0.1c-0.33,0-0.6,0.08-0.8,0.25c-0.23,0.17-0.42,0.4-0.55,0.7C96.6,20.13,96.52,20.53,96.45,21z
					 M104.3,17.3h5.45c0.03,0,0.08,0,0.15,0c0.03,0.03,0.07,0.08,0.1,0.15c0.03,0.1,0.05,0.2,0.05,0.3s0,0.23,0,0.4
					c0,0.17,0,0.3,0,0.4c0,0.1-0.02,0.18-0.05,0.25c-0.03,0.1-0.07,0.15-0.1,0.15c-0.07,0.03-0.12,0.05-0.15,0.05h-3.9v2.7h3.3
					c0.07,0,0.12,0.02,0.15,0.05c0.03,0,0.07,0.05,0.1,0.15c0.03,0.07,0.05,0.15,0.05,0.25c0.03,0.1,0.05,0.23,0.05,0.4
					c0,0.17-0.02,0.3-0.05,0.4c0,0.1-0.02,0.18-0.05,0.25c-0.03,0.07-0.07,0.12-0.1,0.15c-0.03,0.03-0.08,0.05-0.15,0.05h-3.3v3.1
					h3.95c0.03,0,0.08,0,0.15,0c0.03,0.03,0.07,0.08,0.1,0.15c0,0.07,0.02,0.17,0.05,0.3c0,0.1,0,0.23,0,0.4c0,0.13,0,0.27,0,0.4
					c-0.03,0.1-0.05,0.18-0.05,0.25c-0.03,0.07-0.07,0.12-0.1,0.15c-0.07,0.03-0.12,0.05-0.15,0.05h-5.5c-0.2,0-0.35-0.05-0.45-0.15
					c-0.17-0.13-0.25-0.32-0.25-0.55V18c0-0.27,0.08-0.45,0.25-0.55C103.95,17.35,104.1,17.3,104.3,17.3z M75.5,17.25
					c0.03,0,0.08-0.02,0.15-0.05c0.1,0,0.2,0,0.3,0c0.1,0,0.23,0,0.4,0c0.23,0,0.4,0,0.5,0c0.17,0,0.27,0.02,0.3,0.05
					c0.07,0.03,0.12,0.07,0.15,0.1c0.03,0.03,0.05,0.07,0.05,0.1v9.05h1.8c0.03,0,0.08,0.02,0.15,0.05c0.03,0.03,0.07,0.08,0.1,0.15
					c0.03,0.07,0.05,0.15,0.05,0.25c0,0.1,0,0.23,0,0.4c0,0.17,0,0.3,0,0.4c0,0.13-0.02,0.23-0.05,0.3
					c-0.07,0.03-0.12,0.07-0.15,0.1c-0.03,0.03-0.07,0.05-0.1,0.05H73.1c-0.03,0-0.08-0.02-0.15-0.05c-0.03-0.03-0.07-0.07-0.1-0.1
					c-0.03-0.07-0.05-0.17-0.05-0.3c-0.03-0.1-0.05-0.23-0.05-0.4c0-0.17,0.02-0.3,0.05-0.4c0-0.1,0.02-0.18,0.05-0.25
					c0.03-0.07,0.07-0.12,0.1-0.15s0.08-0.05,0.15-0.05h2.05v-7.1l-1.8,0.95c-0.1,0.07-0.2,0.1-0.3,0.1
					c-0.07,0.03-0.13,0.02-0.2-0.05c-0.03-0.03-0.07-0.12-0.1-0.25c0-0.1,0-0.27,0-0.5c0-0.1,0-0.2,0-0.3c0-0.1,0.02-0.18,0.05-0.25
					c0-0.07,0.03-0.12,0.1-0.15c0.03-0.03,0.08-0.07,0.15-0.1l2.35-1.55C75.43,17.3,75.47,17.28,75.5,17.25z M82.6,25.7
					c0.47,0,0.78,0.08,0.95,0.25c0.2,0.2,0.3,0.55,0.3,1.05c0,0.53-0.1,0.88-0.3,1.05c-0.17,0.17-0.5,0.25-1,0.25
					c-0.47,0-0.78-0.08-0.95-0.25c-0.2-0.17-0.3-0.5-0.3-1c0-0.53,0.1-0.9,0.3-1.1C81.77,25.78,82.1,25.7,82.6,25.7z"/>
			</g>
		</g>
	</g>
</g>
</svg>
