<?xml version="1.0" encoding="utf-8"?>
<!-- Generator: Adobe Illustrator 16.0.0, SVG Export Plug-In . SVG Version: 6.00 Build 0)  -->
<!DOCTYPE svg PUBLIC "-//W3C//DTD SVG 1.1//EN" "http://www.w3.org/Graphics/SVG/1.1/DTD/svg11.dtd">
<svg version="1.1" xmlns="http://www.w3.org/2000/svg" xmlns:xlink="http://www.w3.org/1999/xlink" x="0px" y="0px" width="272px"
	 height="276.67px" viewBox="0 0 272 276.67" enable-background="new 0 0 272 276.67" xml:space="preserve">
<g id="BG">
</g>
<g id="shadow1">
	<g>
		<g>
			<polygon fill-rule="evenodd" clip-rule="evenodd" fill-opacity="0.2" points="268.05,116.95 267.75,117.6 267.65,117.53 			"/>
			<linearGradient id="SVGID_1_" gradientUnits="userSpaceOnUse" x1="156.6997" y1="135.4502" x2="156.6997" y2="145.4502">
				<stop  offset="0" style="stop-color:#4E4836;stop-opacity:0.6"/>
				<stop  offset="0.4118" style="stop-color:#4E4836;stop-opacity:0.498"/>
				<stop  offset="0.7137" style="stop-color:#4E4837;stop-opacity:0.1176"/>
				<stop  offset="1" style="stop-color:#4F4838;stop-opacity:0"/>
			</linearGradient>
			<path fill-rule="evenodd" clip-rule="evenodd" fill="url(#SVGID_1_)" d="M267.75,117.6l-12.8,25.1L59.2,144.2l-13.85-32.65
				l6-62.2c8.47-17.77,9.5-27.75,9.1-29.95l186.45,0.3l11.7,34.9l9.45,62.35l-0.4,0.58L267.75,117.6z"/>
		</g>
		<g>
			<g>
				<linearGradient id="SVGID_2_" gradientUnits="userSpaceOnUse" x1="153.8247" y1="101.75" x2="153.8247" y2="118.75">
					<stop  offset="0" style="stop-color:#000000;stop-opacity:0.6941"/>
					<stop  offset="1" style="stop-color:#000000;stop-opacity:0"/>
				</linearGradient>
				<path fill-rule="evenodd" clip-rule="evenodd" fill="url(#SVGID_2_)" d="M52.3,128.75l4.2-84.55l192.45,0.65
					c2.23,15.13,4.37,43.1,6.4,83.9H52.3z"/>
			</g>
			<g>
				<linearGradient id="SVGID_3_" gradientUnits="userSpaceOnUse" x1="152.7495" y1="131.4502" x2="152.7495" y2="135.0502">
					<stop  offset="0" style="stop-color:#000000;stop-opacity:0.6941"/>
					<stop  offset="0.3647" style="stop-color:#000000;stop-opacity:0.298"/>
					<stop  offset="1" style="stop-color:#000000;stop-opacity:0"/>
				</linearGradient>
				<path fill-rule="evenodd" clip-rule="evenodd" fill="url(#SVGID_3_)" d="M78.75,137.75l4.75-15h133.25
					c1.8-0.03,3.52-0.03,5.15,0l4.85,16.7c-1.33-1.23-2.55-1.62-3.65-1.15c-0.7,0.1-1.68-0.08-2.95-0.55H78.75z"/>
			</g>
		</g>
		<g>
			<g>
				<linearGradient id="SVGID_4_" gradientUnits="userSpaceOnUse" x1="152.0459" y1="97.8208" x2="151.8054" y2="138.8462">
					<stop  offset="0" style="stop-color:#404037"/>
					<stop  offset="0.1176" style="stop-color:#7D7E72"/>
					<stop  offset="1" style="stop-color:#9FA193"/>
				</linearGradient>
				<path fill-rule="evenodd" clip-rule="evenodd" fill="url(#SVGID_4_)" d="M78.15,87.5c0-4.87,2.45-7.3,7.35-7.3h133.05
					c4.87,0,7.3,2.43,7.3,7.3v36.35c0,4.9-2.43,7.35-7.3,7.35H85.5c-4.9,0-7.35-2.45-7.35-7.35V87.5z M103,88.15
					c-0.77,0.3-1.38,0.77-1.85,1.4c-0.13,0.17-0.22,0.32-0.25,0.45c-0.07,0.07-0.12,0.13-0.15,0.2c-0.07,0.1-0.12,0.2-0.15,0.3
					c-0.27,0.7-0.4,1.52-0.4,2.45v25.5c0,3.4,1.72,5.1,5.15,5.1h93.35c3.4,0,5.1-1.7,5.1-5.1v-25.5c0-0.9-0.1-1.67-0.3-2.3
					l-0.05-0.05v-0.1c-0.07-0.1-0.12-0.2-0.15-0.3c-0.07-0.07-0.12-0.15-0.15-0.25c-0.5-0.9-1.25-1.52-2.25-1.85
					c-0.73-1.47-2.18-2.2-4.35-2.2h-89.2C105.15,85.9,103.7,86.65,103,88.15z"/>
				<path fill-rule="evenodd" clip-rule="evenodd" fill="#948987" d="M103,88.15c-0.4,0.8-0.6,1.77-0.6,2.9l-2.2,1.9
					c0-0.93,0.13-1.75,0.4-2.45c0.03-0.1,0.08-0.2,0.15-0.3c0.03-0.07,0.08-0.13,0.15-0.2c0.03-0.13,0.12-0.28,0.25-0.45
					C101.62,88.92,102.23,88.45,103,88.15c0.7-1.5,2.15-2.25,4.35-2.25h89.2c2.17,0,3.62,0.73,4.35,2.2c1,0.33,1.75,0.95,2.25,1.85
					c0.03,0.1,0.08,0.18,0.15,0.25c0.03,0.1,0.08,0.2,0.15,0.3l-2,0.55c0-1.2-0.18-2.18-0.55-2.95c-0.67-0.2-1.4-0.3-2.2-0.3h-93.35
					C104.42,87.8,103.63,87.92,103,88.15z M203.8,92.95l-0.35-2.35l0.05,0.05C203.7,91.28,203.8,92.05,203.8,92.95z"/>
				<path fill-rule="evenodd" clip-rule="evenodd" fill="#938E8A" d="M102.4,91.05c0-1.13,0.2-2.1,0.6-2.9
					c0.63-0.23,1.42-0.35,2.35-0.35h93.35c0.8,0,1.53,0.1,2.2,0.3c0.37,0.77,0.55,1.75,0.55,2.95v25.45c0,3.43-1.63,5.15-4.9,5.15
					h-89.2c-3.3,0-4.95-1.72-4.95-5.15V91.05z M199.5,104.2c0-1.93-0.98-2.9-2.95-2.9h-88.5c-1.93,0-2.9,0.97-2.9,2.9v14.1
					c0,1.93,0.97,2.9,2.9,2.9h88.5c1.97,0,2.95-0.97,2.95-2.9V104.2z"/>
				<linearGradient id="SVGID_5_" gradientUnits="userSpaceOnUse" x1="100.2002" y1="107.0254" x2="203.7998" y2="107.0254">
					<stop  offset="0" style="stop-color:#404037"/>
					<stop  offset="1" style="stop-color:#9FA193"/>
				</linearGradient>
				<path fill-rule="evenodd" clip-rule="evenodd" fill="url(#SVGID_5_)" d="M100.2,92.95l2.2-1.9v25.45c0,3.43,1.65,5.15,4.95,5.15
					h89.2c3.27,0,4.9-1.72,4.9-5.15V91.05l2-0.55v0.1l0.35,2.35v25.5c0,3.4-1.7,5.1-5.1,5.1h-93.35c-3.43,0-5.15-1.7-5.15-5.1V92.95
					z"/>
				
					<path fill-rule="evenodd" clip-rule="evenodd" fill="none" stroke="#000000" stroke-width="0.1" stroke-linecap="round" stroke-linejoin="round" stroke-miterlimit="3" d="
					M77,87.2v-1.75c0-0.13-0.07-0.28-0.2-0.45c-0.1-0.07-0.23-0.1-0.4-0.1c-0.13,0-0.28,0.03-0.45,0.1c-0.07,0.17-0.1,0.32-0.1,0.45
					v1.75c0,0.17,0.03,0.3,0.1,0.4c0.17,0.13,0.32,0.2,0.45,0.2c0.17,0,0.3-0.07,0.4-0.2C76.93,87.5,77,87.37,77,87.2z"/>
			</g>
			<g>
				<path fill-rule="evenodd" clip-rule="evenodd" fill="#9FA193" d="M248.55,96.65c-0.43,0.07-0.92,0.1-1.45,0.1H58.7
					c-0.5,0-0.97-0.03-1.4-0.1c-1.33-0.63-2-1.8-2-3.5l-3.45-22.8c-0.37-1.93-0.37-3.95,0-6.05l0.4-1.85l1.6-9.2l1.45-9.05
					c0-0.63,0.1-1.17,0.3-1.6c0.07-0.13,0.12-0.28,0.15-0.45c0.7-1.2,2.1-1.8,4.2-1.8h186c2.33,0,3.82,0.8,4.45,2.4l0.5,2l1.7,8.55
					l1.85,9.45L254.7,64c0.5,3.33,0.5,6.13,0,8.4l-4.25,20.75C250.45,94.85,249.82,96.02,248.55,96.65z"/>
				<linearGradient id="SVGID_6_" gradientUnits="userSpaceOnUse" x1="153.6606" y1="25.4614" x2="153.595" y2="102.2365">
					<stop  offset="0" style="stop-color:#CFCEC9"/>
					<stop  offset="1" style="stop-color:#7D7E70"/>
				</linearGradient>
				<path fill-rule="evenodd" clip-rule="evenodd" fill="url(#SVGID_6_)" d="M254.05,40.1c0.07,0.2,0.12,0.43,0.15,0.7
					c0.07,0.17,0.1,0.35,0.1,0.55l0.15,0.55l1.75,9.3l1.9,10.15l0.3,1.5c0.47,3.53,0.47,6.55,0,9.05L254,94.4
					c0,2.83-1.57,4.25-4.7,4.25H57.05c-3.1,0-4.65-1.42-4.65-4.25l-3.6-24.7c-0.4-2.13-0.4-4.33,0-6.6l0.35-2.05l1.6-9.95l1.65-9.75
					c0-0.67,0.1-1.25,0.3-1.75c0.03-0.13,0.08-0.28,0.15-0.45c0.67-1.37,2.07-2.05,4.2-2.05H249.3c2.43,0,3.97,0.88,4.6,2.65
					l0.1,0.05v0.1l0.05,0.05C254.05,40.02,254.05,40.07,254.05,40.1z M57.3,96.65c0.43,0.07,0.9,0.1,1.4,0.1h188.4
					c0.53,0,1.02-0.03,1.45-0.1c2.1-0.37,3.15-1.65,3.15-3.85l4.35-21.05c0.47-2.33,0.47-5.17,0-8.5l-0.3-1.3l-1.9-9.55l-1.7-8.7
					l-0.5-1.95c-0.63-1.67-2.15-2.5-4.55-2.5H58.7c-2.1,0-3.5,0.63-4.2,1.9c-0.03,0.13-0.08,0.28-0.15,0.45
					c-0.2,0.43-0.3,0.97-0.3,1.6l-1.5,9.15l-1.65,9.3l-0.35,1.9c-0.4,2.1-0.4,4.15,0,6.15l3.5,23.1C54.05,95,55.13,96.28,57.3,96.65
					z"/>
				<linearGradient id="SVGID_7_" gradientUnits="userSpaceOnUse" x1="153.3247" y1="38.2749" x2="153.3247" y2="97.6249">
					<stop  offset="0" style="stop-color:#797A6B"/>
					<stop  offset="1" style="stop-color:#9FA193"/>
				</linearGradient>
				<path fill-rule="evenodd" clip-rule="evenodd" fill="url(#SVGID_7_)" d="M57.3,96.65c-2.17-0.37-3.25-1.65-3.25-3.85l-3.5-23.1
					c-0.4-2-0.4-4.05,0-6.15l0.35-1.9l1.65-9.3l1.5-9.15c0-0.63,0.1-1.17,0.3-1.6c0.07-0.17,0.12-0.32,0.15-0.45
					c0.7-1.27,2.1-1.9,4.2-1.9h188.4c2.4,0,3.92,0.83,4.55,2.5l0.5,1.95l1.7,8.7l1.9,9.55l0.3,1.3c0.47,3.33,0.47,6.17,0,8.5
					L251.7,92.8c0,2.2-1.05,3.48-3.15,3.85c1.27-0.63,1.9-1.8,1.9-3.5l4.25-20.75c0.5-2.27,0.5-5.07,0-8.4l-0.25-1.25l-1.85-9.45
					l-1.7-8.55l-0.5-2c-0.63-1.6-2.12-2.4-4.45-2.4h-186c-2.1,0-3.5,0.6-4.2,1.8c-0.03,0.17-0.08,0.32-0.15,0.45
					c-0.2,0.43-0.3,0.97-0.3,1.6l-1.45,9.05l-1.6,9.2l-0.4,1.85c-0.37,2.1-0.37,4.12,0,6.05l3.45,22.8
					C55.3,94.85,55.97,96.02,57.3,96.65z"/>
			</g>
			<g>
				<path fill-rule="evenodd" clip-rule="evenodd" fill="#D3D2CD" d="M63.75,5.15H239.9c2.07,0.17,3.4,1.57,4,4.2l10,30.4
					c-0.63-1.77-2.17-2.65-4.6-2.65H57.05c-2.13,0-3.53,0.68-4.2,2.05l6.65-30.3C60.03,6.68,61.45,5.45,63.75,5.15z"/>
			</g>
			<g>
				<g>
					<linearGradient id="SVGID_8_" gradientUnits="userSpaceOnUse" x1="70.7207" y1="82.6069" x2="76.3989" y2="97.1557">
						<stop  offset="0" style="stop-color:#040404;stop-opacity:0.2392"/>
						<stop  offset="1" style="stop-color:#000000;stop-opacity:0"/>
					</linearGradient>
					<path fill-rule="evenodd" clip-rule="evenodd" fill="url(#SVGID_8_)" d="M76.55,81l5.6,12.3c-1.57,4.53-5.77,6.17-12.6,4.9
						L65.7,85.4L76.55,81z"/>
				</g>
				<g>
					<path fill-rule="evenodd" clip-rule="evenodd" fill="#42423E" d="M77.6,74.75c1,1.33,1.5,2.88,1.5,4.65
						c0,2.1-0.75,3.88-2.25,5.35c-1.47,1.5-3.27,2.25-5.4,2.25c-2.07,0-3.85-0.75-5.35-2.25c-1.53-1.47-2.3-3.28-2.3-5.45
						c0-1.7,0.52-3.22,1.55-4.55c0.2-0.27,0.45-0.53,0.75-0.8c1.5-1.5,3.28-2.25,5.35-2.25c2.13,0,3.93,0.75,5.4,2.25
						C77.08,74.22,77.33,74.48,77.6,74.75z"/>
				</g>
				<g>
					<linearGradient id="SVGID_9_" gradientUnits="userSpaceOnUse" x1="64.0249" y1="79.875" x2="78.6749" y2="79.875">
						<stop  offset="0" style="stop-color:#232321"/>
						<stop  offset="0.2275" style="stop-color:#7D7D7B"/>
						<stop  offset="0.4863" style="stop-color:#E6E6E6"/>
						<stop  offset="0.8314" style="stop-color:#656563"/>
						<stop  offset="1" style="stop-color:#1E1E1E"/>
					</linearGradient>
					<path fill-rule="evenodd" clip-rule="evenodd" fill="url(#SVGID_9_)" d="M78.7,79.95c0,1.97-0.72,3.68-2.15,5.15
						c-1.4,1.4-3.13,2.1-5.2,2.1c-2,0-3.7-0.7-5.1-2.1c-1.43-1.47-2.15-3.2-2.15-5.2c0-1.97,0.68-3.68,2.05-5.15h0.1
						c1.4-1.47,3.1-2.2,5.1-2.2c2.07,0,3.8,0.73,5.2,2.2C77.98,76.22,78.7,77.95,78.7,79.95z"/>
				</g>
				<g>
					<g>
						<linearGradient id="SVGID_10_" gradientUnits="userSpaceOnUse" x1="62.7251" y1="78.5498" x2="79.2751" y2="78.5498">
							<stop  offset="0" style="stop-color:#41413E"/>
							<stop  offset="0.4863" style="stop-color:#8A8A86"/>
							<stop  offset="1" style="stop-color:#3D3D3A"/>
						</linearGradient>
						<path fill-rule="evenodd" clip-rule="evenodd" fill="url(#SVGID_10_)" d="M75.7,75.65c1.27,1.27,1.9,2.75,1.9,4.45
							c0,1.03-0.25,1.97-0.75,2.8v0.3H65.5v-0.6c-0.02,0.05-0.04,0.09-0.05,0.13l0.05-0.43c-0.23-0.67-0.35-1.4-0.35-2.2
							c0-1.7,0.58-3.18,1.75-4.45c0.4-0.33,0.78-0.63,1.15-0.9c1-0.57,2.1-0.85,3.3-0.85c1.17,0,2.25,0.28,3.25,0.85
							C74.97,75.02,75.33,75.32,75.7,75.65z"/>
					</g>
				</g>
				<g>
					<path fill-rule="evenodd" clip-rule="evenodd" fill="#636669" d="M73.55,81.6l0.3-7.2c0.13,0.03,0.25,0.08,0.35,0.15
						l-0.35,7.05c0,0.03,0,0.08,0,0.15c-0.03,0-0.08,0-0.15,0h-0.05C73.58,81.68,73.55,81.63,73.55,81.6z M75,82.7l0.3-3.6l0.25-3.6
						c0.03,0.03,0.08,0.08,0.15,0.15c0.03,0.03,0.08,0.08,0.15,0.15l-0.55,6.9l-0.15,0.15L75,82.7z M72.1,73.9
						c0.1,0,0.22,0.02,0.35,0.05L72.3,81.2c0,0.07-0.02,0.12-0.05,0.15H72.1c-0.1-0.03-0.13-0.08-0.1-0.15l0.1-2.75V73.9z
						 M76.5,80.1l0.2-3.15c0.1,0.17,0.2,0.35,0.3,0.55l-0.5,5.75c-0.07,0-0.1,0.05-0.1,0.15c-0.03,0-0.08,0-0.15,0H76.2
						c-0.07-0.1-0.07-0.15,0-0.15L76.5,80.1z M68.6,81.5l-0.3-6.8c0.1-0.1,0.22-0.18,0.35-0.25l0.2,7.05c0,0.07,0,0.12,0,0.15
						c-0.03,0-0.08,0-0.15,0h-0.05C68.62,81.62,68.6,81.57,68.6,81.5z M65.65,77.5c0.1-0.2,0.2-0.38,0.3-0.55l0.55,6.9v0.05
						c0,0.07-0.02,0.1-0.05,0.1c-0.03-0.1-0.1-0.22-0.2-0.35L65.65,77.5z M67.4,83.05l-0.5-7.35v-0.05c0.1-0.1,0.22-0.17,0.35-0.2
						l0.45,7.6c0,0.03,0,0.08,0,0.15c-0.07,0-0.12,0.02-0.15,0.05L67.5,83.2C67.43,83.13,67.4,83.08,67.4,83.05z M70.35,73.95
						c0.1-0.03,0.22-0.05,0.35-0.05v7.55c0,0.03,0,0.08,0,0.15h-0.05c-0.07,0-0.12,0-0.15,0c-0.07-0.07-0.07-0.12,0-0.15l-0.1-3.75
						L70.35,73.95z"/>
					<path fill-rule="evenodd" clip-rule="evenodd" fill="#3E4042" d="M73.85,74.4l-0.3,7.2c0,0.03-0.02,0.08-0.05,0.15l-0.1,0.05
						c-0.03,0-0.05-0.02-0.05-0.05c-0.1-0.07-0.13-0.12-0.1-0.15l0.25-7.35C73.63,74.25,73.75,74.3,73.85,74.4z M75,82.7
						c0,0.03-0.02,0.08-0.05,0.15H74.8c-0.1-0.07-0.12-0.12-0.05-0.15l0.4-7.5c0.1,0.1,0.2,0.2,0.3,0.3l-0.15,3.6L75,82.7z
						 M72.1,73.9v4.55l-0.15,2.75c0,0.07,0,0.12,0,0.15l-0.15,0.1c-0.03,0-0.05-0.03-0.05-0.1c-0.07-0.03-0.1-0.08-0.1-0.15l0.1-7.3
						C71.82,73.9,71.93,73.9,72.1,73.9z M76.5,80.1l-0.4,3.15c0,0.07,0,0.12,0,0.15h-0.2c-0.03-0.03-0.03-0.08,0-0.15l0.5-6.7
						c0.1,0.07,0.2,0.18,0.3,0.35v0.05L76.5,80.1z M68.3,74.7l0.3,6.8v0.1l-0.15,0.15L68.3,81.6l-0.4-6.75
						c0.07-0.07,0.12-0.1,0.15-0.1C68.12,74.72,68.2,74.7,68.3,74.7z M67.4,83.05v0.2c-0.03,0-0.08,0-0.15,0H67.2l-0.1-0.15l-0.5-7
						c0.1-0.17,0.2-0.3,0.3-0.4L67.4,83.05z M65.65,77.5l0.6,6.15h-0.3l-0.5-5.5C65.48,77.95,65.55,77.73,65.65,77.5z M70.35,73.95
						l0.05,3.75v3.75c0,0.03,0,0.08,0,0.15c-0.03,0.03-0.08,0.05-0.15,0.05c-0.03,0-0.05-0.02-0.05-0.05
						c-0.07-0.07-0.1-0.12-0.1-0.15l-0.15-7.4C70.05,73.98,70.18,73.95,70.35,73.95z"/>
				</g>
				<g>
					
						<radialGradient id="SVGID_11_" cx="71.0498" cy="82.5498" r="10.275" gradientTransform="matrix(1 0 0 0.8966 0 8.5362)" gradientUnits="userSpaceOnUse">
						<stop  offset="0" style="stop-color:#1A1A1A"/>
						<stop  offset="1" style="stop-color:#666762"/>
					</radialGradient>
					<path fill-rule="evenodd" clip-rule="evenodd" fill="url(#SVGID_11_)" d="M76.25,82.85c0.07,0.13,0.12,0.25,0.15,0.35l0.1,1.55
						c-0.17,1.2-0.7,2.25-1.6,3.15c-1,1-2.23,1.5-3.7,1.5c-1.47,0-2.7-0.5-3.7-1.5c-1.03-1-1.55-2.23-1.55-3.7c0-0.1,0-0.2,0-0.3
						c0.03-0.23,0.05-0.45,0.05-0.65c0.07-0.23,0.15-0.47,0.25-0.7c0.23-0.73,0.65-1.42,1.25-2.05c1-1,2.23-1.5,3.7-1.5
						c1.47,0,2.7,0.5,3.7,1.5C75.6,81.17,76.05,81.95,76.25,82.85z"/>
				</g>
				<g>
					<g>
						
							<radialGradient id="SVGID_12_" cx="71.5088" cy="85.0215" r="3.5502" gradientTransform="matrix(0.9999 -0.0106 0 0.764 -5.111694e-003 19.1453)" gradientUnits="userSpaceOnUse">
							<stop  offset="0" style="stop-color:#535360"/>
							<stop  offset="0.4235" style="stop-color:#2A2A31"/>
							<stop  offset="1" style="stop-color:#000000"/>
						</radialGradient>
						<path fill-rule="evenodd" clip-rule="evenodd" fill="url(#SVGID_12_)" d="M71.35,81.85c0.63,0,1.2,0.23,1.7,0.7
							c0.43,0.47,0.65,1.02,0.65,1.65c0,0.7-0.22,1.27-0.65,1.7c-0.5,0.5-1.07,0.75-1.7,0.75s-1.2-0.22-1.7-0.65
							C69.22,85.5,69,84.93,69,84.3c0-0.7,0.22-1.27,0.65-1.7C70.15,82.1,70.72,81.85,71.35,81.85z"/>
					</g>
				</g>
				<g>
					<path fill-rule="evenodd" clip-rule="evenodd" fill="#666762" d="M75.7,81.5c-0.3-0.43-0.65-0.82-1.05-1.15
						c-0.3-0.27-0.58-0.48-0.85-0.65c-0.83-0.47-1.72-0.67-2.65-0.6h-0.1c-0.97,0-1.82,0.23-2.55,0.7c-0.33,0.27-0.65,0.57-0.95,0.9
						c-0.33,0.33-0.58,0.72-0.75,1.15c-0.37,0.73-0.53,1.55-0.5,2.45c0,0.03,0,0.1,0,0.2c0.1,0.93,0.4,1.75,0.9,2.45
						c0.2,0.33,0.43,0.62,0.7,0.85c0.4,0.33,0.82,0.6,1.25,0.8c0.73,0.37,1.55,0.52,2.45,0.45h0.05c0.87-0.03,1.67-0.28,2.4-0.75
						c0.37-0.23,0.68-0.52,0.95-0.85c0.3-0.33,0.55-0.65,0.75-0.95c0.4-0.8,0.6-1.63,0.6-2.5c0-0.1,0-0.17,0-0.2
						C76.28,82.97,76.07,82.2,75.7,81.5z M74.05,79.15c0.1,0.1,0.23,0.13,0.4,0.1c0.13,0,0.28-0.03,0.45-0.1
						c0.13,0.17,0.3,0.32,0.5,0.45c0.23,0.23,0.47,0.48,0.7,0.75c-0.1,0.13-0.15,0.3-0.15,0.5c0,0.13,0.03,0.25,0.1,0.35
						c0.03,0.07,0.1,0.15,0.2,0.25c0.17,0.13,0.37,0.2,0.6,0.2c0.2,0.5,0.32,1.02,0.35,1.55c-0.03,0.03-0.1,0.1-0.2,0.2
						c-0.13,0.17-0.2,0.37-0.2,0.6s0.08,0.43,0.25,0.6c0.07,0.03,0.15,0.08,0.25,0.15c-0.07,0.53-0.18,1.03-0.35,1.5h-0.1
						c-0.23,0-0.4,0.1-0.5,0.3c-0.07,0.07-0.1,0.12-0.1,0.15c-0.13,0.17-0.18,0.32-0.15,0.45c0,0.13,0.05,0.28,0.15,0.45
						c-0.2,0.2-0.37,0.37-0.5,0.5c-0.2,0.23-0.4,0.45-0.6,0.65c-0.13-0.1-0.3-0.15-0.5-0.15c-0.1,0-0.22,0.05-0.35,0.15
						c-0.07,0.07-0.12,0.12-0.15,0.15c-0.17,0.17-0.25,0.37-0.25,0.6v0.05c-0.43,0.2-0.92,0.33-1.45,0.4L72.3,89.8
						c-0.13-0.17-0.32-0.25-0.55-0.25h-0.1c-0.2,0.07-0.37,0.17-0.5,0.3C71.08,89.92,71.03,90,71,90.1c-0.53-0.07-1.07-0.17-1.6-0.3
						c0-0.2-0.08-0.4-0.25-0.6c-0.1-0.03-0.2-0.05-0.3-0.05c-0.1-0.07-0.22-0.1-0.35-0.1s-0.25,0.05-0.35,0.15
						c-0.37-0.2-0.67-0.42-0.9-0.65c-0.13-0.17-0.25-0.32-0.35-0.45c0.03-0.1,0.05-0.25,0.05-0.45c-0.03-0.13-0.08-0.28-0.15-0.45
						c-0.03-0.03-0.08-0.08-0.15-0.15c-0.13-0.13-0.32-0.2-0.55-0.2c-0.07,0-0.12,0-0.15,0c-0.27-0.5-0.43-1.03-0.5-1.6
						c0.03-0.07,0.07-0.15,0.1-0.25c0.17-0.13,0.25-0.3,0.25-0.5c0-0.23-0.1-0.45-0.3-0.65c-0.03-0.03-0.1-0.08-0.2-0.15
						c0.03-0.57,0.12-1.1,0.25-1.6c0.27-0.07,0.47-0.17,0.6-0.3c0.07-0.03,0.12-0.08,0.15-0.15c0.07-0.13,0.1-0.28,0.1-0.45
						c0-0.2-0.05-0.35-0.15-0.45c0.17-0.23,0.35-0.5,0.55-0.8c0.2-0.17,0.43-0.33,0.7-0.5c0.07,0,0.18,0,0.35,0
						c0.1,0,0.25-0.02,0.45-0.05c0-0.07,0.02-0.12,0.05-0.15c0.2-0.2,0.3-0.4,0.3-0.6c0.53-0.23,1.12-0.4,1.75-0.5
						c0.07,0.03,0.12,0.1,0.15,0.2c0.13,0.1,0.3,0.15,0.5,0.15h0.1c0.23,0,0.43-0.07,0.6-0.2c0.03-0.07,0.07-0.15,0.1-0.25
						c0.63,0.07,1.2,0.22,1.7,0.45c0.07,0.23,0.17,0.43,0.3,0.6C73.88,79.1,73.95,79.12,74.05,79.15z"/>
				</g>
				<g>
					
						<radialGradient id="SVGID_13_" cx="71.6001" cy="83.5498" r="0.6625" gradientTransform="matrix(1 0 0 2.717 0 -143.4534)" gradientUnits="userSpaceOnUse">
						<stop  offset="0" style="stop-color:#FFFFFF"/>
						<stop  offset="0.1765" style="stop-color:#FFFFFF"/>
						<stop  offset="0.3059" style="stop-color:#FFFFFF;stop-opacity:0.4235"/>
						<stop  offset="0.4902" style="stop-color:#FFFFFF;stop-opacity:0.2314"/>
						<stop  offset="0.651" style="stop-color:#FFFFFF;stop-opacity:0.0824"/>
						<stop  offset="1" style="stop-color:#FFFFFF;stop-opacity:0"/>
					</radialGradient>
					<path fill-rule="evenodd" clip-rule="evenodd" fill="url(#SVGID_13_)" d="M71.6,81.8c0.13,0,0.27,0.2,0.4,0.6
						c0.1,0.3,0.15,0.68,0.15,1.15c0,0.53-0.05,0.95-0.15,1.25c-0.13,0.4-0.27,0.6-0.4,0.6c-0.2,0-0.38-0.2-0.55-0.6
						c-0.1-0.3-0.15-0.72-0.15-1.25c0-0.47,0.05-0.85,0.15-1.15C71.22,82,71.4,81.8,71.6,81.8z"/>
				</g>
				<g>
					<path fill-rule="evenodd" clip-rule="evenodd" fill="none" d="M75.9,86.05c-0.3,0.6-0.72,1.17-1.25,1.7
						c-0.93,0.97-2.08,1.45-3.45,1.45c-1.37,0-2.53-0.48-3.5-1.45c-0.53-0.5-0.9-1.07-1.1-1.7"/>
				</g>
				<g>
					
						<radialGradient id="SVGID_14_" cx="68.2002" cy="79.25" r="0.6034" gradientTransform="matrix(0.6445 0.7646 -1.6408 1.3831 154.276 -82.5065)" gradientUnits="userSpaceOnUse">
						<stop  offset="0" style="stop-color:#FFFFFF"/>
						<stop  offset="0.1765" style="stop-color:#FFFFFF"/>
						<stop  offset="0.3059" style="stop-color:#FFFFFF;stop-opacity:0.4235"/>
						<stop  offset="0.4902" style="stop-color:#FFFFFF;stop-opacity:0.2314"/>
						<stop  offset="0.651" style="stop-color:#FFFFFF;stop-opacity:0.0824"/>
						<stop  offset="1" style="stop-color:#FFFFFF;stop-opacity:0"/>
					</radialGradient>
					<path fill-rule="evenodd" clip-rule="evenodd" fill="url(#SVGID_14_)" d="M69.15,78.95c-0.1,0.23-0.28,0.48-0.55,0.75
						c-0.3,0.23-0.58,0.37-0.85,0.4c-0.23,0.1-0.42,0.08-0.55-0.05c-0.1-0.1-0.08-0.27,0.05-0.5c0.1-0.27,0.3-0.52,0.6-0.75
						c0.23-0.23,0.48-0.38,0.75-0.45c0.27-0.1,0.45-0.07,0.55,0.1C69.25,78.55,69.25,78.72,69.15,78.95z"/>
				</g>
				<g>
					
						<radialGradient id="SVGID_15_" cx="71.3501" cy="78.5" r="2.8003" gradientTransform="matrix(-0.011 0.9999 -1.5445 -0.017 193.3779 8.4917)" gradientUnits="userSpaceOnUse">
						<stop  offset="0" style="stop-color:#FFFFFF"/>
						<stop  offset="0.1765" style="stop-color:#FFFFFF"/>
						<stop  offset="0.3059" style="stop-color:#FFFFFF;stop-opacity:0.4235"/>
						<stop  offset="0.4902" style="stop-color:#FFFFFF;stop-opacity:0.2314"/>
						<stop  offset="0.651" style="stop-color:#FFFFFF;stop-opacity:0.0824"/>
						<stop  offset="1" style="stop-color:#FFFFFF;stop-opacity:0"/>
					</radialGradient>
					<path fill-rule="evenodd" clip-rule="evenodd" fill="url(#SVGID_15_)" d="M71.45,75.7c1.17,0.07,2.13,0.35,2.9,0.85
						c0.83,0.53,1.25,1.18,1.25,1.95c0,0.73-0.43,1.4-1.3,2c-0.8,0.53-1.78,0.8-2.95,0.8c-1.2-0.07-2.2-0.37-3-0.9
						c-0.83-0.53-1.25-1.18-1.25-1.95c0-0.73,0.42-1.4,1.25-2C69.18,75.95,70.22,75.7,71.45,75.7z"/>
				</g>
				<g>
					
						<radialGradient id="SVGID_16_" cx="74.7998" cy="79.25" r="0.3875" gradientTransform="matrix(1 0 0 1.1935 0 -15.3387)" gradientUnits="userSpaceOnUse">
						<stop  offset="0" style="stop-color:#FFFFFF"/>
						<stop  offset="0.1765" style="stop-color:#FFFFFF"/>
						<stop  offset="0.3059" style="stop-color:#FFFFFF;stop-opacity:0.4235"/>
						<stop  offset="0.4902" style="stop-color:#FFFFFF;stop-opacity:0.2314"/>
						<stop  offset="0.651" style="stop-color:#FFFFFF;stop-opacity:0.0824"/>
						<stop  offset="1" style="stop-color:#FFFFFF;stop-opacity:0"/>
					</radialGradient>
					<path fill-rule="evenodd" clip-rule="evenodd" fill="url(#SVGID_16_)" d="M75.1,78.95c0.1,0.03,0.15,0.13,0.15,0.3
						c0,0.13-0.05,0.23-0.15,0.3c-0.07,0.1-0.17,0.15-0.3,0.15c-0.1,0-0.2-0.05-0.3-0.15c-0.03-0.07-0.05-0.17-0.05-0.3
						c0-0.17,0.02-0.27,0.05-0.3c0.1-0.1,0.2-0.15,0.3-0.15C74.93,78.8,75.03,78.85,75.1,78.95z"/>
				</g>
				<g>
					
						<radialGradient id="SVGID_17_" cx="70.7002" cy="89.0498" r="0.5647" gradientTransform="matrix(-0.0872 0.9962 -3.851 -0.3371 419.8002 48.6421)" gradientUnits="userSpaceOnUse">
						<stop  offset="0" style="stop-color:#FFFFFF"/>
						<stop  offset="0.1765" style="stop-color:#FFFFFF"/>
						<stop  offset="0.3059" style="stop-color:#FFFFFF;stop-opacity:0.4235"/>
						<stop  offset="0.4902" style="stop-color:#FFFFFF;stop-opacity:0.2314"/>
						<stop  offset="0.651" style="stop-color:#FFFFFF;stop-opacity:0.0824"/>
						<stop  offset="1" style="stop-color:#FFFFFF;stop-opacity:0"/>
					</radialGradient>
					<path fill-rule="evenodd" clip-rule="evenodd" fill="url(#SVGID_17_)" d="M69.15,88.55c0.43-0.1,0.95-0.13,1.55-0.1
						c0.6,0.07,1.08,0.17,1.45,0.3c0.43,0.17,0.65,0.32,0.65,0.45c-0.03,0.13-0.27,0.25-0.7,0.35c-0.4,0.1-0.88,0.13-1.45,0.1
						c-0.67-0.07-1.18-0.17-1.55-0.3c-0.4-0.13-0.6-0.28-0.6-0.45C68.5,88.77,68.72,88.65,69.15,88.55z"/>
				</g>
				<g>
					<polygon fill-rule="evenodd" clip-rule="evenodd" fill="#B6B8BA" points="70.55,86.85 72.3,86.8 71.45,89.05 					"/>
				</g>
			</g>
			<g>
				<g>
					<linearGradient id="SVGID_18_" gradientUnits="userSpaceOnUse" x1="96.6274" y1="82.6235" x2="102.3056" y2="97.1723">
						<stop  offset="0" style="stop-color:#040404;stop-opacity:0.2392"/>
						<stop  offset="1" style="stop-color:#000000;stop-opacity:0"/>
					</linearGradient>
					<path fill-rule="evenodd" clip-rule="evenodd" fill="url(#SVGID_18_)" d="M108.05,93.3c-1.57,4.53-5.77,6.17-12.6,4.9
						l-3.8-12.8L102.5,81L108.05,93.3z"/>
				</g>
				<g>
					<path fill-rule="evenodd" clip-rule="evenodd" fill="#42423E" d="M91.3,74.75c0.2-0.27,0.43-0.53,0.7-0.8
						c1.53-1.5,3.32-2.25,5.35-2.25c2.17,0,3.98,0.75,5.45,2.25c0.23,0.27,0.47,0.53,0.7,0.8c1.03,1.33,1.55,2.88,1.55,4.65
						c0,2.1-0.75,3.88-2.25,5.35c-1.47,1.5-3.28,2.25-5.45,2.25c-2.03,0-3.82-0.75-5.35-2.25c-1.5-1.47-2.25-3.28-2.25-5.45
						C89.75,77.6,90.27,76.08,91.3,74.75z"/>
				</g>
				<g>
					<linearGradient id="SVGID_19_" gradientUnits="userSpaceOnUse" x1="89.9751" y1="79.875" x2="104.6251" y2="79.875">
						<stop  offset="0" style="stop-color:#232321"/>
						<stop  offset="0.2275" style="stop-color:#7D7D7B"/>
						<stop  offset="0.4863" style="stop-color:#E6E6E6"/>
						<stop  offset="0.8314" style="stop-color:#656563"/>
						<stop  offset="1" style="stop-color:#1E1E1E"/>
					</linearGradient>
					<path fill-rule="evenodd" clip-rule="evenodd" fill="url(#SVGID_19_)" d="M97.3,72.55c2.03,0,3.77,0.73,5.2,2.2
						c1.4,1.47,2.1,3.2,2.1,5.2c0,1.97-0.7,3.68-2.1,5.15c-1.43,1.4-3.17,2.1-5.2,2.1c-2,0-3.72-0.7-5.15-2.1
						c-1.4-1.47-2.1-3.2-2.1-5.2c0-1.97,0.68-3.68,2.05-5.15h0.05C93.58,73.28,95.3,72.55,97.3,72.55z"/>
				</g>
				<g>
					<g>
						<linearGradient id="SVGID_20_" gradientUnits="userSpaceOnUse" x1="88.6748" y1="78.5498" x2="105.2248" y2="78.5498">
							<stop  offset="0" style="stop-color:#41413E"/>
							<stop  offset="0.4863" style="stop-color:#8A8A86"/>
							<stop  offset="1" style="stop-color:#3D3D3A"/>
						</linearGradient>
						<path fill-rule="evenodd" clip-rule="evenodd" fill="url(#SVGID_20_)" d="M91.05,80.1c0-1.7,0.58-3.18,1.75-4.45
							c0.4-0.33,0.8-0.63,1.2-0.9c0.97-0.57,2.07-0.85,3.3-0.85c1.17,0,2.23,0.28,3.2,0.85c0.4,0.27,0.77,0.57,1.1,0.9
							c1.27,1.27,1.9,2.75,1.9,4.45c0,1.03-0.23,1.97-0.7,2.8v0.3H91.45v-0.6c-0.03,0.07-0.07,0.12-0.1,0.15l0.1-0.45
							C91.18,81.63,91.05,80.9,91.05,80.1z"/>
					</g>
				</g>
				<g>
					<path fill-rule="evenodd" clip-rule="evenodd" fill="#3E4042" d="M92.15,83.65h-0.3l-0.5-5.5c0.07-0.2,0.15-0.42,0.25-0.65
						L92.15,83.65z M101.3,78.2l-0.35,4.5c0,0.03-0.02,0.08-0.05,0.15h-0.15c-0.1-0.07-0.13-0.12-0.1-0.15l0.45-7.5
						c0.1,0.1,0.2,0.2,0.3,0.3L101.3,78.2z M92.8,75.7l0.55,7.35v0.2c-0.07,0-0.12,0-0.15,0h-0.1l-0.05-0.15l-0.5-7
						C92.65,75.93,92.73,75.8,92.8,75.7z M102.4,80.1l-0.35,3.15c0,0.07,0,0.12,0,0.15h-0.2c-0.07-0.03-0.07-0.08,0-0.15l0.5-6.7
						c0.1,0.07,0.2,0.18,0.3,0.35v0.05L102.4,80.1z M98,78.5l-0.1,2.7c0,0.07,0,0.12,0,0.15l-0.15,0.1c-0.07,0-0.1-0.03-0.1-0.1
						c-0.03-0.03-0.05-0.08-0.05-0.15l0.05-7.3c0.1,0,0.22,0,0.35,0V78.5z M99.5,81.6c0,0.03-0.03,0.08-0.1,0.15l-0.05,0.05
						c-0.07,0-0.1-0.02-0.1-0.05c-0.1-0.07-0.12-0.12-0.05-0.15l0.2-7.35c0.17,0,0.3,0.05,0.4,0.15L99.5,81.6z M96.35,78.65v2.8
						c0,0.03,0,0.08,0,0.15c-0.07,0.03-0.12,0.05-0.15,0.05c-0.07,0-0.1-0.02-0.1-0.05c-0.03-0.07-0.05-0.12-0.05-0.15l-0.15-7.4
						c0.1-0.07,0.22-0.1,0.35-0.1L96.35,78.65z M94.2,74.7l0.3,6.8v0.1l-0.15,0.15L94.2,81.6l-0.35-6.75
						c0.03-0.07,0.08-0.1,0.15-0.1C94.03,74.72,94.1,74.7,94.2,74.7z"/>
					<path fill-rule="evenodd" clip-rule="evenodd" fill="#636669" d="M92.8,75.7v-0.05c0.1-0.1,0.23-0.17,0.4-0.2l0.45,7.6
						c0,0.03,0,0.08,0,0.15c-0.07,0-0.12,0.02-0.15,0.05l-0.1-0.05c-0.03-0.06-0.05-0.11-0.05-0.15L92.8,75.7z M100.95,82.7
						l0.35-4.5l0.15-2.7c0.07,0.03,0.12,0.08,0.15,0.15c0.07,0.03,0.12,0.08,0.15,0.15l-0.5,6.9l-0.15,0.15L100.95,82.7z
						 M92.15,83.65L91.6,77.5c0.07-0.2,0.15-0.38,0.25-0.55l0.6,6.9v0.05c0,0.07-0.02,0.1-0.05,0.1
						C92.33,83.9,92.25,83.78,92.15,83.65z M102.65,76.95c0.1,0.17,0.2,0.35,0.3,0.55l-0.55,5.75c-0.03,0-0.05,0.05-0.05,0.15
						c-0.07,0-0.12,0-0.15,0h-0.05c-0.07-0.1-0.07-0.15,0-0.15l0.25-3.15L102.65,76.95z M98,73.9c0.1,0,0.23,0.02,0.4,0.05
						l-0.15,7.25c0,0.07-0.03,0.12-0.1,0.15H98c-0.07-0.03-0.08-0.08-0.05-0.15L98,78.5V73.9z M99.8,74.4
						c0.13,0.03,0.25,0.08,0.35,0.15L99.8,81.6c0,0.03,0,0.08,0,0.15c-0.07,0-0.12,0-0.15,0h-0.1c-0.03-0.07-0.05-0.12-0.05-0.15
						L99.8,74.4z M96.35,78.65l-0.1-4.7c0.1-0.03,0.23-0.05,0.4-0.05v7.55c0,0.03,0,0.08,0,0.15h-0.1c-0.03,0-0.08,0-0.15,0
						c-0.03-0.07-0.03-0.12,0-0.15L96.35,78.65z M94.2,74.7c0.1-0.1,0.23-0.18,0.4-0.25l0.2,7.05c0,0.07,0,0.12,0,0.15
						c-0.03,0-0.08,0-0.15,0H94.6c-0.06-0.03-0.1-0.08-0.1-0.15L94.2,74.7z"/>
				</g>
				<g>
					
						<radialGradient id="SVGID_21_" cx="97" cy="82.5498" r="10.275" gradientTransform="matrix(1 0 0 0.8966 0 8.5362)" gradientUnits="userSpaceOnUse">
						<stop  offset="0" style="stop-color:#1A1A1A"/>
						<stop  offset="1" style="stop-color:#666762"/>
					</radialGradient>
					<path fill-rule="evenodd" clip-rule="evenodd" fill="url(#SVGID_21_)" d="M97.15,79c1.47,0,2.68,0.5,3.65,1.5
						c0.73,0.67,1.2,1.45,1.4,2.35c0.03,0.13,0.08,0.25,0.15,0.35l0.05,1.55c-0.13,1.2-0.67,2.25-1.6,3.15
						c-0.97,1-2.18,1.5-3.65,1.5c-1.47,0-2.72-0.5-3.75-1.5c-1.03-1-1.55-2.23-1.55-3.7c0-0.1,0-0.2,0-0.3
						c0.07-0.23,0.1-0.45,0.1-0.65c0.03-0.23,0.1-0.47,0.2-0.7c0.27-0.73,0.68-1.42,1.25-2.05C94.43,79.5,95.68,79,97.15,79z"/>
				</g>
				<g>
					<g>
						
							<radialGradient id="SVGID_22_" cx="97.4604" cy="85.2959" r="3.5502" gradientTransform="matrix(0.9999 -0.0106 0 0.764 -5.111694e-003 19.2101)" gradientUnits="userSpaceOnUse">
							<stop  offset="0" style="stop-color:#535360"/>
							<stop  offset="0.4235" style="stop-color:#2A2A31"/>
							<stop  offset="1" style="stop-color:#000000"/>
						</radialGradient>
						<path fill-rule="evenodd" clip-rule="evenodd" fill="url(#SVGID_22_)" d="M97.3,81.85c0.63,0,1.2,0.23,1.7,0.7
							c0.43,0.47,0.65,1.02,0.65,1.65c0,0.7-0.22,1.27-0.65,1.7c-0.5,0.5-1.07,0.75-1.7,0.75c-0.63,0-1.2-0.22-1.7-0.65
							c-0.43-0.5-0.65-1.07-0.65-1.7c0-0.7,0.22-1.27,0.65-1.7C96.1,82.1,96.67,81.85,97.3,81.85z"/>
					</g>
				</g>
				<g>
					<path fill-rule="evenodd" clip-rule="evenodd" fill="#666762" d="M93.5,80.7c-0.37,0.33-0.62,0.72-0.75,1.15
						c-0.4,0.73-0.57,1.55-0.5,2.45c0,0.03,0,0.1,0,0.2c0.1,0.93,0.38,1.75,0.85,2.45c0.2,0.33,0.45,0.62,0.75,0.85
						c0.4,0.33,0.82,0.6,1.25,0.8c0.73,0.37,1.53,0.52,2.4,0.45h0.1c0.87-0.03,1.67-0.28,2.4-0.75c0.33-0.23,0.65-0.52,0.95-0.85
						c0.3-0.33,0.55-0.65,0.75-0.95c0.37-0.8,0.55-1.63,0.55-2.5c0-0.1,0-0.17,0-0.2c-0.03-0.83-0.25-1.6-0.65-2.3
						c-0.3-0.43-0.63-0.82-1-1.15c-0.3-0.27-0.6-0.48-0.9-0.65c-0.83-0.47-1.72-0.67-2.65-0.6H97c-0.97,0-1.82,0.23-2.55,0.7
						C94.08,80.07,93.77,80.37,93.5,80.7z M91.2,83.7c0.07-0.57,0.17-1.1,0.3-1.6c0.23-0.07,0.43-0.17,0.6-0.3
						c0.03-0.03,0.08-0.08,0.15-0.15c0.03-0.13,0.05-0.28,0.05-0.45c0-0.2-0.05-0.35-0.15-0.45c0.2-0.23,0.4-0.5,0.6-0.8
						c0.2-0.17,0.42-0.33,0.65-0.5c0.1,0,0.23,0,0.4,0c0.07,0,0.2-0.02,0.4-0.05c0-0.07,0.03-0.12,0.1-0.15c0.2-0.2,0.3-0.4,0.3-0.6
						c0.53-0.23,1.12-0.4,1.75-0.5c0.03,0.03,0.08,0.1,0.15,0.2c0.13,0.1,0.3,0.15,0.5,0.15h0.05c0.27,0,0.47-0.07,0.6-0.2
						c0.07-0.07,0.12-0.15,0.15-0.25c0.63,0.07,1.2,0.22,1.7,0.45c0.03,0.23,0.13,0.43,0.3,0.6c0.03,0,0.1,0.02,0.2,0.05
						c0.1,0.1,0.22,0.13,0.35,0.1c0.17,0,0.32-0.03,0.45-0.1c0.17,0.17,0.33,0.32,0.5,0.45c0.27,0.23,0.52,0.48,0.75,0.75
						c-0.1,0.13-0.15,0.3-0.15,0.5c0,0.13,0.03,0.25,0.1,0.35c0.03,0.07,0.1,0.15,0.2,0.25c0.13,0.13,0.33,0.2,0.6,0.2
						c0.2,0.5,0.32,1.02,0.35,1.55c-0.03,0.03-0.1,0.1-0.2,0.2c-0.17,0.17-0.25,0.37-0.25,0.6s0.1,0.43,0.3,0.6
						c0.07,0.03,0.15,0.08,0.25,0.15c-0.07,0.53-0.2,1.03-0.4,1.5h-0.05c-0.27,0-0.45,0.1-0.55,0.3c-0.03,0.07-0.05,0.12-0.05,0.15
						c-0.13,0.17-0.18,0.32-0.15,0.45c0,0.13,0.05,0.28,0.15,0.45c-0.2,0.2-0.37,0.37-0.5,0.5c-0.2,0.23-0.4,0.45-0.6,0.65
						c-0.13-0.1-0.3-0.15-0.5-0.15c-0.1,0-0.23,0.05-0.4,0.15c-0.03,0.07-0.07,0.12-0.1,0.15c-0.17,0.17-0.25,0.37-0.25,0.6v0.05
						c-0.43,0.2-0.92,0.33-1.45,0.4l-0.15-0.15c-0.17-0.17-0.37-0.25-0.6-0.25H97.6c-0.2,0.07-0.38,0.17-0.55,0.3
						c-0.03,0.07-0.07,0.15-0.1,0.25c-0.57-0.07-1.12-0.17-1.65-0.3c0-0.2-0.07-0.4-0.2-0.6c-0.1-0.03-0.2-0.05-0.3-0.05
						c-0.1-0.07-0.22-0.1-0.35-0.1c-0.17,0-0.3,0.05-0.4,0.15c-0.33-0.2-0.62-0.42-0.85-0.65c-0.17-0.17-0.3-0.32-0.4-0.45
						c0.07-0.1,0.1-0.25,0.1-0.45c-0.07-0.13-0.12-0.28-0.15-0.45c-0.03-0.03-0.08-0.08-0.15-0.15c-0.13-0.13-0.33-0.2-0.6-0.2
						c-0.03,0-0.08,0-0.15,0c-0.23-0.5-0.4-1.03-0.5-1.6c0.07-0.07,0.12-0.15,0.15-0.25c0.13-0.13,0.2-0.3,0.2-0.5
						c0-0.23-0.08-0.45-0.25-0.65C91.38,83.82,91.3,83.77,91.2,83.7z"/>
				</g>
				<g>
					
						<radialGradient id="SVGID_23_" cx="97.5" cy="83.5498" r="0.6625" gradientTransform="matrix(1 0 0 2.717 0 -143.4534)" gradientUnits="userSpaceOnUse">
						<stop  offset="0" style="stop-color:#FFFFFF"/>
						<stop  offset="0.1765" style="stop-color:#FFFFFF"/>
						<stop  offset="0.3059" style="stop-color:#FFFFFF;stop-opacity:0.4235"/>
						<stop  offset="0.4902" style="stop-color:#FFFFFF;stop-opacity:0.2314"/>
						<stop  offset="0.651" style="stop-color:#FFFFFF;stop-opacity:0.0824"/>
						<stop  offset="1" style="stop-color:#FFFFFF;stop-opacity:0"/>
					</radialGradient>
					<path fill-rule="evenodd" clip-rule="evenodd" fill="url(#SVGID_23_)" d="M97.5,81.8c0.17,0,0.32,0.2,0.45,0.6
						c0.1,0.3,0.15,0.68,0.15,1.15c0,0.53-0.05,0.95-0.15,1.25c-0.13,0.4-0.28,0.6-0.45,0.6c-0.2,0-0.37-0.2-0.5-0.6
						c-0.1-0.3-0.15-0.72-0.15-1.25c0-0.47,0.05-0.85,0.15-1.15C97.13,82,97.3,81.8,97.5,81.8z"/>
				</g>
				<g>
					<path fill-rule="evenodd" clip-rule="evenodd" fill="none" d="M101.85,86.05c-0.3,0.6-0.72,1.17-1.25,1.7
						c-0.93,0.97-2.08,1.45-3.45,1.45s-2.53-0.48-3.5-1.45c-0.57-0.5-0.93-1.07-1.1-1.7"/>
				</g>
				<g>
					
						<radialGradient id="SVGID_24_" cx="94.1499" cy="79.25" r="0.6034" gradientTransform="matrix(0.6445 0.7646 -1.6408 1.3831 163.5007 -102.3474)" gradientUnits="userSpaceOnUse">
						<stop  offset="0" style="stop-color:#FFFFFF"/>
						<stop  offset="0.1765" style="stop-color:#FFFFFF"/>
						<stop  offset="0.3059" style="stop-color:#FFFFFF;stop-opacity:0.4235"/>
						<stop  offset="0.4902" style="stop-color:#FFFFFF;stop-opacity:0.2314"/>
						<stop  offset="0.651" style="stop-color:#FFFFFF;stop-opacity:0.0824"/>
						<stop  offset="1" style="stop-color:#FFFFFF;stop-opacity:0"/>
					</radialGradient>
					<path fill-rule="evenodd" clip-rule="evenodd" fill="url(#SVGID_24_)" d="M93.2,79.55c0.1-0.27,0.3-0.52,0.6-0.75
						c0.23-0.23,0.47-0.38,0.7-0.45c0.3-0.1,0.5-0.07,0.6,0.1c0.1,0.1,0.1,0.27,0,0.5s-0.3,0.48-0.6,0.75
						c-0.3,0.23-0.57,0.37-0.8,0.4c-0.23,0.1-0.43,0.08-0.6-0.05C93,79.95,93.03,79.78,93.2,79.55z"/>
				</g>
				<g>
					
						<radialGradient id="SVGID_25_" cx="97.2998" cy="78.5" r="2.8003" gradientTransform="matrix(-0.011 0.9999 -1.5445 -0.017 219.6139 -17.4564)" gradientUnits="userSpaceOnUse">
						<stop  offset="0" style="stop-color:#FFFFFF"/>
						<stop  offset="0.1765" style="stop-color:#FFFFFF"/>
						<stop  offset="0.3059" style="stop-color:#FFFFFF;stop-opacity:0.4235"/>
						<stop  offset="0.4902" style="stop-color:#FFFFFF;stop-opacity:0.2314"/>
						<stop  offset="0.651" style="stop-color:#FFFFFF;stop-opacity:0.0824"/>
						<stop  offset="1" style="stop-color:#FFFFFF;stop-opacity:0"/>
					</radialGradient>
					<path fill-rule="evenodd" clip-rule="evenodd" fill="url(#SVGID_25_)" d="M94.3,76.45c0.83-0.5,1.85-0.75,3.05-0.75
						c1.17,0.07,2.15,0.35,2.95,0.85c0.83,0.53,1.25,1.18,1.25,1.95c0,0.73-0.45,1.4-1.35,2c-0.77,0.53-1.73,0.8-2.9,0.8
						c-1.23-0.07-2.23-0.37-3-0.9c-0.83-0.53-1.25-1.18-1.25-1.95C93.05,77.72,93.47,77.05,94.3,76.45z"/>
				</g>
				<g>
					
						<radialGradient id="SVGID_26_" cx="100.75" cy="79.25" r="0.3875" gradientTransform="matrix(1 0 0 1.1935 0 -15.3387)" gradientUnits="userSpaceOnUse">
						<stop  offset="0" style="stop-color:#FFFFFF"/>
						<stop  offset="0.1765" style="stop-color:#FFFFFF"/>
						<stop  offset="0.3059" style="stop-color:#FFFFFF;stop-opacity:0.4235"/>
						<stop  offset="0.4902" style="stop-color:#FFFFFF;stop-opacity:0.2314"/>
						<stop  offset="0.651" style="stop-color:#FFFFFF;stop-opacity:0.0824"/>
						<stop  offset="1" style="stop-color:#FFFFFF;stop-opacity:0"/>
					</radialGradient>
					<path fill-rule="evenodd" clip-rule="evenodd" fill="url(#SVGID_26_)" d="M101.05,78.95c0.07,0.03,0.1,0.13,0.1,0.3
						c0,0.13-0.03,0.23-0.1,0.3c-0.07,0.1-0.17,0.15-0.3,0.15c-0.1,0-0.2-0.05-0.3-0.15c-0.07-0.07-0.1-0.17-0.1-0.3
						c0-0.17,0.03-0.27,0.1-0.3c0.1-0.1,0.2-0.15,0.3-0.15C100.88,78.8,100.98,78.85,101.05,78.95z"/>
				</g>
				<g>
					
						<radialGradient id="SVGID_27_" cx="96.6499" cy="89.0498" r="0.5647" gradientTransform="matrix(-0.0872 0.9962 -3.851 -0.3371 448.0131 22.7913)" gradientUnits="userSpaceOnUse">
						<stop  offset="0" style="stop-color:#FFFFFF"/>
						<stop  offset="0.1765" style="stop-color:#FFFFFF"/>
						<stop  offset="0.3059" style="stop-color:#FFFFFF;stop-opacity:0.4235"/>
						<stop  offset="0.4902" style="stop-color:#FFFFFF;stop-opacity:0.2314"/>
						<stop  offset="0.651" style="stop-color:#FFFFFF;stop-opacity:0.0824"/>
						<stop  offset="1" style="stop-color:#FFFFFF;stop-opacity:0"/>
					</radialGradient>
					<path fill-rule="evenodd" clip-rule="evenodd" fill="url(#SVGID_27_)" d="M95.1,88.55c0.43-0.1,0.95-0.13,1.55-0.1
						c0.57,0.07,1.05,0.17,1.45,0.3c0.43,0.17,0.65,0.32,0.65,0.45c-0.03,0.13-0.28,0.25-0.75,0.35c-0.37,0.1-0.85,0.13-1.45,0.1
						c-0.63-0.07-1.15-0.17-1.55-0.3c-0.37-0.13-0.55-0.28-0.55-0.45C94.45,88.77,94.67,88.65,95.1,88.55z"/>
				</g>
				<g>
					<polygon fill-rule="evenodd" clip-rule="evenodd" fill="#B6B8BA" points="96.5,86.85 98.25,86.8 97.35,89.05 					"/>
				</g>
			</g>
			<g>
				<g>
					<linearGradient id="SVGID_28_" gradientUnits="userSpaceOnUse" x1="96.6274" y1="56.9736" x2="102.3056" y2="71.5224">
						<stop  offset="0" style="stop-color:#040404;stop-opacity:0.2392"/>
						<stop  offset="1" style="stop-color:#000000;stop-opacity:0"/>
					</linearGradient>
					<path fill-rule="evenodd" clip-rule="evenodd" fill="url(#SVGID_28_)" d="M108.05,67.65c-1.57,4.53-5.77,6.17-12.6,4.9
						l-3.8-12.8l10.85-4.4L108.05,67.65z"/>
				</g>
				<g>
					<path fill-rule="evenodd" clip-rule="evenodd" fill="#42423E" d="M91.3,49.15c0.2-0.3,0.43-0.58,0.7-0.85
						c1.53-1.5,3.32-2.25,5.35-2.25c2.17,0,3.98,0.75,5.45,2.25c0.23,0.27,0.47,0.55,0.7,0.85c1.03,1.3,1.55,2.83,1.55,4.6
						c0,2.1-0.75,3.88-2.25,5.35c-1.47,1.5-3.28,2.25-5.45,2.25c-2.03,0-3.82-0.75-5.35-2.25c-1.5-1.47-2.25-3.28-2.25-5.45
						C89.75,51.95,90.27,50.45,91.3,49.15z"/>
				</g>
				<g>
					<linearGradient id="SVGID_29_" gradientUnits="userSpaceOnUse" x1="89.9751" y1="54.2754" x2="104.6251" y2="54.2754">
						<stop  offset="0" style="stop-color:#232321"/>
						<stop  offset="0.2275" style="stop-color:#7D7D7B"/>
						<stop  offset="0.4863" style="stop-color:#E6E6E6"/>
						<stop  offset="0.8314" style="stop-color:#656563"/>
						<stop  offset="1" style="stop-color:#1E1E1E"/>
					</linearGradient>
					<path fill-rule="evenodd" clip-rule="evenodd" fill="url(#SVGID_29_)" d="M92.15,59.45c-1.4-1.47-2.1-3.2-2.1-5.2
						c0-1.93,0.68-3.63,2.05-5.1h0.05c1.43-1.47,3.15-2.2,5.15-2.2c2.03,0,3.77,0.73,5.2,2.2c1.4,1.47,2.1,3.2,2.1,5.2
						c0,1.93-0.7,3.63-2.1,5.1c-1.43,1.43-3.17,2.15-5.2,2.15C95.3,61.6,93.58,60.88,92.15,59.45z"/>
				</g>
				<g>
					<g>
						<linearGradient id="SVGID_30_" gradientUnits="userSpaceOnUse" x1="88.6748" y1="52.8999" x2="105.2248" y2="52.8999">
							<stop  offset="0" style="stop-color:#41413E"/>
							<stop  offset="0.4863" style="stop-color:#8A8A86"/>
							<stop  offset="1" style="stop-color:#3D3D3A"/>
						</linearGradient>
						<path fill-rule="evenodd" clip-rule="evenodd" fill="url(#SVGID_30_)" d="M91.45,56.95c-0.03,0.07-0.07,0.12-0.1,0.15
							l0.1-0.45c-0.27-0.67-0.4-1.38-0.4-2.15c0-1.73,0.58-3.23,1.75-4.5c0.4-0.33,0.8-0.62,1.2-0.85c0.97-0.6,2.07-0.9,3.3-0.9
							c1.17,0,2.23,0.3,3.2,0.9c0.4,0.23,0.77,0.52,1.1,0.85c1.27,1.27,1.9,2.77,1.9,4.5c0,1-0.23,1.92-0.7,2.75v0.3H91.45V56.95z"
							/>
					</g>
				</g>
				<g>
					<path fill-rule="evenodd" clip-rule="evenodd" fill="#3E4042" d="M92.15,58h-0.3l-0.5-5.5c0.07-0.2,0.15-0.42,0.25-0.65
						L92.15,58z M92.8,50.1l0.55,7.3v0.25c-0.07,0-0.12,0-0.15,0h-0.1l-0.05-0.15l-0.5-7.05C92.65,50.32,92.73,50.2,92.8,50.1z
						 M94.2,49.05l0.3,6.8v0.1l-0.15,0.15l-0.15-0.15l-0.35-6.75c0.03-0.03,0.08-0.05,0.15-0.05C94.03,49.08,94.1,49.05,94.2,49.05z
						 M102.65,51.35l-0.25,3.15l-0.35,3.15c0,0.03,0,0.07,0,0.1h-0.2c-0.07-0.03-0.07-0.07,0-0.1l0.5-6.75
						c0.1,0.1,0.2,0.22,0.3,0.35V51.35z M99.5,55.95c0,0.03-0.03,0.08-0.1,0.15l-0.05,0.05c-0.07,0-0.1-0.02-0.1-0.05
						c-0.1-0.07-0.12-0.12-0.05-0.15l0.2-7.35c0.17,0,0.3,0.05,0.4,0.15L99.5,55.95z M101.3,52.55l-0.35,4.5
						c0,0.03-0.02,0.08-0.05,0.15h-0.15c-0.1-0.07-0.13-0.12-0.1-0.15l0.45-7.5c0.1,0.1,0.2,0.2,0.3,0.3L101.3,52.55z M96.35,53v2.8
						c0,0.03,0,0.08,0,0.15C96.28,55.98,96.23,56,96.2,56c-0.07,0-0.1-0.02-0.1-0.05c-0.03-0.07-0.05-0.12-0.05-0.15l-0.15-7.4
						c0.1-0.07,0.22-0.1,0.35-0.1L96.35,53z M98,52.85l-0.1,2.7c0,0.07,0,0.12,0,0.15l-0.15,0.1c-0.07,0-0.1-0.03-0.1-0.1
						c-0.03-0.03-0.05-0.08-0.05-0.15l0.05-7.3c0.1,0,0.22,0,0.35,0V52.85z"/>
					<path fill-rule="evenodd" clip-rule="evenodd" fill="#636669" d="M92.8,50.1V50c0.1-0.1,0.23-0.17,0.4-0.2l0.45,7.6
						c0,0.07,0,0.12,0,0.15c-0.07,0-0.12,0.03-0.15,0.1l-0.1-0.1c-0.03-0.03-0.05-0.08-0.05-0.15L92.8,50.1z M94.2,49.05
						c0.1-0.1,0.23-0.17,0.4-0.2l0.2,7c0,0.07,0,0.12,0,0.15c-0.03,0-0.08,0-0.15,0H94.6c-0.06-0.03-0.1-0.08-0.1-0.15L94.2,49.05z
						 M92.15,58l-0.55-6.15c0.07-0.2,0.15-0.37,0.25-0.5l0.6,6.85v0.1c0,0.03-0.02,0.05-0.05,0.05C92.33,58.25,92.25,58.13,92.15,58
						z M102.4,54.5l0.25-3.15c0.1,0.13,0.2,0.3,0.3,0.5l-0.55,5.8c-0.03,0-0.05,0.03-0.05,0.1c-0.07,0-0.12,0-0.15,0h-0.05
						c-0.07-0.07-0.07-0.1,0-0.1L102.4,54.5z M96.25,48.3c0.1-0.03,0.23-0.05,0.4-0.05v7.55c0,0.03,0,0.08,0,0.15h-0.1
						c-0.03,0-0.08,0-0.15,0c-0.03-0.07-0.03-0.12,0-0.15L96.35,53L96.25,48.3z M98,52.85v-4.6c0.1,0,0.23,0.02,0.4,0.05l-0.15,7.25
						c0,0.07-0.03,0.12-0.1,0.15H98c-0.07-0.03-0.08-0.08-0.05-0.15L98,52.85z M101.3,52.55l0.15-2.7c0.07,0.07,0.12,0.12,0.15,0.15
						c0.07,0.07,0.12,0.12,0.15,0.15l-0.5,6.9l-0.15,0.15l-0.15-0.15L101.3,52.55z M99.5,55.95l0.3-7.2
						c0.13,0.07,0.25,0.12,0.35,0.15l-0.35,7.05c0,0.03,0,0.08,0,0.15c-0.07,0-0.12,0-0.15,0h-0.1
						C99.52,56.03,99.5,55.98,99.5,55.95z"/>
				</g>
				<g>
					
						<radialGradient id="SVGID_31_" cx="97" cy="56.8999" r="10.275" gradientTransform="matrix(1 0 0 0.8966 0 5.8838)" gradientUnits="userSpaceOnUse">
						<stop  offset="0" style="stop-color:#1A1A1A"/>
						<stop  offset="1" style="stop-color:#666762"/>
					</radialGradient>
					<path fill-rule="evenodd" clip-rule="evenodd" fill="url(#SVGID_31_)" d="M102.35,57.55l0.05,1.55
						c-0.13,1.2-0.67,2.25-1.6,3.15c-0.97,1.03-2.18,1.55-3.65,1.55c-1.47,0-2.72-0.52-3.75-1.55c-1.03-0.97-1.55-2.18-1.55-3.65
						c0-0.1,0-0.2,0-0.3c0.07-0.27,0.1-0.48,0.1-0.65c0.03-0.27,0.1-0.52,0.2-0.75c0.27-0.73,0.68-1.42,1.25-2.05
						c1.03-0.97,2.28-1.45,3.75-1.45c1.47,0,2.68,0.48,3.65,1.45c0.73,0.67,1.2,1.45,1.4,2.35
						C102.23,57.33,102.28,57.45,102.35,57.55z"/>
				</g>
				<g>
					<g>
						
							<radialGradient id="SVGID_32_" cx="97.4604" cy="59.6475" r="3.5502" gradientTransform="matrix(0.9999 -0.0106 0 0.764 -5.111694e-003 13.1567)" gradientUnits="userSpaceOnUse">
							<stop  offset="0" style="stop-color:#535360"/>
							<stop  offset="0.4235" style="stop-color:#2A2A31"/>
							<stop  offset="1" style="stop-color:#000000"/>
						</radialGradient>
						<path fill-rule="evenodd" clip-rule="evenodd" fill="url(#SVGID_32_)" d="M95.6,60.35c-0.43-0.5-0.65-1.07-0.65-1.7
							c0-0.67,0.22-1.23,0.65-1.7c0.5-0.47,1.07-0.7,1.7-0.7c0.63,0,1.2,0.22,1.7,0.65c0.43,0.5,0.65,1.07,0.65,1.7
							c0,0.67-0.22,1.22-0.65,1.65c-0.5,0.5-1.07,0.75-1.7,0.75C96.67,61,96.1,60.78,95.6,60.35z"/>
					</g>
				</g>
				<g>
					<path fill-rule="evenodd" clip-rule="evenodd" fill="#666762" d="M93.5,55.05c-0.37,0.33-0.62,0.73-0.75,1.2
						c-0.4,0.73-0.57,1.53-0.5,2.4c0,0.03,0,0.1,0,0.2c0.1,0.93,0.38,1.75,0.85,2.45c0.2,0.33,0.45,0.62,0.75,0.85
						c0.4,0.37,0.82,0.63,1.25,0.8c0.73,0.37,1.53,0.52,2.4,0.45h0.1c0.87-0.03,1.67-0.27,2.4-0.7c0.33-0.27,0.65-0.57,0.95-0.9
						c0.3-0.33,0.55-0.65,0.75-0.95c0.37-0.77,0.55-1.6,0.55-2.5c0-0.1,0-0.17,0-0.2c-0.03-0.83-0.25-1.6-0.65-2.3
						c-0.3-0.43-0.63-0.82-1-1.15c-0.3-0.23-0.6-0.45-0.9-0.65c-0.83-0.43-1.72-0.63-2.65-0.6H97c-0.97,0-1.82,0.25-2.55,0.75
						C94.08,54.43,93.77,54.72,93.5,55.05z M91.45,58.2c-0.07-0.03-0.15-0.08-0.25-0.15c0.07-0.57,0.17-1.1,0.3-1.6
						c0.23-0.03,0.43-0.13,0.6-0.3c0.03-0.03,0.08-0.08,0.15-0.15c0.03-0.13,0.05-0.28,0.05-0.45c0-0.17-0.05-0.3-0.15-0.4
						c0.2-0.27,0.4-0.53,0.6-0.8c0.2-0.2,0.42-0.38,0.65-0.55c0.1,0,0.23,0,0.4,0c0.07,0,0.2-0.02,0.4-0.05
						c0-0.07,0.03-0.12,0.1-0.15c0.2-0.2,0.3-0.4,0.3-0.6c0.53-0.23,1.12-0.4,1.75-0.5c0.03,0.03,0.08,0.1,0.15,0.2
						c0.13,0.1,0.3,0.15,0.5,0.15h0.05c0.27,0,0.47-0.07,0.6-0.2c0.07-0.07,0.12-0.15,0.15-0.25c0.63,0.07,1.2,0.22,1.7,0.45
						c0.03,0.27,0.13,0.47,0.3,0.6c0.03,0,0.1,0.02,0.2,0.05c0.1,0.1,0.22,0.13,0.35,0.1c0.17,0,0.32-0.03,0.45-0.1
						c0.17,0.17,0.33,0.32,0.5,0.45c0.27,0.27,0.52,0.52,0.75,0.75c-0.1,0.13-0.15,0.3-0.15,0.5c0,0.17,0.03,0.28,0.1,0.35
						c0.03,0.07,0.1,0.15,0.2,0.25c0.13,0.13,0.33,0.2,0.6,0.2c0.2,0.5,0.32,1.02,0.35,1.55c-0.03,0.07-0.1,0.13-0.2,0.2
						c-0.17,0.17-0.25,0.37-0.25,0.6s0.1,0.43,0.3,0.6c0.07,0.03,0.15,0.08,0.25,0.15c-0.07,0.53-0.2,1.05-0.4,1.55h-0.05
						c-0.27,0-0.45,0.08-0.55,0.25c-0.03,0.07-0.05,0.12-0.05,0.15c-0.13,0.17-0.18,0.32-0.15,0.45c0,0.17,0.05,0.32,0.15,0.45
						c-0.2,0.2-0.37,0.37-0.5,0.5c-0.2,0.27-0.4,0.48-0.6,0.65c-0.13-0.1-0.3-0.15-0.5-0.15c-0.1,0-0.23,0.05-0.4,0.15
						c-0.03,0.07-0.07,0.12-0.1,0.15c-0.17,0.17-0.25,0.37-0.25,0.6v0.1c-0.43,0.17-0.92,0.28-1.45,0.35l-0.15-0.15
						c-0.17-0.13-0.37-0.2-0.6-0.2H97.6c-0.2,0.03-0.38,0.12-0.55,0.25c-0.03,0.07-0.07,0.15-0.1,0.25
						c-0.57-0.07-1.12-0.17-1.65-0.3c0-0.2-0.07-0.4-0.2-0.6c-0.1-0.03-0.2-0.05-0.3-0.05c-0.1-0.07-0.22-0.1-0.35-0.1
						c-0.17,0-0.3,0.05-0.4,0.15c-0.33-0.2-0.62-0.42-0.85-0.65c-0.17-0.13-0.3-0.28-0.4-0.45c0.07-0.1,0.1-0.25,0.1-0.45
						c-0.07-0.13-0.12-0.27-0.15-0.4c-0.03-0.07-0.08-0.12-0.15-0.15c-0.13-0.17-0.33-0.25-0.6-0.25c-0.03,0-0.08,0-0.15,0
						c-0.23-0.47-0.4-1-0.5-1.6c0.07-0.03,0.12-0.1,0.15-0.2c0.13-0.17,0.2-0.35,0.2-0.55C91.7,58.62,91.62,58.4,91.45,58.2z"/>
				</g>
				<g>
					
						<radialGradient id="SVGID_33_" cx="97.5" cy="57.8999" r="0.6625" gradientTransform="matrix(1 0 0 2.717 0 -99.413)" gradientUnits="userSpaceOnUse">
						<stop  offset="0" style="stop-color:#FFFFFF"/>
						<stop  offset="0.1765" style="stop-color:#FFFFFF"/>
						<stop  offset="0.3059" style="stop-color:#FFFFFF;stop-opacity:0.4235"/>
						<stop  offset="0.4902" style="stop-color:#FFFFFF;stop-opacity:0.2314"/>
						<stop  offset="0.651" style="stop-color:#FFFFFF;stop-opacity:0.0824"/>
						<stop  offset="1" style="stop-color:#FFFFFF;stop-opacity:0"/>
					</radialGradient>
					<path fill-rule="evenodd" clip-rule="evenodd" fill="url(#SVGID_33_)" d="M96.85,57.9c0-0.47,0.05-0.85,0.15-1.15
						c0.13-0.4,0.3-0.6,0.5-0.6c0.17,0,0.32,0.2,0.45,0.6c0.1,0.3,0.15,0.68,0.15,1.15c0,0.53-0.05,0.95-0.15,1.25
						c-0.13,0.4-0.28,0.6-0.45,0.6c-0.2,0-0.37-0.2-0.5-0.6C96.9,58.85,96.85,58.43,96.85,57.9z"/>
				</g>
				<g>
					<path fill-rule="evenodd" clip-rule="evenodd" fill="none" d="M101.85,60.4c-0.3,0.6-0.72,1.17-1.25,1.7
						c-0.93,0.97-2.08,1.45-3.45,1.45s-2.53-0.48-3.5-1.45c-0.57-0.5-0.93-1.07-1.1-1.7"/>
				</g>
				<g>
					
						<radialGradient id="SVGID_34_" cx="94.1499" cy="53.6001" r="0.6034" gradientTransform="matrix(0.6445 0.7646 -1.6408 1.3831 121.4148 -92.5207)" gradientUnits="userSpaceOnUse">
						<stop  offset="0" style="stop-color:#FFFFFF"/>
						<stop  offset="0.1765" style="stop-color:#FFFFFF"/>
						<stop  offset="0.3059" style="stop-color:#FFFFFF;stop-opacity:0.4235"/>
						<stop  offset="0.4902" style="stop-color:#FFFFFF;stop-opacity:0.2314"/>
						<stop  offset="0.651" style="stop-color:#FFFFFF;stop-opacity:0.0824"/>
						<stop  offset="1" style="stop-color:#FFFFFF;stop-opacity:0"/>
					</radialGradient>
					<path fill-rule="evenodd" clip-rule="evenodd" fill="url(#SVGID_34_)" d="M95.1,53.3c-0.1,0.23-0.3,0.48-0.6,0.75
						c-0.3,0.23-0.57,0.38-0.8,0.45s-0.43,0.03-0.6-0.1c-0.1-0.1-0.07-0.27,0.1-0.5c0.1-0.27,0.3-0.52,0.6-0.75
						c0.23-0.23,0.47-0.38,0.7-0.45c0.3-0.1,0.5-0.07,0.6,0.1C95.2,52.9,95.2,53.07,95.1,53.3z"/>
				</g>
				<g>
					
						<radialGradient id="SVGID_35_" cx="97.2998" cy="52.8501" r="2.8003" gradientTransform="matrix(-0.011 0.9999 -1.5445 -0.017 179.9984 -43.5433)" gradientUnits="userSpaceOnUse">
						<stop  offset="0" style="stop-color:#FFFFFF"/>
						<stop  offset="0.1765" style="stop-color:#FFFFFF"/>
						<stop  offset="0.3059" style="stop-color:#FFFFFF;stop-opacity:0.4235"/>
						<stop  offset="0.4902" style="stop-color:#FFFFFF;stop-opacity:0.2314"/>
						<stop  offset="0.651" style="stop-color:#FFFFFF;stop-opacity:0.0824"/>
						<stop  offset="1" style="stop-color:#FFFFFF;stop-opacity:0"/>
					</radialGradient>
					<path fill-rule="evenodd" clip-rule="evenodd" fill="url(#SVGID_35_)" d="M101.55,52.85c0,0.73-0.45,1.4-1.35,2
						c-0.77,0.53-1.73,0.8-2.9,0.8c-1.23-0.07-2.23-0.37-3-0.9c-0.83-0.53-1.25-1.18-1.25-1.95c0-0.73,0.42-1.4,1.25-2
						c0.83-0.47,1.85-0.7,3.05-0.7c1.17,0.03,2.15,0.3,2.95,0.8C101.13,51.43,101.55,52.08,101.55,52.85z"/>
				</g>
				<g>
					
						<radialGradient id="SVGID_36_" cx="100.75" cy="53.5996" r="0.3877" gradientTransform="matrix(1 0 0 1.1935 0 -10.3741)" gradientUnits="userSpaceOnUse">
						<stop  offset="0" style="stop-color:#FFFFFF"/>
						<stop  offset="0.1765" style="stop-color:#FFFFFF"/>
						<stop  offset="0.3059" style="stop-color:#FFFFFF;stop-opacity:0.4235"/>
						<stop  offset="0.4902" style="stop-color:#FFFFFF;stop-opacity:0.2314"/>
						<stop  offset="0.651" style="stop-color:#FFFFFF;stop-opacity:0.0824"/>
						<stop  offset="1" style="stop-color:#FFFFFF;stop-opacity:0"/>
					</radialGradient>
					<path fill-rule="evenodd" clip-rule="evenodd" fill="url(#SVGID_36_)" d="M101.05,53.3c0.07,0.07,0.1,0.17,0.1,0.3
						s-0.03,0.23-0.1,0.3c-0.07,0.1-0.17,0.15-0.3,0.15c-0.1,0-0.2-0.05-0.3-0.15c-0.07-0.07-0.1-0.17-0.1-0.3s0.03-0.23,0.1-0.3
						c0.1-0.1,0.2-0.15,0.3-0.15C100.88,53.15,100.98,53.2,101.05,53.3z"/>
				</g>
				<g>
					
						<radialGradient id="SVGID_37_" cx="96.6499" cy="63.3999" r="0.5647" gradientTransform="matrix(-0.0872 0.9962 -3.851 -0.3371 349.2344 -11.5065)" gradientUnits="userSpaceOnUse">
						<stop  offset="0" style="stop-color:#FFFFFF"/>
						<stop  offset="0.1765" style="stop-color:#FFFFFF"/>
						<stop  offset="0.3059" style="stop-color:#FFFFFF;stop-opacity:0.4235"/>
						<stop  offset="0.4902" style="stop-color:#FFFFFF;stop-opacity:0.2314"/>
						<stop  offset="0.651" style="stop-color:#FFFFFF;stop-opacity:0.0824"/>
						<stop  offset="1" style="stop-color:#FFFFFF;stop-opacity:0"/>
					</radialGradient>
					<path fill-rule="evenodd" clip-rule="evenodd" fill="url(#SVGID_37_)" d="M95.1,62.9c0.43-0.1,0.95-0.12,1.55-0.05
						c0.57,0.03,1.05,0.12,1.45,0.25c0.43,0.17,0.65,0.32,0.65,0.45c-0.03,0.17-0.28,0.3-0.75,0.4c-0.37,0.07-0.85,0.08-1.45,0.05
						c-0.63-0.03-1.15-0.13-1.55-0.3c-0.37-0.13-0.55-0.28-0.55-0.45C94.45,63.12,94.67,63,95.1,62.9z"/>
				</g>
				<g>
					<polygon fill-rule="evenodd" clip-rule="evenodd" fill="#B6B8BA" points="96.5,61.2 98.25,61.15 97.35,63.4 					"/>
				</g>
			</g>
			<g>
				<polygon fill-rule="evenodd" clip-rule="evenodd" fill="#171A1C" points="245.8,47.35 117.45,47.35 117.45,67.6 115.4,67.6 
					115.4,45.6 245.8,45.6 				"/>
				<rect x="117.45" y="47.35" fill-rule="evenodd" clip-rule="evenodd" fill="#2B2E35" width="128.35" height="20.25"/>
			</g>
			<g>
				<g>
					<linearGradient id="SVGID_38_" gradientUnits="userSpaceOnUse" x1="180.5742" y1="73.9624" x2="180.5742" y2="45.2374">
						<stop  offset="0" style="stop-color:#FFFFFF;stop-opacity:0.8824"/>
						<stop  offset="0.5686" style="stop-color:#FFFFFF;stop-opacity:0.6431"/>
						<stop  offset="1" style="stop-color:#FEFEFE;stop-opacity:0"/>
					</linearGradient>
					<path fill-rule="evenodd" clip-rule="evenodd" fill="url(#SVGID_38_)" d="M246.3,45.1c0.13,0.13,0.2,0.3,0.2,0.5v23.3v0.35
						H114.65V68.9V45.6c0-0.2,0.07-0.37,0.2-0.5c0.17-0.13,0.35-0.2,0.55-0.2v22.55h130.4V44.9C246,44.9,246.17,44.97,246.3,45.1z"
						/>
				</g>
			</g>
			<g>
				
					<path fill-rule="evenodd" clip-rule="evenodd" fill="none" stroke="#8B8C7B" stroke-width="0.1" stroke-linecap="round" stroke-linejoin="round" stroke-miterlimit="3" d="
					M55,63.65c-0.47,2.2-0.47,4.42,0,6.65l3.55,20.75c0.4,2.93,1.87,4.4,4.4,4.4h40.15c2.93,0,4.4-1.47,4.4-4.4v-24.8V46.2
					c0-2.93-1.47-4.4-4.4-4.4H62.95c-2.53,0-4,1.47-4.4,4.4L55,63.65z"/>
			</g>
			<g>
				
					<path fill-rule="evenodd" clip-rule="evenodd" fill="none" stroke="#AEAFA5" stroke-width="0.1" stroke-linecap="round" stroke-linejoin="round" stroke-miterlimit="3" d="
					M54.65,64.3c-0.5,2.2-0.5,4.42,0,6.65L58.3,91.7c0.4,2.93,1.87,4.4,4.4,4.4h40.95c2.93,0,4.4-1.47,4.4-4.4V66.95v-20.1
					c0-2.93-1.47-4.4-4.4-4.4H62.7c-2.53,0-4,1.47-4.4,4.4L54.65,64.3z"/>
			</g>
			<g>
				
					<linearGradient id="SVGID_39_" gradientUnits="userSpaceOnUse" x1="143.1577" y1="-452.666" x2="151.0578" y2="-452.666" gradientTransform="matrix(-3.164541e-003 1 -1 1.512874e-003 -239.2804 -62.7721)">
					<stop  offset="0" style="stop-color:#9FA193"/>
					<stop  offset="0.3608" style="stop-color:#9C9D8F"/>
					<stop  offset="1" style="stop-color:#8B8C7B"/>
				</linearGradient>
				<path fill-rule="evenodd" clip-rule="evenodd" fill="url(#SVGID_39_)" d="M220.6,86.85c-0.17,0.17-0.42,0.25-0.75,0.25H206
					c-0.33,0-0.58-0.08-0.75-0.25c-0.17-0.17-0.25-0.42-0.25-0.75v-5.4c0-0.67,0.33-1,1-1h13.85c0.33,0,0.58,0.08,0.75,0.25
					c0.17,0.17,0.25,0.42,0.25,0.75v5.4C220.85,86.43,220.77,86.68,220.6,86.85z"/>
				<linearGradient id="SVGID_40_" gradientUnits="userSpaceOnUse" x1="212.9248" y1="79.2627" x2="212.9248" y2="87.5377">
					<stop  offset="0" style="stop-color:#B7B7AE"/>
					<stop  offset="1" style="stop-color:#7B7B73"/>
				</linearGradient>
				<path fill-rule="evenodd" clip-rule="evenodd" fill="url(#SVGID_40_)" d="M221.35,80.7l-0.05-0.13l0.05-0.03
					C221.35,80.6,221.35,80.65,221.35,80.7z M204.5,80.7c0-0.07,0-0.13,0-0.2l0.05,0.02L204.5,80.7z M220,87.6c-0.05,0-0.1,0-0.15,0
					l0.13-0.05L220,87.6z"/>
				<linearGradient id="SVGID_41_" gradientUnits="userSpaceOnUse" x1="212.9248" y1="79.2627" x2="212.9248" y2="87.5377">
					<stop  offset="0.0118" style="stop-color:#D0D0AD"/>
					<stop  offset="1" style="stop-color:#7B7B73"/>
				</linearGradient>
				<path fill-rule="evenodd" clip-rule="evenodd" fill="url(#SVGID_41_)" d="M221.35,80.55l-0.05,0.03l0.05,0.13v5.4
					c0,0.06,0,0.12,0,0.17c-0.02,0.33-0.11,0.59-0.25,0.8l-0.5-0.23c0.17-0.17,0.25-0.42,0.25-0.75v-5.4c0-0.33-0.08-0.58-0.25-0.75
					c-0.17-0.17-0.42-0.25-0.75-0.25H206c-0.67,0-1,0.33-1,1v5.4c0,0.33,0.08,0.58,0.25,0.75c0.17,0.17,0.42,0.25,0.75,0.25h13.85
					l0.13,0.45l-0.13,0.05H206c-0.05,0-0.1,0-0.15,0c-0.35-0.02-0.64-0.11-0.85-0.27c-0.09-0.06-0.16-0.14-0.22-0.23
					c-0.16-0.2-0.25-0.47-0.28-0.8c0-0.06,0-0.13,0-0.2v-5.4l0.08-0.18h-0.03l-0.05-0.02c0.06-0.81,0.5-1.24,1.33-1.3
					c0.06,0,0.12,0,0.17,0h13.85c0.03,0,0.07,0,0.1,0c0.05,0,0.1,0,0.15,0c0.47,0.05,0.8,0.24,1,0.55
					C221.25,79.96,221.33,80.22,221.35,80.55z"/>
				<linearGradient id="SVGID_42_" gradientUnits="userSpaceOnUse" x1="212.7998" y1="79.2627" x2="212.7998" y2="87.5377">
					<stop  offset="0.0118" style="stop-color:#D0D0AD"/>
					<stop  offset="1" style="stop-color:#7B7B73"/>
				</linearGradient>
				<path fill-rule="evenodd" clip-rule="evenodd" fill="url(#SVGID_42_)" d="M204.5,80.7l0.05-0.18h0.03L204.5,80.7z M219.85,87.1
					c0.33,0,0.58-0.08,0.75-0.25l0.5,0.23c-0.03,0.04-0.06,0.09-0.1,0.13c-0.06,0.05-0.13,0.1-0.2,0.15
					c-0.21,0.15-0.47,0.23-0.8,0.25l-0.03-0.05L219.85,87.1z"/>
				<g>
					<linearGradient id="SVGID_43_" gradientUnits="userSpaceOnUse" x1="234.0996" y1="79.0498" x2="234.0996" y2="87.6498">
						<stop  offset="0.0118" style="stop-color:#D0D0AD"/>
						<stop  offset="1" style="stop-color:#7B7B73"/>
					</linearGradient>
					<path fill-rule="evenodd" clip-rule="evenodd" fill="url(#SVGID_43_)" d="M241.1,79.2c0.55,0.02,0.93,0.2,1.15,0.55
						c0.15,0.21,0.23,0.47,0.25,0.8l-0.05,0.03l0.05,0.13v5.4l-0.05,0.15l0.05,0.02c-0.03,0.4-0.15,0.71-0.35,0.93
						c-0.06,0.05-0.13,0.1-0.2,0.15c-0.21,0.15-0.47,0.23-0.8,0.25c-0.05,0-0.1,0-0.15,0h-13.8c-0.06,0-0.12,0-0.17,0
						c-0.33-0.02-0.59-0.11-0.8-0.25c-0.04-0.03-0.09-0.06-0.13-0.1c-0.05-0.06-0.1-0.13-0.15-0.2c-0.15-0.21-0.23-0.47-0.25-0.8
						c0-0.05,0-0.1,0-0.15v-5.4c0-0.03,0-0.07,0-0.1c0-0.05,0-0.1,0-0.15c0.04-0.32,0.14-0.58,0.3-0.78
						c0.07-0.09,0.15-0.16,0.25-0.22c0.21-0.15,0.47-0.23,0.8-0.25l0.03,0.05l0.13-0.05H241l0.1,0.02V79.2z M242,80.7
						c0-0.33-0.08-0.58-0.25-0.75c-0.17-0.17-0.42-0.25-0.75-0.25h-13.8c-0.33,0-0.58,0.08-0.75,0.25
						c-0.17,0.17-0.25,0.42-0.25,0.75v5.4c0,0.33,0.08,0.58,0.25,0.75c0.17,0.17,0.42,0.25,0.75,0.25H241
						c0.33,0,0.58-0.08,0.75-0.25c0.17-0.17,0.25-0.42,0.25-0.75V80.7z"/>
					<linearGradient id="SVGID_44_" gradientUnits="userSpaceOnUse" x1="234.0742" y1="79.2002" x2="234.0742" y2="79.7002">
						<stop  offset="0.0118" style="stop-color:#D0D0AD"/>
						<stop  offset="1" style="stop-color:#7B7B73"/>
					</linearGradient>
					<path fill-rule="evenodd" clip-rule="evenodd" fill="url(#SVGID_44_)" d="M241,79.2c0.03,0,0.07,0,0.1,0v0.02L241,79.2z
						 M227.05,79.2c0.05,0,0.1,0,0.15,0l-0.13,0.05L227.05,79.2z"/>
					
						<linearGradient id="SVGID_45_" gradientUnits="userSpaceOnUse" x1="143.1899" y1="-473.8408" x2="151.09" y2="-473.8408" gradientTransform="matrix(-3.164541e-003 1 -1 1.512874e-003 -239.2804 -62.7721)">
						<stop  offset="0" style="stop-color:#9FA193"/>
						<stop  offset="0.3608" style="stop-color:#9C9D8F"/>
						<stop  offset="1" style="stop-color:#8B8C7B"/>
					</linearGradient>
					<path fill-rule="evenodd" clip-rule="evenodd" fill="url(#SVGID_45_)" d="M242,80.7v5.4c0,0.33-0.08,0.58-0.25,0.75
						c-0.17,0.17-0.42,0.25-0.75,0.25h-13.8c-0.33,0-0.58-0.08-0.75-0.25c-0.17-0.17-0.25-0.42-0.25-0.75v-5.4
						c0-0.33,0.08-0.58,0.25-0.75c0.17-0.17,0.42-0.25,0.75-0.25H241c0.33,0,0.58,0.08,0.75,0.25C241.92,80.12,242,80.37,242,80.7z"
						/>
					<linearGradient id="SVGID_46_" gradientUnits="userSpaceOnUse" x1="242.4746" y1="79.2627" x2="242.4746" y2="87.5377">
						<stop  offset="0" style="stop-color:#B7B7AE"/>
						<stop  offset="1" style="stop-color:#7B7B73"/>
					</linearGradient>
					<path fill-rule="evenodd" clip-rule="evenodd" fill="url(#SVGID_46_)" d="M242.5,80.55c0,0.05,0,0.1,0,0.15l-0.05-0.13
						L242.5,80.55z"/>
					<linearGradient id="SVGID_47_" gradientUnits="userSpaceOnUse" x1="242.4746" y1="79.2627" x2="242.4746" y2="87.5377">
						<stop  offset="0.0118" style="stop-color:#D0D0AD"/>
						<stop  offset="1" style="stop-color:#7B7B73"/>
					</linearGradient>
					<path fill-rule="evenodd" clip-rule="evenodd" fill="url(#SVGID_47_)" d="M242.5,86.1c0,0.06,0,0.12,0,0.17l-0.05-0.02
						L242.5,86.1z"/>
				</g>
				<g>
					<linearGradient id="SVGID_48_" gradientUnits="userSpaceOnUse" x1="191.9004" y1="79.2627" x2="191.9004" y2="87.5377">
						<stop  offset="0.0118" style="stop-color:#D0D0AD"/>
						<stop  offset="1" style="stop-color:#7B7B73"/>
					</linearGradient>
					<path fill-rule="evenodd" clip-rule="evenodd" fill="url(#SVGID_48_)" d="M199.8,80.7c0-0.66-0.32-1-0.95-1H185
						c-0.67,0-1,0.33-1,1v5.4c0,0.67,0.33,1,1,1h13.85c0.63,0,0.95-0.34,0.95-1V80.7z M198.85,79.2c0.97,0,1.45,0.5,1.45,1.5v5.4
						c0,1-0.48,1.5-1.45,1.5H185c-1,0-1.5-0.5-1.5-1.5v-5.4c0-1,0.5-1.5,1.5-1.5H198.85z"/>
					
						<linearGradient id="SVGID_49_" gradientUnits="userSpaceOnUse" x1="143.126" y1="-431.6416" x2="151.026" y2="-431.6416" gradientTransform="matrix(-3.164541e-003 1 -1 1.512874e-003 -239.2804 -62.7721)">
						<stop  offset="0" style="stop-color:#9FA193"/>
						<stop  offset="0.3608" style="stop-color:#9C9D8F"/>
						<stop  offset="1" style="stop-color:#8B8C7B"/>
					</linearGradient>
					<path fill-rule="evenodd" clip-rule="evenodd" fill="url(#SVGID_49_)" d="M199.8,80.7v5.4c0,0.66-0.32,1-0.95,1H185
						c-0.67,0-1-0.33-1-1v-5.4c0-0.67,0.33-1,1-1h13.85C199.48,79.7,199.8,80.04,199.8,80.7z"/>
				</g>
				<g>
					<linearGradient id="SVGID_50_" gradientUnits="userSpaceOnUse" x1="170.9004" y1="79.2627" x2="170.9004" y2="87.5377">
						<stop  offset="0.0118" style="stop-color:#D0D0AD"/>
						<stop  offset="1" style="stop-color:#7B7B73"/>
					</linearGradient>
					<path fill-rule="evenodd" clip-rule="evenodd" fill="url(#SVGID_50_)" d="M164,87.6c-1,0-1.5-0.5-1.5-1.5v-5.4
						c0-1,0.5-1.5,1.5-1.5h13.85c0.97,0,1.45,0.5,1.45,1.5v5.4c0,1-0.48,1.5-1.45,1.5H164z M163,86.1c0,0.67,0.33,1,1,1h13.85
						c0.63,0,0.95-0.33,0.95-1v-5.4c0-0.67-0.32-1-0.95-1H164c-0.67,0-1,0.33-1,1V86.1z"/>
					
						<linearGradient id="SVGID_51_" gradientUnits="userSpaceOnUse" x1="143.0942" y1="-410.6416" x2="150.9943" y2="-410.6416" gradientTransform="matrix(-3.164541e-003 1 -1 1.512874e-003 -239.2804 -62.7721)">
						<stop  offset="0" style="stop-color:#9FA193"/>
						<stop  offset="0.3608" style="stop-color:#9C9D8F"/>
						<stop  offset="1" style="stop-color:#8B8C7B"/>
					</linearGradient>
					<path fill-rule="evenodd" clip-rule="evenodd" fill="url(#SVGID_51_)" d="M163,86.1v-5.4c0-0.67,0.33-1,1-1h13.85
						c0.63,0,0.95,0.33,0.95,1v5.4c0,0.67-0.32,1-0.95,1H164C163.33,87.1,163,86.77,163,86.1z"/>
				</g>
				<g>
					<linearGradient id="SVGID_52_" gradientUnits="userSpaceOnUse" x1="149.75" y1="79.1123" x2="149.75" y2="87.3873">
						<stop  offset="0.0118" style="stop-color:#D0D0AD"/>
						<stop  offset="1" style="stop-color:#7B7B73"/>
					</linearGradient>
					<path fill-rule="evenodd" clip-rule="evenodd" fill="url(#SVGID_52_)" d="M156.7,86.95c0.63,0,0.95-0.33,0.95-1v-5.4
						c0-0.67-0.32-1-0.95-1h-13.85c-0.67,0-1,0.33-1,1v5.4c0,0.67,0.33,1,1,1H156.7z M158.15,85.95c0,1-0.48,1.5-1.45,1.5h-13.85
						c-1,0-1.5-0.5-1.5-1.5v-5.4c0-1,0.5-1.5,1.5-1.5h13.85c0.97,0,1.45,0.5,1.45,1.5V85.95z"/>
					
						<linearGradient id="SVGID_53_" gradientUnits="userSpaceOnUse" x1="142.9121" y1="-389.4912" x2="150.8121" y2="-389.4912" gradientTransform="matrix(-3.164541e-003 1 -1 1.512874e-003 -239.2804 -62.7721)">
						<stop  offset="0" style="stop-color:#9FA193"/>
						<stop  offset="0.3608" style="stop-color:#9C9D8F"/>
						<stop  offset="1" style="stop-color:#8B8C7B"/>
					</linearGradient>
					<path fill-rule="evenodd" clip-rule="evenodd" fill="url(#SVGID_53_)" d="M156.7,86.95h-13.85c-0.67,0-1-0.33-1-1v-5.4
						c0-0.67,0.33-1,1-1h13.85c0.63,0,0.95,0.33,0.95,1v5.4C157.65,86.62,157.33,86.95,156.7,86.95z"/>
				</g>
				<g>
					<linearGradient id="SVGID_54_" gradientUnits="userSpaceOnUse" x1="128.75" y1="79.2627" x2="128.75" y2="87.5377">
						<stop  offset="0.0118" style="stop-color:#D0D0AD"/>
						<stop  offset="1" style="stop-color:#7B7B73"/>
					</linearGradient>
					<path fill-rule="evenodd" clip-rule="evenodd" fill="url(#SVGID_54_)" d="M121.85,87.6c-1,0-1.5-0.5-1.5-1.5v-5.4
						c0-1,0.5-1.5,1.5-1.5h13.85c0.97,0,1.45,0.5,1.45,1.5v5.4c0,1-0.48,1.5-1.45,1.5H121.85z M120.85,86.1c0,0.67,0.33,1,1,1h13.85
						c0.63,0,0.95-0.33,0.95-1v-5.4c0-0.67-0.32-1-0.95-1h-13.85c-0.67,0-1,0.33-1,1V86.1z"/>
					
						<linearGradient id="SVGID_55_" gradientUnits="userSpaceOnUse" x1="143.0308" y1="-368.4917" x2="150.9308" y2="-368.4917" gradientTransform="matrix(-3.164541e-003 1 -1 1.512874e-003 -239.2804 -62.7721)">
						<stop  offset="0" style="stop-color:#9FA193"/>
						<stop  offset="0.3608" style="stop-color:#9C9D8F"/>
						<stop  offset="1" style="stop-color:#8B8C7B"/>
					</linearGradient>
					<path fill-rule="evenodd" clip-rule="evenodd" fill="url(#SVGID_55_)" d="M120.85,86.1v-5.4c0-0.67,0.33-1,1-1h13.85
						c0.63,0,0.95,0.33,0.95,1v5.4c0,0.67-0.32,1-0.95,1h-13.85C121.18,87.1,120.85,86.77,120.85,86.1z"/>
				</g>
			</g>
			<g>
				
					<path fill-rule="evenodd" clip-rule="evenodd" fill="none" stroke="#AEAFA5" stroke-width="0.1" stroke-linecap="round" stroke-linejoin="round" stroke-miterlimit="3" d="
					M241.25,72.4H121.1c-2.93,0-4.4,1.47-4.4,4.4v12.9c0,2.93,1.47,4.4,4.4,4.4h120.15c2.93,0,4.4-1.47,4.4-4.4V76.8
					C245.65,73.87,244.18,72.4,241.25,72.4z"/>
			</g>
			<g>
				
					<path fill-rule="evenodd" clip-rule="evenodd" fill="none" stroke="#838473" stroke-width="0.1" stroke-linecap="round" stroke-linejoin="round" stroke-miterlimit="3" d="
					M240.8,71.7H120.65c-2.93,0-4.4,1.47-4.4,4.4V89c0,2.9,1.47,4.35,4.4,4.35H240.8c2.93,0,4.4-1.45,4.4-4.35V76.1
					C245.2,73.17,243.73,71.7,240.8,71.7z"/>
			</g>
			<g>
				<path fill-rule="evenodd" clip-rule="evenodd" fill-opacity="0.2667" d="M18.55,162.25c5.23-7.4,14.2-11.1,26.9-11.1
					c12,0,24.27-0.48,36.8-1.45c12.57-0.97,22.48-1.48,29.75-1.55c6.3-0.27,9.8-6.47,10.5-18.6c0-0.03,0-0.08,0-0.15
					c-0.23-3.7,0.37-6.35,1.8-7.95c1.53-1.9,3.98-2.67,7.35-2.3c2.13,0.3,3.75-0.07,4.85-1.1c1-1.1,1.48-2.93,1.45-5.5
					c-0.1-3.3-1.22-6.32-3.35-9.05c-0.3-0.37-0.43-0.73-0.4-1.1c0.07-0.43,0.27-0.75,0.6-0.95c0.3-0.3,0.67-0.43,1.1-0.4
					c0.4,0.07,0.72,0.27,0.95,0.6c2.6,3.27,3.95,6.88,4.05,10.85c0.03,3.5-0.75,6.07-2.35,7.7c-1.57,1.67-3.98,2.3-7.25,1.9
					c-2.17-0.3-3.73,0.08-4.7,1.15c-0.97,1.27-1.37,3.32-1.2,6.15c0,0.07,0,0.12,0,0.15c-0.77,14.47-5.2,21.65-13.3,21.55H112
					c-7.17,0.03-17,0.55-29.5,1.55c-12.6,0.97-24.95,1.45-37.05,1.45c-11.53,0-19.72,3.27-24.55,9.8
					c-4.4,6.17-7.92,41.53-10.55,106.1c0,0.4-0.15,0.73-0.45,1c-0.33,0.27-0.7,0.4-1.1,0.4c-0.4,0-0.72-0.15-0.95-0.45
					c-0.3-0.33-0.45-0.7-0.45-1.1c2.73-65.53,6.45-101.43,11.15-107.7V162.25z"/>
			</g>
			<g>
				<path fill-rule="evenodd" clip-rule="evenodd" fill="#287748" d="M16.35,160.05c5.23-7.37,14.2-11.05,26.9-11.05
					c12,0,24.45-0.47,37.35-1.4c12.73-0.93,21.73-2.03,27-3.3c4.57-1.23,7.07-3.38,7.5-6.45c0.43-3.87,1.18-8.47,2.25-13.8
					c1.03-5.73,4.58-10.3,10.65-13.7c2.3-1.3,3.58-2.73,3.85-4.3c0.17-1.67-0.68-3.52-2.55-5.55h0.1c-0.1-0.1-0.18-0.18-0.25-0.25
					c-0.3-0.3-0.53-0.57-0.7-0.8c-0.27-0.3-0.4-0.58-0.4-0.85h3.6c2.5,2.8,3.55,5.4,3.15,7.8c-0.3,2.47-2.08,4.65-5.35,6.55
					c-5.23,2.87-8.32,6.77-9.25,11.7c-1,5.23-1.73,9.75-2.2,13.55c-0.37,4.4-3.58,7.38-9.65,8.95c-5.37,1.3-14.55,2.42-27.55,3.35
					c-12.93,0.93-25.45,1.4-37.55,1.4c-11.53,0-19.72,3.27-24.55,9.8c-4.4,6.17-8.23,43.02-11.5,110.55c0,0.4-0.15,0.75-0.45,1.05
					c-0.33,0.23-0.7,0.35-1.1,0.35S4.9,273.5,4.6,273.2c-0.23-0.33-0.35-0.7-0.35-1.1c3.37-68.5,7.4-105.88,12.1-112.15V160.05z"/>
			</g>
			<g>
				<radialGradient id="SVGID_56_" cx="69.75" cy="146.25" r="36.9" gradientUnits="userSpaceOnUse">
					<stop  offset="0" style="stop-color:#FFFFFF"/>
					<stop  offset="1" style="stop-color:#FFFFFF;stop-opacity:0"/>
				</radialGradient>
				<path fill-rule="evenodd" clip-rule="evenodd" fill="url(#SVGID_56_)" d="M35.85,150.65c0.03-0.1,0.1-0.15,0.2-0.15
					c41.77-1.37,65.12-3.02,70.05-4.95c0.1-0.07,0.2-0.07,0.3,0c0.07,0,0.13,0.05,0.2,0.15c0,0.1,0,0.18,0,0.25
					c-0.07,0.1-0.13,0.18-0.2,0.25c-4.93,2-28.38,3.68-70.35,5.05c-0.1,0-0.17-0.03-0.2-0.1c-0.1-0.07-0.15-0.15-0.15-0.25
					C35.7,150.8,35.75,150.72,35.85,150.65z"/>
				<radialGradient id="SVGID_57_" cx="19.7002" cy="168.1504" r="16.7" gradientUnits="userSpaceOnUse">
					<stop  offset="0" style="stop-color:#FFFFFF"/>
					<stop  offset="1" style="stop-color:#FFFFFF;stop-opacity:0"/>
				</radialGradient>
				<path fill-rule="evenodd" clip-rule="evenodd" fill="url(#SVGID_57_)" d="M26.55,152.95c0,0.1,0,0.2,0,0.3
					c-0.07,0.07-0.15,0.13-0.25,0.2c-8.63,4.13-13.08,13.85-13.35,29.15c0,0.1-0.02,0.2-0.05,0.3c-0.1,0.03-0.2,0.05-0.3,0.05
					s-0.17-0.02-0.2-0.05c-0.1-0.1-0.15-0.2-0.15-0.3c0.23-15.67,4.82-25.6,13.75-29.8c0.1-0.07,0.2-0.07,0.3,0
					C26.4,152.8,26.48,152.85,26.55,152.95z"/>
				<radialGradient id="SVGID_58_" cx="131.1499" cy="103.5" r="4.4625" gradientUnits="userSpaceOnUse">
					<stop  offset="0" style="stop-color:#FFFFFF"/>
					<stop  offset="1" style="stop-color:#FFFFFF;stop-opacity:0"/>
				</radialGradient>
				<path fill-rule="evenodd" clip-rule="evenodd" fill="url(#SVGID_58_)" d="M129.45,99.3c0-0.1,0.03-0.2,0.1-0.3
					c0.03-0.1,0.12-0.15,0.25-0.15c0.07,0,0.15,0.03,0.25,0.1c3.87,2.97,4.75,5.95,2.65,8.95c-0.07,0.1-0.15,0.15-0.25,0.15
					c-0.1,0-0.2-0.03-0.3-0.1c-0.1-0.03-0.15-0.1-0.15-0.2s0.03-0.2,0.1-0.3c1.8-2.6,0.97-5.23-2.5-7.9
					C129.5,99.48,129.45,99.4,129.45,99.3z"/>
				<radialGradient id="SVGID_59_" cx="122.3501" cy="123.7871" r="12.8986" gradientUnits="userSpaceOnUse">
					<stop  offset="0" style="stop-color:#FFFFFF"/>
					<stop  offset="1" style="stop-color:#FFFFFF;stop-opacity:0"/>
				</radialGradient>
				<path fill-rule="evenodd" clip-rule="evenodd" fill="url(#SVGID_59_)" d="M128,111.9c0,0.1,0,0.2,0,0.3
					c-0.07,0.1-0.15,0.17-0.25,0.2c-6.2,2.8-9.67,10.52-10.4,23.15c0,0.07-0.02,0.15-0.05,0.25c-0.1,0.03-0.2,0.05-0.3,0.05
					s-0.17-0.02-0.2-0.05c-0.1-0.1-0.15-0.2-0.15-0.3c0.73-13,4.33-20.92,10.8-23.75c0.1-0.03,0.2-0.03,0.3,0
					C127.85,111.75,127.93,111.8,128,111.9z"/>
			</g>
		</g>
	</g>
</g>
</svg>
