<?xml version="1.0" encoding="utf-8"?>
<!-- Generator: Adobe Illustrator 16.0.0, SVG Export Plug-In . SVG Version: 6.00 Build 0)  -->
<!DOCTYPE svg PUBLIC "-//W3C//DTD SVG 1.1//EN" "http://www.w3.org/Graphics/SVG/1.1/DTD/svg11.dtd">
<svg version="1.1" id="Layer_1" xmlns="http://www.w3.org/2000/svg" xmlns:xlink="http://www.w3.org/1999/xlink" x="0px" y="0px"
	 width="300px" height="142px" viewBox="0 0 300 142" enable-background="new 0 0 300 142" xml:space="preserve">
<g>
	<g>
		
			<path fill-rule="evenodd" clip-rule="evenodd" fill="none" stroke="#000000" stroke-width="4.5" stroke-linecap="round" stroke-linejoin="round" stroke-miterlimit="3" stroke-opacity="0.2745" d="
			M26.35,10.2c4.97-2.03,8.23,2.62,9.8,13.95c1.57,11.27,2.73,20.98,3.5,29.15c0.73,8.1,2.92,17.92,6.55,29.45
			c3.57,11.47,6.58,22.8,9.05,34c2.5,11.13,13.88,17.7,34.15,19.7c20.23,1.93,44.22,0.07,71.95-5.6c18.8-3.9,31.28-7.22,37.45-9.95
			c8.73-3.37,17.77-7.67,27.1-12.9c11.47-7.07,20.4-9.72,26.8-7.95c21.83,3.3,33.27-0.67,34.3-11.9"/>
	</g>
	<g>
		
			<path fill-rule="evenodd" clip-rule="evenodd" fill="none" stroke="#000000" stroke-width="4.5" stroke-linecap="round" stroke-linejoin="round" stroke-miterlimit="3" d="
			M9.35,11.4c5.5,2.77,11.63,2.47,18.4-0.9c0.07-0.1,0.15-0.15,0.25-0.15c8.6-3.93,13.93,1.63,16,16.7c0.63,4.27,0.8,10.4,0.5,18.4
			c-0.33,8,1.4,17.7,5.2,29.1c3.77,11.33,6.25,23,7.45,35c1.23,12.03,11.98,19.05,32.25,21.05c20.23,1.93,42.43,0.95,66.6-2.95
			c24.13-3.9,40.58-8.3,49.35-13.2c8.77-4.87,17.45-10.17,26.05-15.9c8.5-5.7,18.92-6.55,31.25-2.55
			c15.6,3.47,24.13-3.88,25.6-22.05"/>
	</g>
</g>
</svg>
