<?xml version="1.0" encoding="utf-8"?>
<!-- Generator: Adobe Illustrator 16.0.0, SVG Export Plug-In . SVG Version: 6.00 Build 0)  -->
<!DOCTYPE svg PUBLIC "-//W3C//DTD SVG 1.1//EN" "http://www.w3.org/Graphics/SVG/1.1/DTD/svg11.dtd">
<svg version="1.1" id="Layer_1" xmlns="http://www.w3.org/2000/svg" xmlns:xlink="http://www.w3.org/1999/xlink" x="0px" y="0px"
	 width="6.42px" height="6.42px" viewBox="0 0 6.42 6.42" enable-background="new 0 0 6.42 6.42" xml:space="preserve">
<g>
	<path fill-rule="evenodd" clip-rule="evenodd" fill="#6B6A6A" d="M0.44,4.17c0,0.23,0.03,0.45,0.1,0.65
		C0.3,4.46,0.17,4.07,0.14,3.67c0-0.17,0-0.32,0-0.45c0-0.87,0.28-1.6,0.85-2.2c0.6-0.57,1.32-0.85,2.15-0.85
		c0.87,0,1.58,0.28,2.15,0.85c0.33,0.37,0.6,0.78,0.8,1.25C5.89,2,5.7,1.8,5.54,1.67c-0.57-0.6-1.28-0.9-2.15-0.9
		c-0.83,0-1.57,0.3-2.2,0.9c-0.57,0.6-0.85,1.32-0.85,2.15C0.34,3.95,0.37,4.07,0.44,4.17z"/>
	<path fill-rule="evenodd" clip-rule="evenodd" fill="#6B6A6A" d="M0.44,4.17c0,0.23,0.03,0.45,0.1,0.65
		C0.3,4.46,0.17,4.07,0.14,3.67c0-0.17,0-0.32,0-0.45c0-0.87,0.28-1.6,0.85-2.2c0.6-0.57,1.32-0.85,2.15-0.85
		c0.87,0,1.58,0.28,2.15,0.85c0.33,0.37,0.6,0.78,0.8,1.25C5.89,2,5.7,1.8,5.54,1.67c-0.57-0.6-1.28-0.9-2.15-0.9
		c-0.83,0-1.57,0.3-2.2,0.9c-0.57,0.6-0.85,1.32-0.85,2.15C0.34,3.95,0.37,4.07,0.44,4.17z"/>
	<linearGradient id="SVGID_1_" gradientUnits="userSpaceOnUse" x1="2.0278" y1="1.0898" x2="4.5209" y2="5.4688">
		<stop  offset="0" style="stop-color:#828287"/>
		<stop  offset="0.502" style="stop-color:#A1A1A4"/>
		<stop  offset="1" style="stop-color:#CDC8C8"/>
	</linearGradient>
	<path fill-rule="evenodd" clip-rule="evenodd" fill="url(#SVGID_1_)" d="M6.09,2.27c0,0.1,0,0.22,0,0.35c0,0.83-0.3,1.57-0.9,2.2
		c-0.57,0.6-1.3,0.9-2.2,0.9c-0.83,0-1.55-0.3-2.15-0.9c-0.2-0.2-0.33-0.42-0.4-0.65c-0.07-0.1-0.1-0.22-0.1-0.35
		c0-0.83,0.28-1.55,0.85-2.15c0.63-0.6,1.37-0.9,2.2-0.9c0.87,0,1.58,0.3,2.15,0.9C5.7,1.8,5.89,2,6.09,2.27z"/>
	<linearGradient id="SVGID_2_" gradientUnits="userSpaceOnUse" x1="2.0278" y1="1.0898" x2="4.5209" y2="5.4688">
		<stop  offset="0" style="stop-color:#828287"/>
		<stop  offset="0.502" style="stop-color:#A1A1A4"/>
		<stop  offset="1" style="stop-color:#CDC8C8"/>
	</linearGradient>
	<path fill-rule="evenodd" clip-rule="evenodd" fill="url(#SVGID_2_)" d="M6.09,2.27c0,0.1,0,0.22,0,0.35c0,0.83-0.3,1.57-0.9,2.2
		c-0.57,0.6-1.3,0.9-2.2,0.9c-0.83,0-1.55-0.3-2.15-0.9c-0.2-0.2-0.33-0.42-0.4-0.65c-0.07-0.1-0.1-0.22-0.1-0.35
		c0-0.83,0.28-1.55,0.85-2.15c0.63-0.6,1.37-0.9,2.2-0.9c0.87,0,1.58,0.3,2.15,0.9C5.7,1.8,5.89,2,6.09,2.27z"/>
	<path fill-rule="evenodd" clip-rule="evenodd" fill="#D7D7D7" d="M6.09,2.27c0.1,0.3,0.15,0.62,0.15,0.95
		c0,0.83-0.32,1.55-0.95,2.15C4.72,5.97,4,6.27,3.14,6.27c-0.83,0-1.55-0.3-2.15-0.9c-0.2-0.17-0.35-0.35-0.45-0.55
		c-0.07-0.2-0.1-0.42-0.1-0.65c0.07,0.23,0.2,0.45,0.4,0.65c0.6,0.6,1.32,0.9,2.15,0.9c0.9,0,1.63-0.3,2.2-0.9
		c0.6-0.63,0.9-1.37,0.9-2.2C6.09,2.49,6.09,2.37,6.09,2.27z"/>
	<path fill-rule="evenodd" clip-rule="evenodd" fill="#D7D7D7" d="M6.09,2.27c0.1,0.3,0.15,0.62,0.15,0.95
		c0,0.83-0.32,1.55-0.95,2.15C4.72,5.97,4,6.27,3.14,6.27c-0.83,0-1.55-0.3-2.15-0.9c-0.2-0.17-0.35-0.35-0.45-0.55
		c-0.07-0.2-0.1-0.42-0.1-0.65c0.07,0.23,0.2,0.45,0.4,0.65c0.6,0.6,1.32,0.9,2.15,0.9c0.9,0,1.63-0.3,2.2-0.9
		c0.6-0.63,0.9-1.37,0.9-2.2C6.09,2.49,6.09,2.37,6.09,2.27z"/>
</g>
</svg>
