<?xml version="1.0" encoding="utf-8"?>
<!-- Generator: Adobe Illustrator 16.0.0, SVG Export Plug-In . SVG Version: 6.00 Build 0)  -->
<!DOCTYPE svg PUBLIC "-//W3C//DTD SVG 1.1//EN" "http://www.w3.org/Graphics/SVG/1.1/DTD/svg11.dtd">
<svg version="1.1" id="Layer_1" xmlns="http://www.w3.org/2000/svg" xmlns:xlink="http://www.w3.org/1999/xlink" x="0px" y="0px"
	 width="137px" height="139.33px" viewBox="0 0 137 139.33" enable-background="new 0 0 137 139.33" xml:space="preserve">
<g>
	<g>
		<g>
			
				<radialGradient id="SVGID_1_" cx="66.9502" cy="74.8833" r="55.4" gradientTransform="matrix(1 0 0 1.0463 0 -3.4637)" gradientUnits="userSpaceOnUse">
				<stop  offset="0" style="stop-color:#000000;stop-opacity:0.6941"/>
				<stop  offset="0.4588" style="stop-color:#000000;stop-opacity:0.3216"/>
				<stop  offset="0.7529" style="stop-color:#000000;stop-opacity:0"/>
				<stop  offset="1" style="stop-color:#000000;stop-opacity:0"/>
			</radialGradient>
			<path fill-rule="evenodd" clip-rule="evenodd" fill="url(#SVGID_1_)" d="M73.5,3.58c15.23,1.33,28.45,7.78,39.65,19.35
				c12.6,13.1,18.9,28.9,18.9,47.4c0,18.53-6.3,34.37-18.9,47.5c-11.2,11.47-24.42,17.9-39.65,19.3c-2,0.17-3.98,0.25-5.95,0.25
				c-17.87,0-33.07-6.52-45.6-19.55C9.32,104.7,3,88.87,3,70.33c0-18.5,6.32-34.3,18.95-47.4C34.48,9.8,49.68,3.23,67.55,3.23
				C69.52,3.23,71.5,3.35,73.5,3.58z"/>
			<g>
				
					<radialGradient id="SVGID_2_" cx="65.5" cy="52.7334" r="47.725" gradientTransform="matrix(1 0 0 0.8483 0 7.997)" gradientUnits="userSpaceOnUse">
					<stop  offset="0" style="stop-color:#000000"/>
					<stop  offset="0.6235" style="stop-color:#000000;stop-opacity:0.6196"/>
					<stop  offset="0.702" style="stop-color:#000000;stop-opacity:0"/>
					<stop  offset="1" style="stop-color:#000000;stop-opacity:0"/>
				</radialGradient>
				<path fill-rule="evenodd" clip-rule="evenodd" fill="url(#SVGID_2_)" d="M70.25,14.03c11.03,0.73,20.57,4.5,28.6,11.3
					c9.13,7.63,13.7,16.88,13.7,27.75s-4.57,20.12-13.7,27.75c-8.03,6.73-17.57,10.5-28.6,11.3c-1.47,0.1-2.92,0.15-4.35,0.15
					c-12.87,0-23.87-3.82-33-11.45c-9.07-7.63-13.6-16.88-13.6-27.75s4.53-20.12,13.6-27.75c9.13-7.67,20.13-11.5,33-11.5
					C67.33,13.83,68.78,13.9,70.25,14.03z"/>
			</g>
		</g>
		<g>
			<linearGradient id="SVGID_3_" gradientUnits="userSpaceOnUse" x1="35.25" y1="42.1333" x2="96.5996" y2="42.1333">
				<stop  offset="0" style="stop-color:#9C9999"/>
				<stop  offset="0.4392" style="stop-color:#FFFFFF"/>
				<stop  offset="1" style="stop-color:#A6A6A6"/>
			</linearGradient>
			<path fill-rule="evenodd" clip-rule="evenodd" fill="url(#SVGID_3_)" d="M35.3,58.68c-0.03-0.8-0.05-1.6-0.05-2.4
				c0-8.47,2.98-15.72,8.95-21.75c6.03-5.97,13.27-8.95,21.7-8.95c8.47,0,15.68,2.98,21.65,8.95c0.53,0.53,1.02,1.05,1.45,1.55
				c5.07,5.7,7.6,12.43,7.6,20.2c0,0.8-0.03,1.6-0.1,2.4c-0.43-6.73-2.93-12.65-7.5-17.75c-0.43-0.53-0.92-1.05-1.45-1.55
				c-5.97-6-13.18-9-21.65-9c-8.43,0-15.67,3-21.7,9C38.8,44.85,35.83,51.28,35.3,58.68z"/>
			<path fill-rule="evenodd" clip-rule="evenodd" fill="#ABACAF" d="M96.5,58.68c0.07,0.8,0.1,1.6,0.1,2.4
				c0,7.77-2.53,14.47-7.6,20.1c-0.43,0.5-0.92,1.02-1.45,1.55c-5.97,6.03-13.18,9.05-21.65,9.05c-8.43,0-15.67-3.02-21.7-9.05
				c-5.97-5.97-8.95-13.18-8.95-21.65c0-0.8,0.02-1.6,0.05-2.4c0.53-7.4,3.5-13.83,8.9-19.3c6.03-6,13.27-9,21.7-9
				c8.47,0,15.68,3,21.65,9c0.53,0.5,1.02,1.02,1.45,1.55C93.57,46.03,96.07,51.95,96.5,58.68z"/>
		</g>
		<g>
			<linearGradient id="SVGID_4_" gradientUnits="userSpaceOnUse" x1="37.2998" y1="50.9336" x2="94.4502" y2="50.9336">
				<stop  offset="0" style="stop-color:#8C8C8C"/>
				<stop  offset="0.2824" style="stop-color:#A9A8A8"/>
				<stop  offset="0.502" style="stop-color:#D2D0D0"/>
				<stop  offset="0.7098" style="stop-color:#AFAFAF"/>
				<stop  offset="0.8902" style="stop-color:#979696"/>
				<stop  offset="1" style="stop-color:#838080"/>
			</linearGradient>
			<path fill-rule="evenodd" clip-rule="evenodd" fill="url(#SVGID_4_)" d="M37.3,67.68v-9.2c0.93-6.03,3.63-11.32,8.1-15.85
				c5.7-5.63,12.53-8.45,20.5-8.45c8,0,14.82,2.82,20.45,8.45c4.43,4.43,7.13,9.58,8.1,15.45l-0.1,7.27c0-0.29-0.02-0.56-0.05-0.82
				c0-0.07,0-0.15,0-0.25c-0.23-1.6-0.58-3.12-1.05-4.55c-0.13-0.37-0.25-0.72-0.35-1.05c-0.1-0.33-0.22-0.65-0.35-0.95
				c-0.17-0.4-0.33-0.8-0.5-1.2c-1.43-3-3.42-5.77-5.95-8.3c-4.77-4.8-10.35-7.55-16.75-8.25l-1.2-0.1c-0.73-0.07-1.48-0.1-2.25-0.1
				c-0.23,0-0.45,0-0.65,0c-7.67,0.2-14.2,3.02-19.6,8.45c-2.07,2.07-3.73,4.28-5,6.65c-0.27,0.23-0.8,1.55-1.6,3.95
				c-0.83,2.27-1.38,4.83-1.65,7.7c-0.07,0.07-0.07,0.15,0,0.25C37.34,67.05,37.31,67.35,37.3,67.68z"/>
			<radialGradient id="SVGID_5_" cx="65.5498" cy="68.7837" r="35.3375" gradientUnits="userSpaceOnUse">
				<stop  offset="0" style="stop-color:#B9B9BB"/>
				<stop  offset="0.6941" style="stop-color:#AFAFAF"/>
				<stop  offset="0.7608" style="stop-color:#CBC4C4"/>
				<stop  offset="0.8275" style="stop-color:#C0BFBF"/>
				<stop  offset="1" style="stop-color:#B1B1B2"/>
			</radialGradient>
			<path fill-rule="evenodd" clip-rule="evenodd" fill="url(#SVGID_5_)" d="M94.35,65.36v0.13c0.07,0.17,0.1,0.37,0.1,0.6v0.1
				c0,0.1,0.03,0.27,0.1,0.5c0,0.37,0,0.75,0,1.15c0,0.1,0,0.22,0,0.35c0,0.03,0,0.92,0,2.65c0,0.93,0,1.77,0,2.5h-0.1
				c-1.13,5.87-3.92,10.98-8.35,15.35c-5.57,5.63-12.3,8.45-20.2,8.45c-7.93,0-14.68-2.82-20.25-8.45c-4.23-4.27-6.87-9.27-7.9-15
				c-0.13-0.57-0.23-1.17-0.3-1.8c-0.03-0.53-0.05-1.05-0.05-1.55c-0.07-0.3-0.1-0.57-0.1-0.8v-1.85c0.01-0.34,0.04-0.64,0.1-0.9
				c-0.07-0.1-0.07-0.18,0-0.25c0.27-2.87,0.82-5.43,1.65-7.7c0.8-2.4,1.33-3.72,1.6-3.95c1.27-2.37,2.93-4.58,5-6.65
				c5.4-5.43,11.93-8.25,19.6-8.45c0.2,0,0.42,0,0.65,0c0.77,0,1.52,0.03,2.25,0.1l1.2,0.1c6.4,0.7,11.98,3.45,16.75,8.25
				c2.53,2.53,4.52,5.3,5.95,8.3c0.17,0.4,0.33,0.8,0.5,1.2c0.13,0.3,0.25,0.62,0.35,0.95c0.1,0.33,0.22,0.68,0.35,1.05
				c0.47,1.43,0.82,2.95,1.05,4.55c0,0.1,0,0.18,0,0.25C94.33,64.8,94.35,65.07,94.35,65.36z"/>
		</g>
		<g>
			<path fill-rule="evenodd" clip-rule="evenodd" fill-opacity="0.1216" d="M55.75,35.93c0.33-0.13,0.68-0.25,1.05-0.35v5.7
				c-0.37,0.03-0.72,0.15-1.05,0.35V35.93z M49.55,39.18c0.33-0.23,0.68-0.45,1.05-0.65v5.65c-0.37,0.23-0.72,0.5-1.05,0.8V39.18z
				 M61.95,34.48c0.23-0.07,0.5-0.1,0.8-0.1H63v5.6c-0.37,0-0.72,0.03-1.05,0.1V34.48z M43.35,44.98c0.33-0.4,0.67-0.8,1-1.2v5.85
				c-0.33,0.4-0.67,0.8-1,1.2V44.98z M68.15,34.28c0.37,0,0.72,0.03,1.05,0.1v5.6l-1.05-0.1V34.28z M74.35,35.38
				c0.37,0.13,0.72,0.25,1.05,0.35v5.6c-0.33-0.17-0.68-0.27-1.05-0.3V35.38z M80.55,38.18c0.37,0.17,0.72,0.37,1.05,0.6v5.75
				c-0.33-0.27-0.68-0.5-1.05-0.7V38.18z M37.3,58.48c0.23-1.3,0.52-2.58,0.85-3.85v7.15c-0.33,1.5-0.58,3.08-0.75,4.75
				c-0.07,0.07-0.07,0.15,0,0.25c-0.06,0.26-0.09,0.56-0.1,0.9V58.48z M93.95,62.38v-6.7c0.23,0.8,0.4,1.6,0.5,2.4l-0.1,7.27
				c0-0.29-0.02-0.56-0.05-0.82c0-0.07,0-0.15,0-0.25C94.17,63.58,94.05,62.95,93.95,62.38z M86.8,43.08c0.33,0.33,0.67,0.7,1,1.1
				v5.95c-0.33-0.4-0.67-0.8-1-1.2V43.08z"/>
			<path fill-rule="evenodd" clip-rule="evenodd" fill="#FFFFFF" fill-opacity="0.4" d="M58.85,34.98c0.33-0.07,0.68-0.13,1.05-0.2
				v5.6c-0.37,0.07-0.72,0.17-1.05,0.3V34.98z M46.45,41.68c0.33-0.33,0.67-0.65,1-0.95v5.9c-0.33,0.27-0.67,0.55-1,0.85V41.68z
				 M52.65,42.98v-5.7c0.33-0.17,0.68-0.33,1.05-0.5v5.7C53.33,42.65,52.98,42.82,52.65,42.98z M65.9,34.18c0.07,0,0.13,0,0.2,0v5.6
				c-0.07,0-0.13,0-0.2,0c-0.23,0-0.45,0-0.65,0c-0.07,0-0.13,0-0.2,0v-5.6C65.35,34.18,65.63,34.18,65.9,34.18z M71.25,34.73
				c0.37,0.03,0.72,0.08,1.05,0.15v5.6c-0.33-0.1-0.68-0.18-1.05-0.25V34.73z M83.7,46.08v-5.75c0.33,0.23,0.67,0.52,1,0.85v5.75
				C84.37,46.6,84.03,46.32,83.7,46.08z M78.5,37.03v5.6c-0.33-0.17-0.68-0.33-1.05-0.5v-5.6C77.82,36.7,78.17,36.87,78.5,37.03z
				 M89.9,46.88c0.33,0.5,0.67,1.05,1,1.65v5.9c-0.33-0.57-0.67-1.1-1-1.6V46.88z M41.25,53.83c-0.23,0.37-0.43,0.72-0.6,1.05
				c-0.1,0.07-0.23,0.33-0.4,0.8v-6.05c0.33-0.63,0.67-1.23,1-1.8V53.83z"/>
		</g>
		<g>
			<g>
				
					<radialGradient id="SVGID_6_" cx="65.3999" cy="41.8833" r="16.7375" gradientTransform="matrix(1 0 0 0.3114 0 28.8397)" gradientUnits="userSpaceOnUse">
					<stop  offset="0" style="stop-color:#FFFFFF"/>
					<stop  offset="0.098" style="stop-color:#FFFFFF"/>
					<stop  offset="0.2824" style="stop-color:#FFFFFF;stop-opacity:0.498"/>
					<stop  offset="0.502" style="stop-color:#FFFFFF;stop-opacity:0.0941"/>
					<stop  offset="0.7137" style="stop-color:#FFFFFF;stop-opacity:0.0667"/>
					<stop  offset="0.8627" style="stop-color:#FFFFFF;stop-opacity:0.0275"/>
					<stop  offset="1" style="stop-color:#FFFFFF;stop-opacity:0"/>
				</radialGradient>
				<path fill-rule="evenodd" clip-rule="evenodd" fill="url(#SVGID_6_)" d="M65.4,46.88c-4.47,0-8.32-0.5-11.55-1.5
					c-3.17-0.97-4.75-2.13-4.75-3.5c0-1.43,1.58-2.65,4.75-3.65c3.23-0.97,7.08-1.45,11.55-1.45c4.5,0,8.35,0.48,11.55,1.45
					c3.23,1,4.85,2.22,4.85,3.65c0,1.37-1.62,2.53-4.85,3.5C73.75,46.38,69.9,46.88,65.4,46.88z"/>
			</g>
			<g>
				
					<radialGradient id="SVGID_7_" cx="65.2749" cy="30.1333" r="16.7142" gradientTransform="matrix(1 0 0 0.3114 0 20.749)" gradientUnits="userSpaceOnUse">
					<stop  offset="0" style="stop-color:#FFFFFF"/>
					<stop  offset="0.098" style="stop-color:#FFFFFF"/>
					<stop  offset="0.2824" style="stop-color:#FFFFFF;stop-opacity:0.498"/>
					<stop  offset="0.502" style="stop-color:#FFFFFF;stop-opacity:0.0902"/>
					<stop  offset="0.7137" style="stop-color:#FFFFFF;stop-opacity:0.0667"/>
					<stop  offset="0.8627" style="stop-color:#FFFFFF;stop-opacity:0.0275"/>
					<stop  offset="1" style="stop-color:#FFFFFF;stop-opacity:0"/>
				</radialGradient>
				<path fill-rule="evenodd" clip-rule="evenodd" fill="url(#SVGID_7_)" d="M65.25,35.13c-4.5,0-8.35-0.48-11.55-1.45
					c-3.17-0.97-4.75-2.15-4.75-3.55c0-1.43,1.58-2.63,4.75-3.6c3.2-0.97,7.05-1.45,11.55-1.45c4.47,0,8.32,0.48,11.55,1.45
					c3.2,0.97,4.8,2.17,4.8,3.6c0,1.4-1.6,2.58-4.8,3.55C73.57,34.65,69.72,35.13,65.25,35.13z"/>
			</g>
		</g>
	</g>
	<g>
		<linearGradient id="SVGID_8_" gradientUnits="userSpaceOnUse" x1="35.25" y1="42.1333" x2="96.5996" y2="42.1333">
			<stop  offset="0" style="stop-color:#9C9999"/>
			<stop  offset="0.4392" style="stop-color:#FFFFFF"/>
			<stop  offset="1" style="stop-color:#A6A6A6"/>
		</linearGradient>
		<path fill-rule="evenodd" clip-rule="evenodd" fill="url(#SVGID_8_)" d="M96.5,58.68c-0.43-6.73-2.93-12.65-7.5-17.75
			c-0.43-0.53-0.92-1.05-1.45-1.55c-5.97-6-13.18-9-21.65-9c-8.43,0-15.67,3-21.7,9c-5.4,5.47-8.37,11.9-8.9,19.3
			c-0.03-0.8-0.05-1.6-0.05-2.4c0-8.47,2.98-15.72,8.95-21.75c6.03-5.97,13.27-8.95,21.7-8.95c8.47,0,15.68,2.98,21.65,8.95
			c0.53,0.53,1.02,1.05,1.45,1.55c5.07,5.7,7.6,12.43,7.6,20.2C96.6,57.08,96.57,57.88,96.5,58.68z"/>
		<path fill-rule="evenodd" clip-rule="evenodd" fill="#ABACAF" d="M35.3,58.68c0.53-7.4,3.5-13.83,8.9-19.3c6.03-6,13.27-9,21.7-9
			c8.47,0,15.68,3,21.65,9c0.53,0.5,1.02,1.02,1.45,1.55c4.57,5.1,7.07,11.02,7.5,17.75c0.07,0.8,0.1,1.6,0.1,2.4
			c0,7.77-2.53,14.47-7.6,20.1c-0.43,0.5-0.92,1.02-1.45,1.55c-5.97,6.03-13.18,9.05-21.65,9.05c-8.43,0-15.67-3.02-21.7-9.05
			c-5.97-5.97-8.95-13.18-8.95-21.65C35.25,60.28,35.27,59.48,35.3,58.68z"/>
	</g>
	<g>
		<linearGradient id="SVGID_9_" gradientUnits="userSpaceOnUse" x1="37.2998" y1="50.9336" x2="94.4502" y2="50.9336">
			<stop  offset="0" style="stop-color:#8C8C8C"/>
			<stop  offset="0.2824" style="stop-color:#A9A8A8"/>
			<stop  offset="0.502" style="stop-color:#D2D0D0"/>
			<stop  offset="0.7098" style="stop-color:#AFAFAF"/>
			<stop  offset="0.8902" style="stop-color:#979696"/>
			<stop  offset="1" style="stop-color:#838080"/>
		</linearGradient>
		<path fill-rule="evenodd" clip-rule="evenodd" fill="url(#SVGID_9_)" d="M37.3,67.68v-9.2c0.93-6.03,3.63-11.32,8.1-15.85
			c5.7-5.63,12.53-8.45,20.5-8.45c8,0,14.82,2.82,20.45,8.45c4.43,4.43,7.13,9.58,8.1,15.45l-0.1,7.27c0-0.29-0.02-0.56-0.05-0.82
			c0-0.07,0-0.15,0-0.25c-0.23-1.6-0.58-3.12-1.05-4.55c-0.13-0.37-0.25-0.72-0.35-1.05c-0.1-0.33-0.22-0.65-0.35-0.95
			c-0.17-0.4-0.33-0.8-0.5-1.2c-1.43-3-3.42-5.77-5.95-8.3c-4.77-4.8-10.35-7.55-16.75-8.25l-1.2-0.1c-0.73-0.07-1.48-0.1-2.25-0.1
			c-0.23,0-0.45,0-0.65,0c-7.67,0.2-14.2,3.02-19.6,8.45c-2.07,2.07-3.73,4.28-5,6.65c-0.27,0.23-0.8,1.55-1.6,3.95
			c-0.83,2.27-1.38,4.83-1.65,7.7c-0.07,0.07-0.07,0.15,0,0.25C37.34,67.05,37.31,67.35,37.3,67.68z"/>
		<radialGradient id="SVGID_10_" cx="65.5498" cy="68.7837" r="35.3375" gradientUnits="userSpaceOnUse">
			<stop  offset="0" style="stop-color:#B9B9BB"/>
			<stop  offset="0.6941" style="stop-color:#AFAFAF"/>
			<stop  offset="0.7608" style="stop-color:#CBC4C4"/>
			<stop  offset="0.8275" style="stop-color:#C0BFBF"/>
			<stop  offset="1" style="stop-color:#B1B1B2"/>
		</radialGradient>
		<path fill-rule="evenodd" clip-rule="evenodd" fill="url(#SVGID_10_)" d="M94.35,65.36v0.13c0.07,0.17,0.1,0.37,0.1,0.6v0.1
			c0,0.1,0.03,0.27,0.1,0.5c0,0.37,0,0.75,0,1.15c0,0.1,0,0.22,0,0.35c0,0.03,0,0.92,0,2.65c0,0.93,0,1.77,0,2.5h-0.1
			c-1.13,5.87-3.92,10.98-8.35,15.35c-5.57,5.63-12.3,8.45-20.2,8.45c-7.93,0-14.68-2.82-20.25-8.45c-4.23-4.27-6.87-9.27-7.9-15
			c-0.13-0.57-0.23-1.17-0.3-1.8c-0.03-0.53-0.05-1.05-0.05-1.55c-0.07-0.3-0.1-0.57-0.1-0.8v-1.85c0.01-0.34,0.04-0.64,0.1-0.9
			c-0.07-0.1-0.07-0.18,0-0.25c0.27-2.87,0.82-5.43,1.65-7.7c0.8-2.4,1.33-3.72,1.6-3.95c1.27-2.37,2.93-4.58,5-6.65
			c5.4-5.43,11.93-8.25,19.6-8.45c0.2,0,0.42,0,0.65,0c0.77,0,1.52,0.03,2.25,0.1l1.2,0.1c6.4,0.7,11.98,3.45,16.75,8.25
			c2.53,2.53,4.52,5.3,5.95,8.3c0.17,0.4,0.33,0.8,0.5,1.2c0.13,0.3,0.25,0.62,0.35,0.95c0.1,0.33,0.22,0.68,0.35,1.05
			c0.47,1.43,0.82,2.95,1.05,4.55c0,0.1,0,0.18,0,0.25C94.33,64.8,94.35,65.07,94.35,65.36z"/>
	</g>
	<g>
		<path fill-rule="evenodd" clip-rule="evenodd" fill-opacity="0.1255" d="M59,34.98c0.37-0.07,0.72-0.13,1.05-0.2v5.6
			c-0.33,0.07-0.68,0.13-1.05,0.2V34.98z M46.6,41.53c0.37-0.3,0.72-0.58,1.05-0.85v5.75c-0.33,0.3-0.68,0.62-1.05,0.95V41.53z
			 M52.8,42.88v-5.6c0.37-0.23,0.72-0.4,1.05-0.5v5.6C53.52,42.55,53.17,42.72,52.8,42.88z M65.25,34.18c0.2,0,0.42,0,0.65,0
			c0.13,0,0.25,0,0.35,0v5.6c-0.1,0-0.22,0-0.35,0c-0.23,0-0.45,0-0.65,0V34.18z M71.45,34.73c0.33,0.03,0.67,0.08,1,0.15v5.6
			c-0.33-0.07-0.67-0.12-1-0.15V34.73z M77.65,42.23v-5.6c0.33,0.17,0.68,0.33,1.05,0.5v5.6C78.33,42.57,77.98,42.4,77.65,42.23z
			 M90.05,47.13c0.33,0.5,0.68,1.05,1.05,1.65v5.95c-0.37-0.6-0.72-1.15-1.05-1.65V47.13z M84.9,47.13
			c-0.37-0.33-0.72-0.65-1.05-0.95v-5.8c0.33,0.3,0.68,0.6,1.05,0.9V47.13z M40.4,55.33v-6.05c0.33-0.57,0.68-1.13,1.05-1.7v6
			c-0.3,0.4-0.57,0.83-0.8,1.3C40.62,54.95,40.53,55.1,40.4,55.33z"/>
		<path fill-rule="evenodd" clip-rule="evenodd" fill="#FFFFFF" fill-opacity="0.4" d="M62.15,34.48c0.33-0.07,0.67-0.1,1-0.1v5.6
			c-0.33,0-0.67,0.03-1,0.1V34.48z M55.9,35.93c0.37-0.17,0.72-0.28,1.05-0.35v5.6c-0.33,0.1-0.68,0.22-1.05,0.35V35.93z
			 M49.7,39.13c0.37-0.23,0.72-0.47,1.05-0.7v5.7c-0.33,0.2-0.68,0.42-1.05,0.65V39.13z M43.5,44.78c0.37-0.43,0.72-0.83,1.05-1.2
			v5.85c-0.33,0.37-0.68,0.78-1.05,1.25V44.78z M68.35,34.28c0.33,0,0.67,0.03,1,0.1v5.6l-1-0.1V34.28z M74.55,35.48
			c0.33,0.07,0.67,0.18,1,0.35v5.6c-0.33-0.17-0.67-0.28-1-0.35V35.48z M80.75,38.23c0.33,0.2,0.68,0.43,1.05,0.7v5.7
			c-0.37-0.3-0.72-0.53-1.05-0.7V38.23z M38.35,54.13v6.95c-0.47,1.67-0.78,3.48-0.95,5.45c-0.07,0.07-0.07,0.15,0,0.25
			c-0.06,0.26-0.09,0.56-0.1,0.9v-9.2C37.53,57.02,37.88,55.57,38.35,54.13z M94.2,56.78v7c-0.23-1.43-0.55-2.78-0.95-4.05
			c0-0.07-0.03-0.17-0.1-0.3v-6.25C93.55,54.32,93.9,55.52,94.2,56.78z M86.95,43.23c0.33,0.4,0.68,0.8,1.05,1.2v5.9
			c-0.37-0.4-0.72-0.78-1.05-1.15V43.23z"/>
	</g>
	<g>
		
			<radialGradient id="SVGID_11_" cx="65.3999" cy="41.8833" r="16.7375" gradientTransform="matrix(1 0 0 0.3114 0 28.8397)" gradientUnits="userSpaceOnUse">
			<stop  offset="0" style="stop-color:#FFFFFF"/>
			<stop  offset="0.098" style="stop-color:#FFFFFF"/>
			<stop  offset="0.2824" style="stop-color:#FFFFFF;stop-opacity:0.498"/>
			<stop  offset="0.502" style="stop-color:#FFFFFF;stop-opacity:0.1059"/>
			<stop  offset="0.7137" style="stop-color:#FFFFFF;stop-opacity:0.0667"/>
			<stop  offset="0.8627" style="stop-color:#FFFFFF;stop-opacity:0.0275"/>
			<stop  offset="1" style="stop-color:#FFFFFF;stop-opacity:0"/>
		</radialGradient>
		<path fill-rule="evenodd" clip-rule="evenodd" fill="url(#SVGID_11_)" d="M65.4,46.88c-4.47,0-8.32-0.5-11.55-1.5
			c-3.17-0.97-4.75-2.13-4.75-3.5c0-1.43,1.58-2.65,4.75-3.65c3.23-0.97,7.08-1.45,11.55-1.45c4.5,0,8.35,0.48,11.55,1.45
			c3.23,1,4.85,2.22,4.85,3.65c0,1.37-1.62,2.53-4.85,3.5C73.75,46.38,69.9,46.88,65.4,46.88z"/>
	</g>
	<g>
		
			<radialGradient id="SVGID_12_" cx="65.2749" cy="30.1333" r="16.7142" gradientTransform="matrix(1 0 0 0.3114 0 20.749)" gradientUnits="userSpaceOnUse">
			<stop  offset="0" style="stop-color:#FFFFFF"/>
			<stop  offset="0.098" style="stop-color:#FFFFFF"/>
			<stop  offset="0.2824" style="stop-color:#FFFFFF;stop-opacity:0.498"/>
			<stop  offset="0.502" style="stop-color:#FFFFFF;stop-opacity:0.102"/>
			<stop  offset="0.7137" style="stop-color:#FFFFFF;stop-opacity:0.0667"/>
			<stop  offset="0.8627" style="stop-color:#FFFFFF;stop-opacity:0.0275"/>
			<stop  offset="1" style="stop-color:#FFFFFF;stop-opacity:0"/>
		</radialGradient>
		<path fill-rule="evenodd" clip-rule="evenodd" fill="url(#SVGID_12_)" d="M65.25,35.13c-4.5,0-8.35-0.48-11.55-1.45
			c-3.17-0.97-4.75-2.15-4.75-3.55c0-1.43,1.58-2.63,4.75-3.6c3.2-0.97,7.05-1.45,11.55-1.45c4.47,0,8.32,0.48,11.55,1.45
			c3.2,0.97,4.8,2.17,4.8,3.6c0,1.4-1.6,2.58-4.8,3.55C73.57,34.65,69.72,35.13,65.25,35.13z"/>
	</g>
</g>
</svg>
