<?xml version="1.0" encoding="utf-8"?>
<!-- Generator: Adobe Illustrator 16.0.0, SVG Export Plug-In . SVG Version: 6.00 Build 0)  -->
<!DOCTYPE svg PUBLIC "-//W3C//DTD SVG 1.1//EN" "http://www.w3.org/Graphics/SVG/1.1/DTD/svg11.dtd">
<svg version="1.1" xmlns="http://www.w3.org/2000/svg" xmlns:xlink="http://www.w3.org/1999/xlink" x="0px" y="0px"
	 width="138.67px" height="150px" viewBox="0 0 138.67 150" enable-background="new 0 0 138.67 150" xml:space="preserve">
<g id="BG">
</g>
<g id="objects">
	<g>
		<g>
			<path fill-rule="evenodd" clip-rule="evenodd" fill="#20110C" d="M123.22,131.33c0.02,0.04,0.03,0.08,0.05,0.13
				c0.06,0.12,0.07,0.25,0.03,0.38c-0.05,0.13-0.15,0.22-0.28,0.27c-0.12,0.06-0.25,0.07-0.38,0.03c-0.13-0.05-0.22-0.15-0.27-0.28
				c-0.02-0.04-0.03-0.07-0.05-0.1c-0.12-0.27-0.45-0.72-1-1.35c-0.56-0.62-1.09-1.01-1.6-1.18l-0.47-0.15l0.13,0.08
				c-0.27-0.06-0.53-0.1-0.8-0.1h-0.03c-0.46-0.03-0.93,0.01-1.42,0.1c-0.03,0-0.07,0-0.1,0c-4.4-0.04-8.08-0.91-11.05-2.63
				c-0.12-0.07-0.19-0.17-0.22-0.3c-0.04-0.13-0.02-0.26,0.05-0.38c0.07-0.12,0.17-0.19,0.3-0.22c0.13-0.04,0.26-0.02,0.38,0.05
				c2.81,1.61,6.29,2.43,10.45,2.48c0.57-0.1,1.12-0.14,1.65-0.1h0.02c0.29,0,0.58,0.02,0.88,0.08c0.03,0.01,0.07,0.02,0.1,0.03
				l0.55,0.15c0.59,0.17,1.16,0.52,1.72,1.05C122.4,129.88,122.86,130.54,123.22,131.33z"/>
			<linearGradient id="SVGID_1_" gradientUnits="userSpaceOnUse" x1="135.3154" y1="136.3125" x2="135.2932" y2="131.0625">
				<stop  offset="0" style="stop-color:#20110C"/>
				<stop  offset="0.2039" style="stop-color:#C37851"/>
				<stop  offset="0.7137" style="stop-color:#401C10"/>
				<stop  offset="1" style="stop-color:#4B2815"/>
			</linearGradient>
			<path fill-rule="evenodd" clip-rule="evenodd" fill="url(#SVGID_1_)" d="M134.39,131.75c-0.07-0.12-0.08-0.24-0.05-0.38
				c0.03-0.13,0.11-0.23,0.23-0.3c0.12-0.07,0.24-0.09,0.38-0.05c0.13,0.03,0.23,0.11,0.3,0.22c1.27,2.16,1.37,4.27,0.33,6.33
				c-0.07,0.12-0.17,0.21-0.3,0.25c-0.13,0.04-0.25,0.04-0.38-0.03c-0.12-0.07-0.21-0.17-0.25-0.3c-0.04-0.13-0.04-0.25,0.03-0.38
				C135.55,135.38,135.46,133.59,134.39,131.75z"/>
			<linearGradient id="SVGID_2_" gradientUnits="userSpaceOnUse" x1="127.7002" y1="136.3311" x2="127.678" y2="131.081">
				<stop  offset="0" style="stop-color:#20110C"/>
				<stop  offset="0.2039" style="stop-color:#C37851"/>
				<stop  offset="0.7137" style="stop-color:#401C10"/>
				<stop  offset="1" style="stop-color:#4B2815"/>
			</linearGradient>
			<path fill-rule="evenodd" clip-rule="evenodd" fill="url(#SVGID_2_)" d="M122.32,131.75c0.02,0.03,0.03,0.06,0.05,0.1
				c0.06,0.13,0.15,0.22,0.27,0.28c0.13,0.04,0.25,0.04,0.38-0.03c0.13-0.05,0.22-0.15,0.28-0.27c0.04-0.13,0.04-0.25-0.03-0.38
				c-0.02-0.04-0.03-0.08-0.05-0.13c0.03,0.04,0.05,0.08,0.08,0.13c1.15,2.84,1.21,5,0.2,6.47c-0.08,0.12-0.19,0.19-0.33,0.23
				c-0.13,0.03-0.26,0-0.38-0.08c-0.12-0.08-0.19-0.19-0.22-0.33c-0.03-0.13,0-0.26,0.07-0.38c0.79-1.26,0.69-3.1-0.3-5.53
				C122.33,131.81,122.32,131.78,122.32,131.75z M124.99,131.75c-0.07-0.12-0.09-0.24-0.05-0.38c0.03-0.13,0.11-0.23,0.22-0.3
				c0.12-0.07,0.24-0.09,0.38-0.05c0.13,0.03,0.23,0.11,0.3,0.22c1.3,2.16,1.41,4.27,0.33,6.33c-0.07,0.12-0.17,0.21-0.3,0.25
				c-0.13,0.04-0.25,0.04-0.38-0.03c-0.12-0.07-0.21-0.17-0.25-0.3c-0.04-0.13-0.04-0.25,0.02-0.38
				C126.18,135.38,126.09,133.59,124.99,131.75z M128.27,131.08c0.12-0.07,0.24-0.09,0.38-0.05c0.13,0.03,0.23,0.11,0.3,0.22
				c1.27,2.16,1.37,4.27,0.32,6.33c-0.07,0.12-0.17,0.21-0.3,0.25c-0.13,0.04-0.25,0.04-0.38-0.03c-0.12-0.07-0.21-0.17-0.25-0.3
				c-0.04-0.13-0.04-0.25,0.03-0.38c0.88-1.75,0.79-3.54-0.28-5.38c-0.07-0.12-0.08-0.24-0.05-0.38
				C128.08,131.24,128.15,131.14,128.27,131.08z M131.14,131.75c-0.07-0.12-0.08-0.24-0.05-0.38c0.03-0.13,0.11-0.23,0.23-0.3
				c0.12-0.07,0.24-0.09,0.38-0.05c0.13,0.03,0.23,0.11,0.3,0.22c1.3,2.16,1.41,4.27,0.33,6.33c-0.07,0.12-0.17,0.21-0.3,0.25
				c-0.13,0.04-0.25,0.04-0.38-0.03c-0.12-0.07-0.21-0.17-0.25-0.3c-0.04-0.13-0.04-0.25,0.03-0.38
				C132.33,135.38,132.24,133.59,131.14,131.75z"/>
		</g>
		<g>
			
				<path fill-rule="evenodd" clip-rule="evenodd" fill="none" stroke="#000000" stroke-width="4.5" stroke-linecap="round" stroke-linejoin="round" stroke-miterlimit="3" stroke-opacity="0.2745" d="
				M118.97,139.05c-6.4,4.93-17.27,6.78-32.6,5.55c-4.23,0.37-10.23-0.37-18-2.2c-17-4-31.8-10.78-44.4-20.35
				c-12.6-9.6-18.9-20.42-18.9-32.45c0-9.03,14.78-15.9,44.35-20.6c29.53-4.67,40.35-10.98,32.45-18.95
				c-5.23-2.43-6.42-6.43-3.55-12c1.67-8.4,2.23-14.75,1.7-19.05"/>
		</g>
		<g>
			
				<path fill-rule="evenodd" clip-rule="evenodd" fill="none" stroke="#000000" stroke-width="4.5" stroke-linecap="round" stroke-linejoin="round" stroke-miterlimit="3" d="
				M105.27,125.5c-1-0.63-2.43-1.37-4.3-2.2c-3.47-1.6-5.78,1.65-6.95,9.75c-0.17,6.3-8.72,7.47-25.65,3.5
				c-17-4-31.8-10.78-44.4-20.35c-12.6-9.63-18.9-20.45-18.9-32.45c0-9.03,14.78-15.9,44.35-20.6
				c29.53-4.67,40.35-10.98,32.45-18.95c-5.23-2.47-6.42-6.48-3.55-12.05c3.87-19.53,0.7-28.42-9.5-26.65"/>
		</g>
		<g>
			<path fill-rule="evenodd" clip-rule="evenodd" fill="none" d="M15.02,72.3c1.23-0.57,2.6-1.15,4.1-1.75
				c9.7-3.7,24.85-7.12,45.45-10.25"/>
			<path fill-rule="evenodd" clip-rule="evenodd" fill="none" d="M7.42,96.95c-3.17-8.17-3.48-14.33-0.95-18.5
				c0.6-0.97,1.33-1.82,2.2-2.55c0.67-0.57,1.42-1.08,2.25-1.55"/>
			<path fill-rule="evenodd" clip-rule="evenodd" fill="none" d="M68.97,5.2c6.33-1,10.03,2.33,11.1,10"/>
			<line fill-rule="evenodd" clip-rule="evenodd" fill="none" x1="78.92" y1="26" x2="77.47" y2="34.5"/>
			<path fill-rule="evenodd" clip-rule="evenodd" fill="none" d="M79.52,42.7c5.77,2.7,6.45,6.42,2.05,11.15"/>
			<path fill-rule="evenodd" clip-rule="evenodd" fill="none" d="M97.97,124.2c0.13-1.47,2.57-1.08,7.3,1.15"/>
			<path fill-rule="evenodd" clip-rule="evenodd" fill="none" d="M8.87,99c13.73,20.83,36.4,33.72,68,38.65"/>
		</g>
	</g>
</g>
</svg>
