<?xml version="1.0" encoding="utf-8"?>
<!-- Generator: Adobe Illustrator 16.0.0, SVG Export Plug-In . SVG Version: 6.00 Build 0)  -->
<!DOCTYPE svg PUBLIC "-//W3C//DTD SVG 1.1//EN" "http://www.w3.org/Graphics/SVG/1.1/DTD/svg11.dtd">
<svg version="1.1" id="Layer_1" xmlns="http://www.w3.org/2000/svg" xmlns:xlink="http://www.w3.org/1999/xlink" x="0px" y="0px"
	 width="131.5px" height="63px" viewBox="0 0 131.5 63" enable-background="new 0 0 131.5 63" xml:space="preserve">
<g>
	<path fill-rule="evenodd" clip-rule="evenodd" fill="none" d="M55.45,57.2c6.8,2.57,13.82,2.67,21.05,0.3"/>
	<path fill-rule="evenodd" clip-rule="evenodd" fill="none" d="M61.4,53.1c0-0.6,0.28-1.12,0.85-1.55c0.17-0.17,0.37-0.32,0.6-0.45
		c0.97-0.57,2.12-0.85,3.45-0.85c1.33,0,2.48,0.28,3.45,0.85c0.2,0.13,0.4,0.27,0.6,0.4c0.57,0.47,0.85,1,0.85,1.6
		c0,0.2-0.03,0.38-0.1,0.55c-0.2,0.57-0.65,1.05-1.35,1.45c-0.97,0.57-2.12,0.85-3.45,0.85c-1.33,0-2.48-0.28-3.45-0.85
		c-0.7-0.4-1.15-0.88-1.35-1.45C61.43,53.48,61.4,53.3,61.4,53.1z"/>
	<g>
		<path fill-rule="evenodd" clip-rule="evenodd" fill="#9EA277" d="M45.75,46.5H45.7c-1.27-0.2-2.52-0.42-3.75-0.65
			c-5-0.93-9.65-2.18-13.95-3.75c-1.17-0.47-2.28-0.92-3.35-1.35c-2.9-1.27-5.32-2.62-7.25-4.05c-1.67-1.23-2.93-2.53-3.8-3.9
			c-0.4-0.7-0.72-1.38-0.95-2.05c-0.1-0.31-0.18-0.62-0.25-0.92c-0.1-0.53-0.15-1.05-0.15-1.58c-2.33-8.37,8.2-14.9,31.6-19.6
			c14.9-2.97,29.82-2.97,44.75,0c1.2,0.3,2.32,0.58,3.35,0.85c20.27,5.1,29.68,11.9,28.25,20.4c0,0.03,0,0.07,0,0.1
			c-0.23,0.93-0.62,1.87-1.15,2.8c-0.2,0.33-0.43,0.65-0.7,0.95c-2.43,3.1-7.03,5.88-13.8,8.35c-3.53,1.3-7.28,2.38-11.25,3.25
			c-1.53,0.3-3.1,0.6-4.7,0.9c-0.03,0-0.08,0-0.15,0l-7-7.75v-0.15L70.35,23.4c-1.27,0.1-2.62,0.15-4.05,0.15
			c-1.47,0-2.85-0.05-4.15-0.15L45.75,46.5z"/>
		
			<radialGradient id="SVGID_1_" cx="65.3999" cy="25.2998" r="47.6375" gradientTransform="matrix(1 0 0 0.5025 0 12.5868)" gradientUnits="userSpaceOnUse">
			<stop  offset="0" style="stop-color:#9EA278"/>
			<stop  offset="0.6431" style="stop-color:#9EA277"/>
			<stop  offset="0.8039" style="stop-color:#747756"/>
			<stop  offset="1" style="stop-color:#323322"/>
		</radialGradient>
		<path fill-rule="evenodd" clip-rule="evenodd" fill="url(#SVGID_1_)" d="M88.45,46.25c-0.07,0-0.13,0.02-0.2,0.05
			c-2.43,0.37-4.92,0.68-7.45,0.95c-4.57,0.43-9.4,0.65-14.5,0.65c-5.3,0-10.33-0.23-15.1-0.7c-1.6-0.17-3.17-0.35-4.7-0.55
			c-0.23-0.07-0.48-0.12-0.75-0.15l16.4-23.1c1.3,0.1,2.68,0.15,4.15,0.15c1.43,0,2.78-0.05,4.05-0.15l11.1,14.95v0.15L88.45,46.25z
			"/>
		
			<radialGradient id="SVGID_2_" cx="64.25" cy="29.7002" r="75.8" gradientTransform="matrix(1 0 0 0.3849 0 18.2688)" gradientUnits="userSpaceOnUse">
			<stop  offset="7.843138e-003" style="stop-color:#1A1A12"/>
			<stop  offset="0.5569" style="stop-color:#000000"/>
			<stop  offset="0.6784" style="stop-color:#323322"/>
			<stop  offset="0.7686" style="stop-color:#83875A"/>
			<stop  offset="0.8392" style="stop-color:#83875A"/>
			<stop  offset="1" style="stop-color:#14140E"/>
		</radialGradient>
		<path fill-rule="evenodd" clip-rule="evenodd" fill="url(#SVGID_2_)" d="M45.75,46.5c0.27,0.03,0.52,0.08,0.75,0.15
			c1.53,0.2,3.1,0.38,4.7,0.55c4.77,0.47,9.8,0.7,15.1,0.7c5.1,0,9.93-0.22,14.5-0.65c2.53-0.27,5.02-0.58,7.45-0.95
			c0.07-0.03,0.13-0.05,0.2-0.05s0.12,0,0.15,0c1.6-0.3,3.17-0.6,4.7-0.9c3.97-0.87,7.72-1.95,11.25-3.25
			c6.77-2.47,11.37-5.25,13.8-8.35c0.27-0.3,0.5-0.62,0.7-0.95c0.53-0.93,0.92-1.87,1.15-2.8c0-0.03,0-0.07,0-0.1
			c0.12-0.48,0.19-0.97,0.2-1.45v9.2c-0.03,1.9-0.72,3.72-2.05,5.45c-2.43,3.07-7.03,5.83-13.8,8.3c-4.87,1.8-10.18,3.17-15.95,4.1
			c-2.53,0.43-5.13,0.78-7.8,1.05c-4.57,0.47-9.4,0.7-14.5,0.7c-5.3,0-10.33-0.25-15.1-0.75c-1.87-0.2-3.7-0.43-5.5-0.7
			c-6.47-0.97-12.37-2.43-17.7-4.4c-1.17-0.47-2.28-0.9-3.35-1.3c-2.9-1.3-5.32-2.67-7.25-4.1c-3.4-2.57-5.13-5.37-5.2-8.4v-9.3
			c0.02,0.5,0.09,1.01,0.2,1.53c0.07,0.3,0.15,0.61,0.25,0.92c0.23,0.67,0.55,1.35,0.95,2.05c0.87,1.37,2.13,2.67,3.8,3.9
			c1.93,1.43,4.35,2.78,7.25,4.05c1.07,0.43,2.18,0.88,3.35,1.35c4.3,1.57,8.95,2.82,13.95,3.75c1.23,0.23,2.48,0.45,3.75,0.65
			H45.75z"/>
	</g>
	<g>
		
			<radialGradient id="SVGID_3_" cx="66" cy="22.7002" r="40.7375" gradientTransform="matrix(1 0 0 0.3765 0 14.1537)" gradientUnits="userSpaceOnUse">
			<stop  offset="0" style="stop-color:#A0A47A"/>
			<stop  offset="0.6941" style="stop-color:#9EA277"/>
			<stop  offset="0.8941" style="stop-color:#24251F"/>
			<stop  offset="1" style="stop-color:#292B22"/>
		</radialGradient>
		<path fill-rule="evenodd" clip-rule="evenodd" fill="url(#SVGID_3_)" d="M50.9,15.35v3.35c0.03,1.3,1.53,2.42,4.5,3.35
			c1.97,0.67,4.22,1.12,6.75,1.35l-10.9,15.65l-0.1-5.4l0.05-0.05c-4.27-0.73-8.18-1.75-11.75-3.05c-0.8-0.3-1.58-0.6-2.35-0.9
			c-2.03-0.9-3.72-1.85-5.05-2.85c-1.53-1.13-2.58-2.35-3.15-3.65c-0.33-0.77-0.5-1.55-0.5-2.35c0-2.2,1.22-4.2,3.65-6
			c1.33-1.03,3.02-1.98,5.05-2.85c0.4-0.17,0.82-0.33,1.25-0.5c0.37-0.17,0.73-0.33,1.1-0.5c0.13-0.03,0.28-0.08,0.45-0.15
			c7.33-2.57,16.13-3.85,26.4-3.85c10.33,0,19.17,1.3,26.5,3.9c0.1,0.03,0.22,0.07,0.35,0.1c0.47,0.2,0.95,0.4,1.45,0.6
			c3.97,1.57,6.7,3.33,8.2,5.3c0.97,1.23,1.45,2.55,1.45,3.95c0,0.8-0.17,1.58-0.5,2.35c-0.27,0.53-0.58,1.05-0.95,1.55
			c-1.7,2.2-4.92,4.15-9.65,5.85c-3.53,1.3-7.42,2.3-11.65,3h-0.05v4.8L70.35,23.4c2.57-0.23,4.83-0.68,6.8-1.35
			c3.03-0.93,4.57-2.05,4.6-3.35v-3.35c-0.03-1.3-1.57-2.43-4.6-3.4c-3-0.97-6.62-1.45-10.85-1.45c-4.23,0-7.87,0.48-10.9,1.45
			C52.43,12.92,50.93,14.05,50.9,15.35z"/>
	</g>
	<g>
		<path fill-rule="evenodd" clip-rule="evenodd" d="M55.15,22.55c-3.03-0.93-4.55-2.1-4.55-3.5c0-1.33,1.52-2.5,4.55-3.5
			c3.1-0.97,6.8-1.45,11.1-1.45c4.33,0,8.03,0.48,11.1,1.45c3.07,1,4.6,2.17,4.6,3.5c0,1.4-1.53,2.57-4.6,3.5
			C74.28,23.52,70.58,24,66.25,24C61.95,24,58.25,23.52,55.15,22.55z"/>
	</g>
	<g>
		<linearGradient id="SVGID_4_" gradientUnits="userSpaceOnUse" x1="50.8999" y1="19.5" x2="81.75" y2="19.5">
			<stop  offset="0" style="stop-color:#1E1F14"/>
			<stop  offset="0.2392" style="stop-color:#83875A"/>
			<stop  offset="0.4941" style="stop-color:#83875A"/>
			<stop  offset="0.7098" style="stop-color:#B6B99F"/>
			<stop  offset="0.8549" style="stop-color:#83875A"/>
			<stop  offset="0.9882" style="stop-color:#2B2C1D"/>
		</linearGradient>
		<path fill-rule="evenodd" clip-rule="evenodd" fill="url(#SVGID_4_)" d="M81.75,15.45v3.25c-0.03,1.3-1.57,2.42-4.6,3.35
			c-1.97,0.67-4.23,1.12-6.8,1.35c-1.27,0.1-2.62,0.15-4.05,0.15c-1.47,0-2.85-0.05-4.15-0.15c-2.53-0.23-4.78-0.68-6.75-1.35
			c-2.97-0.93-4.47-2.05-4.5-3.35v-3.25c0.03,0.57,0.3,1.1,0.8,1.6c0.07,0.07,0.15,0.12,0.25,0.15c0.77,0.6,1.92,1.15,3.45,1.65
			c3.03,0.97,6.67,1.45,10.9,1.45c0.6,0,1.18,0,1.75,0c3.5-0.13,6.53-0.62,9.1-1.45c1.57-0.5,2.73-1.05,3.5-1.65
			c0.1-0.03,0.18-0.08,0.25-0.15C81.43,16.55,81.72,16.02,81.75,15.45z"/>
		<path fill-rule="evenodd" clip-rule="evenodd" fill="#BDC0A1" d="M50.9,15.45v-0.1c0.03-1.3,1.53-2.43,4.5-3.4
			c3.03-0.97,6.67-1.45,10.9-1.45c4.23,0,7.85,0.48,10.85,1.45c3.03,0.97,4.57,2.1,4.6,3.4v0.1c-0.03,0.57-0.32,1.1-0.85,1.6
			c-0.07,0.07-0.15,0.12-0.25,0.15c-0.77,0.6-1.93,1.15-3.5,1.65c-2.57,0.83-5.6,1.32-9.1,1.45c-0.57,0-1.15,0-1.75,0
			c-4.23,0-7.87-0.48-10.9-1.45c-1.53-0.5-2.68-1.05-3.45-1.65c-0.1-0.03-0.18-0.08-0.25-0.15C51.2,16.55,50.93,16.02,50.9,15.45z"
			/>
	</g>
	<g>
		<path fill-rule="evenodd" clip-rule="evenodd" fill="#666949" d="M61.7,3.05L63.15,7c-0.77,0-1.52,0.03-2.25,0.1
			c-0.23,0-0.45,0-0.65,0c-0.1,0-0.2,0.02-0.3,0.05c-0.57,0-1.12,0.03-1.65,0.1c-0.27,0-0.55,0.02-0.85,0.05l-4.1-3.8
			c0.07,0,0.17,0,0.3,0c0.77-0.1,1.53-0.17,2.3-0.2c0.5-0.03,1.02-0.07,1.55-0.1h0.05c1.3-0.07,2.63-0.12,4-0.15
			C61.58,3.02,61.63,3.02,61.7,3.05z M70.6,3.05L69.2,7c-0.77-0.03-1.53-0.05-2.3-0.05c-0.2,0-0.4,0-0.6,0c-0.03,0-0.08,0-0.15,0V3
			c0.07,0,0.12,0,0.15,0c0.2,0,0.4,0,0.6,0C68.13,3,69.37,3.02,70.6,3.05z M49.2,3.95l5.4,3.65c-0.73,0.07-1.43,0.13-2.1,0.2
			c-0.2,0.03-0.38,0.07-0.55,0.1L45.4,4.45c0.97-0.17,1.97-0.3,3-0.4C48.63,3.98,48.9,3.95,49.2,3.95z M41.65,5.1l7.65,3.25
			c-0.73,0.13-1.47,0.28-2.2,0.45l-8.7-3.05c0.97-0.23,1.98-0.43,3.05-0.6C41.52,5.12,41.58,5.1,41.65,5.1z M43.1,9.85l-10.45-2.6
			c0.1-0.03,0.22-0.07,0.35-0.1c0.8-0.23,1.58-0.45,2.35-0.65l9.6,2.8c-0.6,0.17-1.18,0.33-1.75,0.5C43.17,9.8,43.13,9.82,43.1,9.85
			z M41.35,10.35c-0.5,0.13-0.98,0.28-1.45,0.45c-0.1,0.03-0.18,0.07-0.25,0.1L28,8.9c0.17-0.07,0.33-0.13,0.5-0.2
			c0.57-0.23,1.13-0.45,1.7-0.65L41.35,10.35z M36.75,12.15l-12.8-1.5c0.63-0.33,1.3-0.62,2-0.85l12.2,1.7
			c-0.37,0.17-0.72,0.32-1.05,0.45C37,12.02,36.88,12.08,36.75,12.15z M34.2,13.4l-13.75-0.95c0.57-0.3,1.15-0.62,1.75-0.95
			l13.25,1.2C34.98,12.9,34.57,13.13,34.2,13.4z M31.3,27.55l-12.9,4.5h-0.05v0.05l-1.45,0.5v-1.65l14.4-4.7V27.55z M28.55,22.2V23
			L13,26.25l-0.3,0.05v-0.7v-0.15l0.3-0.1h0.05L28.55,22.2z M22,34.15l-0.25,0.1L20,35l0.05-1.95c0,0.03,0.02,0.05,0.05,0.05
			l13.5-5.15v1.25L22,34.15z M36.4,31l-9.75,5.15H26.6v0.05l-2.75,1.45l0.05-2.55c0.03,0,0.07,0,0.1,0l12.4-5.8V31z M39.9,30.95
			v2.15l-7.5,5.1l-2.95,2v-2.95L39.9,30.95z M44.95,33.95l-9,8.15v-2.9l0.1-0.05l8.85-6.9h0.05V33.95z M12.2,22.9l16.2-2.3
			c0,0.07,0,0.13,0,0.2c0,0.33,0.03,0.65,0.1,0.95L12.4,24.5c-0.1-0.5-0.17-1.02-0.2-1.55V22.9z M12.75,19.9l16.15-1.4
			c-0.17,0.33-0.28,0.67-0.35,1l-16.2,1.9C12.42,20.9,12.55,20.4,12.75,19.9z M74.8,3.2c0.07,0,0.17,0,0.3,0
			c0.8,0.03,1.58,0.08,2.35,0.15c0.53,0.03,1.07,0.08,1.6,0.15l-4.1,3.8c-0.33-0.03-0.67-0.07-1-0.1c-0.57-0.03-1.1-0.07-1.6-0.1
			c-0.1,0-0.2,0-0.3,0L74.8,3.2z M93.65,5.6L85,8.7c-0.5-0.13-0.98-0.23-1.45-0.3c-0.27-0.07-0.53-0.12-0.8-0.15L90.4,5
			c0.63,0.13,1.28,0.25,1.95,0.35C92.78,5.42,93.22,5.5,93.65,5.6z M86.75,4.4L80.2,7.85c-0.2-0.03-0.38-0.07-0.55-0.1
			c-0.67-0.07-1.33-0.13-2-0.2L83,3.9c1.1,0.13,2.22,0.28,3.35,0.45C86.45,4.35,86.58,4.37,86.75,4.4z M90.7,10.15l11.2-2.3
			c0.6,0.17,1.18,0.37,1.75,0.6c0.23,0.07,0.47,0.15,0.7,0.25l-11.9,2.05c-0.4-0.17-0.8-0.3-1.2-0.4
			C91.08,10.28,90.9,10.22,90.7,10.15z M99.1,13.75l14.65-0.65c0.6,0.37,1.13,0.75,1.6,1.15L100.4,14.6
			c-0.1-0.07-0.18-0.13-0.25-0.2C99.82,14.17,99.47,13.95,99.1,13.75z M98,13.1c-0.03-0.03-0.07-0.05-0.1-0.05
			c-0.4-0.23-0.78-0.43-1.15-0.6l13.7-1.2c0.6,0.3,1.18,0.62,1.75,0.95L98,13.1z M95.5,11.9c-0.5-0.2-1-0.4-1.5-0.6l12.55-1.75
			c0.73,0.27,1.43,0.53,2.1,0.8L95.5,11.9z M96.6,6.3c0.8,0.2,1.58,0.42,2.35,0.65c0.13,0.03,0.27,0.08,0.4,0.15L88.9,9.65
			c-0.23-0.07-0.48-0.13-0.75-0.2c-0.4-0.1-0.78-0.2-1.15-0.3L96.6,6.3z M120.35,21.7l-16.15-1.9c-0.07-0.33-0.17-0.68-0.3-1.05
			L120,20.2C120.17,20.67,120.28,21.17,120.35,21.7z M116.75,15.35c0.37,0.37,0.72,0.75,1.05,1.15l-15.6-0.35
			c-0.1-0.1-0.22-0.22-0.35-0.35c-0.13-0.13-0.28-0.27-0.45-0.4L116.75,15.35z M118.75,17.65c0.3,0.4,0.55,0.82,0.75,1.25
			l-16.05-1.05c-0.03-0.07-0.05-0.12-0.05-0.15c-0.17-0.27-0.33-0.5-0.5-0.7L118.75,17.65z M103.55,23.6l15.6,3.7v1.2l-0.7-0.2
			L103,24.5c0.03-0.17,0.1-0.3,0.2-0.4C103.3,23.93,103.42,23.77,103.55,23.6z M95.95,29.4l12.3,5.85c0.03-0.03,0.07-0.05,0.1-0.05
			v2.55l-2.65-1.4v-0.1c-0.03,0-0.05,0.02-0.05,0.05L94.1,30.2C94.77,29.93,95.38,29.67,95.95,29.4z M98.85,27.95l13.3,5.4
			c0-0.03,0.02-0.05,0.05-0.05l0.05,1.9l-1.6-0.7l-0.45-0.2l-12.9-5.45c0.37-0.2,0.72-0.4,1.05-0.6c0.1-0.07,0.22-0.13,0.35-0.2
			C98.77,28.02,98.82,27.98,98.85,27.95z M102.65,24.9l14.95,4.35l0.05-0.05v1.4l-0.95-0.3v-0.15c-0.03,0.03-0.07,0.08-0.1,0.15
			l-14.9-4.35c0.33-0.33,0.63-0.67,0.9-1C102.6,24.92,102.62,24.9,102.65,24.9z M115.35,31.25l-0.05,0.05l0.05,1.55l-1.5-0.55
			l-0.1-0.05l-13.9-4.9c0.43-0.3,0.83-0.58,1.2-0.85L115.35,31.25z M120.4,23.15c-0.03,0.2-0.05,0.4-0.05,0.6
			c-0.07,0.33-0.13,0.67-0.2,1l-16-2.8c0.07-0.33,0.1-0.7,0.1-1.1L120.4,23.15z M119.75,26v0.55l-0.2-0.05l-15.8-3.3v-0.05
			c0.1-0.23,0.2-0.47,0.3-0.7l15.7,3.3V26z M29.45,17.5l-16.1,1.1c0.3-0.43,0.62-0.85,0.95-1.25L30,16.7
			C29.8,17,29.62,17.27,29.45,17.5z M30.45,16.2l-15.4,0.4c0.37-0.4,0.75-0.78,1.15-1.15h15.05c-0.23,0.17-0.43,0.35-0.6,0.55
			C30.55,16.07,30.48,16.13,30.45,16.2z M33.1,14.05c-0.2,0.1-0.38,0.22-0.55,0.35c-0.17,0.1-0.3,0.22-0.4,0.35l-14.65-0.3
			c0.43-0.37,0.9-0.7,1.4-1L33.1,14.05z M29.1,23.6c0,0.03,0.02,0.07,0.05,0.1v0.65L14.1,28.1h-0.05l-0.5,0.1v-0.85
			c-0.03-0.07-0.05-0.12-0.05-0.15L29.1,23.6z M30.05,25.05c0.03,0.03,0.07,0.07,0.1,0.1v0.7l-14.3,4.2
			c-0.07-0.07-0.12-0.12-0.15-0.15v0.15L15,30.3v-1.15l-0.05-0.05L30.05,25.05z M96.45,41.7L86,32.7c0.1-0.03,0.2-0.07,0.3-0.1
			c0.53-0.13,1.07-0.27,1.6-0.4c0.07-0.03,0.13-0.05,0.2-0.05l8.35,6.9v0.2V41.7z M92.5,30.8l10.2,6.6l0.1,0.05l-0.05,2.5
			c-0.1,0.03-0.2,0.07-0.3,0.1L99.9,38.3l-9.85-6.7c0.77-0.23,1.55-0.48,2.35-0.75C92.43,30.82,92.47,30.8,92.5,30.8z"/>
		<path fill-rule="evenodd" clip-rule="evenodd" fill="#BDC0A1" d="M53.35,3.5l4.1,3.8c-0.4,0.03-0.78,0.07-1.15,0.1
			c-0.43,0.03-0.87,0.08-1.3,0.15c-0.17,0-0.3,0.02-0.4,0.05l-5.4-3.65c0.5-0.07,1-0.13,1.5-0.2C51.57,3.65,52.45,3.57,53.35,3.5z
			 M74.95,7.3l4.1-3.8c0.27,0,0.55,0.02,0.85,0.05c0.9,0.07,1.77,0.17,2.6,0.3c0.17,0,0.33,0.02,0.5,0.05l-5.35,3.65
			c-0.2,0-0.38-0.02-0.55-0.05c-0.53-0.07-1.07-0.12-1.6-0.15C75.3,7.32,75.12,7.3,74.95,7.3z M66.15,6.95
			c-0.87,0-1.75,0.02-2.65,0.05c-0.13,0-0.25,0-0.35,0L61.7,3.05C63.17,3.02,64.65,3,66.15,3V6.95z M70.6,3.05
			c0.07-0.03,0.15-0.03,0.25,0c1.33,0,2.65,0.05,3.95,0.15l-2.75,3.9C71.22,7.07,70.4,7.03,69.6,7c-0.13,0-0.27,0-0.4,0L70.6,3.05z
			 M51.95,7.9c-0.6,0.07-1.2,0.17-1.8,0.3c-0.3,0.03-0.58,0.08-0.85,0.15L41.65,5.1c1.1-0.23,2.22-0.43,3.35-0.6
			c0.13-0.03,0.27-0.05,0.4-0.05L51.95,7.9z M33.6,27.95L20.1,33.1c-0.03,0-0.05-0.02-0.05-0.05c-0.6-0.33-1.15-0.67-1.65-1
			l12.9-4.5l1.15-0.45c0.33,0.27,0.72,0.52,1.15,0.75c0.03,0,0.07,0.02,0.1,0.05L33.6,27.95z M36.75,12.15
			c-0.43,0.17-0.85,0.33-1.25,0.5l-0.05,0.05L22.2,11.5c-0.6,0.33-1.18,0.65-1.75,0.95L34.2,13.4c-0.4,0.2-0.77,0.42-1.1,0.65
			l-14.2-0.6c-0.5,0.3-0.97,0.63-1.4,1l14.65,0.3c-0.03,0-0.07,0.02-0.1,0.05c-0.3,0.2-0.57,0.42-0.8,0.65H16.2
			c-0.4,0.37-0.78,0.75-1.15,1.15l15.4-0.4c-0.17,0.17-0.32,0.33-0.45,0.5l-15.7,0.65c-0.33,0.4-0.65,0.82-0.95,1.25l16.1-1.1
			c-0.03,0.03-0.05,0.07-0.05,0.1c-0.2,0.3-0.37,0.6-0.5,0.9l-16.15,1.4c0.1-0.3,0.23-0.6,0.4-0.9c0-0.03,0.02-0.07,0.05-0.1
			c0.03-0.13,0.08-0.23,0.15-0.3c0.2-0.43,0.45-0.85,0.75-1.25c0.17-0.2,0.35-0.4,0.55-0.6c0.03-0.07,0.08-0.12,0.15-0.15
			c0.33-0.4,0.68-0.78,1.05-1.15s0.78-0.7,1.25-1c0-0.03,0.02-0.05,0.05-0.05c0.07-0.07,0.15-0.13,0.25-0.2
			c0.37-0.27,0.73-0.53,1.1-0.8c0.5-0.33,1.02-0.65,1.55-0.95c0.27-0.13,0.53-0.28,0.8-0.45c0.3-0.17,0.62-0.33,0.95-0.5
			c0.57-0.3,1.15-0.6,1.75-0.9c0.33-0.17,0.68-0.32,1.05-0.45c0-0.03,0.02-0.05,0.05-0.05c0.33-0.1,0.65-0.22,0.95-0.35
			c0.7-0.3,1.42-0.6,2.15-0.9c0.07-0.03,0.15-0.07,0.25-0.1c0.7-0.27,1.38-0.5,2.05-0.7c0.43-0.17,0.87-0.3,1.3-0.4
			c0.43-0.13,0.87-0.27,1.3-0.4l10.45,2.6c-0.63,0.17-1.22,0.33-1.75,0.5L30.2,8.05c-0.57,0.2-1.13,0.42-1.7,0.65
			c-0.17,0.07-0.33,0.13-0.5,0.2l11.65,2c-0.07,0.03-0.13,0.05-0.2,0.05c-0.4,0.17-0.8,0.35-1.2,0.55c-0.03,0-0.07,0-0.1,0
			l-12.2-1.7c-0.7,0.23-1.37,0.52-2,0.85L36.75,12.15z M47.1,8.8c-0.1,0.03-0.18,0.05-0.25,0.05c-0.63,0.13-1.27,0.28-1.9,0.45
			l-9.6-2.8c0.5-0.13,1-0.27,1.5-0.4s1.02-0.25,1.55-0.35L47.1,8.8z M33.6,29.2l1.35-0.55c0.43,0.2,0.92,0.42,1.45,0.65L24,35.1
			c-0.03,0-0.07,0-0.1,0c-0.67-0.33-1.3-0.65-1.9-0.95L33.6,29.2z M39.9,33.1l2.35-1.6c0.87,0.27,1.75,0.52,2.65,0.75l-8.85,6.9
			c-0.03,0-0.07,0-0.1,0c-1.17-0.3-2.33-0.62-3.5-0.95H32.4L39.9,33.1z M39.9,30.95l-10.45,6.3c-0.5-0.2-0.98-0.38-1.45-0.55
			c-0.47-0.2-0.92-0.38-1.35-0.55L36.4,31l1.75-0.95c0.43,0.17,0.87,0.33,1.3,0.5c0.13,0.07,0.28,0.13,0.45,0.2
			c0.07,0,0.15,0.02,0.25,0.05L39.9,30.95z M39.35,40L46,33.9l1.2-1.1c0.9,0.2,1.8,0.38,2.7,0.55c0.43,0.07,0.87,0.15,1.3,0.25
			l-0.05,0.05l-5.6,7.45c-0.83-0.13-1.63-0.25-2.4-0.35C41.88,40.52,40.62,40.27,39.35,40z M28.4,20.6l-16.2,2.3v-0.35
			c0-0.4,0.05-0.78,0.15-1.15l16.2-1.9c-0.03,0.17-0.07,0.35-0.1,0.55C28.42,20.22,28.4,20.4,28.4,20.6z M30.15,25.85l0.55-0.15
			c0.17,0.17,0.37,0.35,0.6,0.55l-14.4,4.7c-0.33-0.27-0.67-0.55-1-0.85l-0.05-0.05L30.15,25.85z M110.45,11.25l-13.7,1.2
			c-0.4-0.17-0.8-0.33-1.2-0.5L95.5,11.9l13.15-1.55c0.23,0.13,0.48,0.25,0.75,0.35C109.77,10.87,110.12,11.05,110.45,11.25z
			 M82.75,8.25c-0.43-0.07-0.83-0.13-1.2-0.2c-0.47-0.1-0.92-0.17-1.35-0.2l6.55-3.45c0.83,0.13,1.67,0.27,2.5,0.4
			C89.62,4.87,90,4.93,90.4,5L82.75,8.25z M85,8.7l8.65-3.1c0.5,0.1,1.02,0.22,1.55,0.35c0.47,0.13,0.93,0.25,1.4,0.35L87,9.15
			c-0.53-0.13-1.07-0.25-1.6-0.35C85.27,8.77,85.13,8.73,85,8.7z M104.35,8.7c0.07,0,0.13,0.02,0.2,0.05c0.67,0.27,1.33,0.53,2,0.8
			L94,11.3c-0.27-0.13-0.55-0.25-0.85-0.35c-0.13-0.03-0.25-0.07-0.35-0.1c-0.13-0.03-0.25-0.07-0.35-0.1L104.35,8.7z M90.7,10.15
			c-0.6-0.17-1.2-0.33-1.8-0.5L99.35,7.1c0.87,0.23,1.72,0.48,2.55,0.75L90.7,10.15z M113.75,13.1L99.1,13.75
			c-0.37-0.23-0.73-0.45-1.1-0.65l14.2-0.9c0.13,0.07,0.25,0.13,0.35,0.2C112.98,12.6,113.38,12.83,113.75,13.1z M115.35,14.25
			c0.07,0.03,0.13,0.08,0.2,0.15c0.43,0.3,0.83,0.62,1.2,0.95L101.4,15.4c-0.33-0.3-0.67-0.57-1-0.8L115.35,14.25z M102.2,16.15
			l15.6,0.35c0.03,0.03,0.07,0.07,0.1,0.1c0.17,0.17,0.32,0.35,0.45,0.55c0.13,0.13,0.27,0.3,0.4,0.5L102.9,17
			c-0.03-0.07-0.07-0.12-0.1-0.15C102.63,16.62,102.43,16.38,102.2,16.15z M103.45,17.85l16.05,1.05c0.03,0.13,0.08,0.27,0.15,0.4
			c0.13,0.27,0.25,0.57,0.35,0.9l-16.1-1.45C103.77,18.45,103.62,18.15,103.45,17.85z M103.55,23.6c0.07-0.13,0.13-0.27,0.2-0.4
			l15.8,3.3c-0.1,0.23-0.23,0.48-0.4,0.75v0.05L103.55,23.6z M101.7,25.95l14.9,4.35c-0.4,0.3-0.82,0.62-1.25,0.95l-14.3-4.75
			c0-0.03,0.03-0.07,0.1-0.1C101.32,26.23,101.5,26.08,101.7,25.95z M102.65,24.9c0.07-0.07,0.12-0.13,0.15-0.2
			c0.07-0.07,0.13-0.13,0.2-0.2l15.45,3.8c-0.03,0.03-0.07,0.07-0.1,0.1c-0.23,0.27-0.47,0.53-0.7,0.8l-0.05,0.05L102.65,24.9z
			 M108.35,35.2c-0.03,0-0.07,0.02-0.1,0.05l-12.3-5.85c0.07-0.03,0.13-0.07,0.2-0.1c0.4-0.17,0.78-0.32,1.15-0.45l12.9,5.45
			C109.63,34.6,109.02,34.9,108.35,35.2z M105.65,36.3c-0.33,0.13-0.7,0.27-1.1,0.4c-0.6,0.23-1.18,0.45-1.75,0.65
			c-0.03,0-0.07,0.02-0.1,0.05l-10.2-6.6c0.23-0.1,0.45-0.18,0.65-0.25c0.3-0.13,0.62-0.25,0.95-0.35L105.65,36.3z M104.2,19.8
			l16.15,1.9c0.03,0.27,0.05,0.55,0.05,0.85v0.6l-16.15-2.3V20.8C104.25,20.47,104.23,20.13,104.2,19.8z M98.85,27.95
			c0.33-0.2,0.67-0.4,1-0.6l13.9,4.9l0.1,0.05c-0.03,0-0.07,0.02-0.1,0.05c-0.5,0.33-1.02,0.65-1.55,0.95
			c-0.03,0-0.05,0.02-0.05,0.05L98.85,27.95z M120.15,24.75c-0.07,0.23-0.13,0.47-0.2,0.7c-0.07,0.17-0.13,0.35-0.2,0.55v-0.25
			l-15.7-3.3c0.03-0.17,0.07-0.33,0.1-0.5L120.15,24.75z M12.7,25.6c-0.03-0.07-0.05-0.12-0.05-0.15c-0.1-0.33-0.18-0.65-0.25-0.95
			l16.1-2.75c0,0.1,0.02,0.22,0.05,0.35c0,0.03,0.02,0.07,0.05,0.1h-0.05l-15.5,3.15H13l-0.3,0.1V25.6z M13,26.25L28.55,23l0.3-0.05
			c0,0.07,0.02,0.13,0.05,0.2c0.03,0.07,0.07,0.13,0.1,0.2c0.03,0.07,0.07,0.15,0.1,0.25l-15.6,3.6c-0.13-0.23-0.27-0.47-0.4-0.7
			c-0.03-0.07-0.07-0.13-0.1-0.2V26.25z M14.1,28.15l-0.05-0.05h0.05l15.05-3.75l0.4-0.1c0.07,0.13,0.17,0.28,0.3,0.45
			c0.03,0.1,0.1,0.22,0.2,0.35l-15.1,4.05c-0.03-0.07-0.07-0.12-0.1-0.15C14.58,28.68,14.33,28.42,14.1,28.15z M88.6,40.9l-7.1-7.35
			c0.77-0.13,1.55-0.27,2.35-0.4c0.4-0.1,0.83-0.2,1.3-0.3l7.65,7.25c-0.8,0.17-1.6,0.33-2.4,0.5C89.8,40.7,89.2,40.8,88.6,40.9z
			 M90.05,31.6l9.85,6.7h-0.05c-0.7,0.17-1.4,0.37-2.1,0.6C97.38,39,97,39.1,96.6,39.2c-0.03,0-0.08,0.02-0.15,0.05v-0.2l-8.35-6.9
			c0.3-0.1,0.6-0.18,0.9-0.25C89.33,31.8,89.68,31.7,90.05,31.6z"/>
		<path fill-rule="evenodd" clip-rule="evenodd" fill="#9FA477" d="M45.55,41.1c0.03,0,0.08,0,0.15,0v5.4
			c-0.57-0.1-1.12-0.18-1.65-0.25c-0.13-0.03-0.27-0.07-0.4-0.1c-0.57-0.1-1.13-0.2-1.7-0.3c-0.9-0.17-1.78-0.33-2.65-0.5
			c-0.1-0.03-0.22-0.05-0.35-0.05c-1.03-0.23-2.03-0.48-3-0.75c-1.17-0.3-2.32-0.62-3.45-0.95c0-0.03-0.02-0.05-0.05-0.05
			c-1.03-0.3-2.03-0.6-3-0.9c-0.5-0.2-0.98-0.38-1.45-0.55c-0.43-0.2-0.88-0.38-1.35-0.55H26.6c-0.67-0.27-1.32-0.53-1.95-0.8
			c-0.27-0.1-0.53-0.2-0.8-0.3c-0.7-0.33-1.4-0.68-2.1-1.05c-0.57-0.3-1.1-0.6-1.6-0.9c-0.07-0.03-0.12-0.07-0.15-0.1
			c-0.57-0.3-1.12-0.63-1.65-1c-0.3-0.23-0.62-0.47-0.95-0.7c-0.17-0.13-0.33-0.25-0.5-0.35V36.3c-0.27-0.17-0.52-0.35-0.75-0.55
			c-0.17-0.13-0.32-0.27-0.45-0.4c-0.23-0.27-0.47-0.52-0.7-0.75c-0.33-0.37-0.62-0.7-0.85-1l-0.05-0.05
			c-0.17-0.27-0.33-0.52-0.5-0.75l-0.05-0.05c-0.03-0.07-0.07-0.13-0.1-0.2c-0.17-0.3-0.32-0.62-0.45-0.95
			c-0.1-0.2-0.18-0.4-0.25-0.6c-0.03-0.03-0.05-0.07-0.05-0.1c-0.17-0.4-0.28-0.8-0.35-1.2c-0.07-0.4-0.12-0.78-0.15-1.15
			c0-0.07,0-0.15,0-0.25v-5.35c0.03,0.53,0.1,1.05,0.2,1.55c0.07,0.3,0.15,0.62,0.25,0.95c0,0.03,0.02,0.08,0.05,0.15v0.7v2.15
			l0.3-0.1V26.3c0.03,0.07,0.07,0.13,0.1,0.2c0.13,0.23,0.27,0.47,0.4,0.7c0,0.03,0.02,0.08,0.05,0.15v0.85v2.35
			c0.03,0.03,0.07,0.08,0.1,0.15c0.13,0.17,0.28,0.35,0.45,0.55v-3.1c0.23,0.27,0.48,0.53,0.75,0.8c0.03,0.03,0.07,0.08,0.1,0.15
			L15,29.15v1.15v1.85c0.23,0.23,0.47,0.48,0.7,0.75v-2.85V29.9c0.03,0.03,0.08,0.08,0.15,0.15l0.05,0.05c0.33,0.3,0.67,0.58,1,0.85
			v1.65v1.25c0.47,0.37,0.95,0.73,1.45,1.1V32.1v-0.05h0.05c0.5,0.33,1.05,0.67,1.65,1L20,35v1c0.53,0.27,1.12,0.58,1.75,0.95v-2.7
			l0.25-0.1c0.6,0.3,1.23,0.62,1.9,0.95l-0.05,2.55V38c0.87,0.37,1.78,0.75,2.75,1.15V36.2v-0.05h0.05
			c0.43,0.17,0.88,0.35,1.35,0.55c0.47,0.17,0.95,0.35,1.45,0.55v2.95v0.05c0.97,0.33,1.97,0.65,3,0.95v-3
			c1.17,0.33,2.33,0.65,3.5,0.95c0.03,0,0.07,0,0.1,0l-0.1,0.05v2.9v0.1c1.1,0.27,2.22,0.53,3.35,0.8v-3c0.03-0.03,0.05-0.03,0.05,0
			c1.27,0.27,2.53,0.52,3.8,0.75C43.92,40.85,44.72,40.97,45.55,41.1z M115.35,32.85l-0.05-1.55l0.05-0.05
			c0.43-0.33,0.85-0.65,1.25-0.95c0.03-0.07,0.07-0.12,0.1-0.15v0.15v2.45c0.33-0.3,0.65-0.58,0.95-0.85v-1.3v-1.4
			c0.23-0.27,0.47-0.53,0.7-0.8c0.03-0.03,0.07-0.07,0.1-0.1v2.55l0.25,0.05c0.13-0.2,0.28-0.38,0.45-0.55V28.5v-1.2v-0.05
			c0.17-0.27,0.3-0.52,0.4-0.75l0.2,0.05V26c0.07-0.2,0.13-0.38,0.2-0.55c0.07-0.23,0.13-0.47,0.2-0.7l0.25,0.05v3.5
			c0,0.1,0,0.2,0,0.3c0,0.03,0,0.08,0,0.15v0.05c-0.07,0.8-0.27,1.62-0.6,2.45c0,0.03-0.02,0.07-0.05,0.1
			c-0.13,0.43-0.33,0.87-0.6,1.3c-0.03,0.03-0.05,0.08-0.05,0.15h-0.05c-0.17,0.3-0.37,0.6-0.6,0.9c-0.03,0-0.07,0.02-0.1,0.05
			c-0.03,0.03-0.05,0.07-0.05,0.1c-0.2,0.23-0.42,0.47-0.65,0.7c-0.3,0.33-0.62,0.67-0.95,1c-0.23,0.2-0.47,0.38-0.7,0.55
			c-0.2,0.13-0.38,0.28-0.55,0.45c-0.03,0-0.07,0.02-0.1,0.05c-0.47,0.37-1,0.75-1.6,1.15c-0.27,0.17-0.53,0.33-0.8,0.5
			c-0.23,0.1-0.47,0.23-0.7,0.4c-0.5,0.27-1.03,0.55-1.6,0.85c-0.7,0.37-1.47,0.73-2.3,1.1c-0.17,0.07-0.35,0.13-0.55,0.2
			c-0.67,0.27-1.37,0.55-2.1,0.85c-0.37,0.17-0.75,0.32-1.15,0.45c-0.63,0.23-1.25,0.47-1.85,0.7c-0.03,0-0.07,0-0.1,0
			c-0.9,0.27-1.82,0.55-2.75,0.85c-0.53,0.17-1.07,0.33-1.6,0.5c-0.33,0.07-0.65,0.15-0.95,0.25c-0.3,0.07-0.58,0.13-0.85,0.2
			c-0.67,0.17-1.37,0.33-2.1,0.5c-0.37,0.1-0.72,0.18-1.05,0.25c-0.17,0.03-0.33,0.07-0.5,0.1c-1.37,0.27-2.77,0.53-4.2,0.8V40.9
			c0.6-0.1,1.2-0.2,1.8-0.3c0.8-0.17,1.6-0.33,2.4-0.5l0.05,0.05v2.6c0.7-0.17,1.43-0.33,2.2-0.5c0.47-0.13,0.93-0.27,1.4-0.4V41.7
			v-2.45c0.07-0.03,0.12-0.05,0.15-0.05c0.4-0.1,0.78-0.2,1.15-0.3c0.7-0.23,1.4-0.43,2.1-0.6v2.55c0.87-0.23,1.73-0.5,2.6-0.8
			c0.1-0.03,0.2-0.07,0.3-0.1l0.05-2.5l-0.1-0.05c0.03-0.03,0.07-0.05,0.1-0.05c0.57-0.2,1.15-0.42,1.75-0.65
			c0.4-0.13,0.77-0.27,1.1-0.4c0-0.03,0.02-0.05,0.05-0.05v0.1v2.45c0.93-0.33,1.82-0.68,2.65-1.05V35.2c0.67-0.3,1.28-0.6,1.85-0.9
			l0.45,0.2v2.1c0.57-0.3,1.1-0.58,1.6-0.85V35.2l-0.05-1.9c0.53-0.3,1.05-0.62,1.55-0.95v2.5c0.57-0.37,1.1-0.73,1.6-1.1V32.85z"/>
		<path fill-rule="evenodd" clip-rule="evenodd" fill="#4F5137" d="M46,33.9L39.35,40c0-0.03-0.02-0.03-0.05,0v3
			c-1.13-0.27-2.25-0.53-3.35-0.8v-0.1l9-8.15l0.15-0.15L46,33.9z M119.15,28.5v1.85c-0.17,0.17-0.32,0.35-0.45,0.55l-0.25-0.05
			V28.3L119.15,28.5z M108.35,37.75c-0.83,0.37-1.72,0.72-2.65,1.05v-2.45L108.35,37.75z M110.65,34.5l1.6,0.7v0.55
			c-0.5,0.27-1.03,0.55-1.6,0.85V34.5z M115.35,32.85v0.9c-0.5,0.37-1.03,0.73-1.6,1.1v-2.5c0.03-0.03,0.07-0.05,0.1-0.05
			L115.35,32.85z M117.65,30.6v1.3c-0.3,0.27-0.62,0.55-0.95,0.85V30.3L117.65,30.6z M120.4,23.15v1.65l-0.25-0.05
			c0.07-0.33,0.13-0.67,0.2-1C120.35,23.55,120.37,23.35,120.4,23.15z M13,26.3v2.05l-0.3,0.1V26.3l0.3-0.05V26.3z M14.1,28.15v3.1
			c-0.17-0.2-0.32-0.38-0.45-0.55c-0.03-0.07-0.07-0.12-0.1-0.15V28.2l0.5-0.1L14.1,28.15z M15.7,30.05v2.85
			c-0.23-0.27-0.47-0.52-0.7-0.75V30.3L15.7,30.05z M23.85,37.65l2.75-1.45v2.95c-0.97-0.4-1.88-0.78-2.75-1.15V37.65z M20,35
			l1.75-0.75v2.7C21.12,36.58,20.53,36.27,20,36V35z M32.4,38.2h0.05v3c-1.03-0.3-2.03-0.62-3-0.95V40.2L32.4,38.2z M16.9,32.6
			l1.45-0.5v2.85c-0.5-0.37-0.98-0.73-1.45-1.1V32.6z M86,32.7l10.45,9v0.15c-0.47,0.13-0.93,0.27-1.4,0.4
			c-0.77,0.17-1.5,0.33-2.2,0.5v-2.6L92.8,40.1l-7.65-7.25C85.42,32.78,85.7,32.73,86,32.7z M99.9,38.3l2.55,1.75
			c-0.87,0.3-1.73,0.57-2.6,0.8V38.3H99.9z"/>
		<path fill-rule="evenodd" clip-rule="evenodd" fill="#898D61" d="M45.55,41.1l5.6-7.45l0.1,5.4l-5.5,7.45H45.7v-5.4
			C45.63,41.1,45.58,41.1,45.55,41.1z M81.5,33.55l7.1,7.35v5.35c-0.03,0-0.08,0-0.15,0l-7-7.75v-4.95H81.5z"/>
	</g>
	<g>
		<path fill-rule="evenodd" clip-rule="evenodd" fill="#D8D9C8" d="M119.15,27.7v-1.15c0.47-0.67,0.9-1.37,1.3-2.1l-0.1,1.55
			C119.98,26.57,119.58,27.13,119.15,27.7z M118.45,27.4v1.15c-0.27,0.27-0.53,0.53-0.8,0.8V28.3C117.92,28,118.18,27.7,118.45,27.4
			z M115.35,30.4c0.47-0.37,0.9-0.73,1.3-1.1v1.05c-0.4,0.37-0.83,0.72-1.3,1.05V30.4z M45.65,41.55c-0.07,0-0.13,0-0.2,0
			c-2.13-0.37-4.15-0.73-6.05-1.1V39.9l6.25,1.05V41.55z M88.55,41.45H88.5V40.7c0.07-0.03,0.13-0.07,0.2-0.1
			c1.4-0.27,2.77-0.55,4.1-0.85v1c-1.27,0.27-2.58,0.53-3.95,0.8C88.75,41.58,88.65,41.55,88.55,41.45z M96.45,38.85
			c1.2-0.3,2.33-0.6,3.4-0.9v1c-1.07,0.33-2.2,0.65-3.4,0.95V38.85z M105.6,35.9v1c-0.9,0.37-1.83,0.73-2.8,1.1v-1.05
			C103.77,36.58,104.7,36.23,105.6,35.9z M110.6,34.55c-0.57,0.33-1.17,0.67-1.8,1c-0.13,0.07-0.28,0.13-0.45,0.2V34.7
			c0.17-0.07,0.32-0.13,0.45-0.2c0.63-0.33,1.23-0.65,1.8-0.95V34.55z M113.75,32.65c-0.5,0.33-1,0.67-1.5,1V32.6
			c0.5-0.33,1-0.67,1.5-1V32.65z M16.9,31.65c-0.43-0.3-0.83-0.62-1.2-0.95l0.05-0.7l1.15,0.75V31.65z M18.35,32.05
			c0.7,0.43,1.23,0.77,1.6,1v0.65c-0.53-0.27-1.03-0.55-1.5-0.85L18.35,32.05z M32.45,38.7v-0.6l3.6,1.05l-0.1,0.5
			c-0.37-0.1-0.72-0.18-1.05-0.25C34.07,39.17,33.25,38.93,32.45,38.7z M23.8,35v0.7c-0.67-0.33-1.33-0.67-2-1v-0.6L23.8,35z
			 M26.6,36.25l2.85,0.95v0.55c-1-0.33-1.95-0.67-2.85-1V36.25z M16.5,30.05c0.13,0.13,0.27,0.25,0.4,0.35v0.1L16.5,30.05z
			 M14.95,29.8c-0.33-0.37-0.63-0.7-0.9-1v-0.6l0.9,0.7V29.8z M13,26l-0.25,0.75c-0.33-0.67-0.58-1.37-0.75-2.1L13,26z M13.15,27
			L13,26.35l0.6,0.85v1.05c-0.2-0.3-0.38-0.62-0.55-0.95C13.08,27.23,13.12,27.13,13.15,27z"/>
	</g>
	<g>
		
			<linearGradient id="SVGID_5_" gradientUnits="userSpaceOnUse" x1="-393.9775" y1="-494.2241" x2="-349.0869" y2="-494.2241" gradientTransform="matrix(-0.9971 0.0765 -0.0765 -0.9971 -385.1323 -421.252)">
			<stop  offset="0" style="stop-color:#585745"/>
			<stop  offset="0.2078" style="stop-color:#585745"/>
			<stop  offset="0.6039" style="stop-color:#BBB9AA"/>
			<stop  offset="0.8353" style="stop-color:#302F25"/>
			<stop  offset="1" style="stop-color:#585745"/>
			<stop  offset="1" style="stop-color:#51503F"/>
		</linearGradient>
		<path fill-rule="evenodd" clip-rule="evenodd" fill="url(#SVGID_5_)" d="M36.75,36.1L44,31.5l0.1-0.05v0.5l-9.35,6.1
			c-0.93,0.43-1.45,1.05-1.55,1.85c0.07,0.53-0.08,1.03-0.45,1.5c-0.2,0.2-0.38,0.42-0.55,0.65L15.9,52.5l-0.2,0.15
			c-0.1,0.03-0.18,0.08-0.25,0.15c-3.1,1.67-5.92,1.7-8.45,0.1c-0.07-0.03-0.13-0.07-0.2-0.1H6.75c-0.3-0.23-0.63-0.5-1-0.8
			C5.52,51.77,5.27,51.52,5,51.25c-0.47-0.53-0.68-1.02-0.65-1.45c0.07,0.3,0.27,0.63,0.6,1c0.33,0.33,0.67,0.67,1,1
			c0.33,0.27,0.67,0.52,1,0.75c2.6,1.57,5.43,1.52,8.5-0.15l15.05-9.85l1.05-0.75c0.37-0.17,0.63-0.38,0.8-0.65
			c0.23-0.33,0.37-0.75,0.4-1.25l0.05-0.05V39.8c0.13-0.8,0.48-1.43,1.05-1.9L36.75,36.1z"/>
		
			<linearGradient id="SVGID_6_" gradientUnits="userSpaceOnUse" x1="-33.6812" y1="-511.915" x2="-25.9696" y2="-511.915" gradientTransform="matrix(-0.3815 0.9244 -0.9244 -0.3815 -456.3962 -130.6088)">
			<stop  offset="0" style="stop-color:#DADEC3"/>
			<stop  offset="0.2235" style="stop-color:#DADEC3"/>
			<stop  offset="0.4863" style="stop-color:#E2E1D8"/>
			<stop  offset="0.8392" style="stop-color:#B8B9A2"/>
			<stop  offset="1" style="stop-color:#ADAC97"/>
			<stop  offset="1" style="stop-color:#51503F"/>
		</linearGradient>
		<path fill-rule="evenodd" clip-rule="evenodd" fill="url(#SVGID_6_)" d="M25.7,32.85l11.05,3.25l-2.9,1.8
			c-0.57,0.47-0.92,1.1-1.05,1.9v0.05l-0.05,0.05c-0.03,0.5-0.17,0.92-0.4,1.25c-0.17,0.27-0.43,0.48-0.8,0.65l-1.05,0.75l-11-4.15
			l0.55-0.3c0.37-0.13,0.68-0.3,0.95-0.5c0.43-0.3,0.67-0.67,0.7-1.1c0.1-0.67,0.32-1.23,0.65-1.7L25.7,32.85z"/>
		
			<linearGradient id="SVGID_7_" gradientUnits="userSpaceOnUse" x1="-362.166" y1="-499.1504" x2="-355.8961" y2="-499.1504" gradientTransform="matrix(-0.9966 0.0818 -0.0818 -0.9966 -386.2205 -420.1716)">
			<stop  offset="0" style="stop-color:#585745"/>
			<stop  offset="0.2078" style="stop-color:#585745"/>
			<stop  offset="0.6039" style="stop-color:#BBB9AA"/>
			<stop  offset="0.8353" style="stop-color:#302F25"/>
			<stop  offset="1" style="stop-color:#585745"/>
			<stop  offset="1" style="stop-color:#51503F"/>
		</linearGradient>
		<path fill-rule="evenodd" clip-rule="evenodd" fill="url(#SVGID_7_)" d="M15.6,48.1c-0.17-0.23-0.43-0.43-0.8-0.6
			c-0.33-0.13-0.68-0.23-1.05-0.3c-0.37-0.03-0.78-0.03-1.25,0c-0.87,0.07-1.57,0.28-2.1,0.65c-0.6,0.4-0.88,0.85-0.85,1.35
			c0,0.07,0,0.12,0,0.15c-0.13-0.17-0.2-0.37-0.2-0.6c-0.07-0.43,0.17-0.83,0.7-1.2c0.03-0.03,0.07-0.08,0.1-0.15
			c0.6-0.37,1.33-0.58,2.2-0.65c0.57-0.03,1.05-0.02,1.45,0.05c0.3,0.07,0.55,0.15,0.75,0.25C15.15,47.35,15.5,47.7,15.6,48.1z"/>
		
			<linearGradient id="SVGID_8_" gradientUnits="userSpaceOnUse" x1="-393.9863" y1="53.8311" x2="-374.0615" y2="53.8311" gradientTransform="matrix(0.3003 -0.9538 0.9538 0.3003 78.8484 -328.508)">
			<stop  offset="0" style="stop-color:#FFFFFF"/>
			<stop  offset="0.2667" style="stop-color:#FFFFFF"/>
			<stop  offset="0.6" style="stop-color:#ADAC97"/>
			<stop  offset="1" style="stop-color:#ADAC97"/>
		</linearGradient>
		<path fill-rule="evenodd" clip-rule="evenodd" fill="url(#SVGID_8_)" d="M4.35,49.8c-0.13-0.5-0.02-0.95,0.35-1.35
			c0.73-1.03,2.32-2.22,4.75-3.55v-0.05L19.5,38.4l11,4.15L15.45,52.4c-3.07,1.67-5.9,1.72-8.5,0.15c-0.33-0.23-0.67-0.48-1-0.75
			c-0.33-0.33-0.67-0.67-1-1C4.62,50.43,4.42,50.1,4.35,49.8z M9.55,49.35c0.2,0.23,0.48,0.43,0.85,0.6c0.6,0.3,1.33,0.42,2.2,0.35
			c0.83-0.07,1.57-0.3,2.2-0.7c0.6-0.4,0.88-0.85,0.85-1.35c-0.03-0.07-0.05-0.12-0.05-0.15c-0.1-0.4-0.45-0.75-1.05-1.05
			c-0.2-0.1-0.45-0.18-0.75-0.25c-0.4-0.07-0.88-0.08-1.45-0.05c-0.87,0.07-1.6,0.28-2.2,0.65c-0.03,0.07-0.07,0.12-0.1,0.15
			c-0.53,0.37-0.77,0.77-0.7,1.2C9.35,48.98,9.42,49.18,9.55,49.35z"/>
		<path fill-rule="evenodd" clip-rule="evenodd" fill="#DADEC3" d="M36.75,36.1L25.7,32.85L33.8,28c2.03,1.4,5.37,2.55,10,3.45
			c0.07,0,0.13,0.02,0.2,0.05L36.75,36.1z"/>
	</g>
	<g>
		
			<linearGradient id="SVGID_9_" gradientUnits="userSpaceOnUse" x1="159.7432" y1="-408.9873" x2="167.1432" y2="-408.9873" gradientTransform="matrix(0.3243 0.9459 -0.9227 0.392 -325.8166 41.9919)">
			<stop  offset="0" style="stop-color:#DADEC3"/>
			<stop  offset="0.2235" style="stop-color:#DADEC3"/>
			<stop  offset="0.4863" style="stop-color:#E2E1D8"/>
			<stop  offset="0.8392" style="stop-color:#B8B9A2"/>
			<stop  offset="1" style="stop-color:#ADAC97"/>
			<stop  offset="1" style="stop-color:#51503F"/>
		</linearGradient>
		<path fill-rule="evenodd" clip-rule="evenodd" fill="url(#SVGID_9_)" d="M113.2,37.4l-11.35,4.3l-1.05-0.65
			c-0.33-0.17-0.58-0.37-0.75-0.6c-0.2-0.37-0.3-0.8-0.3-1.3v-0.1c-0.07-0.77-0.37-1.38-0.9-1.85l-2.75-1.65l11.35-3.65l3.2,1.9
			c0.3,0.43,0.48,0.98,0.55,1.65c-0.03,0.4,0.17,0.75,0.6,1.05c0.27,0.2,0.57,0.38,0.9,0.55L113.2,37.4z"/>
		
			<linearGradient id="SVGID_10_" gradientUnits="userSpaceOnUse" x1="127.8281" y1="27.4209" x2="172.7071" y2="27.4209" gradientTransform="matrix(0.9988 0.049 -0.1655 0.9931 -36.3038 7.5354)">
			<stop  offset="0" style="stop-color:#585745"/>
			<stop  offset="0.2078" style="stop-color:#585745"/>
			<stop  offset="0.6039" style="stop-color:#BBB9AA"/>
			<stop  offset="0.8353" style="stop-color:#302F25"/>
			<stop  offset="1" style="stop-color:#585745"/>
			<stop  offset="1" style="stop-color:#51503F"/>
		</linearGradient>
		<path fill-rule="evenodd" clip-rule="evenodd" fill="url(#SVGID_10_)" d="M101.85,41.7l14.05,9.15h0.05l0.3,0.2
			c3,1.67,5.83,1.63,8.5-0.1c0.37-0.2,0.73-0.45,1.1-0.75c0.37-0.27,0.72-0.58,1.05-0.95c0.37-0.4,0.62-0.77,0.75-1.1
			c0,0.47-0.27,0.97-0.8,1.5c-0.23,0.3-0.5,0.53-0.8,0.7L126,50.4c-0.33,0.3-0.7,0.58-1.1,0.85c-0.07,0.03-0.13,0.08-0.2,0.15
			c-2.67,1.7-5.5,1.75-8.5,0.15c-0.07-0.07-0.12-0.1-0.15-0.1l-0.05-0.1l-0.3-0.15l-15.45-9.9c-0.2-0.23-0.38-0.42-0.55-0.55
			c-0.33-0.5-0.47-1.02-0.4-1.55c-0.03-0.77-0.48-1.38-1.35-1.85l-9-5.75v-0.4L89,31.1l0.1,0.1l7,4.35l2.75,1.65
			c0.53,0.47,0.83,1.08,0.9,1.85v0.1c0,0.5,0.1,0.93,0.3,1.3c0.17,0.23,0.42,0.43,0.75,0.6L101.85,41.7z"/>
		
			<linearGradient id="SVGID_11_" gradientUnits="userSpaceOnUse" x1="-546.9761" y1="10.7959" x2="-527.7062" y2="10.7959" gradientTransform="matrix(-0.2361 -0.9717 0.9524 -0.3156 -20.4381 -466.0818)">
			<stop  offset="0" style="stop-color:#FFFFFF"/>
			<stop  offset="0.2667" style="stop-color:#FFFFFF"/>
			<stop  offset="0.6" style="stop-color:#ADAC97"/>
			<stop  offset="1" style="stop-color:#ADAC97"/>
		</linearGradient>
		<path fill-rule="evenodd" clip-rule="evenodd" fill="url(#SVGID_11_)" d="M127.65,48.15c-0.13,0.33-0.38,0.7-0.75,1.1
			c-0.33,0.37-0.68,0.68-1.05,0.95c-0.37,0.3-0.73,0.55-1.1,0.75c-2.67,1.73-5.5,1.77-8.5,0.1l-0.3-0.2h-0.05l-14.05-9.15l11.35-4.3
			l9.6,6h0.05c2.37,1.33,3.87,2.48,4.5,3.45C127.68,47.28,127.78,47.72,127.65,48.15z M116.45,46.8c-0.03,0.07-0.05,0.13-0.05,0.2
			c-0.1,0.5,0.15,0.92,0.75,1.25c0.53,0.4,1.23,0.62,2.1,0.65c0.87,0.07,1.63-0.07,2.3-0.4c0.37-0.17,0.65-0.38,0.85-0.65
			c0.13-0.13,0.22-0.32,0.25-0.55c0.07-0.47-0.12-0.87-0.55-1.2c-0.07-0.03-0.13-0.07-0.2-0.1c-0.5-0.33-1.2-0.53-2.1-0.6
			c-0.53,0-1.03,0.03-1.5,0.1c-0.27,0.03-0.53,0.12-0.8,0.25C116.9,46.05,116.55,46.4,116.45,46.8z"/>
		<path fill-rule="evenodd" clip-rule="evenodd" fill="#DADEC3" d="M107.45,31.9L96.1,35.55l-7-4.35c0.07-0.03,0.13-0.05,0.2-0.05
			c4.77-1.03,8.23-2.32,10.4-3.85L107.45,31.9z"/>
		
			<linearGradient id="SVGID_12_" gradientUnits="userSpaceOnUse" x1="155.8887" y1="30.3984" x2="162.1471" y2="30.3984" gradientTransform="matrix(0.9987 0.0519 -0.1568 0.9932 -34.4358 8.0981)">
			<stop  offset="0" style="stop-color:#585745"/>
			<stop  offset="0.2078" style="stop-color:#585745"/>
			<stop  offset="0.6039" style="stop-color:#BBB9AA"/>
			<stop  offset="0.8353" style="stop-color:#302F25"/>
			<stop  offset="1" style="stop-color:#585745"/>
			<stop  offset="1" style="stop-color:#51503F"/>
		</linearGradient>
		<path fill-rule="evenodd" clip-rule="evenodd" fill="url(#SVGID_12_)" d="M116.45,46.8c0.1-0.4,0.45-0.75,1.05-1.05
			c0.27-0.13,0.53-0.22,0.8-0.25c0.47-0.07,0.97-0.1,1.5-0.1c0.9,0.07,1.6,0.27,2.1,0.6c0.07,0.03,0.13,0.07,0.2,0.1
			c0.43,0.33,0.62,0.73,0.55,1.2c-0.03,0.23-0.12,0.42-0.25,0.55c0-0.03,0-0.07,0-0.1c0.1-0.5-0.12-0.95-0.65-1.35
			c-0.6-0.4-1.33-0.62-2.2-0.65c-0.4,0-0.78,0.03-1.15,0.1c-0.43,0.03-0.8,0.15-1.1,0.35C116.93,46.37,116.65,46.57,116.45,46.8z"/>
	</g>
	<g>
		
			<linearGradient id="SVGID_13_" gradientUnits="userSpaceOnUse" x1="-399.8984" y1="60.0039" x2="-385.2714" y2="60.0039" gradientTransform="matrix(0.1179 -0.993 0.9909 0.1355 53.282 -371.6706)">
			<stop  offset="0" style="stop-color:#FFFFFF"/>
			<stop  offset="1" style="stop-color:#6D6D6D"/>
		</linearGradient>
		<path fill-rule="evenodd" clip-rule="evenodd" fill="url(#SVGID_13_)" d="M73.15,32.35c-4.93,1.2-9.88,1.2-14.85,0l2.15-12.9
			c3.47,0.4,7.03,0.42,10.7,0.05L73.15,32.35z"/>
		
			<radialGradient id="SVGID_14_" cx="65.7998" cy="30.2998" r="34.9125" gradientTransform="matrix(1 0 0 0.3863 0 18.5943)" gradientUnits="userSpaceOnUse">
			<stop  offset="0" style="stop-color:#8E8E8E"/>
			<stop  offset="0.3686" style="stop-color:#BBBBBB"/>
			<stop  offset="0.5529" style="stop-color:#F9F9F9"/>
			<stop  offset="0.8" style="stop-color:#ACACAC"/>
			<stop  offset="1" style="stop-color:#959595"/>
		</radialGradient>
		<path fill-rule="evenodd" clip-rule="evenodd" fill="url(#SVGID_14_)" d="M75,45.75H57.2c0.2-1.5,0.25-2.92,0.15-4.25
			c-0.03-0.5-0.08-0.97-0.15-1.4l-0.05-0.45l1.15-7.3c4.97,1.2,9.92,1.2,14.85,0l1.1,7.05v0.3c0,0.7,0.02,1.33,0.05,1.9
			c0.07,1.03,0.18,1.9,0.35,2.6C74.72,44.5,74.83,45.02,75,45.75z"/>
		<linearGradient id="SVGID_15_" gradientUnits="userSpaceOnUse" x1="66.248" y1="45.4355" x2="66.4032" y2="61.5605">
			<stop  offset="0" style="stop-color:#959595"/>
			<stop  offset="0.1176" style="stop-color:#D9D9D9"/>
			<stop  offset="1" style="stop-color:#535353"/>
		</linearGradient>
		<path fill-rule="evenodd" clip-rule="evenodd" fill="url(#SVGID_15_)" d="M57.2,45.75H75c0.37,1.53,0.95,3.98,1.75,7.35l0.85,2.35
			c0.03,0.13,0.05,0.27,0.05,0.4v0.23c-0.01,0.29-0.19,0.58-0.55,0.88c-0.53,0.43-1.43,0.85-2.7,1.25c-0.6,0.17-1.22,0.33-1.85,0.5
			c-1.8,0.33-3.88,0.5-6.25,0.5c-3.13,0-5.82-0.33-8.05-1c-1.87-0.57-2.93-1.23-3.2-2v-0.25l0.3-1.7c0.1-0.43,0.53-2.27,1.3-5.5
			C56.88,47.72,57.07,46.72,57.2,45.75z M61.5,53.65c0.2,0.57,0.65,1.05,1.35,1.45c0.97,0.57,2.12,0.85,3.45,0.85
			c1.33,0,2.48-0.28,3.45-0.85c0.7-0.4,1.15-0.88,1.35-1.45c0.07-0.17,0.1-0.35,0.1-0.55c0-0.6-0.28-1.13-0.85-1.6
			c-0.2-0.13-0.4-0.27-0.6-0.4c-0.97-0.57-2.12-0.85-3.45-0.85c-1.33,0-2.48,0.28-3.45,0.85c-0.23,0.13-0.43,0.28-0.6,0.45
			c-0.57,0.43-0.85,0.95-0.85,1.55C61.4,53.3,61.43,53.48,61.5,53.65z"/>
		<linearGradient id="SVGID_16_" gradientUnits="userSpaceOnUse" x1="55.0498" y1="58.5127" x2="77.6748" y2="58.5127">
			<stop  offset="0" style="stop-color:#585745"/>
			<stop  offset="0.2118" style="stop-color:#0A0907"/>
			<stop  offset="0.3451" style="stop-color:#36352A"/>
			<stop  offset="0.4471" style="stop-color:#585745"/>
			<stop  offset="0.6039" style="stop-color:#BBB9AA"/>
			<stop  offset="0.8353" style="stop-color:#302F25"/>
			<stop  offset="1" style="stop-color:#585745"/>
			<stop  offset="1" style="stop-color:#51503F"/>
		</linearGradient>
		<path fill-rule="evenodd" clip-rule="evenodd" fill="url(#SVGID_16_)" d="M55.05,56.2c0.27,0.77,1.33,1.43,3.2,2
			c2.23,0.67,4.92,1,8.05,1c2.37,0,4.45-0.17,6.25-0.5c0.63-0.17,1.25-0.33,1.85-0.5c1.27-0.4,2.17-0.82,2.7-1.25
			c0.36-0.3,0.54-0.59,0.55-0.88v1.58c-0.03,0.87-1.12,1.63-3.25,2.3c-0.6,0.17-1.22,0.32-1.85,0.45c-1.8,0.37-3.88,0.55-6.25,0.55
			c-3.13,0-5.82-0.33-8.05-1c-2-0.57-3.07-1.27-3.2-2.1V56.2z"/>
		<linearGradient id="SVGID_17_" gradientUnits="userSpaceOnUse" x1="61.3999" y1="51.9502" x2="71.2002" y2="51.9502">
			<stop  offset="0" style="stop-color:#585745"/>
			<stop  offset="0.2118" style="stop-color:#0A0907"/>
			<stop  offset="0.3451" style="stop-color:#36352A"/>
			<stop  offset="0.4471" style="stop-color:#585745"/>
			<stop  offset="0.6039" style="stop-color:#BBB9AA"/>
			<stop  offset="0.8353" style="stop-color:#302F25"/>
			<stop  offset="1" style="stop-color:#585745"/>
			<stop  offset="1" style="stop-color:#51503F"/>
		</linearGradient>
		<path fill-rule="evenodd" clip-rule="evenodd" fill="url(#SVGID_17_)" d="M71.1,53.65c-0.2-0.53-0.65-1-1.35-1.4
			c-0.97-0.57-2.12-0.85-3.45-0.85c-1.33,0-2.48,0.28-3.45,0.85c-0.7,0.4-1.15,0.87-1.35,1.4c-0.07-0.17-0.1-0.35-0.1-0.55
			c0-0.6,0.28-1.12,0.85-1.55c0.17-0.17,0.37-0.32,0.6-0.45c0.97-0.57,2.12-0.85,3.45-0.85c1.33,0,2.48,0.28,3.45,0.85
			c0.2,0.13,0.4,0.27,0.6,0.4c0.57,0.47,0.85,1,0.85,1.6C71.2,53.3,71.17,53.48,71.1,53.65z"/>
	</g>
</g>
</svg>
