<?xml version="1.0" encoding="utf-8"?>
<!-- Generator: Adobe Illustrator 16.0.0, SVG Export Plug-In . SVG Version: 6.00 Build 0)  -->
<!DOCTYPE svg PUBLIC "-//W3C//DTD SVG 1.1//EN" "http://www.w3.org/Graphics/SVG/1.1/DTD/svg11.dtd">
<svg version="1.1" id="Layer_1" xmlns="http://www.w3.org/2000/svg" xmlns:xlink="http://www.w3.org/1999/xlink" x="0px" y="0px"
	 width="164.63px" height="169.5px" viewBox="0 0 164.63 169.5" enable-background="new 0 0 164.63 169.5" xml:space="preserve">
<g>
	<g>
		<linearGradient id="SVGID_1_" gradientUnits="userSpaceOnUse" x1="82.2754" y1="160.5" x2="82.2754" y2="169">
			<stop  offset="0" style="stop-color:#4E4836;stop-opacity:0.6"/>
			<stop  offset="0.4118" style="stop-color:#4E4836;stop-opacity:0.498"/>
			<stop  offset="0.7137" style="stop-color:#4E4837;stop-opacity:0.0863"/>
			<stop  offset="1" style="stop-color:#4F4838;stop-opacity:0"/>
		</linearGradient>
		<polygon fill-rule="evenodd" clip-rule="evenodd" fill="url(#SVGID_1_)" points="8.7,146.45 155.8,146.45 163.35,168.7 1.2,168.7 
					"/>
	</g>
	<g>
		
			<radialGradient id="SVGID_2_" cx="87.5" cy="7.5498" r="58.75" gradientTransform="matrix(1 0 0 0.3268 0 5.0825)" gradientUnits="userSpaceOnUse">
			<stop  offset="0" style="stop-color:#000000;stop-opacity:0.7059"/>
			<stop  offset="0.8941" style="stop-color:#000000;stop-opacity:0.7059"/>
			<stop  offset="1" style="stop-color:#000000;stop-opacity:0"/>
		</radialGradient>
		<path fill-rule="evenodd" clip-rule="evenodd" fill="url(#SVGID_2_)" d="M28.1,8v1.95c-0.03-0.33-0.05-0.67-0.05-1
			C28.05,8.62,28.07,8.3,28.1,8z"/>
		
			<linearGradient id="SVGID_3_" gradientUnits="userSpaceOnUse" x1="-10.2803" y1="-543.0854" x2="-3.1506" y2="-543.0854" gradientTransform="matrix(0.0912 0.9958 -1.0042 4.129460e-006 -462.6508 160.3901)">
			<stop  offset="0" style="stop-color:#000000;stop-opacity:0.7059"/>
			<stop  offset="0.6235" style="stop-color:#000000;stop-opacity:0.7059"/>
			<stop  offset="1" style="stop-color:#000000;stop-opacity:0"/>
		</linearGradient>
		<polygon fill-rule="evenodd" clip-rule="evenodd" fill="url(#SVGID_3_)" points="6.6,158.85 8.1,140.5 156.85,140.5 
			158.35,158.85 13.8,158.85 		"/>
	</g>
	<g>
		<g>
			<linearGradient id="SVGID_4_" gradientUnits="userSpaceOnUse" x1="82.4248" y1="0.6875" x2="82.4248" y2="28.3125">
				<stop  offset="0" style="stop-color:#6B7783"/>
				<stop  offset="0.5333" style="stop-color:#4E555F"/>
				<stop  offset="1" style="stop-color:#4E555F"/>
				<stop  offset="1" style="stop-color:#1A1A1A"/>
				<stop  offset="1" style="stop-color:#FFFFFF"/>
				<stop  offset="1" style="stop-color:#070A0A"/>
			</linearGradient>
			<path fill-rule="evenodd" clip-rule="evenodd" fill="url(#SVGID_4_)" d="M148.05,21.85H16.8l2.25-18.2
				c0.37-1.27,1.18-1.8,2.45-1.6h121.2c2,0.13,3.18,1.12,3.55,2.95L148.05,21.85z"/>
			<linearGradient id="SVGID_5_" gradientUnits="userSpaceOnUse" x1="82.5088" y1="107.9521" x2="77.3976" y2="18.3028">
				<stop  offset="0" style="stop-color:#20282D"/>
				<stop  offset="1" style="stop-color:#59626B"/>
				<stop  offset="1" style="stop-color:#393939"/>
				<stop  offset="1" style="stop-color:#1A1A1A"/>
			</linearGradient>
			<polygon fill-rule="evenodd" clip-rule="evenodd" fill="url(#SVGID_5_)" points="148.05,21.85 154.45,103.85 10.1,103.85 
				16.8,21.85 			"/>
			<linearGradient id="SVGID_6_" gradientUnits="userSpaceOnUse" x1="82.4248" y1="104.0498" x2="82.4248" y2="152.9498">
				<stop  offset="0" style="stop-color:#404851"/>
				<stop  offset="0.3804" style="stop-color:#404851"/>
				<stop  offset="0.4118" style="stop-color:#758390"/>
				<stop  offset="0.4549" style="stop-color:#25292F"/>
				<stop  offset="1" style="stop-color:#22252B"/>
			</linearGradient>
			<path fill-rule="evenodd" clip-rule="evenodd" fill="url(#SVGID_6_)" d="M10.1,103.85h144.35l2.65,20.7v12.7
				c-0.03,0-0.07,0-0.1,0l0.1,0.35v15.5l-0.1-0.05c-0.03,0.03-0.07,0.08-0.1,0.15l-0.05-0.05H7.8V125.3H7.75L10.1,103.85z"/>
		</g>
		<path fill-rule="evenodd" clip-rule="evenodd" fill="#515B66" d="M139.2,136.5c0.27,0.47,0.4,1,0.4,1.6
			c0,0.73-0.22,1.35-0.65,1.85s-1.08,0.82-1.95,0.95c0.43,0.23,0.78,0.5,1.05,0.8c0.3,0.33,0.68,0.88,1.15,1.65l1.25,1.95H138
			l-1.45-2.2c-0.53-0.77-0.88-1.25-1.05-1.45c-0.2-0.2-0.4-0.33-0.6-0.4c-0.23-0.1-0.58-0.15-1.05-0.15h-0.4v4.2h-2v-10h4.25
			c1.07,0,1.83,0.08,2.3,0.25C138.5,135.72,138.9,136.03,139.2,136.5z M137.25,137.4c-0.17-0.2-0.42-0.33-0.75-0.4
			c-0.17-0.03-0.65-0.05-1.45-0.05h-1.6v2.55h1.5c0.97,0,1.57-0.03,1.8-0.1c0.27-0.1,0.47-0.25,0.6-0.45c0.13-0.2,0.2-0.45,0.2-0.75
			C137.55,137.87,137.45,137.6,137.25,137.4z M102.15,135.3v10h-1.85v-7.9l-2,7.9h-1.95l-2-7.9v7.9H92.5v-10h3l1.85,6.8l1.8-6.8
			H102.15z M111.6,136.95h-5.4v2.25h5v1.7h-5v2.7h5.6v1.7h-7.65v-10h7.45V136.95z M112.8,135.3h7.95v1.65h-2.95v8.35h-2.05v-8.35
			h-2.95V135.3z M124.1,139.2h5v1.7h-5v2.7h5.6v1.7h-7.65v-10h7.45v1.65h-5.4V139.2z M73.5,135.3l4.1,6.65v-6.65h1.9v10h-2.05
			l-4.05-6.55v6.55h-1.85v-10H73.5z M59.3,135.3h2.1l-3.55,10H55.7l-3.6-10h2.2l2.5,7.4L59.3,135.3z M63.35,143l-0.8,2.3H60.4
			l3.9-10h2.15l4,10h-2.2L67.4,143H63.35z M64,141.35h2.75l-1.4-3.75L64,141.35z M84.1,142.85c0.5,0.6,1.17,0.9,2,0.9
			c0.8,0,1.45-0.3,1.95-0.9c0.53-0.57,0.8-1.43,0.8-2.6c0-1.13-0.25-1.98-0.75-2.55c-0.5-0.57-1.17-0.85-2-0.85
			c-0.87,0-1.55,0.28-2.05,0.85c-0.5,0.57-0.75,1.43-0.75,2.6C83.3,141.43,83.57,142.28,84.1,142.85z M81.65,137.8
			c0.23-0.53,0.55-1,0.95-1.4c0.4-0.4,0.83-0.7,1.3-0.9c0.63-0.27,1.35-0.4,2.15-0.4c1.47,0,2.65,0.47,3.55,1.4
			c0.9,0.9,1.35,2.17,1.35,3.8c0,1.63-0.45,2.9-1.35,3.8c-0.87,0.9-2.03,1.35-3.5,1.35c-1.5,0-2.68-0.45-3.55-1.35
			c-0.9-0.9-1.35-2.15-1.35-3.75C81.2,139.32,81.35,138.47,81.65,137.8z M33.5,138.05l-2,0.4c-0.13-0.5-0.4-0.9-0.8-1.2
			c-0.4-0.27-0.88-0.4-1.45-0.4c-0.9,0-1.6,0.28-2.1,0.85c-0.53,0.53-0.8,1.35-0.8,2.45c0,1.2,0.27,2.1,0.8,2.7
			c0.53,0.6,1.23,0.9,2.1,0.9c0.4,0,0.82-0.08,1.25-0.25s0.8-0.37,1.1-0.6v-1.3h-2.3v-1.65h4.35v3.95c-0.43,0.43-1.05,0.8-1.85,1.1
			s-1.62,0.45-2.45,0.45c-1.03,0-1.95-0.22-2.75-0.65c-0.77-0.43-1.35-1.05-1.75-1.85c-0.4-0.83-0.6-1.73-0.6-2.7
			c0-1.03,0.23-1.97,0.7-2.8c0.43-0.8,1.07-1.42,1.9-1.85c0.63-0.33,1.43-0.5,2.4-0.5c1.23,0,2.2,0.27,2.9,0.8
			C32.85,136.4,33.3,137.12,33.5,138.05z M40.55,135.3l4,10h-2.2L41.5,143h-4.05l-0.8,2.3H34.5l3.9-10H40.55z M40.85,141.35
			l-1.4-3.75l-1.35,3.75H40.85z M52.75,143.6v1.7h-7.1v-9.95h2.05v8.25H52.75z"/>
		<g>
			
				<radialGradient id="SVGID_7_" cx="20.75" cy="21.75" r="4.8375" gradientTransform="matrix(1 0 0 0.4574 0 11.8023)" gradientUnits="userSpaceOnUse">
				<stop  offset="0" style="stop-color:#FFFFFF;stop-opacity:0.498"/>
				<stop  offset="0.1765" style="stop-color:#FFFFFF;stop-opacity:0.298"/>
				<stop  offset="0.3059" style="stop-color:#FFFFFF;stop-opacity:0.2118"/>
				<stop  offset="0.4902" style="stop-color:#FFFFFF;stop-opacity:0.0863"/>
				<stop  offset="0.651" style="stop-color:#FFFFFF;stop-opacity:0.0824"/>
				<stop  offset="1" style="stop-color:#FFFFFF;stop-opacity:0"/>
			</radialGradient>
			<path fill-rule="evenodd" clip-rule="evenodd" fill="url(#SVGID_7_)" d="M16.8,23.35L17,20.3c0.93-0.5,2.18-0.75,3.75-0.75
				c1.67,0,2.8,0.23,3.4,0.7c0.67,0.33,1,0.83,1,1.5c0,0.57-0.33,1.08-1,1.55c-0.6,0.4-1.73,0.6-3.4,0.6
				C19.18,23.9,17.87,23.72,16.8,23.35z"/>
		</g>
		<g>
			
				<radialGradient id="SVGID_8_" cx="151.5996" cy="124.5498" r="6.0125" gradientTransform="matrix(1 0 0 0.368 0 78.7175)" gradientUnits="userSpaceOnUse">
				<stop  offset="0" style="stop-color:#FFFFFF"/>
				<stop  offset="0.1765" style="stop-color:#FFFFFF"/>
				<stop  offset="0.3059" style="stop-color:#FFFFFF;stop-opacity:0.4235"/>
				<stop  offset="0.4902" style="stop-color:#FFFFFF;stop-opacity:0.2314"/>
				<stop  offset="0.651" style="stop-color:#FFFFFF;stop-opacity:0.0824"/>
				<stop  offset="1" style="stop-color:#FFFFFF;stop-opacity:0"/>
			</radialGradient>
			<path fill-rule="evenodd" clip-rule="evenodd" fill="url(#SVGID_8_)" d="M156,124.55c0,0.53-0.33,1.03-1,1.5
				c-0.6,0.4-1.73,0.6-3.4,0.6c-1.63,0-3-0.2-4.1-0.6c-1.17-0.4-1.75-0.9-1.75-1.5c0-0.63,0.58-1.15,1.75-1.55
				c1.1-0.43,2.47-0.65,4.1-0.65c1.67,0,2.8,0.22,3.4,0.65C155.67,123.37,156,123.88,156,124.55z"/>
		</g>
		<g>
			
				<radialGradient id="SVGID_9_" cx="12.75" cy="103.5" r="4.8375" gradientTransform="matrix(1 0 0 0.4574 0 56.1628)" gradientUnits="userSpaceOnUse">
				<stop  offset="0" style="stop-color:#FFFFFF;stop-opacity:0.498"/>
				<stop  offset="0.1765" style="stop-color:#FFFFFF;stop-opacity:0.298"/>
				<stop  offset="0.3059" style="stop-color:#FFFFFF;stop-opacity:0.2118"/>
				<stop  offset="0.4902" style="stop-color:#FFFFFF;stop-opacity:0.0863"/>
				<stop  offset="0.651" style="stop-color:#FFFFFF;stop-opacity:0.0824"/>
				<stop  offset="1" style="stop-color:#FFFFFF;stop-opacity:0"/>
			</radialGradient>
			<path fill-rule="evenodd" clip-rule="evenodd" fill="url(#SVGID_9_)" d="M12.75,101.35c1.63,0,2.75,0.2,3.35,0.6
				c0.67,0.4,1,0.92,1,1.55c0,0.53-0.33,1.03-1,1.5c-0.6,0.47-1.72,0.7-3.35,0.7c-1.57,0-2.92-0.2-4.05-0.6l0.25-3
				C9.92,101.6,11.18,101.35,12.75,101.35z"/>
		</g>
		<g>
			
				<radialGradient id="SVGID_10_" cx="80.5498" cy="103.7998" r="72.5" gradientTransform="matrix(1 0 0 0.0267 0 101.0258)" gradientUnits="userSpaceOnUse">
				<stop  offset="0" style="stop-color:#FFFFFF;stop-opacity:0.7059"/>
				<stop  offset="0.1765" style="stop-color:#FFFFFF;stop-opacity:0.6"/>
				<stop  offset="0.3059" style="stop-color:#FFFFFF;stop-opacity:0.298"/>
				<stop  offset="0.4902" style="stop-color:#FFFFFF;stop-opacity:0.2314"/>
				<stop  offset="0.651" style="stop-color:#FFFFFF;stop-opacity:0.0824"/>
				<stop  offset="1" style="stop-color:#FFFFFF;stop-opacity:0"/>
			</radialGradient>
			<path fill-rule="evenodd" clip-rule="evenodd" fill="url(#SVGID_10_)" d="M122.05,105.1c-8.23,0.4-22.07,0.6-41.5,0.6
				s-36.3-0.2-50.6-0.6c-8.23-0.17-13.83-0.38-16.8-0.65v-1.2c2.97-0.27,8.57-0.52,16.8-0.75c14.3-0.4,31.17-0.6,50.6-0.6
				s33.27,0.2,41.5,0.6c7.1,0.3,10.65,0.73,10.65,1.3C132.7,104.3,129.15,104.73,122.05,105.1z"/>
		</g>
		<g>
			
				<radialGradient id="SVGID_11_" cx="81.9004" cy="21.2998" r="62.1875" gradientTransform="matrix(1 0 0 0.0312 0 20.6362)" gradientUnits="userSpaceOnUse">
				<stop  offset="0" style="stop-color:#FFFFFF;stop-opacity:0.7059"/>
				<stop  offset="0.1765" style="stop-color:#FFFFFF;stop-opacity:0.6"/>
				<stop  offset="0.3059" style="stop-color:#FFFFFF;stop-opacity:0.298"/>
				<stop  offset="0.4902" style="stop-color:#FFFFFF;stop-opacity:0.2314"/>
				<stop  offset="0.651" style="stop-color:#FFFFFF;stop-opacity:0.0824"/>
				<stop  offset="1" style="stop-color:#FFFFFF;stop-opacity:0"/>
			</radialGradient>
			<path fill-rule="evenodd" clip-rule="evenodd" fill="url(#SVGID_11_)" d="M24.1,20.7c2.57-0.27,7.38-0.52,14.45-0.75
				c12.23-0.37,26.68-0.55,43.35-0.55c16.7,0,28.55,0.18,35.55,0.55c6.13,0.3,9.2,0.75,9.2,1.35c0,0.5-3.07,0.93-9.2,1.3
				c-7,0.33-18.85,0.5-35.55,0.5c-16.67,0-31.12-0.17-43.35-0.5c-7.07-0.2-11.88-0.43-14.45-0.7V20.7z"/>
		</g>
		<g>
			<radialGradient id="SVGID_12_" cx="129.0996" cy="114.4502" r="10.7875" gradientUnits="userSpaceOnUse">
				<stop  offset="0" style="stop-color:#A60202"/>
				<stop  offset="0.8784" style="stop-color:#7F0101;stop-opacity:0"/>
			</radialGradient>
			<rect x="118.45" y="113.2" fill-rule="evenodd" clip-rule="evenodd" fill="url(#SVGID_12_)" width="21.25" height="2.55"/>
			<g>
				
					<radialGradient id="SVGID_13_" cx="128.7998" cy="117.0498" r="15.05" gradientTransform="matrix(1 0 0 0.4585 0 63.3858)" gradientUnits="userSpaceOnUse">
					<stop  offset="0" style="stop-color:#A60202"/>
					<stop  offset="0.4235" style="stop-color:#A00202;stop-opacity:0.8431"/>
					<stop  offset="1" style="stop-color:#A00202;stop-opacity:0"/>
				</radialGradient>
				<path fill-rule="evenodd" clip-rule="evenodd" fill="url(#SVGID_13_)" d="M118.45,124.05v-0.5v-7.8h21.25v7.8v0.5v0.75
					c-0.07,1.07-1.12,1.98-3.15,2.75c-2.07,0.73-4.55,1.1-7.45,1.1c-2.93,0-5.5-0.37-7.7-1.1c-1.97-0.77-2.95-1.68-2.95-2.75V124.05
					z"/>
			</g>
			<g>
				<path fill-rule="evenodd" clip-rule="evenodd" d="M128.95,120c-3.1,0.03-5.72-0.35-7.85-1.15c-2.17-0.9-3.25-1.93-3.25-3.1
					c0-1.27,1.08-2.37,3.25-3.3c2.13-0.87,4.75-1.3,7.85-1.3c3,0,5.58,0.42,7.75,1.25c2.13,0.8,3.2,1.83,3.2,3.1
					s-1.07,2.32-3.2,3.15C134.53,119.55,131.95,120,128.95,120z"/>
			</g>
			<g>
				<g>
					<path fill-rule="evenodd" clip-rule="evenodd" fill="#FD2D2D" d="M120.05,108.95l-0.25,1.45c-0.03,0.17-0.05,0.3-0.05,0.4
						c0,0.03,0,0.08,0,0.15c0.03,0.67,0.52,1.27,1.45,1.8c0.3,0.17,0.63,0.3,1,0.4c0.1,0,0.17,0.02,0.2,0.05
						c1.83,0.67,4.02,0.98,6.55,0.95c2.43-0.1,4.53-0.47,6.3-1.1l0.1-0.05c0.5-0.2,0.95-0.4,1.35-0.6c0.87-0.53,1.33-1.1,1.4-1.7
						v-0.05c0-0.2-0.03-0.38-0.1-0.55l-0.15-1.35c1.23,0.6,1.85,1.33,1.85,2.2v0.38c-0.01,0.63-0.48,1.23-1.4,1.82
						c-0.43,0.3-1.02,0.58-1.75,0.85c-0.33,0.2-0.73,0.35-1.2,0.45c-1.83,0.6-3.97,0.93-6.4,1c-2.7,0.03-5-0.3-6.9-1
						c-0.27-0.07-0.53-0.12-0.8-0.15c-0.7-0.27-1.25-0.55-1.65-0.85c-0.95-0.56-1.43-1.15-1.45-1.78v-0.22
						C118.15,110.52,118.78,109.68,120.05,108.95z"/>
					<linearGradient id="SVGID_14_" gradientUnits="userSpaceOnUse" x1="118.1504" y1="115.4663" x2="139.7504" y2="115.4663">
						<stop  offset="0" style="stop-color:#650101"/>
						<stop  offset="0.4471" style="stop-color:#D10303"/>
						<stop  offset="1" style="stop-color:#650101"/>
					</linearGradient>
					<path fill-rule="evenodd" clip-rule="evenodd" fill="url(#SVGID_14_)" d="M118.15,111.67c0.01,0.63,0.5,1.22,1.45,1.78
						c0.4,0.3,0.95,0.58,1.65,0.85c0.27,0.03,0.53,0.08,0.8,0.15c1.9,0.7,4.2,1.03,6.9,1c2.43-0.07,4.57-0.4,6.4-1
						c0.47-0.1,0.87-0.25,1.2-0.45c0.73-0.27,1.32-0.55,1.75-0.85c0.92-0.59,1.39-1.2,1.4-1.82v3.88c0,1.17-1.05,2.15-3.15,2.95
						c-2.13,0.87-4.67,1.35-7.6,1.45c-3,0.07-5.57-0.32-7.7-1.15c-2.07-0.73-3.1-1.72-3.1-2.95V111.67z"/>
					<linearGradient id="SVGID_15_" gradientUnits="userSpaceOnUse" x1="127.9316" y1="101.0459" x2="129.3316" y2="92.4459">
						<stop  offset="0" style="stop-color:#7D0202"/>
						<stop  offset="0.6196" style="stop-color:#DD2222"/>
						<stop  offset="1" style="stop-color:#FD2D2D"/>
					</linearGradient>
					<path fill-rule="evenodd" clip-rule="evenodd" fill="url(#SVGID_15_)" d="M136.05,95.25c-0.17,0.57-0.92,1.1-2.25,1.6
						c-0.1,0.07-0.22,0.1-0.35,0.1c-1.23,0.43-2.73,0.68-4.5,0.75c-1.73,0.1-3.23-0.05-4.5-0.45c-0.23-0.07-0.43-0.12-0.6-0.15
						c-1.37-0.5-2.08-1.08-2.15-1.75v-0.1c0-0.03,0.03-0.08,0.1-0.15c0.17-0.67,0.85-1.25,2.05-1.75c1.37-0.5,3.07-0.78,5.1-0.85
						c1.93-0.03,3.55,0.23,4.85,0.8c1.43,0.33,2.18,0.87,2.25,1.6v0.05C136.05,95.05,136.05,95.15,136.05,95.25z"/>
					<linearGradient id="SVGID_16_" gradientUnits="userSpaceOnUse" x1="123.4473" y1="104.4697" x2="114.6951" y2="103.1844">
						<stop  offset="0" style="stop-color:#970101"/>
						<stop  offset="0" style="stop-color:#970101"/>
						<stop  offset="1" style="stop-color:#4B0101"/>
					</linearGradient>
					<path fill-rule="evenodd" clip-rule="evenodd" fill="url(#SVGID_16_)" d="M122.2,113.15c-0.37-0.1-0.7-0.23-1-0.4
						c-0.93-0.53-1.42-1.13-1.45-1.8c0-0.07,0-0.12,0-0.15c0-0.1,0.02-0.23,0.05-0.4l0.25-1.45l1.65-13.6
						c0.07,0.67,0.78,1.25,2.15,1.75c0.17,0.03,0.37,0.08,0.6,0.15L122.2,113.15z"/>
					<linearGradient id="SVGID_17_" gradientUnits="userSpaceOnUse" x1="134.4463" y1="104.2871" x2="145.9716" y2="102.9653">
						<stop  offset="7.843138e-003" style="stop-color:#930101"/>
						<stop  offset="0.4549" style="stop-color:#320101"/>
						<stop  offset="1" style="stop-color:#4B0101"/>
					</linearGradient>
					<path fill-rule="evenodd" clip-rule="evenodd" fill="url(#SVGID_17_)" d="M138.1,110.7c-0.07,0.6-0.53,1.17-1.4,1.7
						c-0.4,0.2-0.85,0.4-1.35,0.6l-0.1,0.05l-1.8-16.1c0.13,0,0.25-0.03,0.35-0.1c1.33-0.5,2.08-1.03,2.25-1.6l1.8,13.5l0.15,1.35
						L138.1,110.7z"/>
					<linearGradient id="SVGID_18_" gradientUnits="userSpaceOnUse" x1="125" y1="105.5513" x2="133.8" y2="105.5513">
						<stop  offset="0" style="stop-color:#970101"/>
						<stop  offset="0.4471" style="stop-color:#BA0101"/>
						<stop  offset="1" style="stop-color:#930101"/>
					</linearGradient>
					<path fill-rule="evenodd" clip-rule="evenodd" fill="url(#SVGID_18_)" d="M133.45,96.95l1.8,16.1c-1.77,0.63-3.87,1-6.3,1.1
						c-2.53,0.03-4.72-0.28-6.55-0.95c-0.03-0.03-0.1-0.05-0.2-0.05l2.25-15.9c1.27,0.4,2.77,0.55,4.5,0.45
						C130.72,97.63,132.22,97.38,133.45,96.95z"/>
					<path fill-rule="evenodd" clip-rule="evenodd" fill="#333333" d="M138,110.1c0.07,0.17,0.1,0.35,0.1,0.55v0.05L138,110.1z"/>
				</g>
			</g>
			<g>
				<linearGradient id="SVGID_19_" gradientUnits="userSpaceOnUse" x1="118.5498" y1="105.2754" x2="139.5498" y2="105.2754">
					<stop  offset="0" style="stop-color:#870101"/>
					<stop  offset="1" style="stop-color:#6B0101"/>
				</linearGradient>
				<path fill-rule="evenodd" clip-rule="evenodd" fill="url(#SVGID_19_)" d="M132.6,99.2c0.4-0.03,0.75-0.1,1.05-0.2
					c0.33-0.1,0.65-0.2,0.95-0.3l2.1,11.95c-0.4,0.2-0.85,0.4-1.35,0.6c-0.07,0-0.15,0.02-0.25,0.05c-0.4,0.17-0.83,0.3-1.3,0.4
					L132.6,99.2z M124.25,99.05c0.4,0.07,0.83,0.17,1.3,0.3l-1.6,12.5c-0.57-0.17-1.08-0.35-1.55-0.55
					c-0.13-0.03-0.23-0.05-0.3-0.05c-0.27-0.1-0.5-0.2-0.7-0.3l2.05-12.2C123.72,98.92,123.98,99.02,124.25,99.05z"/>
				<linearGradient id="SVGID_20_" gradientUnits="userSpaceOnUse" x1="118.5508" y1="105.9248" x2="139.5508" y2="105.9248">
					<stop  offset="0" style="stop-color:#870101"/>
					<stop  offset="0.4549" style="stop-color:#8F0101"/>
					<stop  offset="1" style="stop-color:#6B0101"/>
				</linearGradient>
				<path fill-rule="evenodd" clip-rule="evenodd" fill="url(#SVGID_20_)" d="M128.8,99.55c0.5,0,0.98,0,1.45,0l0.6,12.7
					c-0.7,0.03-1.42,0.05-2.15,0.05c-0.63,0-1.28-0.02-1.95-0.05l1-12.7C128.08,99.55,128.43,99.55,128.8,99.55z"/>
			</g>
			<g>
				<path fill-rule="evenodd" clip-rule="evenodd" fill="#FFFFFF" fill-opacity="0.498" d="M123.95,112.1
					c0.03,0,0.05,0.05,0.05,0.15v0.15c-0.03,0-0.08,0-0.15,0c-0.5-0.1-1-0.25-1.5-0.45c-0.1,0-0.2-0.03-0.3-0.1
					c-0.23-0.1-0.47-0.2-0.7-0.3v-0.1c-0.07,0-0.07-0.05,0-0.15c0-0.03,0.02-0.05,0.05-0.05h0.15c0.17,0.13,0.38,0.23,0.65,0.3
					c0.1,0.03,0.17,0.05,0.2,0.05C122.9,111.83,123.42,112,123.95,112.1z M130.95,112.75l-0.1,0.1c-0.7,0.1-1.42,0.15-2.15,0.15
					c-0.63,0-1.28-0.05-1.95-0.15l-0.1-0.1v-0.15c0.07-0.1,0.12-0.1,0.15,0c0.63,0,1.27,0,1.9,0c0.73,0,1.45-0.05,2.15-0.15
					l0.1,0.15V112.75z M135.25,111.55h0.1c0.47-0.2,0.87-0.4,1.2-0.6c0-0.07,0.05-0.1,0.15-0.1c0.07,0,0.1,0.03,0.1,0.1v0.2
					c-0.4,0.27-0.83,0.5-1.3,0.7c-0.17,0.07-0.27,0.1-0.3,0.1c-0.4,0.2-0.82,0.32-1.25,0.35h-0.15c-0.03,0-0.05-0.02-0.05-0.05
					v-0.15c0-0.07,0.02-0.1,0.05-0.1c0.47-0.1,0.9-0.23,1.3-0.4C135.17,111.6,135.22,111.58,135.25,111.55z"/>
			</g>
			<g>
				<radialGradient id="SVGID_21_" cx="127.0498" cy="106.0498" r="7.8375" gradientUnits="userSpaceOnUse">
					<stop  offset="0" style="stop-color:#FFFFFF;stop-opacity:0.451"/>
					<stop  offset="1" style="stop-color:#FFFFFF;stop-opacity:0"/>
				</radialGradient>
				<path fill-rule="evenodd" clip-rule="evenodd" fill="url(#SVGID_21_)" d="M127.35,99.6c0-0.03,0-0.08,0-0.15
					c0.07,0,0.12,0,0.15,0l0.1,0.1v0.05l-0.95,12.85v0.15h-0.2l-0.1-0.15L127.35,99.6z"/>
				<radialGradient id="SVGID_22_" cx="122.2002" cy="105" r="9.525" gradientUnits="userSpaceOnUse">
					<stop  offset="0" style="stop-color:#FFFFFF;stop-opacity:0.2824"/>
					<stop  offset="1" style="stop-color:#FFFFFF;stop-opacity:0"/>
				</radialGradient>
				<path fill-rule="evenodd" clip-rule="evenodd" fill="url(#SVGID_22_)" d="M122.85,99l0.25-0.25l0.15,0.25l-1.85,11.95
					c0,0.1-0.02,0.15-0.05,0.15c0,0.03-0.03,0.05-0.1,0.05l-0.05-0.05v-0.15L122.85,99z"/>
				<radialGradient id="SVGID_23_" cx="135.7002" cy="104.6001" r="6.0125" gradientUnits="userSpaceOnUse">
					<stop  offset="0" style="stop-color:#FFFFFF;stop-opacity:0.451"/>
					<stop  offset="1" style="stop-color:#FFFFFF;stop-opacity:0"/>
				</radialGradient>
				<path fill-rule="evenodd" clip-rule="evenodd" fill="url(#SVGID_23_)" d="M134.5,98.85c0-0.07,0.03-0.1,0.1-0.1
					c0-0.03,0.05-0.05,0.15-0.05h0.05l0.1,0.05l1.95,11.6c0,0.03,0,0.08,0,0.15h-0.05c-0.07,0-0.15,0-0.25,0v-0.1L134.5,98.85z"/>
			</g>
			<g>
				<path fill-rule="evenodd" clip-rule="evenodd" fill="none" d="M135.95,95.55c-0.3,0.53-1.02,0.97-2.15,1.3
					c-0.1,0.07-0.22,0.1-0.35,0.1c-1.23,0.43-2.73,0.68-4.5,0.75c-1.73,0.1-3.23-0.05-4.5-0.45c-0.23-0.07-0.43-0.12-0.6-0.15
					c-1.17-0.47-1.85-0.98-2.05-1.55"/>
				<path fill-rule="evenodd" clip-rule="evenodd" fill="none" d="M139.4,112.25c-0.27,0.3-0.63,0.6-1.1,0.9
					c-0.43,0.3-1.02,0.58-1.75,0.85c-0.33,0.2-0.73,0.35-1.2,0.45c-1.83,0.6-3.97,0.93-6.4,1c-2.7,0.03-5-0.3-6.9-1
					c-0.27-0.07-0.53-0.12-0.8-0.15c-0.7-0.27-1.25-0.55-1.65-0.85c-0.17-0.03-0.3-0.13-0.4-0.3"/>
				<path fill-rule="evenodd" clip-rule="evenodd" fill="none" d="M137.95,111.25c-0.2,0.3-0.48,0.58-0.85,0.85
					c-0.17,0.13-0.3,0.23-0.4,0.3"/>
			</g>
			<g>
				<path fill-rule="evenodd" clip-rule="evenodd" d="M131.85,95.35c-0.77,0.23-1.7,0.35-2.8,0.35c-1.07,0-1.98-0.12-2.75-0.35
					c-0.83-0.17-1.25-0.45-1.25-0.85c0-0.37,0.42-0.65,1.25-0.85c0.77-0.23,1.68-0.35,2.75-0.35c1.1,0,2.03,0.12,2.8,0.35
					c0.77,0.2,1.15,0.48,1.15,0.85C133,94.9,132.62,95.18,131.85,95.35z"/>
			</g>
			<g>
				
					<radialGradient id="SVGID_24_" cx="128.3496" cy="114.1499" r="6.675" gradientTransform="matrix(1 0 0 0.1105 0 101.5378)" gradientUnits="userSpaceOnUse">
					<stop  offset="0" style="stop-color:#FFFFFF;stop-opacity:0.8"/>
					<stop  offset="0.1765" style="stop-color:#FFFFFF;stop-opacity:0.7059"/>
					<stop  offset="0.3059" style="stop-color:#FFFFFF;stop-opacity:0.4235"/>
					<stop  offset="0.4902" style="stop-color:#FFFFFF;stop-opacity:0.2314"/>
					<stop  offset="0.651" style="stop-color:#FFFFFF;stop-opacity:0.0824"/>
					<stop  offset="1" style="stop-color:#FFFFFF;stop-opacity:0"/>
				</radialGradient>
				<path fill-rule="evenodd" clip-rule="evenodd" fill="url(#SVGID_24_)" d="M133.2,114.15c0,0.13-0.35,0.28-1.05,0.45
					c-0.7,0.13-1.97,0.2-3.8,0.2c-1.77,0-3.32-0.07-4.65-0.2c-0.77-0.1-1.27-0.2-1.5-0.3v-0.45c0.23-0.07,0.73-0.17,1.5-0.3
					c1.33-0.1,2.88-0.15,4.65-0.15c1.83,0,3.1,0.05,3.8,0.15C132.85,113.68,133.2,113.88,133.2,114.15z"/>
			</g>
			<g>
				
					<radialGradient id="SVGID_25_" cx="128.9502" cy="97.5498" r="5.275" gradientTransform="matrix(1 0 0 0.2346 0 74.6649)" gradientUnits="userSpaceOnUse">
					<stop  offset="0" style="stop-color:#FFFFFF;stop-opacity:0.8"/>
					<stop  offset="0.1765" style="stop-color:#FFFFFF;stop-opacity:0.7059"/>
					<stop  offset="0.3059" style="stop-color:#FFFFFF;stop-opacity:0.4235"/>
					<stop  offset="0.4902" style="stop-color:#FFFFFF;stop-opacity:0.2314"/>
					<stop  offset="0.651" style="stop-color:#FFFFFF;stop-opacity:0.0824"/>
					<stop  offset="1" style="stop-color:#FFFFFF;stop-opacity:0"/>
				</radialGradient>
				<path fill-rule="evenodd" clip-rule="evenodd" fill="url(#SVGID_25_)" d="M124,97.95v-0.8c0.2-0.2,0.6-0.35,1.2-0.45
					c1.03-0.23,2.28-0.35,3.75-0.35c1.37,0,2.33,0.12,2.9,0.35c0.57,0.17,0.85,0.45,0.85,0.85c0,0.3-0.28,0.58-0.85,0.85
					c-0.57,0.23-1.53,0.35-2.9,0.35c-1.47,0-2.72-0.12-3.75-0.35C124.6,98.3,124.2,98.15,124,97.95z"/>
			</g>
			<g>
				
					<radialGradient id="SVGID_26_" cx="129.2002" cy="93.3501" r="4.375" gradientTransform="matrix(1 0 0 0.2314 0 71.7462)" gradientUnits="userSpaceOnUse">
					<stop  offset="0" style="stop-color:#FFFFFF;stop-opacity:0.8"/>
					<stop  offset="0.1765" style="stop-color:#FFFFFF;stop-opacity:0.7059"/>
					<stop  offset="0.3059" style="stop-color:#FFFFFF;stop-opacity:0.4235"/>
					<stop  offset="0.4902" style="stop-color:#FFFFFF;stop-opacity:0.2314"/>
					<stop  offset="0.651" style="stop-color:#FFFFFF;stop-opacity:0.0824"/>
					<stop  offset="1" style="stop-color:#FFFFFF;stop-opacity:0"/>
				</radialGradient>
				<path fill-rule="evenodd" clip-rule="evenodd" fill="url(#SVGID_26_)" d="M131.7,92.7c0.4,0.13,0.6,0.35,0.6,0.65
					c0,0.27-0.2,0.5-0.6,0.7c-0.5,0.27-1.33,0.4-2.5,0.4c-1.17,0-2.22-0.13-3.15-0.4c-0.4-0.07-0.7-0.2-0.9-0.4v-0.6
					c0.2-0.1,0.5-0.22,0.9-0.35c0.93-0.17,1.98-0.25,3.15-0.25C130.37,92.45,131.2,92.53,131.7,92.7z"/>
			</g>
		</g>
		<g>
			<g>
				
					<radialGradient id="SVGID_27_" cx="36.5" cy="117.3501" r="21.3125" gradientTransform="matrix(1 0 0 0.3607 0 75.0215)" gradientUnits="userSpaceOnUse">
					<stop  offset="0" style="stop-color:#222222"/>
					<stop  offset="0.5059" style="stop-color:#1A1A1A"/>
					<stop  offset="0.8392" style="stop-color:#121212;stop-opacity:0"/>
				</radialGradient>
				<path fill-rule="evenodd" clip-rule="evenodd" fill="url(#SVGID_27_)" d="M26.15,122.5v-9.3h21.3v9.3c0,0.07,0,0.15,0,0.25
					s-0.03,0.17-0.1,0.2c-6.57,2.1-13.62,2.1-21.15,0c-0.03-0.03-0.05-0.1-0.05-0.2S26.15,122.57,26.15,122.5z"/>
			</g>
			<g>
				<g>
					<g>
						<g>
							<path fill-rule="evenodd" clip-rule="evenodd" d="M28.8,118.85c-2.13-0.9-3.2-1.93-3.2-3.1c0-1.27,1.07-2.37,3.2-3.3
								c2.13-0.87,4.75-1.3,7.85-1.3c3.03,0,5.62,0.42,7.75,1.25c2.2,0.8,3.3,1.83,3.3,3.1s-1.1,2.32-3.3,3.15
								c-2.13,0.9-4.72,1.35-7.75,1.35C33.55,120.03,30.93,119.65,28.8,118.85z"/>
						</g>
					</g>
				</g>
			</g>
			<g>
				<path fill-rule="evenodd" clip-rule="evenodd" fill="none" d="M36.55,99.55c0.53,0,1.02,0,1.45,0l0.55,12.7
					c-0.7,0.03-1.38,0.05-2.05,0.05c-0.7,0-1.37-0.02-2-0.05l0.95-12.7C35.85,99.55,36.22,99.55,36.55,99.55z M31.95,99.05
					c-0.27-0.03-0.53-0.13-0.8-0.3l-1.95,12.2c0.2,0.1,0.42,0.2,0.65,0.3c0.07,0,0.15,0.02,0.25,0.05c0.47,0.2,0.97,0.38,1.5,0.55
					l1.7-12.5C32.83,99.22,32.38,99.12,31.95,99.05z M41.6,111.7c0.47-0.1,0.87-0.23,1.2-0.4c0.17-0.03,0.27-0.05,0.3-0.05
					c0.5-0.2,0.93-0.4,1.3-0.6L42.35,98.7c-0.3,0.1-0.63,0.2-1,0.3c-0.3,0.1-0.63,0.17-1,0.2L41.6,111.7z"/>
			</g>
			<g>
				<g>
					<g>
						<linearGradient id="SVGID_28_" gradientUnits="userSpaceOnUse" x1="35.7236" y1="98.6689" x2="37.6467" y2="91.5501">
							<stop  offset="0" style="stop-color:#1A1A1A"/>
							<stop  offset="1" style="stop-color:#6A6A6A"/>
						</linearGradient>
						<path fill-rule="evenodd" clip-rule="evenodd" fill="url(#SVGID_28_)" d="M43.8,95.25c-0.17,0.57-0.9,1.1-2.2,1.6
							c-0.17,0.07-0.3,0.1-0.4,0.1c-1.27,0.43-2.78,0.68-4.55,0.75c-1.67,0.1-3.13-0.05-4.4-0.45c-0.27-0.07-0.5-0.12-0.7-0.15
							c-1.33-0.5-2.02-1.08-2.05-1.75v-0.1c0-0.03,0.02-0.08,0.05-0.15c0.1-0.67,0.77-1.25,2-1.75c1.37-0.5,3.07-0.78,5.1-0.85
							c1.97-0.03,3.62,0.23,4.95,0.8c1.37,0.33,2.1,0.87,2.2,1.6v0.05C43.8,95.05,43.8,95.15,43.8,95.25z"/>
						<linearGradient id="SVGID_29_" gradientUnits="userSpaceOnUse" x1="31.1494" y1="104.4595" x2="22.3972" y2="103.1742">
							<stop  offset="7.843138e-003" style="stop-color:#171717"/>
							<stop  offset="0.4549" style="stop-color:#212121"/>
							<stop  offset="1" style="stop-color:#000000"/>
						</linearGradient>
						<path fill-rule="evenodd" clip-rule="evenodd" fill="url(#SVGID_29_)" d="M29.95,113.15c-0.37-0.1-0.72-0.23-1.05-0.4
							c-0.87-0.53-1.33-1.13-1.4-1.8c0-0.07,0-0.12,0-0.15c0-0.1,0.03-0.23,0.1-0.4l0.15-1.45l1.75-13.6
							c0.03,0.67,0.72,1.25,2.05,1.75c0.2,0.03,0.43,0.08,0.7,0.15L29.95,113.15z"/>
						<linearGradient id="SVGID_30_" gradientUnits="userSpaceOnUse" x1="32.7002" y1="105.5513" x2="41.5002" y2="105.5513">
							<stop  offset="0" style="stop-color:#151515"/>
							<stop  offset="0.4863" style="stop-color:#333333"/>
							<stop  offset="1" style="stop-color:#151515"/>
						</linearGradient>
						<path fill-rule="evenodd" clip-rule="evenodd" fill="url(#SVGID_30_)" d="M41.2,96.95l1.85,16.1c-1.8,0.63-3.93,1-6.4,1.1
							c-2.5,0.03-4.68-0.28-6.55-0.95c-0.07-0.03-0.12-0.05-0.15-0.05l2.3-15.9c1.27,0.4,2.73,0.55,4.4,0.45
							C38.42,97.63,39.93,97.38,41.2,96.95z"/>
						<path fill-rule="evenodd" clip-rule="evenodd" fill="#333333" d="M43.05,113.05L43.1,113c0.5-0.2,0.93-0.4,1.3-0.6
							c0.93-0.53,1.42-1.1,1.45-1.7l-0.3-1.95c1.27,0.6,1.9,1.33,1.9,2.2v0.38c-0.02,0.63-0.5,1.23-1.45,1.82
							c-0.4,0.3-0.95,0.58-1.65,0.85c-0.37,0.2-0.78,0.35-1.25,0.45c-1.83,0.6-3.98,0.93-6.45,1c-2.63,0.03-4.95-0.3-6.95-1
							c-0.2-0.07-0.42-0.12-0.65-0.15c-0.73-0.27-1.32-0.55-1.75-0.85c-0.92-0.56-1.38-1.15-1.4-1.78v-0.22
							c0-0.93,0.62-1.77,1.85-2.5l-0.15,1.45c-0.07,0.17-0.1,0.3-0.1,0.4c0,0.03,0,0.08,0,0.15c0.07,0.67,0.53,1.27,1.4,1.8
							c0.33,0.17,0.68,0.3,1.05,0.4c0.03,0,0.08,0.02,0.15,0.05c1.87,0.67,4.05,0.98,6.55,0.95
							C39.12,114.05,41.25,113.68,43.05,113.05z"/>
						<linearGradient id="SVGID_31_" gradientUnits="userSpaceOnUse" x1="25.8496" y1="115.4663" x2="47.4496" y2="115.4663">
							<stop  offset="0" style="stop-color:#000000"/>
							<stop  offset="0.4471" style="stop-color:#262626"/>
							<stop  offset="1" style="stop-color:#000000"/>
						</linearGradient>
						<path fill-rule="evenodd" clip-rule="evenodd" fill="url(#SVGID_31_)" d="M25.9,111.67c0.01,0.63,0.48,1.22,1.4,1.78
							c0.43,0.3,1.02,0.58,1.75,0.85c0.23,0.03,0.45,0.08,0.65,0.15c2,0.7,4.32,1.03,6.95,1c2.47-0.07,4.62-0.4,6.45-1
							c0.47-0.1,0.88-0.25,1.25-0.45c0.7-0.27,1.25-0.55,1.65-0.85c0.95-0.59,1.43-1.2,1.45-1.82v3.88c0,1.17-1.03,2.15-3.1,2.95
							c-2.13,0.87-4.7,1.35-7.7,1.45c-2.93,0.07-5.47-0.32-7.6-1.15c-2.1-0.73-3.15-1.72-3.15-2.95V111.67z"/>
						<linearGradient id="SVGID_32_" gradientUnits="userSpaceOnUse" x1="42.1475" y1="104.2959" x2="53.6728" y2="102.9741">
							<stop  offset="7.843138e-003" style="stop-color:#171717"/>
							<stop  offset="0.4549" style="stop-color:#212121"/>
							<stop  offset="1" style="stop-color:#000000"/>
						</linearGradient>
						<path fill-rule="evenodd" clip-rule="evenodd" fill="url(#SVGID_32_)" d="M45.55,108.75l0.3,1.95
							c-0.03,0.6-0.52,1.17-1.45,1.7c-0.37,0.2-0.8,0.4-1.3,0.6l-0.05,0.05l-1.85-16.1c0.1,0,0.23-0.03,0.4-0.1
							c1.3-0.5,2.03-1.03,2.2-1.6L45.55,108.75z"/>
					</g>
				</g>
			</g>
			<g>
				<g>
					<linearGradient id="SVGID_33_" gradientUnits="userSpaceOnUse" x1="28.6748" y1="105.5" x2="44.9248" y2="105.5">
						<stop  offset="0" style="stop-color:#0D0D0D"/>
						<stop  offset="0.4784" style="stop-color:#1A1A1A"/>
						<stop  offset="1" style="stop-color:#090909"/>
					</linearGradient>
					<path fill-rule="evenodd" clip-rule="evenodd" fill="url(#SVGID_33_)" d="M36.55,99.55c0.53,0,1.02,0,1.45,0l0.55,12.7
						c-0.7,0.03-1.38,0.05-2.05,0.05c-0.7,0-1.37-0.02-2-0.05l0.95-12.7C35.85,99.55,36.22,99.55,36.55,99.55z M41.6,111.7
						l-1.25-12.5c0.37-0.03,0.7-0.1,1-0.2c0.37-0.1,0.7-0.2,1-0.3l2.05,11.95c-0.37,0.2-0.8,0.4-1.3,0.6c-0.03,0-0.13,0.02-0.3,0.05
						C42.47,111.47,42.07,111.6,41.6,111.7z M31.95,99.05c0.43,0.07,0.88,0.17,1.35,0.3l-1.7,12.5c-0.53-0.17-1.03-0.35-1.5-0.55
						c-0.1-0.03-0.18-0.05-0.25-0.05c-0.23-0.1-0.45-0.2-0.65-0.3l1.95-12.2C31.42,98.92,31.68,99.02,31.95,99.05z"/>
				</g>
			</g>
			<g>
				<radialGradient id="SVGID_34_" cx="36.5498" cy="112.7002" r="1.6375" gradientUnits="userSpaceOnUse">
					<stop  offset="0" style="stop-color:#FFFFFF;stop-opacity:0.451"/>
					<stop  offset="0.502" style="stop-color:#FFFFFF;stop-opacity:0.1059"/>
					<stop  offset="1" style="stop-color:#FFFFFF;stop-opacity:0"/>
				</radialGradient>
				<path fill-rule="evenodd" clip-rule="evenodd" fill="url(#SVGID_34_)" d="M34.35,112.45c0-0.03,0.08-0.03,0.25,0
					c0.57,0,1.2,0.05,1.9,0.15c0.67-0.1,1.35-0.15,2.05-0.15c0.03-0.03,0.12-0.03,0.25,0c0,0.1,0.02,0.18,0.05,0.25
					c0,0.03-0.02,0.08-0.05,0.15c-0.13,0-0.22,0.05-0.25,0.15c-0.7,0.03-1.38,0.05-2.05,0.05c-0.7,0-1.37-0.02-2-0.05
					c-0.1-0.1-0.17-0.15-0.2-0.15c-0.07-0.07-0.07-0.12,0-0.15C34.3,112.63,34.32,112.55,34.35,112.45z"/>
				<radialGradient id="SVGID_35_" cx="30.25" cy="111.8501" r="1.8125" gradientUnits="userSpaceOnUse">
					<stop  offset="0" style="stop-color:#FFFFFF;stop-opacity:0.451"/>
					<stop  offset="0.502" style="stop-color:#FFFFFF;stop-opacity:0.1059"/>
					<stop  offset="1" style="stop-color:#FFFFFF;stop-opacity:0"/>
				</radialGradient>
				<path fill-rule="evenodd" clip-rule="evenodd" fill="url(#SVGID_35_)" d="M29.1,111.7c-0.03-0.07-0.05-0.12-0.05-0.15
					c-0.1-0.07-0.1-0.15,0-0.25c0-0.03,0.02-0.05,0.05-0.05c0.07-0.07,0.12-0.07,0.15,0c0.2,0.03,0.4,0.13,0.6,0.3
					c0.07,0,0.2,0.02,0.4,0.05c0.4,0.17,0.92,0.3,1.55,0.4l0.05,0.1c0.07,0,0.1,0.07,0.1,0.2c-0.07,0-0.1,0.03-0.1,0.1
					c-0.03,0.03-0.12,0.05-0.25,0.05c-0.6-0.1-1.1-0.22-1.5-0.35L30,112c-0.03-0.03-0.08-0.03-0.15,0l-0.15-0.05
					C29.5,111.78,29.3,111.7,29.1,111.7z"/>
				<radialGradient id="SVGID_36_" cx="43.0498" cy="111.7002" r="1.8875" gradientUnits="userSpaceOnUse">
					<stop  offset="0" style="stop-color:#FFFFFF;stop-opacity:0.451"/>
					<stop  offset="0.502" style="stop-color:#FFFFFF;stop-opacity:0.1059"/>
					<stop  offset="1" style="stop-color:#FFFFFF;stop-opacity:0"/>
				</radialGradient>
				<path fill-rule="evenodd" clip-rule="evenodd" fill="url(#SVGID_36_)" d="M44.7,111.15c-0.03,0.07-0.1,0.1-0.2,0.1
					c-0.37,0.2-0.8,0.43-1.3,0.7L43.1,112c-0.03-0.03-0.1-0.03-0.2,0v0.1c-0.37,0.13-0.78,0.25-1.25,0.35
					c-0.03,0-0.08-0.02-0.15-0.05l-0.15-0.1c-0.03-0.03-0.03-0.1,0-0.2c0.1-0.07,0.18-0.1,0.25-0.1c0.33-0.1,0.72-0.23,1.15-0.4
					c0.2-0.03,0.32-0.05,0.35-0.05c0.47-0.27,0.88-0.5,1.25-0.7c0.03-0.03,0.08-0.03,0.15,0c0.1,0,0.15,0.03,0.15,0.1
					C44.68,111.05,44.7,111.12,44.7,111.15z"/>
			</g>
			<g>
				<radialGradient id="SVGID_37_" cx="34.75" cy="106.0498" r="7.8375" gradientUnits="userSpaceOnUse">
					<stop  offset="0" style="stop-color:#FFFFFF;stop-opacity:0.451"/>
					<stop  offset="1" style="stop-color:#FFFFFF;stop-opacity:0"/>
				</radialGradient>
				<path fill-rule="evenodd" clip-rule="evenodd" fill="url(#SVGID_37_)" d="M35.3,99.45c0.03,0,0.08,0.03,0.15,0.1
					c0.03,0,0.05,0.02,0.05,0.05l-0.9,12.85c-0.07,0.1-0.1,0.18-0.1,0.25c-0.1,0.03-0.17,0.05-0.2,0.05
					c-0.07-0.03-0.12-0.05-0.15-0.05c-0.1-0.07-0.1-0.15,0-0.25l0.9-12.85c0-0.03,0.02-0.08,0.05-0.15
					C35.1,99.38,35.17,99.38,35.3,99.45z"/>
				<radialGradient id="SVGID_38_" cx="29.9502" cy="105" r="9.525" gradientUnits="userSpaceOnUse">
					<stop  offset="0" style="stop-color:#FFFFFF;stop-opacity:0.2824"/>
					<stop  offset="1" style="stop-color:#FFFFFF;stop-opacity:0"/>
				</radialGradient>
				<path fill-rule="evenodd" clip-rule="evenodd" fill="url(#SVGID_38_)" d="M30.65,99c0-0.1,0.02-0.18,0.05-0.25
					c0-0.03,0.05-0.03,0.15,0l0.15,0.1c0.07,0,0.1,0.07,0.1,0.2l-1.85,12.05c-0.03,0-0.05,0.02-0.05,0.05
					c-0.07,0.07-0.12,0.1-0.15,0.1c-0.1-0.07-0.18-0.1-0.25-0.1c-0.03-0.03-0.03-0.1,0-0.2L30.65,99z"/>
				<radialGradient id="SVGID_39_" cx="43.5" cy="104.6001" r="6.0125" gradientUnits="userSpaceOnUse">
					<stop  offset="0" style="stop-color:#FFFFFF;stop-opacity:0.451"/>
					<stop  offset="1" style="stop-color:#FFFFFF;stop-opacity:0"/>
				</radialGradient>
				<path fill-rule="evenodd" clip-rule="evenodd" fill="url(#SVGID_39_)" d="M42.3,99c-0.13-0.17-0.13-0.25,0-0.25
					c0.03-0.03,0.08-0.05,0.15-0.05c0.03-0.07,0.1-0.07,0.2,0c0,0.03,0.03,0.08,0.1,0.15l1.95,11.55c0,0.07-0.02,0.15-0.05,0.25
					c-0.1,0-0.15,0.02-0.15,0.05c-0.1,0-0.15-0.02-0.15-0.05l-0.1-0.15L42.3,99z"/>
			</g>
			<g>
				<path fill-rule="evenodd" clip-rule="evenodd" fill="none" d="M47.05,112.25c-0.23,0.3-0.58,0.6-1.05,0.9
					c-0.4,0.3-0.95,0.58-1.65,0.85c-0.37,0.2-0.78,0.35-1.25,0.45c-1.83,0.6-3.98,0.93-6.45,1c-2.63,0.03-4.95-0.3-6.95-1
					c-0.2-0.07-0.42-0.12-0.65-0.15c-0.73-0.27-1.32-0.55-1.75-0.85c-0.1-0.03-0.23-0.13-0.4-0.3"/>
				<path fill-rule="evenodd" clip-rule="evenodd" fill="none" d="M43.65,95.55c-0.3,0.53-0.98,0.97-2.05,1.3
					c-0.17,0.07-0.3,0.1-0.4,0.1c-1.27,0.43-2.78,0.68-4.55,0.75c-1.67,0.1-3.13-0.05-4.4-0.45c-0.27-0.07-0.5-0.12-0.7-0.15
					c-1.13-0.47-1.8-0.98-2-1.55"/>
				<path fill-rule="evenodd" clip-rule="evenodd" fill="none" d="M45.6,111.25c-0.13,0.3-0.4,0.58-0.8,0.85
					c-0.1,0.13-0.23,0.23-0.4,0.3"/>
			</g>
			<g>
				<path fill-rule="evenodd" clip-rule="evenodd" d="M32.75,94.5c0-0.37,0.42-0.65,1.25-0.85c0.73-0.23,1.67-0.35,2.8-0.35
					c1.1,0,2.03,0.12,2.8,0.35c0.77,0.2,1.15,0.48,1.15,0.85c0,0.4-0.38,0.68-1.15,0.85c-0.77,0.23-1.7,0.35-2.8,0.35
					c-1.13,0-2.07-0.12-2.8-0.35C33.17,95.18,32.75,94.9,32.75,94.5z"/>
			</g>
			<g>
				
					<radialGradient id="SVGID_40_" cx="36.0996" cy="114.1499" r="6.675" gradientTransform="matrix(1 0 0 0.1105 0 101.5378)" gradientUnits="userSpaceOnUse">
					<stop  offset="0" style="stop-color:#FFFFFF;stop-opacity:0.8"/>
					<stop  offset="0.1765" style="stop-color:#FFFFFF;stop-opacity:0.7059"/>
					<stop  offset="0.3059" style="stop-color:#FFFFFF;stop-opacity:0.4235"/>
					<stop  offset="0.4902" style="stop-color:#FFFFFF;stop-opacity:0.2314"/>
					<stop  offset="0.651" style="stop-color:#FFFFFF;stop-opacity:0.0824"/>
					<stop  offset="1" style="stop-color:#FFFFFF;stop-opacity:0"/>
				</radialGradient>
				<path fill-rule="evenodd" clip-rule="evenodd" fill="url(#SVGID_40_)" d="M36.1,113.4c1.83,0,3.1,0.05,3.8,0.15
					c0.67,0.13,1,0.33,1,0.6c0,0.13-0.33,0.28-1,0.45c-0.7,0.13-1.97,0.2-3.8,0.2c-1.77,0-3.32-0.07-4.65-0.2
					c-0.73-0.1-1.23-0.2-1.5-0.3v-0.45c0.27-0.07,0.77-0.17,1.5-0.3C32.78,113.45,34.33,113.4,36.1,113.4z"/>
			</g>
			<g>
				
					<radialGradient id="SVGID_41_" cx="36.6504" cy="97.5498" r="5.275" gradientTransform="matrix(1 0 0 0.2346 0 74.6649)" gradientUnits="userSpaceOnUse">
					<stop  offset="0" style="stop-color:#FFFFFF;stop-opacity:0.8"/>
					<stop  offset="0.1765" style="stop-color:#FFFFFF;stop-opacity:0.7059"/>
					<stop  offset="0.3059" style="stop-color:#FFFFFF;stop-opacity:0.4235"/>
					<stop  offset="0.4902" style="stop-color:#FFFFFF;stop-opacity:0.2314"/>
					<stop  offset="0.651" style="stop-color:#FFFFFF;stop-opacity:0.0824"/>
					<stop  offset="1" style="stop-color:#FFFFFF;stop-opacity:0"/>
				</radialGradient>
				<path fill-rule="evenodd" clip-rule="evenodd" fill="url(#SVGID_41_)" d="M36.65,96.35c1.43,0,2.42,0.12,2.95,0.35
					c0.57,0.17,0.85,0.45,0.85,0.85c0,0.3-0.28,0.58-0.85,0.85c-0.53,0.23-1.52,0.35-2.95,0.35c-1.43,0-2.65-0.12-3.65-0.35
					c-0.67-0.1-1.07-0.25-1.2-0.45v-0.8c0.13-0.2,0.53-0.35,1.2-0.45C34,96.47,35.22,96.35,36.65,96.35z"/>
			</g>
			<g>
				
					<radialGradient id="SVGID_42_" cx="36.9502" cy="93.3501" r="4.375" gradientTransform="matrix(1 0 0 0.2314 0 71.7462)" gradientUnits="userSpaceOnUse">
					<stop  offset="0" style="stop-color:#FFFFFF;stop-opacity:0.8"/>
					<stop  offset="0.1765" style="stop-color:#FFFFFF;stop-opacity:0.7059"/>
					<stop  offset="0.3059" style="stop-color:#FFFFFF;stop-opacity:0.4235"/>
					<stop  offset="0.4902" style="stop-color:#FFFFFF;stop-opacity:0.2314"/>
					<stop  offset="0.651" style="stop-color:#FFFFFF;stop-opacity:0.0824"/>
					<stop  offset="1" style="stop-color:#FFFFFF;stop-opacity:0"/>
				</radialGradient>
				<path fill-rule="evenodd" clip-rule="evenodd" fill="url(#SVGID_42_)" d="M33.85,94.05c-0.47-0.07-0.78-0.2-0.95-0.4v-0.6
					c0.17-0.1,0.48-0.22,0.95-0.35c0.83-0.17,1.87-0.25,3.1-0.25c1.1,0,1.92,0.08,2.45,0.25c0.43,0.13,0.65,0.35,0.65,0.65
					c0,0.27-0.22,0.5-0.65,0.7c-0.53,0.27-1.35,0.4-2.45,0.4C35.72,94.45,34.68,94.32,33.85,94.05z"/>
			</g>
		</g>
		<g>
			<polygon fill-rule="evenodd" clip-rule="evenodd" fill="#08090E" points="130.65,83.95 129.2,87.2 34.5,87.2 33.15,83.95 			"/>
		</g>
		<g>
			<g>
				<path fill-rule="evenodd" clip-rule="evenodd" fill="#5B656E" d="M24.05,30.65h117.3v54.1H24.05V30.65z M27.05,33.8v47.9h111.1
					V33.8H27.05z"/>
				<polygon fill-rule="evenodd" clip-rule="evenodd" fill="#1E212A" points="33.9,39.05 27.05,33.8 138.15,33.8 129,39.05 
					128.1,39.05 106.85,39.05 100.1,39.05 96.4,39.05 76.6,39.05 74.35,39.05 34.85,39.05 				"/>
				<linearGradient id="SVGID_43_" gradientUnits="userSpaceOnUse" x1="128.1875" y1="57.75" x2="138.1125" y2="57.75">
					<stop  offset="0" style="stop-color:#7B838E"/>
					<stop  offset="1" style="stop-color:#535860"/>
					<stop  offset="1" style="stop-color:#1A1A1A"/>
					<stop  offset="1" style="stop-color:#7B838C"/>
				</linearGradient>
				<polygon fill-rule="evenodd" clip-rule="evenodd" fill="url(#SVGID_43_)" points="138.15,33.8 138.15,81.7 129,75.95 129,75.35 
					129,57.2 129,54.95 129,51.8 129,44.45 129,44.3 129,40.45 129,39.8 129,39.05 				"/>
				<polygon fill-rule="evenodd" clip-rule="evenodd" fill="#0E1014" points="129,75.95 128.1,75.95 128.1,75.35 128.1,39.8 
					34.85,39.8 33.9,39.35 33.9,39.05 34.85,39.05 74.35,39.05 76.6,39.05 96.4,39.05 100.1,39.05 106.85,39.05 128.1,39.05 
					129,39.05 129,39.8 129,40.45 129,44.3 129,44.45 129,51.8 129,54.95 129,57.2 129,75.35 				"/>
				<polygon fill-rule="evenodd" clip-rule="evenodd" fill="#2B303C" points="27.05,81.7 33.9,75.95 34.85,75.95 74.35,75.95 
					76.6,75.95 96.4,75.95 100.1,75.95 106.85,75.95 128.1,75.95 129,75.95 138.15,81.7 				"/>
				<polygon fill-rule="evenodd" clip-rule="evenodd" fill="#323627" points="34.85,39.8 34.85,75.35 128.1,75.35 128.1,75.95 
					106.85,75.95 100.1,75.95 96.4,75.95 76.6,75.95 74.35,75.95 34.85,75.95 33.9,75.95 33.9,75.35 33.9,57.2 33.9,54.95 
					33.9,51.8 33.9,44.45 33.9,44.3 33.9,40.45 33.9,39.35 				"/>
				<linearGradient id="SVGID_44_" gradientUnits="userSpaceOnUse" x1="27.0254" y1="57.75" x2="34.7754" y2="57.75">
					<stop  offset="0" style="stop-color:#363D41"/>
					<stop  offset="1" style="stop-color:#59646A"/>
					<stop  offset="1" style="stop-color:#393939"/>
					<stop  offset="1" style="stop-color:#1A1A1A"/>
				</linearGradient>
				<polygon fill-rule="evenodd" clip-rule="evenodd" fill="url(#SVGID_44_)" points="33.9,75.95 27.05,81.7 27.05,33.8 33.9,39.05 
					33.9,39.35 33.9,40.45 33.9,44.3 33.9,44.45 33.9,51.8 33.9,54.95 33.9,57.2 33.9,75.35 				"/>
				<linearGradient id="SVGID_45_" gradientUnits="userSpaceOnUse" x1="25.7002" y1="57.5752" x2="127.8002" y2="57.5752">
					<stop  offset="0" style="stop-color:#A7B18F"/>
					<stop  offset="1" style="stop-color:#848F67"/>
					<stop  offset="1" style="stop-color:#393939"/>
					<stop  offset="1" style="stop-color:#1A1A1A"/>
				</linearGradient>
				<rect x="34.85" y="39.8" fill-rule="evenodd" clip-rule="evenodd" fill="url(#SVGID_45_)" width="93.25" height="35.55"/>
			</g>
			<g>
				<radialGradient id="SVGID_46_" cx="27.5498" cy="48.2002" r="52.85" gradientUnits="userSpaceOnUse">
					<stop  offset="0" style="stop-color:#FFFFFF;stop-opacity:0.2902"/>
					<stop  offset="1" style="stop-color:#F9F9F9;stop-opacity:0"/>
				</radialGradient>
				<path fill-rule="evenodd" clip-rule="evenodd" fill="url(#SVGID_46_)" d="M27.05,80.85v-47.1c0-0.07,0.02-0.13,0.05-0.2L28,34.8
					l0.05-1.05v47.1c0,0.07-0.02,0.13-0.05,0.2l-1,0.75C27.03,81.23,27.05,80.92,27.05,80.85z"/>
			</g>
			<g>
				
					<radialGradient id="SVGID_47_" cx="-1836.376" cy="222.6914" r="4.5839" gradientTransform="matrix(-0.24 -0.9708 0.15 -2.0288 -346.6211 -1274.0656)" gradientUnits="userSpaceOnUse">
					<stop  offset="0" style="stop-color:#FFFFFF"/>
					<stop  offset="0.2353" style="stop-color:#FFFFFF;stop-opacity:0.7059"/>
					<stop  offset="0.5255" style="stop-color:#FFFFFF;stop-opacity:0.0863"/>
					<stop  offset="0.8" style="stop-color:#FFFFFF;stop-opacity:0.0471"/>
					<stop  offset="1" style="stop-color:#FFFFFF;stop-opacity:0"/>
				</radialGradient>
				<path fill-rule="evenodd" clip-rule="evenodd" fill="url(#SVGID_47_)" d="M129.45,50.65c0.1,4.37,0,8.77-0.3,13.2
					c-0.3,4.1-0.73,6.93-1.3,8.5c-0.57,1.77-1.07,1.77-1.5,0c-0.53-1.83-0.87-5.08-1-9.75c-0.07-3.83,0.05-8.08,0.35-12.75
					c0.37-4.37,0.83-7.33,1.4-8.9c0.5-1.8,1-1.8,1.5,0C129,42.75,129.28,45.98,129.45,50.65z"/>
			</g>
		</g>
		<g>
			
				<radialGradient id="SVGID_48_" cx="67.7002" cy="84.4502" r="37.2875" gradientTransform="matrix(1 0 0 0.0215 0 82.6383)" gradientUnits="userSpaceOnUse">
				<stop  offset="0" style="stop-color:#FFFFFF;stop-opacity:0.7059"/>
				<stop  offset="0.1765" style="stop-color:#FFFFFF;stop-opacity:0.6"/>
				<stop  offset="0.3059" style="stop-color:#FFFFFF;stop-opacity:0.298"/>
				<stop  offset="0.4902" style="stop-color:#FFFFFF;stop-opacity:0.2314"/>
				<stop  offset="0.651" style="stop-color:#FFFFFF;stop-opacity:0.0824"/>
				<stop  offset="1" style="stop-color:#FFFFFF;stop-opacity:0"/>
			</radialGradient>
			<path fill-rule="evenodd" clip-rule="evenodd" fill="url(#SVGID_48_)" d="M94.55,84.45c0,0.2-1.82,0.4-5.45,0.6
				c-4.23,0.1-11.37,0.15-21.4,0.15c-9.93,0-18.58-0.05-25.95-0.15c-4.2-0.03-7.1-0.13-8.7-0.3V84.3c1.6-0.13,4.5-0.25,8.7-0.35
				c7.37-0.17,16.02-0.25,25.95-0.25c10.03,0,17.17,0.08,21.4,0.25C92.73,84.05,94.55,84.22,94.55,84.45z"/>
		</g>
		<g>
			
				<radialGradient id="SVGID_49_" cx="64.5498" cy="30.75" r="46.5875" gradientTransform="matrix(1 0 0 0.0327 0 29.7434)" gradientUnits="userSpaceOnUse">
				<stop  offset="0" style="stop-color:#FFFFFF;stop-opacity:0.8"/>
				<stop  offset="0.1765" style="stop-color:#FFFFFF;stop-opacity:0.7059"/>
				<stop  offset="0.3059" style="stop-color:#FFFFFF;stop-opacity:0.4235"/>
				<stop  offset="0.4902" style="stop-color:#FFFFFF;stop-opacity:0.2314"/>
				<stop  offset="0.651" style="stop-color:#FFFFFF;stop-opacity:0.0824"/>
				<stop  offset="1" style="stop-color:#FFFFFF;stop-opacity:0"/>
			</radialGradient>
			<path fill-rule="evenodd" clip-rule="evenodd" fill="url(#SVGID_49_)" d="M31.95,29.65c9.27-0.3,20.13-0.45,32.6-0.45
				s21.32,0.15,26.55,0.45c4.63,0.27,6.95,0.63,6.95,1.1c0,0.33-2.32,0.68-6.95,1.05c-5.23,0.3-14.08,0.45-26.55,0.45
				s-23.33-0.15-32.6-0.45c-5.23-0.2-8.83-0.4-10.8-0.6v-0.9C23.12,30.07,26.72,29.85,31.95,29.65z"/>
		</g>
		<path fill-rule="evenodd" clip-rule="evenodd" fill="#0B0C0D" d="M136.75,136.25c-0.17-0.03-0.65-0.05-1.45-0.05h-1.6v2.55h1.5
			c0.97,0,1.57-0.03,1.8-0.1c0.27-0.1,0.47-0.25,0.6-0.45c0.13-0.2,0.2-0.45,0.2-0.75c0-0.33-0.1-0.6-0.3-0.8
			C137.33,136.45,137.08,136.32,136.75,136.25z M139.45,135.75c0.27,0.47,0.4,1,0.4,1.6c0,0.73-0.22,1.35-0.65,1.85
			s-1.08,0.82-1.95,0.95c0.43,0.23,0.78,0.5,1.05,0.8c0.3,0.33,0.68,0.88,1.15,1.65l1.25,1.95h-2.45l-1.45-2.2
			c-0.53-0.77-0.88-1.25-1.05-1.45c-0.2-0.2-0.4-0.33-0.6-0.4c-0.23-0.1-0.58-0.15-1.05-0.15h-0.4v4.2h-2v-10h4.25
			c1.07,0,1.83,0.08,2.3,0.25C138.75,134.97,139.15,135.28,139.45,135.75z M97.6,141.35l1.8-6.8h3v10h-1.85v-7.9l-2,7.9H96.6l-2-7.9
			v7.9h-1.85v-10h3L97.6,141.35z M111.85,136.2h-5.4v2.25h5v1.7h-5v2.7h5.6v1.7h-7.65v-10h7.45V136.2z M113.05,134.55H121v1.65
			h-2.95v8.35H116v-8.35h-2.95V134.55z M124.35,138.45h5v1.7h-5v2.7h5.6v1.7h-7.65v-10h7.45v1.65h-5.4V138.45z M61.65,134.55
			l-3.55,10h-2.15l-3.6-10h2.2l2.5,7.4l2.5-7.4H61.65z M66.7,134.55l4,10h-2.2l-0.85-2.3H63.6l-0.8,2.3h-2.15l3.9-10H66.7z
			 M65.6,136.85l-1.35,3.75H67L65.6,136.85z M73.75,134.55l4.1,6.65v-6.65h1.9v10H77.7L73.65,138v6.55H71.8v-10H73.75z M81.9,137.05
			c0.23-0.53,0.55-1,0.95-1.4c0.4-0.4,0.83-0.7,1.3-0.9c0.63-0.27,1.35-0.4,2.15-0.4c1.47,0,2.65,0.47,3.55,1.4
			c0.9,0.9,1.35,2.17,1.35,3.8c0,1.63-0.45,2.9-1.35,3.8c-0.87,0.9-2.03,1.35-3.5,1.35c-1.5,0-2.68-0.45-3.55-1.35
			c-0.9-0.9-1.35-2.15-1.35-3.75C81.45,138.57,81.6,137.72,81.9,137.05z M84.35,142.1c0.5,0.6,1.17,0.9,2,0.9
			c0.8,0,1.45-0.3,1.95-0.9c0.53-0.57,0.8-1.43,0.8-2.6c0-1.13-0.25-1.98-0.75-2.55c-0.5-0.57-1.17-0.85-2-0.85
			c-0.87,0-1.55,0.28-2.05,0.85c-0.5,0.57-0.75,1.43-0.75,2.6C83.55,140.68,83.82,141.53,84.35,142.1z M33.75,137.3l-2,0.4
			c-0.13-0.5-0.4-0.9-0.8-1.2c-0.4-0.27-0.88-0.4-1.45-0.4c-0.9,0-1.6,0.28-2.1,0.85c-0.53,0.53-0.8,1.35-0.8,2.45
			c0,1.2,0.27,2.1,0.8,2.7c0.53,0.6,1.23,0.9,2.1,0.9c0.4,0,0.82-0.08,1.25-0.25s0.8-0.37,1.1-0.6v-1.3h-2.3v-1.65h4.35v3.95
			c-0.43,0.43-1.05,0.8-1.85,1.1s-1.62,0.45-2.45,0.45c-1.03,0-1.95-0.22-2.75-0.65c-0.77-0.43-1.35-1.05-1.75-1.85
			c-0.4-0.83-0.6-1.73-0.6-2.7c0-1.03,0.23-1.97,0.7-2.8c0.43-0.8,1.07-1.42,1.9-1.85c0.63-0.33,1.43-0.5,2.4-0.5
			c1.23,0,2.2,0.27,2.9,0.8C33.1,135.65,33.55,136.37,33.75,137.3z M37.7,142.25l-0.8,2.3h-2.15l3.9-10h2.15l4,10h-2.2l-0.85-2.3
			H37.7z M38.35,140.6h2.75l-1.4-3.75L38.35,140.6z M47.95,142.85H53v1.7h-7.1v-9.95h2.05V142.85z"/>
	</g>
</g>
</svg>
