<?xml version="1.0" encoding="utf-8"?>
<!-- Generator: Adobe Illustrator 16.0.0, SVG Export Plug-In . SVG Version: 6.00 Build 0)  -->
<!DOCTYPE svg PUBLIC "-//W3C//DTD SVG 1.1//EN" "http://www.w3.org/Graphics/SVG/1.1/DTD/svg11.dtd">
<svg version="1.1" id="Layer_1" xmlns="http://www.w3.org/2000/svg" xmlns:xlink="http://www.w3.org/1999/xlink" x="0px" y="0px"
	 width="461.17px" height="96.67px" viewBox="0 0 461.17 96.67" enable-background="new 0 0 461.17 96.67" xml:space="preserve">
<g>
	<g>
		
			<path fill-rule="evenodd" clip-rule="evenodd" fill="none" stroke="#000000" stroke-width="4.5" stroke-linecap="round" stroke-linejoin="round" stroke-miterlimit="3" stroke-opacity="0.2745" d="
			M17.95,25.5c3.17-1.9,6.65,2.98,10.45,14.65c0.83,18.17,2.17,31.1,4,38.8c0,0.2,0.03,0.38,0.1,0.55c1.2,8,13.05,12.43,35.55,13.3
			c23.07-0.53,41.3-9.1,54.7-25.7c4.33-5.5,7.65-11.52,9.95-18.05c11.6-23.37,33.82-36.1,66.65-38.2
			c95.13-4.87,154.97,2.77,179.5,22.9c24.47,20.1,40.53,27.15,48.2,21.15c7.67-6,11.32-12.48,10.95-19.45
			c-0.33-7.03,1.55-11.87,5.65-14.5"/>
	</g>
	<g>
		
			<path fill-rule="evenodd" clip-rule="evenodd" fill="none" stroke="#000000" stroke-width="4.5" stroke-linecap="round" stroke-linejoin="round" stroke-miterlimit="3" d="
			M20.05,17.8c10.2-2.23,16.53,14.7,19,50.8c0.17,13.17,11.73,20.33,34.7,21.5c22.9,1.1,41.55-14.02,55.95-45.35
			c15.17-34.23,77.22-46.07,186.15-35.5c33.77,2.2,57.83,10.52,72.2,24.95c20.23,20,31.65,23.88,34.25,11.65
			c2.57-12.23,5.9-20.22,10-23.95c4.07-3.7,7.73-4.98,11-3.85c5.2,2.23,9.8,2.28,13.8,0.15 M3.6,20c5.03,3.47,10.35,2.83,15.95-1.9"
			/>
	</g>
	<g>
		<radialGradient id="SVGID_1_" cx="449.2002" cy="19.7998" r="8.3375" gradientUnits="userSpaceOnUse">
			<stop  offset="0" style="stop-color:#FFFFFF;stop-opacity:0.5098"/>
			<stop  offset="0.9922" style="stop-color:#F4F4F4;stop-opacity:0"/>
		</radialGradient>
		<path fill-rule="evenodd" clip-rule="evenodd" fill="url(#SVGID_1_)" d="M457.88,18.67c-0.04,0.13-0.13,0.22-0.25,0.28
			c-4.57,2.21-9.78,1.91-15.65-0.9c-0.12-0.06-0.21-0.15-0.25-0.27c-0.04-0.14-0.04-0.27,0.03-0.4c0.06-0.12,0.15-0.21,0.28-0.25
			c0.14-0.04,0.27-0.04,0.4,0.02c5.53,2.66,10.45,2.96,14.75,0.9c0.13-0.06,0.26-0.07,0.4-0.02c0.13,0.04,0.22,0.13,0.27,0.25
			C457.91,18.41,457.92,18.54,457.88,18.67z"/>
		<radialGradient id="SVGID_2_" cx="425.2002" cy="37.0498" r="19.9" gradientUnits="userSpaceOnUse">
			<stop  offset="0" style="stop-color:#FFFFFF;stop-opacity:0.7922"/>
			<stop  offset="0.9922" style="stop-color:#F4F4F4;stop-opacity:0"/>
		</radialGradient>
		<path fill-rule="evenodd" clip-rule="evenodd" fill="url(#SVGID_2_)" d="M436.53,20.13c-0.05,0.13-0.15,0.22-0.28,0.27
			c-7.82,3.48-12.3,12.79-13.45,27.95c-0.01,0.13-0.07,0.24-0.17,0.32c-0.11,0.09-0.23,0.13-0.38,0.13
			c-0.13-0.01-0.24-0.07-0.33-0.17c-0.09-0.11-0.13-0.23-0.13-0.38c1.19-15.64,5.87-25.23,14.05-28.75
			c0.13-0.06,0.25-0.07,0.38-0.02c0.13,0.05,0.22,0.15,0.28,0.27C436.56,19.87,436.57,20,436.53,20.13z"/>
		
			<radialGradient id="SVGID_3_" cx="246.75" cy="3.3999" r="93.625" gradientTransform="matrix(1 0 0 0.1283 0 2.9637)" gradientUnits="userSpaceOnUse">
			<stop  offset="0" style="stop-color:#FFFFFF;stop-opacity:0.7922"/>
			<stop  offset="0.9922" style="stop-color:#F4F4F4;stop-opacity:0"/>
		</radialGradient>
		<path fill-rule="evenodd" clip-rule="evenodd" fill="url(#SVGID_3_)" d="M341.95,13.9c0.13,0.03,0.23,0.11,0.3,0.23
			c0.08,0.11,0.12,0.24,0.1,0.38c-0.03,0.13-0.11,0.23-0.22,0.3c-0.11,0.09-0.24,0.12-0.38,0.1
			C272.67,1.98,211.78,2.57,159.08,16.67c-0.13,0.04-0.26,0.02-0.38-0.05c-0.12-0.07-0.19-0.17-0.23-0.3
			c-0.04-0.13-0.02-0.26,0.05-0.38c0.07-0.12,0.17-0.19,0.3-0.23C211.66,1.56,272.7,0.96,341.95,13.9z"/>
		<radialGradient id="SVGID_4_" cx="63.1499" cy="87.9004" r="29.3375" gradientUnits="userSpaceOnUse">
			<stop  offset="0" style="stop-color:#FFFFFF;stop-opacity:0.7922"/>
			<stop  offset="0.9922" style="stop-color:#F4F4F4;stop-opacity:0"/>
		</radialGradient>
		<path fill-rule="evenodd" clip-rule="evenodd" fill="url(#SVGID_4_)" d="M100.23,81.95c0.12-0.06,0.25-0.07,0.38-0.03
			c0.13,0.04,0.23,0.13,0.3,0.25c0.06,0.12,0.07,0.25,0.02,0.38c-0.04,0.13-0.13,0.23-0.25,0.3C76.57,94.76,56.86,93.15,41.55,78
			c-0.1-0.1-0.15-0.21-0.15-0.35c0-0.14,0.05-0.25,0.15-0.35c0.1-0.1,0.21-0.15,0.35-0.15c0.14,0,0.25,0.05,0.35,0.15
			C57.27,92.09,76.59,93.64,100.23,81.95z"/>
		<radialGradient id="SVGID_5_" cx="11.5498" cy="19.8501" r="7.675" gradientUnits="userSpaceOnUse">
			<stop  offset="0" style="stop-color:#FFFFFF;stop-opacity:0.7922"/>
			<stop  offset="0.9922" style="stop-color:#F4F4F4;stop-opacity:0"/>
		</radialGradient>
		<path fill-rule="evenodd" clip-rule="evenodd" fill="url(#SVGID_5_)" d="M3.52,20.17c-0.09-0.11-0.13-0.23-0.13-0.38
			c0.01-0.13,0.07-0.24,0.18-0.32c0.11-0.09,0.23-0.13,0.38-0.13c0.13,0.01,0.24,0.07,0.32,0.17c2.63,3.12,7.56,3.08,14.77-0.13
			c0.12-0.06,0.25-0.07,0.38-0.02c0.13,0.05,0.22,0.15,0.28,0.27c0.06,0.12,0.07,0.25,0.02,0.38c-0.05,0.13-0.15,0.22-0.27,0.27
			C11.67,23.77,6.36,23.73,3.52,20.17z"/>
	</g>
</g>
</svg>
