<?xml version="1.0" encoding="utf-8"?>
<!-- Generator: Adobe Illustrator 16.0.0, SVG Export Plug-In . SVG Version: 6.00 Build 0)  -->
<!DOCTYPE svg PUBLIC "-//W3C//DTD SVG 1.1//EN" "http://www.w3.org/Graphics/SVG/1.1/DTD/svg11.dtd">
<svg version="1.1" id="Layer_1" xmlns="http://www.w3.org/2000/svg" xmlns:xlink="http://www.w3.org/1999/xlink" x="0px" y="0px"
	 width="566px" height="147.5px" viewBox="0 0 566 147.5" enable-background="new 0 0 566 147.5" xml:space="preserve">
<g>
	<g>
		<g>
			
				<path fill-rule="evenodd" clip-rule="evenodd" fill="none" stroke="#000000" stroke-width="4.5" stroke-linecap="round" stroke-linejoin="round" stroke-miterlimit="3" stroke-opacity="0.2745" d="
				M19.6,18.5c0.2,11.77,2.77,19.15,7.7,22.15c-0.07,31.87-2.63,50.93-7.7,57.2c-7.93,12.47-3.65,22.47,12.85,30
				c18.4,6.83,38.08,11.28,59.05,13.35c20.87,2,84.47-1.47,190.8-10.4c138.17-3.63,213.88-14.57,227.15-32.8
				c9.53-11.87,16.52-28.97,20.95-51.3c2.5-18.7,4.45-28.48,5.85-29.35c1.4-0.83,2.9-1.87,4.5-3.1c0.7-0.5,1.28-1.05,1.75-1.65"/>
		</g>
	</g>
	<g>
		
			<path fill-rule="evenodd" clip-rule="evenodd" fill="none" stroke="#000000" stroke-width="4.5" stroke-linecap="round" stroke-linejoin="round" stroke-miterlimit="3" d="
			M5,11.5c5.3,2.67,11.28,2.43,17.95-0.7c6.63-3.1,4.13,18.35-7.5,64.35c-11.63,46.03,33.43,66.25,135.2,60.65
			c101.77-5.7,187.83-10.87,258.2-15.5c70.4-4.67,107.37-23.18,110.9-55.55c3.5-32.37,7.27-50.7,11.3-55
			c4.03-4.33,8.12-5.3,12.25-2.9c4.1,2.4,9.53,2.05,16.3-1.05"/>
	</g>
	<g>
		
			<radialGradient id="SVGID_1_" cx="527.1191" cy="44.5098" r="29.2998" gradientTransform="matrix(0.9999 -0.0162 0 0.9982 8.602142e-004 0.1922)" gradientUnits="userSpaceOnUse">
			<stop  offset="0" style="stop-color:#FFFFFF"/>
			<stop  offset="0.4941" style="stop-color:#FFFFFF;stop-opacity:0.298"/>
			<stop  offset="1" style="stop-color:#FFFFFF;stop-opacity:0"/>
		</radialGradient>
		<path fill-rule="evenodd" clip-rule="evenodd" fill="url(#SVGID_1_)" d="M534.67,8.13c-0.11,0.09-0.24,0.13-0.38,0.13
			c-5.5-0.53-10.19,18.21-14.05,56.2c-0.01,0.13-0.07,0.24-0.17,0.32c-0.11,0.09-0.24,0.13-0.38,0.13
			c-0.13-0.01-0.24-0.07-0.33-0.17c-0.09-0.11-0.13-0.24-0.13-0.38c3.94-38.74,8.99-57.77,15.15-57.1c0.13,0.01,0.24,0.07,0.32,0.17
			c0.09,0.11,0.13,0.24,0.13,0.38C534.84,7.93,534.78,8.04,534.67,8.13z"/>
		
			<radialGradient id="SVGID_2_" cx="550.1729" cy="17.0117" r="9.2012" gradientTransform="matrix(0.9999 -0.0163 0 0.9971 6.909370e-004 0.1558)" gradientUnits="userSpaceOnUse">
			<stop  offset="0" style="stop-color:#FFFFFF"/>
			<stop  offset="0.4941" style="stop-color:#FFFFFF;stop-opacity:0.298"/>
			<stop  offset="1" style="stop-color:#FFFFFF;stop-opacity:0"/>
		</radialGradient>
		<path fill-rule="evenodd" clip-rule="evenodd" fill="url(#SVGID_2_)" d="M541.08,5.9c-0.12-0.07-0.21-0.17-0.25-0.3
			c-0.04-0.13-0.04-0.25,0.02-0.38c0.07-0.12,0.17-0.21,0.3-0.25c0.13-0.04,0.25-0.04,0.38,0.02c5.53,2.89,11.48,2.79,17.85-0.3
			c0.13-0.06,0.26-0.07,0.4-0.03c0.13,0.04,0.22,0.13,0.27,0.25c0.06,0.13,0.07,0.26,0.03,0.4c-0.04,0.13-0.13,0.22-0.25,0.27
			C553.13,8.85,546.88,8.95,541.08,5.9z"/>
		
			<radialGradient id="SVGID_3_" cx="479.7627" cy="109.7715" r="54.6572" gradientTransform="matrix(0.9999 -0.0162 0 0.998 4.177094e-004 0.3341)" gradientUnits="userSpaceOnUse">
			<stop  offset="0" style="stop-color:#FFFFFF"/>
			<stop  offset="0.4941" style="stop-color:#FFFFFF;stop-opacity:0.298"/>
			<stop  offset="1" style="stop-color:#FFFFFF;stop-opacity:0"/>
		</radialGradient>
		<path fill-rule="evenodd" clip-rule="evenodd" fill="url(#SVGID_3_)" d="M413.35,120.1c-0.14,0.01-0.26-0.03-0.38-0.13
			c-0.1-0.08-0.16-0.19-0.17-0.32c-0.01-0.14,0.03-0.27,0.13-0.38c0.08-0.11,0.19-0.16,0.33-0.18c29.21-2.66,52.14-7.32,68.78-13.97
			H482c17.06-6.94,28.18-16.29,33.35-28.08c0.06-0.13,0.15-0.22,0.28-0.27c0.13-0.04,0.25-0.04,0.38,0.02
			c0.13,0.06,0.22,0.15,0.28,0.28c0.04,0.13,0.04,0.25-0.03,0.38c-5.23,12.02-16.51,21.56-33.85,28.63h-0.03
			C465.68,112.76,442.67,117.43,413.35,120.1z"/>
		
			<radialGradient id="SVGID_4_" cx="260.833" cy="130.8008" r="128.1929" gradientTransform="matrix(0.9999 -0.0162 0 0.998 6.928444e-004 0.3806)" gradientUnits="userSpaceOnUse">
			<stop  offset="0" style="stop-color:#FFFFFF"/>
			<stop  offset="0.4941" style="stop-color:#FFFFFF;stop-opacity:0.298"/>
			<stop  offset="1" style="stop-color:#FFFFFF;stop-opacity:0"/>
		</radialGradient>
		<path fill-rule="evenodd" clip-rule="evenodd" fill="url(#SVGID_4_)" d="M377.53,122.1c0.13-0.01,0.25,0.03,0.35,0.13
			c0.11,0.09,0.16,0.21,0.17,0.35c0.01,0.13-0.03,0.25-0.13,0.35c-0.09,0.11-0.21,0.16-0.35,0.17l-233.5,13.3
			c-0.13,0.01-0.25-0.03-0.35-0.13c-0.11-0.09-0.16-0.21-0.18-0.35c-0.01-0.13,0.03-0.25,0.13-0.35c0.09-0.11,0.21-0.16,0.35-0.17
			L377.53,122.1z"/>
		
			<radialGradient id="SVGID_5_" cx="12.3096" cy="12.2402" r="7.2929" gradientTransform="matrix(0.9999 -0.0154 0 0.9982 5.068779e-004 0.1219)" gradientUnits="userSpaceOnUse">
			<stop  offset="0" style="stop-color:#FFFFFF"/>
			<stop  offset="0.4941" style="stop-color:#FFFFFF;stop-opacity:0.298"/>
			<stop  offset="1" style="stop-color:#FFFFFF;stop-opacity:0"/>
		</radialGradient>
		<path fill-rule="evenodd" clip-rule="evenodd" fill="url(#SVGID_5_)" d="M19.5,11.9c0.13-0.03,0.26,0,0.38,0.08
			c0.12,0.08,0.19,0.19,0.23,0.32c0.03,0.13,0,0.26-0.08,0.38c-0.08,0.12-0.19,0.19-0.32,0.23c-4.94,1.04-9.88,0.87-14.83-0.52
			c-0.13-0.03-0.23-0.11-0.3-0.23c-0.07-0.12-0.09-0.24-0.05-0.38c0.03-0.13,0.11-0.23,0.23-0.3c0.12-0.07,0.24-0.09,0.38-0.05
			C9.92,12.76,14.71,12.92,19.5,11.9z"/>
		
			<radialGradient id="SVGID_6_" cx="23.0522" cy="38.6074" r="24.0833" gradientTransform="matrix(0.9999 -0.0161 0 0.9983 7.858276e-004 0.1734)" gradientUnits="userSpaceOnUse">
			<stop  offset="0" style="stop-color:#FFFFFF"/>
			<stop  offset="0.4941" style="stop-color:#FFFFFF;stop-opacity:0.298"/>
			<stop  offset="1" style="stop-color:#FFFFFF;stop-opacity:0"/>
		</radialGradient>
		<path fill-rule="evenodd" clip-rule="evenodd" fill="url(#SVGID_6_)" d="M25.63,14.67c-0.04-0.13-0.04-0.25,0.02-0.38
			c0.06-0.13,0.15-0.22,0.27-0.27c0.13-0.04,0.25-0.04,0.38,0.02c0.13,0.06,0.22,0.15,0.28,0.28c1.52,4.09-0.88,20.09-7.18,47.97
			c-0.03,0.14-0.11,0.25-0.23,0.33c-0.12,0.08-0.24,0.1-0.38,0.08c-0.14-0.03-0.25-0.11-0.32-0.23c-0.08-0.12-0.1-0.24-0.08-0.38
			C24.63,34.52,27.04,18.71,25.63,14.67z"/>
		
			<radialGradient id="SVGID_7_" cx="34.2041" cy="116.6875" r="32.9169" fx="27.4916" fy="116.6875" gradientTransform="matrix(0.9999 -0.0163 0 0.998 8.125305e-004 0.3577)" gradientUnits="userSpaceOnUse">
			<stop  offset="0" style="stop-color:#FFFFFF"/>
			<stop  offset="0.4941" style="stop-color:#FFFFFF;stop-opacity:0.298"/>
			<stop  offset="1" style="stop-color:#FFFFFF;stop-opacity:0"/>
		</radialGradient>
		<path fill-rule="evenodd" clip-rule="evenodd" fill="url(#SVGID_7_)" d="M12.45,90.13c-0.02-0.14,0.02-0.26,0.1-0.38
			c0.08-0.11,0.19-0.18,0.33-0.2c0.14-0.02,0.26,0.02,0.38,0.1c0.11,0.08,0.18,0.19,0.2,0.32c3.13,21.5,19.82,35.18,50.05,41.03
			c0.14,0.03,0.25,0.11,0.33,0.22c0.08,0.12,0.1,0.24,0.07,0.38c-0.03,0.14-0.11,0.25-0.23,0.33c-0.11,0.08-0.24,0.1-0.38,0.08
			C32.53,126.05,15.58,112.09,12.45,90.13z"/>
	</g>
</g>
</svg>
