<?xml version="1.0" encoding="utf-8"?>
<!-- Generator: Adobe Illustrator 16.0.0, SVG Export Plug-In . SVG Version: 6.00 Build 0)  -->
<!DOCTYPE svg PUBLIC "-//W3C//DTD SVG 1.1//EN" "http://www.w3.org/Graphics/SVG/1.1/DTD/svg11.dtd">
<svg version="1.1" xmlns="http://www.w3.org/2000/svg" xmlns:xlink="http://www.w3.org/1999/xlink" x="0px" y="0px"
	 width="297.33px" height="158px" viewBox="0 0 297.33 158" enable-background="new 0 0 297.33 158" xml:space="preserve">
<g id="BG">
</g>
<g id="objects">
	<g>
		<g>
			
				<path fill-rule="evenodd" clip-rule="evenodd" fill="none" stroke="#000000" stroke-width="4.5" stroke-linecap="round" stroke-linejoin="round" stroke-miterlimit="3" stroke-opacity="0.2745" d="
				M22.77,98.75c7.53-1.17,11.98,1.13,13.35,6.9c1.3,5.7,2.45,16.63,3.45,32.8c-1.8,11,7.2,15.43,27,13.3
				c10.8-1.3,19.92-7.93,27.35-19.9c7.43-11.93,14.72-22.77,21.85-32.5c7.07-9.73,19.62-21.97,37.65-36.7
				c15.17-8.37,18.27-14.45,9.3-18.25c-7.47-2.87-7.55-5.75-0.25-8.65c3.33-0.63,45.73-0.63,127.2,0"/>
		</g>
		<g>
			
				<path fill-rule="evenodd" clip-rule="evenodd" fill="none" stroke="#000000" stroke-width="4.5" stroke-linecap="round" stroke-linejoin="round" stroke-miterlimit="3" d="
				M6.57,99.2c5.83,2.4,11.55,2.2,17.15-0.6c0.3-0.2,0.62-0.37,0.95-0.5c8.37-4.1,14.22-2.32,17.55,5.35
				c3.27,7.63,5.28,13.98,6.05,19.05c0.8,5.03,1.65,11.82,2.55,20.35c0.93,8.5,7.43,10.17,19.5,5
				c12.07-5.17,20.92-13.08,26.55-23.75c5.5-10.7,11.8-20.9,18.9-30.6c7.07-9.73,19.62-21.97,37.65-36.7
				c15.17-8.37,18.27-14.45,9.3-18.25c-7.47-2.9-8.55-8.83-3.25-17.8c6.7-15.03,12.42-18.6,17.15-10.7c3.23,5.43,41.3,7.7,114.2,6.8
				"/>
		</g>
		<g>
			<path fill-rule="evenodd" clip-rule="evenodd" fill="none" d="M170.32,5c-8.53,8.17-13.37,17-14.5,26.5"/>
			<path fill-rule="evenodd" clip-rule="evenodd" fill="none" d="M26.67,97.6c10.9-5,17.77,2.57,20.6,22.7"/>
			<path fill-rule="evenodd" clip-rule="evenodd" fill="none" d="M51.92,147.25c2.5,6.07,11.88,4.6,28.15-4.4"/>
			<path fill-rule="evenodd" clip-rule="evenodd" fill="none" d="M97.97,120.6c11.6-23.17,28.78-43.38,51.55-60.65"/>
			<path fill-rule="evenodd" clip-rule="evenodd" fill="none" d="M7.12,98.6c4.67,3.1,9.73,3.1,15.2,0"/>
			<path fill-rule="evenodd" clip-rule="evenodd" fill="none" d="M192.67,14.5c31.7,1.97,64.42,2.75,98.15,2.35"/>
		</g>
	</g>
</g>
</svg>
