<?xml version="1.0" encoding="utf-8"?>
<!-- Generator: Adobe Illustrator 16.0.0, SVG Export Plug-In . SVG Version: 6.00 Build 0)  -->
<!DOCTYPE svg PUBLIC "-//W3C//DTD SVG 1.1//EN" "http://www.w3.org/Graphics/SVG/1.1/DTD/svg11.dtd">
<svg version="1.1" id="Layer_1" xmlns="http://www.w3.org/2000/svg" xmlns:xlink="http://www.w3.org/1999/xlink" x="0px" y="0px"
	 width="369px" height="241px" viewBox="0 0 369 241" enable-background="new 0 0 369 241" xml:space="preserve">
<g>
	<g>
		
			<path fill-rule="evenodd" clip-rule="evenodd" fill="none" stroke="#000000" stroke-width="3" stroke-linecap="round" stroke-linejoin="round" stroke-miterlimit="3" stroke-opacity="0.2745" d="
			M19.45,16.35c5.53-0.77,9.02,0.17,10.45,2.8c2.03,7.73,2.8,17.25,2.3,28.55c-1.13,13.03-1.85,23.05-2.15,30.05
			c-0.53,12.63,0.65,26.62,3.55,41.95c1.23,8.2,6.18,23.12,14.85,44.75c3.83,9.67,8.65,17.38,14.45,23.15
			c6.03,6.13,14.35,11.45,24.95,15.95c10.1,4.23,24.25,8.52,42.45,12.85c13.67,3.27,35.8,7.98,66.4,14.15
			c37.47,7.6,68.53,6.92,93.2-2.05c17.6-6.37,31.02-12.33,40.25-17.9c5.5-4.43,7.98-9.27,7.45-14.5c0.97-16.33,8.37-25.93,22.2-28.8
			c-1.97-2.47-2.95-5.68-2.95-9.65c0-3.93,0.98-7.1,2.95-9.5"/>
	</g>
	<g>
		
			<path fill-rule="evenodd" clip-rule="evenodd" fill="none" stroke="#AE0000" stroke-width="4.5" stroke-linecap="round" stroke-linejoin="round" stroke-miterlimit="3" d="
			M25.9,6.5c8.73,0.03,11.72,16.95,8.95,50.75c-1.57,36.63,4.07,70.02,16.9,100.15c12.77,30.07,35.42,48.22,67.95,54.45
			c64.43,15,113.73,20.62,147.9,16.85c33.9-3.67,54.65-16.8,62.25-39.4c9.9-26.13,17.55-42.88,22.95-50.25
			c5.23-7.17,8.05-5.2,8.45,5.9 M9.3,7.45c5.07,3.67,10.45,3.22,16.15-1.35"/>
	</g>
	<g>
		
			<radialGradient id="SVGID_1_" cx="361.2422" cy="124.5469" r="7.7919" gradientTransform="matrix(0.9994 0.0337 0 0.993 -0.0371 3.2039)" gradientUnits="userSpaceOnUse">
			<stop  offset="0" style="stop-color:#FFFFFF"/>
			<stop  offset="0.4941" style="stop-color:#FFFFFF;stop-opacity:0.298"/>
			<stop  offset="1" style="stop-color:#FFFFFF;stop-opacity:0"/>
		</radialGradient>
		<path fill-rule="evenodd" clip-rule="evenodd" fill="url(#SVGID_1_)" d="M356.92,135.35c-0.14,0-0.25-0.05-0.35-0.15
			c-0.09-0.11-0.13-0.23-0.13-0.38c0-0.14,0.05-0.25,0.15-0.35c0.11-0.09,0.23-0.13,0.38-0.13c2.06,0.04,3.52,1.1,4.38,3.18
			c0.8,1.92,1.03,4.78,0.7,8.57c-0.01,0.13-0.07,0.24-0.17,0.33c-0.11,0.09-0.23,0.13-0.38,0.13c-0.13-0.01-0.24-0.07-0.33-0.17
			c-0.09-0.11-0.13-0.23-0.13-0.38c0.31-3.57,0.1-6.27-0.63-8.08C359.74,136.26,358.57,135.41,356.92,135.35z"/>
		
			<radialGradient id="SVGID_2_" cx="324.4609" cy="172.8213" r="37.6079" gradientTransform="matrix(0.9995 0.0329 0 0.9938 -0.0351 3.3725)" gradientUnits="userSpaceOnUse">
			<stop  offset="0" style="stop-color:#FFFFFF"/>
			<stop  offset="0.4941" style="stop-color:#FFFFFF;stop-opacity:0.298"/>
			<stop  offset="1" style="stop-color:#FFFFFF;stop-opacity:0"/>
		</radialGradient>
		<path fill-rule="evenodd" clip-rule="evenodd" fill="url(#SVGID_2_)" d="M344.4,153.35c0.06,0.12,0.07,0.25,0.02,0.38
			c-8.01,21.99-14.38,37.53-19.13,46.6c-4.84,9.11-14.02,16.29-27.52,21.55c-0.13,0.04-0.25,0.04-0.38-0.03
			c-0.13-0.05-0.22-0.15-0.28-0.27c-0.04-0.13-0.04-0.25,0.03-0.38c0.05-0.13,0.15-0.22,0.27-0.28
			c13.23-5.14,22.22-12.16,26.98-21.05c4.73-9.06,11.08-24.56,19.07-46.5c0.05-0.13,0.15-0.22,0.28-0.28
			c0.12-0.06,0.25-0.07,0.38-0.02C344.25,153.13,344.34,153.22,344.4,153.35z"/>
		
			<radialGradient id="SVGID_3_" cx="189.4893" cy="213.3047" r="83.6081" gradientTransform="matrix(0.9995 0.033 0 0.9938 -0.0357 3.6633)" gradientUnits="userSpaceOnUse">
			<stop  offset="0" style="stop-color:#FFFFFF"/>
			<stop  offset="0.4941" style="stop-color:#FFFFFF;stop-opacity:0.298"/>
			<stop  offset="1" style="stop-color:#FFFFFF;stop-opacity:0"/>
		</radialGradient>
		<path fill-rule="evenodd" clip-rule="evenodd" fill="url(#SVGID_3_)" d="M267.85,227.3c0.14-0.02,0.26,0.01,0.38,0.1
			c0.12,0.07,0.19,0.17,0.23,0.3c0.02,0.14-0.01,0.26-0.1,0.38c-0.07,0.12-0.17,0.19-0.3,0.22c-30.68,5.75-84.57-0.96-161.67-20.13
			c-0.13-0.03-0.23-0.11-0.3-0.22c-0.07-0.12-0.09-0.24-0.05-0.38c0.03-0.13,0.11-0.23,0.23-0.3c0.12-0.07,0.24-0.09,0.38-0.05
			C183.52,226.33,237.26,233.02,267.85,227.3z"/>
		
			<radialGradient id="SVGID_4_" cx="15.9434" cy="6.979" r="7.6416" gradientTransform="matrix(0.9995 0.0327 0 0.9929 -0.0348 2.2491)" gradientUnits="userSpaceOnUse">
			<stop  offset="0" style="stop-color:#FFFFFF"/>
			<stop  offset="0.4941" style="stop-color:#FFFFFF;stop-opacity:0.298"/>
			<stop  offset="1" style="stop-color:#FFFFFF;stop-opacity:0"/>
		</radialGradient>
		<path fill-rule="evenodd" clip-rule="evenodd" fill="url(#SVGID_4_)" d="M9.08,7.63C8.96,7.55,8.88,7.44,8.85,7.3
			c-0.03-0.13,0-0.26,0.07-0.38C9,6.81,9.11,6.73,9.25,6.7c0.13-0.03,0.26,0,0.38,0.07c4.08,2.57,8.99,2.72,14.75,0.45
			c0.13-0.04,0.25-0.04,0.38,0.02c0.13,0.06,0.22,0.15,0.27,0.27C25.07,7.65,25.06,7.78,25,7.9c-0.06,0.13-0.15,0.22-0.27,0.27
			C18.62,10.58,13.4,10.39,9.08,7.63z"/>
		
			<radialGradient id="SVGID_5_" cx="45.6099" cy="117.123" r="78.5551" gradientTransform="matrix(0.9995 0.0329 0 0.9939 -0.0354 2.9901)" gradientUnits="userSpaceOnUse">
			<stop  offset="0" style="stop-color:#FFFFFF"/>
			<stop  offset="0.4941" style="stop-color:#FFFFFF;stop-opacity:0.298"/>
			<stop  offset="1" style="stop-color:#FFFFFF;stop-opacity:0"/>
		</radialGradient>
		<path fill-rule="evenodd" clip-rule="evenodd" fill="url(#SVGID_5_)" d="M35.2,38.6c0.01-0.13,0.07-0.24,0.17-0.33
			c0.11-0.09,0.23-0.13,0.38-0.13c0.13,0.01,0.24,0.07,0.33,0.18c0.09,0.11,0.13,0.23,0.13,0.38
			c-5.65,65.14,7.47,115.83,39.38,152.08c0.09,0.1,0.13,0.22,0.13,0.35c-0.01,0.14-0.07,0.26-0.18,0.35
			c-0.1,0.09-0.22,0.13-0.35,0.13c-0.14-0.01-0.26-0.07-0.35-0.17C42.73,155.01,29.52,104.06,35.2,38.6z"/>
	</g>
</g>
</svg>
