<?xml version="1.0" encoding="utf-8"?>
<!-- Generator: Adobe Illustrator 16.0.0, SVG Export Plug-In . SVG Version: 6.00 Build 0)  -->
<!DOCTYPE svg PUBLIC "-//W3C//DTD SVG 1.1//EN" "http://www.w3.org/Graphics/SVG/1.1/DTD/svg11.dtd">
<svg version="1.1" id="Layer_1" xmlns="http://www.w3.org/2000/svg" xmlns:xlink="http://www.w3.org/1999/xlink" x="0px" y="0px"
	 width="251px" height="182px" viewBox="0 0 251 182" enable-background="new 0 0 251 182" xml:space="preserve">
<g>
	<g>
		
			<path fill-rule="evenodd" clip-rule="evenodd" fill="none" stroke="#000000" stroke-width="4.5" stroke-linecap="round" stroke-linejoin="round" stroke-miterlimit="3" stroke-opacity="0.2745" d="
			M24.65,110.05c7.5-2.07,11.93-0.2,13.3,5.6c1.33,5.77,2.48,16.93,3.45,33.5c-6.4,13.5-4.72,21.92,5.05,25.25
			c9.67,3.27,31.3,2.47,64.9-2.4c33.57-4.93,55.65-8.45,66.25-10.55c1.27-0.23,5.22-0.68,11.85-1.35c8-0.9,16.05-2.2,24.15-3.9
			 M216.55,36.9l19-2"/>
	</g>
	<g>
		
			<path fill-rule="evenodd" clip-rule="evenodd" fill="none" stroke="#AE0000" stroke-width="4.5" stroke-linecap="round" stroke-linejoin="round" stroke-miterlimit="3" d="
			M7.6,102.45c6.23,2.47,12.5,1.6,18.8-2.6c9.3-3.1,15.18-0.08,17.65,9.05c2.43,9.13,3.85,16.05,4.25,20.75
			c0.37,4.63,0.13,13.68-0.7,27.15c-0.83,13.43,10.32,18.15,33.45,14.15c23.13-4.07,51.15-7.73,84.05-11
			c32.83-3.33,43.75-16.2,32.75-38.6c-11.03-22.33-9.48-45.98,4.65-70.95c14.03-25,24.52-39.4,31.45-43.2
			c6.87-3.73,10.7-1.12,11.5,7.85"/>
	</g>
	<g>
		<g>
			
				<radialGradient id="SVGID_1_" cx="242.2041" cy="44.9727" r="7.7068" fx="242.1134" fy="44.9727" gradientTransform="matrix(0.9943 -0.107 0 0.9359 -0.7125 -9.2109)" gradientUnits="userSpaceOnUse">
				<stop  offset="0" style="stop-color:#FFFFFF"/>
				<stop  offset="0.4941" style="stop-color:#FFFFFF;stop-opacity:0.298"/>
				<stop  offset="1" style="stop-color:#FFFFFF;stop-opacity:0"/>
			</radialGradient>
			<path fill-rule="evenodd" clip-rule="evenodd" fill="url(#SVGID_1_)" d="M234.83,7.4c-0.12,0.06-0.25,0.07-0.38,0.02
				c-0.13-0.04-0.23-0.13-0.3-0.25c-0.06-0.12-0.07-0.25-0.03-0.38c0.04-0.13,0.13-0.23,0.25-0.3c3.47-1.74,6.17-1.87,8.1-0.38
				c1.93,1.39,3.09,4.35,3.48,8.88c0.01,0.14-0.03,0.27-0.13,0.38c-0.08,0.11-0.19,0.16-0.33,0.17c-0.14,0.01-0.27-0.03-0.38-0.13
				c-0.11-0.08-0.16-0.19-0.17-0.32c-0.35-4.14-1.36-6.87-3.05-8.18C240.21,5.72,237.86,5.88,234.83,7.4z"/>
			
				<radialGradient id="SVGID_2_" cx="198.0566" cy="99.7666" r="28.5271" gradientTransform="matrix(0.9942 -0.1072 0 1.6948 -0.7147 -81.1162)" gradientUnits="userSpaceOnUse">
				<stop  offset="0" style="stop-color:#FFFFFF"/>
				<stop  offset="0.4941" style="stop-color:#FFFFFF;stop-opacity:0.298"/>
				<stop  offset="1" style="stop-color:#FFFFFF;stop-opacity:0"/>
			</radialGradient>
			<path fill-rule="evenodd" clip-rule="evenodd" fill="url(#SVGID_2_)" d="M224.92,14.88c0.08-0.11,0.19-0.16,0.33-0.17
				c0.14-0.01,0.27,0.03,0.38,0.13c0.11,0.08,0.16,0.19,0.17,0.32c0.01,0.14-0.03,0.27-0.13,0.38c-2.62,3.09-5.5,7-8.65,11.75
				c-4.23,6.33-8.93,14.12-14.1,23.38c-12.74,22.58-15.18,44.06-7.3,64.43c0.04,0.13,0.04,0.25-0.03,0.38
				c-0.05,0.13-0.15,0.22-0.27,0.27c-0.13,0.04-0.25,0.04-0.38-0.02c-0.13-0.06-0.22-0.15-0.28-0.28
				c-7.99-20.63-5.52-42.39,7.4-65.27c5.17-9.28,9.87-17.09,14.1-23.42C219.36,21.94,222.28,17.99,224.92,14.88z"/>
			
				<radialGradient id="SVGID_3_" cx="203.0371" cy="174.0967" r="10.8375" gradientTransform="matrix(0.9942 -0.1073 0 1.5167 -0.7154 -101.3275)" gradientUnits="userSpaceOnUse">
				<stop  offset="0" style="stop-color:#FFFFFF"/>
				<stop  offset="0.4941" style="stop-color:#FFFFFF;stop-opacity:0.298"/>
				<stop  offset="1" style="stop-color:#FFFFFF;stop-opacity:0"/>
			</radialGradient>
			<path fill-rule="evenodd" clip-rule="evenodd" fill="url(#SVGID_3_)" d="M200.08,128.25c-0.04-0.13-0.04-0.25,0.02-0.38
				c0.07-0.12,0.17-0.21,0.3-0.25c0.13-0.04,0.25-0.04,0.38,0.03c0.12,0.07,0.21,0.17,0.25,0.3c4.31,13.64-1.02,23.11-16,28.42
				c-0.14,0.04-0.27,0.04-0.4-0.03c-0.12-0.06-0.21-0.15-0.25-0.27c-0.04-0.14-0.04-0.27,0.03-0.4c0.06-0.12,0.15-0.21,0.27-0.25
				C199.03,150.34,204.16,141.28,200.08,128.25z"/>
			
				<radialGradient id="SVGID_4_" cx="44.0522" cy="124.2988" r="7.2913" gradientTransform="matrix(0.9943 -0.1063 0 2.1533 -0.7022 -154.9138)" gradientUnits="userSpaceOnUse">
				<stop  offset="0" style="stop-color:#FFFFFF"/>
				<stop  offset="0.4941" style="stop-color:#FFFFFF;stop-opacity:0.298"/>
				<stop  offset="1" style="stop-color:#FFFFFF;stop-opacity:0"/>
			</radialGradient>
			<path fill-rule="evenodd" clip-rule="evenodd" fill="url(#SVGID_4_)" d="M33.33,99.03c-0.09-0.1-0.13-0.22-0.13-0.35
				c0.01-0.14,0.07-0.26,0.17-0.35c0.1-0.09,0.22-0.13,0.35-0.13c5.4,0.32,9,3.85,10.8,10.58c2.25,8.5,3.64,15.07,4.18,19.72
				c0.02,0.13-0.02,0.25-0.1,0.35c-0.09,0.11-0.21,0.18-0.35,0.2c-0.13,0.02-0.25-0.02-0.35-0.1c-0.11-0.09-0.18-0.21-0.2-0.35
				c-0.53-4.61-1.9-11.14-4.13-19.57c-1.66-6.21-4.96-9.48-9.9-9.83C33.54,99.19,33.42,99.13,33.33,99.03z"/>
			
				<radialGradient id="SVGID_5_" cx="18.2651" cy="116.6182" r="15.0864" gradientTransform="matrix(0.9943 -0.1069 0 0.2892 -0.7103 71.2303)" gradientUnits="userSpaceOnUse">
				<stop  offset="0" style="stop-color:#FFFFFF"/>
				<stop  offset="0.4941" style="stop-color:#FFFFFF;stop-opacity:0.298"/>
				<stop  offset="1" style="stop-color:#FFFFFF;stop-opacity:0"/>
			</radialGradient>
			<path fill-rule="evenodd" clip-rule="evenodd" fill="url(#SVGID_5_)" d="M29.42,98.97c0.04,0.13,0.02,0.26-0.05,0.38
				c-0.07,0.12-0.17,0.19-0.3,0.23c-0.8,0.2-1.61,0.44-2.45,0.72c-6.43,4.28-12.83,5.15-19.2,2.63c-0.13-0.05-0.22-0.15-0.27-0.27
				c-0.06-0.13-0.07-0.25-0.02-0.38c0.05-0.13,0.15-0.22,0.27-0.28c0.12-0.06,0.25-0.07,0.38-0.03c6.08,2.4,12.2,1.55,18.35-2.55
				c0.03-0.02,0.06-0.04,0.1-0.05c0.88-0.3,1.75-0.55,2.6-0.75c0.13-0.04,0.26-0.02,0.38,0.05C29.32,98.74,29.39,98.84,29.42,98.97z
				"/>
			
				<radialGradient id="SVGID_6_" cx="49.7021" cy="181.8037" r="18.1799" gradientTransform="matrix(0.9942 -0.1073 0 1.129 -0.7155 -34.7746)" gradientUnits="userSpaceOnUse">
				<stop  offset="0" style="stop-color:#FFFFFF"/>
				<stop  offset="0.4941" style="stop-color:#FFFFFF;stop-opacity:0.298"/>
				<stop  offset="1" style="stop-color:#FFFFFF;stop-opacity:0"/>
			</radialGradient>
			<path fill-rule="evenodd" clip-rule="evenodd" fill="url(#SVGID_6_)" d="M48.85,133.25c0.1,0.1,0.15,0.21,0.15,0.35
				c0,2.84-0.07,6.45-0.2,10.83c-0.17,3.57-0.4,7.7-0.7,12.4c-0.4,6.47,2.07,10.84,7.42,13.13c5.52,2.31,13.99,2.48,25.43,0.5
				c0.92-0.2,1.82-0.35,2.7-0.45c0.13-0.02,0.25,0.02,0.35,0.1c0.11,0.09,0.18,0.21,0.2,0.35c0.02,0.13-0.02,0.25-0.1,0.35
				c-0.09,0.11-0.21,0.18-0.35,0.2c-0.85,0.1-1.72,0.25-2.6,0.45h-0.02c-11.69,2.02-20.35,1.83-25.98-0.58
				c-5.8-2.44-8.48-7.14-8.05-14.1c0.3-4.7,0.53-8.83,0.7-12.4c0.13-4.36,0.2-7.95,0.2-10.78c0-0.14,0.05-0.25,0.15-0.35
				c0.1-0.1,0.21-0.15,0.35-0.15C48.64,133.1,48.75,133.15,48.85,133.25z"/>
			
				<radialGradient id="SVGID_7_" cx="128.7041" cy="189.8018" r="43.5254" gradientTransform="matrix(0.9942 -0.1071 0 0.0853 -0.7135 162.3482)" gradientUnits="userSpaceOnUse">
				<stop  offset="0" style="stop-color:#FFFFFF"/>
				<stop  offset="0.4941" style="stop-color:#FFFFFF;stop-opacity:0.298"/>
				<stop  offset="1" style="stop-color:#FFFFFF;stop-opacity:0"/>
			</radialGradient>
			<path fill-rule="evenodd" clip-rule="evenodd" fill="url(#SVGID_7_)" d="M85.5,169.85c0.08-0.11,0.19-0.18,0.33-0.2
				c22.14-3.77,48.55-7.17,79.22-10.2c1.16-0.13,2.32-0.3,3.48-0.5c0.14-0.02,0.26,0.01,0.38,0.1c0.11,0.08,0.18,0.19,0.2,0.33
				c0.02,0.14-0.01,0.26-0.1,0.38c-0.08,0.11-0.19,0.18-0.33,0.2c-1.17,0.2-2.35,0.37-3.52,0.5c-30.66,3.03-57.05,6.43-79.18,10.2
				c-0.14,0.02-0.26-0.02-0.38-0.1c-0.11-0.08-0.18-0.19-0.2-0.33C85.38,170.09,85.42,169.96,85.5,169.85z"/>
		</g>
	</g>
</g>
</svg>
