<?xml version="1.0" encoding="utf-8"?>
<!-- Generator: Adobe Illustrator 16.0.0, SVG Export Plug-In . SVG Version: 6.00 Build 0)  -->
<!DOCTYPE svg PUBLIC "-//W3C//DTD SVG 1.1//EN" "http://www.w3.org/Graphics/SVG/1.1/DTD/svg11.dtd">
<svg version="1.1" id="Layer_1" xmlns="http://www.w3.org/2000/svg" xmlns:xlink="http://www.w3.org/1999/xlink" x="0px" y="0px"
	 width="431px" height="131px" viewBox="0 0 431 131" enable-background="new 0 0 431 131" xml:space="preserve">
<g>
	<g>
		
			<path fill-rule="evenodd" clip-rule="evenodd" fill="none" stroke="#000000" stroke-width="4.5" stroke-linecap="round" stroke-linejoin="round" stroke-miterlimit="3" stroke-opacity="0.2745" d="
			M137.9,100.55c31.37,0.3,49.32,2.85,53.85,7.65c4.5,4.73,8.75,8.22,12.75,10.45c4,2.2,17.45,3.92,40.35,5.15
			c22.87,1.17,37.97,0.77,45.3-1.2c7.27-2,12.42-3.88,15.45-5.65c3.03-1.8,4.98-3.02,5.85-3.65c7.03-4.93,10.8-7.87,11.3-8.8
			c0.03-0.2,0.23-0.38,0.6-0.55c1.93-1.27,8.4-3.45,19.4-6.55c12.8-3.67,24.77-9.77,35.9-18.3c11.07-8.6,20.73-15.68,29-21.25
			c8.2-5.6,12.83-10.75,13.9-15.45c1.03-4.73,1.55-9.52,1.55-14.35c0-1.17-0.48-3.15-1.45-5.95c-0.97-2.6-1.45-3.95-1.45-4.05
			c0-1.83,0.65-3.28,1.95-4.35c0.73-0.6,1.83-1.38,3.3-2.35 M7.45,69.95c-0.07,3.37,2.08,6.68,6.45,9.95c4.3,3.27,34.92,5,91.85,5.2
			 M110.8,89.65c1.33-0.93,9.27,0.08,23.8,3.05"/>
	</g>
	<g>
		
			<path fill-rule="evenodd" clip-rule="evenodd" fill="none" stroke="#000000" stroke-width="4.5" stroke-linecap="round" stroke-linejoin="round" stroke-miterlimit="3" d="
			M7.65,69.3c0.5,3.83,7.95,6.88,22.35,9.15c13.83,2.13,34.92,3.67,63.25,4.6c55.47,1.8,88.2,5.12,98.2,9.95
			c10.03,4.8,15.68,10.63,16.95,17.5c1.27,6.9,19.27,10.47,54,10.7c34.67,0.27,54.32-7.15,58.95-22.25c4.6-15.1,10-24.58,16.2-28.45
			c11.07-6.93,22.78-12.98,35.15-18.15c4.17-1.77,13.15-5.17,26.95-10.2c8.5-3.1,14.3-5.8,17.4-8.1c4.03-3.07,6.05-7.02,6.05-11.85
			c0-1.2-0.48-3.18-1.45-5.95c-0.97-2.6-1.45-3.95-1.45-4.05c0-1.83,0.65-3.3,1.95-4.4c0.73-0.57,1.83-1.35,3.3-2.35"/>
	</g>
</g>
</svg>
